<svg width="279" height="39" viewBox="0 0 279 39" fill="none" xmlns="http://www.w3.org/2000/svg">
<path d="M190.992 0.811375L171.778 38.1886H160.463L160 0.811375H167.46L167.462 31.8599L183.587 0.811375H190.992ZM216.865 0.811375L215.329 6.11235H201.561L200.025 16.552H212.038L211.325 21.853H199.312L197.776 32.8336H212.532L211.764 38.1886H189.822L195.143 0.811375H216.865ZM247.881 0.811375L246.291 6.49099H236.527L232.029 38.1886H224.843L229.341 6.49099H219.248L220.071 0.811375H247.881ZM264.903 0C269.327 0 272.783 1.33426 275.27 4.00278C277.757 6.63523 279 10.3856 279 15.2538C279 18.9681 278.36 22.6463 277.08 26.2885C275.8 29.8946 273.716 32.9237 270.827 35.3759C267.938 37.792 264.226 39 259.691 39C255.267 39 251.811 37.6838 249.324 35.0513C246.838 32.3828 245.594 28.6325 245.594 23.8003C245.594 20.1221 246.234 16.4799 247.514 12.8738C248.794 9.23163 250.879 6.18447 253.767 3.73232C256.656 1.24411 260.368 0 264.903 0ZM264.464 5.46325C261.648 5.46325 259.381 6.49099 257.662 8.54646C255.943 10.5659 254.736 13.018 254.041 15.9029C253.347 18.7517 252.999 21.5284 252.999 24.233C252.999 30.4355 255.358 33.5368 260.075 33.5368C262.928 33.5368 265.195 32.527 266.877 30.5076C268.596 28.4522 269.803 26 270.498 23.1512C271.192 20.2663 271.54 17.4535 271.54 14.7129C271.54 11.5035 270.936 9.1595 269.73 7.681C268.559 6.2025 266.804 5.46325 264.464 5.46325Z" fill="white"/>
<path d="M25.7613 0.811374L24.3212 6.11235H11.4139L9.86717 17.3093H21.0677L20.3744 22.6103H9.12046L6.98702 38.1886H0L5.1736 0.811374H25.7613ZM42.3818 38.1886L41.3151 29.534H29.1544L25.7409 38.1886H18.4872L35.0214 0.811374H43.5552L49.6888 38.1886H42.3818ZM31.2879 24.1248H40.675L38.4882 6.00416L31.2879 24.1248ZM71.9007 0C76.1676 0 79.67 1.38835 82.4079 4.16505L78.5677 7.95146C77.5365 7.12205 76.5054 6.50902 75.4742 6.11235C74.443 5.71567 73.323 5.51734 72.114 5.51734C69.4472 5.51734 67.2604 6.47296 65.5537 8.38419C63.8469 10.2954 62.6202 12.6574 61.8735 15.4702C61.1268 18.2469 60.7534 21.0416 60.7534 23.8544C60.7534 27.0638 61.3935 29.4438 62.6735 30.9945C63.9536 32.509 65.7137 33.2663 67.9538 33.2663C69.4117 33.2663 70.7451 32.9958 71.954 32.4549C73.163 31.914 74.4608 31.1387 75.8475 30.129L78.6744 34.5645C77.1809 35.8627 75.4564 36.9265 73.5008 37.7559C71.5807 38.5853 69.4472 39 67.1004 39C62.9402 39 59.6334 37.6657 57.1799 34.9972C54.7265 32.3287 53.4997 28.5423 53.4997 23.638C53.4997 19.9598 54.1398 16.3176 55.4198 12.7115C56.6999 9.06935 58.7267 6.04022 61.5002 3.62413C64.2736 1.20805 67.7405 0 71.9007 0ZM109.32 0.811374L107.826 6.11235H94.439L92.9456 16.552H104.626L103.933 21.853H92.2522L90.7588 32.8336H105.106L104.359 38.1886H83.0251L88.1987 0.811374H109.32ZM123.104 0.811374L117.93 38.1886H110.943L116.117 0.811374H123.104ZM155 0.811374L153.453 6.49099H143.959L139.586 38.1886H132.598L136.972 6.49099H127.158L127.958 0.811374H155Z" fill="#FF5500"/>
</svg>
