<svg width="164" height="27" viewBox="0 0 164 27" fill="none" xmlns="http://www.w3.org/2000/svg">
<g clip-path="url(#clip0_101_3)">
<path d="M0.73 26.3328V0.653222H15.589L15.121 4.66142H6.463V11.3191H12.586V15.5311H6.463V25.9252L0.73 26.3328ZM14.0665 26.129L20.2285 0.958933L28.3795 0.653222L34.6975 25.9252L28.4575 26.129L27.4045 20.6602H20.4235L19.1755 26.129H14.0665ZM21.4765 16.5841H26.3515L23.6605 4.38967L21.4765 16.5841ZM43.463 26.6046C40.109 26.6046 37.743 25.2798 36.365 22.6304C35.013 19.9809 34.337 16.72 34.337 12.8476C34.337 10.7643 34.649 8.76019 35.273 6.83535C35.897 4.91051 36.898 3.32535 38.276 2.07987C39.68 0.811738 41.448 0.177673 43.58 0.177673C45.218 0.177673 46.648 0.619254 47.87 1.50242C49.118 2.38558 50.067 3.54048 50.717 4.96713C51.393 6.37113 51.731 7.84306 51.731 9.38293L46.193 9.62071C46.193 8.60168 45.998 7.44677 45.608 6.156C45.218 4.84258 44.438 4.18587 43.268 4.18587C42.046 4.18587 41.201 5.03506 40.733 6.73345C40.265 8.43184 40.031 10.4699 40.031 12.8476C40.031 15.7915 40.291 18.1579 40.811 19.9469C41.331 21.7132 42.332 22.5964 43.814 22.5964C44.854 22.5964 45.595 22.0642 46.037 20.9999C46.479 19.9129 46.765 18.5995 46.895 17.0596L51.77 17.4673C51.77 19.0977 51.458 20.6149 50.834 22.0189C50.21 23.4003 49.274 24.5099 48.026 25.3478C46.778 26.1856 45.257 26.6046 43.463 26.6046ZM53.543 26.129V0.653222H68.402L67.934 4.62745H59.276V10.7077H65.438L65.399 14.9876H59.276V22.1548H68.714L68.246 26.129H53.543ZM70.0555 26.3328V1.06084L75.7885 0.653222V25.9252L70.0555 26.3328ZM82.6958 26.3328V4.62745H76.7288L77.1578 0.653222H94.3178L93.8498 4.62745H88.3898V25.9252L82.6958 26.3328Z" fill="#FF5500"/>
<path d="M99.6437 26.129L92.7407 0.857029L99.5267 0.653222L103.388 18.2485L107.444 0.857029L112.943 0.653222L105.923 26.129H99.6437ZM113.614 26.129V0.653222H128.473L128.005 4.62745H119.347V10.7077H125.509L125.47 14.9876H119.347V22.1548H128.785L128.317 26.129H113.614ZM133.909 26.3328V4.62745H127.942L128.371 0.653222H145.531L145.063 4.62745H139.603V25.9252L133.909 26.3328ZM154.25 26.6046C150.948 26.6046 148.621 25.3704 147.269 22.9021C145.943 20.4111 145.28 17.1955 145.28 13.2553C145.28 9.0659 145.995 5.83897 147.425 3.57445C148.855 1.30993 151.156 0.177673 154.328 0.177673C160.386 0.177673 163.415 4.49158 163.415 13.1194C163.415 16.9917 162.726 20.2073 161.348 22.7662C159.996 25.3251 157.63 26.6046 154.25 26.6046ZM154.328 22.5964C155.706 22.5964 156.616 21.8151 157.058 20.2526C157.5 18.6674 157.721 16.2784 157.721 13.0854C157.721 10.5265 157.5 8.40919 157.058 6.73345C156.642 5.03506 155.732 4.18587 154.328 4.18587C152.924 4.18587 152.014 5.02374 151.598 6.69948C151.182 8.37522 150.974 10.4925 150.974 13.0514C150.974 16.2671 151.182 18.6674 151.598 20.2526C152.04 21.8151 152.95 22.5964 154.328 22.5964Z" fill="white"/>
</g>
<defs>
<clipPath id="clip0_101_3">
<rect width="164" height="27" fill="white"/>
</clipPath>
</defs>
</svg>
