<?xml version="1.0" encoding="utf-8"?>
<!DOCTYPE svg PUBLIC "-//W3C//DTD SVG 1.1//EN" "http://www.w3.org/Graphics/SVG/1.1/DTD/svg11.dtd">
<svg
  width="32px"
  height="32px"
  viewBox="0 0 32 32"
  fill="white"
  xmlns="http://www.w3.org/2000/svg"
>
  <path
    fillRule="evenodd"
    clipRule="evenodd"
    d="M31.989 9.46397C31.989 8.2876 32.1218 6.96133 31.4651 6.44024C30.7798 5.89346 29.9718 6.01052 28.774 6.01052H1.55471C1.39482 6.05764 1.23635 6.10475 1.07789 6.15329C0.672437 6.32888 0.29697 6.74575 0.124226 7.15406C-0.0827804 7.64516 0.0314301 9.00855 0.0314301 9.70238V24.4898C0.144213 24.9538 0.432595 25.3649 0.769517 25.6091C1.37483 26.0488 2.05581 25.966 3.078 25.966H28.8939C30.313 25.966 31.1167 26.0873 31.7049 25.205C32.0789 24.6426 31.9904 23.5947 31.9904 22.6567L31.989 9.46397ZM4.10161 21.6088C4.31718 22.1242 5.16092 22.7638 6.08031 22.5611C6.20594 22.5325 6.41866 22.5382 6.55571 22.4897C6.64851 22.4569 6.71989 22.3912 6.84124 22.3698C6.84267 22.6353 6.86265 22.9051 6.91262 23.1321C6.94831 23.3034 6.88121 23.5261 6.95973 23.6561C6.9526 23.9744 6.69134 23.9059 6.43579 23.9659C6.12457 24.0401 5.32509 24.1743 4.91394 24.0858C4.64554 24.0287 4.3543 24.0244 4.10304 23.9416C3.2693 23.6732 2.67398 23.1849 2.34134 22.4183C2.22142 22.1413 2.17574 21.8087 2.10435 21.4903C1.96873 20.8907 2.13148 20.1384 2.29566 19.7286C2.68968 18.7379 3.34925 18.164 4.41426 17.847C4.69979 17.7614 4.96676 17.8228 5.29369 17.7528C5.48784 17.7114 6.05461 17.7071 6.27019 17.7528C6.54429 17.8113 6.8184 17.8799 7.05681 17.9441C6.94546 18.4024 6.83553 18.8649 6.72417 19.3246C6.28161 19.219 5.60919 19.0562 5.0824 19.2304C4.3386 19.4717 3.67475 20.5852 4.10161 21.6088ZM13.9851 22.0614H12.913V23.9416H11.1498V22.0614H8.69859C8.35453 22.0614 7.84772 22.1342 7.55363 22.0357V20.7979C7.59789 20.6695 7.74493 20.5295 7.81631 20.4168C7.98906 20.1441 8.15038 19.8714 8.31741 19.6073C8.8285 18.7935 9.28106 17.9698 9.79358 17.1546C10.0634 16.7235 10.4118 16.2923 10.6273 15.8198H12.913V20.6309H14.0094C14.0094 21.0207 14.0908 21.7416 13.9851 22.0614ZM18.7234 23.8945C18.6078 24.1829 17.5856 24.0858 17.1516 24.0858C16.9846 24.0858 16.7562 24.1129 16.6277 24.0601C16.4992 24.0073 16.2922 23.8388 16.2465 23.7032V21.9186C16.3364 21.8287 16.405 21.7059 16.5092 21.6317C16.5677 21.5889 16.6448 21.5817 16.699 21.5375C17.183 21.5303 18.4964 21.4404 18.7006 21.6802C18.8947 21.9115 18.8191 22.5311 18.8191 22.9422C18.8191 23.252 18.8805 23.7303 18.7234 23.8945ZM18.8191 19.6573C18.8191 19.8329 18.8505 20.1027 18.772 20.204C18.6321 20.6209 17.7898 20.491 17.2487 20.491H16.6776C16.1237 20.314 16.2479 19.7358 16.2479 19.0377V18.3467C16.3236 18.1097 16.5363 18.0712 16.7247 17.9427H18.0339C18.2623 17.9427 18.5093 17.9284 18.6292 18.0369C18.9204 18.1525 18.8191 19.2176 18.8191 19.6573ZM21.8928 20.491H21.2718C20.6507 20.491 19.9326 20.5966 19.7228 20.1798C19.6557 20.0442 19.6999 19.7401 19.6999 19.5616V18.321C19.7342 18.2111 19.8513 18.1083 19.9126 18.0126C19.984 17.9884 20.0568 17.9655 20.1282 17.9412H21.4374C21.6729 17.9412 21.9099 17.9213 22.0327 18.0355C22.274 18.1254 22.2454 18.5094 22.2454 18.8435C22.2483 19.4859 22.381 20.3268 21.8928 20.491ZM22.1526 23.8702C22.0241 24.2171 21.0505 24.0858 20.5794 24.0858H20.0797C19.5757 23.9459 19.6985 23.2149 19.6985 22.5853V21.9186C19.7442 21.7545 19.9112 21.6774 20.0083 21.5603C20.0554 21.5503 20.0526 21.5546 20.0797 21.536C20.635 21.5275 21.9327 21.4204 22.1512 21.7273C22.3182 21.9586 22.2454 22.5368 22.2454 22.918C22.2483 23.2278 22.3096 23.706 22.1526 23.8702ZM25.6532 23.1093V23.6818C25.6189 23.8188 25.5304 23.913 25.4619 24.0144C25.0293 24.1286 23.4189 24.1943 23.1991 23.8945C23.022 23.6532 23.1048 22.7881 23.1048 22.3698C23.1048 22.2113 23.072 21.9643 23.1291 21.8458C23.2048 21.6959 23.3832 21.6374 23.5103 21.5375H24.8451C25.0179 21.5375 25.2677 21.5075 25.3676 21.5846C25.7774 21.7288 25.6532 22.5639 25.6532 23.1093ZM25.3205 20.491H24.7009C24.0799 20.491 23.339 20.5966 23.1277 20.1798C23.062 20.0484 23.1034 19.7586 23.1034 19.5845V18.321C23.1348 18.2225 23.2405 18.1254 23.2947 18.0369C23.3832 18.0055 23.4689 17.9727 23.5574 17.9427H24.8665C25.0664 17.9427 25.3077 17.9184 25.4147 18.0141C25.6689 18.104 25.6532 18.4738 25.6532 18.8221C25.6532 19.4374 25.7874 20.3325 25.3205 20.491ZM28.9867 23.8474C28.8568 24.22 27.9317 24.0858 27.4406 24.0858H26.9395C26.3912 23.9487 26.5097 23.2777 26.5097 22.6082C26.5097 22.3912 26.4583 22.0428 26.534 21.8701C26.6025 21.7145 26.7953 21.646 26.9152 21.5375H28.25C28.4228 21.5375 28.6726 21.5075 28.774 21.5846C29.1965 21.7316 29.0581 22.6239 29.0581 23.1807C29.0581 23.4119 29.0938 23.716 28.9867 23.8474ZM29.0581 19.5845V20.1084C29.0195 20.2554 28.8967 20.3297 28.8197 20.441C28.4542 20.5281 27.906 20.4896 27.4634 20.4896H26.9152C26.831 20.4639 26.7225 20.3768 26.6525 20.3225C26.397 20.1184 26.5097 19.2618 26.5097 18.8207V18.3467C26.5469 18.2125 26.6725 18.114 26.7482 18.0141L26.9609 17.9427H28.2472C28.4585 17.9427 28.6983 17.9213 28.8168 18.0141C29.1937 18.144 29.0581 19.0891 29.0581 19.5845ZM29.2023 16.655C29.0738 17.0133 28.4428 16.9176 27.9645 16.9176H18.535C17.9111 16.9176 16.6576 17.039 16.2965 16.7749C15.9867 16.5479 16.1052 15.2188 16.1052 14.6548V10.2734C16.1052 9.87655 16.0252 8.69019 16.1537 8.44035C16.2465 8.25762 16.4649 8.22335 16.6291 8.10772H27.8931C28.4984 8.10772 28.8068 8.05489 29.1794 8.29902C29.3307 8.8872 29.2736 9.80089 29.2736 10.5361V16.0382C29.2736 16.2595 29.2993 16.5279 29.2023 16.655ZM19.3188 12.6547V12.629C19.4629 12.5505 19.6057 12.472 19.7485 12.392C19.7813 12.3164 19.6814 12.1822 19.6528 12.0822C19.4886 12.1622 19.2616 12.2464 19.1303 12.3663H19.0832C19.126 12.2421 19.1103 12.0237 19.1774 11.9166V11.8681H18.7948V12.3678C18.6406 12.3249 18.4279 12.1879 18.3194 12.0837C18.248 12.1565 18.2209 12.2707 18.1524 12.3449C18.2009 12.4691 18.4393 12.5776 18.5564 12.6305C18.475 12.7361 18.278 12.836 18.1524 12.8931C18.1852 13.0131 18.2466 13.1201 18.2966 13.2258C18.4579 13.2001 18.6692 13.0859 18.7734 12.9888H18.7962V13.5127H19.1788C19.1631 13.3842 19.1489 13.1358 19.0846 13.0359V13.0116C19.2588 13.0359 19.52 13.1458 19.6328 13.25H19.6557C19.6956 13.1301 19.7356 13.0116 19.7756 12.8917C19.6357 12.826 19.4558 12.7561 19.3473 12.6547H19.3188ZM21.6758 12.6305C21.8257 12.5919 22.0484 12.492 22.1526 12.3935C22.1712 12.3678 22.1612 12.3863 22.1769 12.3449C22.1198 12.2878 22.0584 12.1679 22.0341 12.0837C21.8714 12.1351 21.6287 12.2564 21.5102 12.3678H21.4631C21.5016 12.2022 21.543 12.0351 21.5816 11.8681H21.1518V12.3678C21.0048 12.2921 20.8991 12.1793 20.7478 12.1051V12.0822H20.725C20.6707 12.1693 20.5893 12.2407 20.5579 12.3435H20.5337C20.5794 12.4649 20.8592 12.5948 20.9848 12.629V12.6547C20.8121 12.7018 20.6879 12.8189 20.5337 12.8917C20.5636 13.0131 20.645 13.1458 20.725 13.2244C20.7435 13.2515 21.0562 13.063 21.1047 13.0116H21.1518V13.5127H21.5816C21.5658 13.3771 21.533 13.1587 21.4631 13.0602V12.9888C21.6458 13.0773 21.8271 13.163 22.0098 13.2515C22.0969 13.1615 22.1169 13.0088 22.2011 12.9188C22.0769 12.7975 21.8542 12.7718 21.7257 12.6562C21.6829 12.6404 21.7015 12.649 21.6758 12.6305ZM24.4397 12.1051C24.414 12.0865 24.0199 12.3121 23.9628 12.3678H23.9172C23.9314 12.2022 23.9471 12.0351 23.9628 11.8681H23.5817V12.3678C23.4004 12.3164 23.259 12.1722 23.1048 12.0837C23.0663 12.1693 23.0235 12.2992 22.9621 12.3678C23.0563 12.4677 23.2219 12.5619 23.3432 12.6305C23.2747 12.7304 23.0848 12.856 22.9621 12.8931C23.0063 12.9988 23.0563 13.1044 23.082 13.2258C23.2462 13.2001 23.4532 13.0873 23.5574 12.9888H23.5817V13.5127H23.9628C23.9628 13.3942 23.97 13.1672 23.9172 13.083V12.9888C24.0899 13.0773 24.2641 13.163 24.4397 13.2515C24.4754 13.1601 24.5011 13.0388 24.5582 12.9659C24.5182 12.7832 24.2284 12.7618 24.1056 12.6562C24.0656 12.6404 24.0842 12.6504 24.0599 12.6305C24.2255 12.5519 24.3926 12.4734 24.5596 12.3935C24.5439 12.2893 24.4982 12.1693 24.4397 12.1051ZM10.5788 18.5366C10.3903 18.8407 10.1762 19.1733 9.98346 19.4874C9.78502 19.8172 9.64368 20.3197 9.38814 20.5838V20.6323H11.1498V18.321C11.2212 17.9955 11.2241 17.6357 11.2226 17.2503H11.1498C10.9557 17.6543 10.8186 18.1511 10.5788 18.5366Z"
    fill="white"
  />
</svg>