<svg width="64" height="64" viewBox="0 0 64 64" fill="none" xmlns="http://www.w3.org/2000/svg">
<g clip-path="url(#clip0_2106_13)">
<path d="M1.305 41.202C5.259 54.386 17.488 64 31.959 64C49.632 64 63.959 49.673 63.959 32C63.959 14.327 49.632 0 31.959 0C15.001 0 1.124 13.193 0.0279999 29.874C2.102 33.351 2.907 35.502 1.303 41.202H1.305Z" fill="#284B7B"/>
<path d="M30.31 23.985L30.313 24.143L22.483 35.518C21.215 35.46 19.943 35.683 18.735 36.18C18.2091 36.3937 17.7071 36.6618 17.237 36.98L0.0419976 29.893C0.0419976 29.893 -0.356002 36.439 1.302 41.317L13.458 46.333C14.058 49.061 15.938 51.453 18.7 52.603C20.8729 53.5059 23.3154 53.5094 25.4909 52.6128C27.6665 51.7162 29.3972 49.9927 30.303 47.821C30.7862 46.6642 31.0193 45.4183 30.987 44.165L42.18 36.16L42.455 36.165C49.16 36.165 54.61 30.699 54.61 23.985C54.61 17.271 49.17 11.825 42.455 11.811C35.753 11.811 30.3 17.271 30.3 23.985H30.31ZM28.43 47.035C26.976 50.535 22.964 52.182 19.477 50.729C17.9296 50.0787 16.6754 48.8821 15.953 47.367L19.91 49.007C20.5213 49.2614 21.1767 49.393 21.8388 49.394C22.5009 49.3951 23.1568 49.2656 23.7689 49.0131C24.3809 48.7606 24.9373 48.39 25.4061 47.9224C25.8749 47.4548 26.2469 46.8994 26.501 46.288C27.0155 45.0525 27.0185 43.6634 26.5095 42.4257C26.0004 41.188 25.0208 40.203 23.786 39.687L19.686 37.992C21.264 37.392 23.058 37.372 24.736 38.069C26.436 38.772 27.736 40.096 28.432 41.789C29.128 43.482 29.124 45.349 28.422 47.035M42.466 32.1C40.3175 32.0942 38.2588 31.2371 36.741 29.7164C35.2231 28.1958 34.3698 26.1355 34.368 23.987C34.3704 21.8388 35.2239 19.7791 36.7417 18.2589C38.2595 16.7387 40.3178 15.8818 42.466 15.876C44.6145 15.8813 46.6734 16.7379 48.1916 18.2582C49.7098 19.7784 50.5636 21.8385 50.566 23.987C50.5642 26.1359 49.7106 28.1964 48.1923 29.7171C46.674 31.2378 44.6149 32.0947 42.466 32.1ZM36.398 23.974C36.3967 22.3597 37.0363 20.8109 38.1764 19.668C39.3165 18.5251 40.8637 17.8817 42.478 17.879C45.833 17.879 48.562 20.609 48.562 23.974C48.5628 25.5887 47.9223 27.1375 46.7815 28.2801C45.6406 29.4227 44.0926 30.0654 42.478 30.067C40.8639 30.0646 39.3167 29.4215 38.1765 28.279C37.0362 27.1366 36.3972 25.5881 36.398 23.974Z" fill="white"/>
</g>
<defs>
<clipPath id="clip0_2106_13">
<rect width="64" height="64" fill="white"/>
</clipPath>
</defs>
</svg>
