<svg width="165" height="40" viewBox="0 0 165 40" fill="none" xmlns="http://www.w3.org/2000/svg">
<path d="M26.8317 1.44965L25.3838 6.72137H12.4066L10.8515 17.8565H22.1127L21.4156 23.1283H10.1007L7.95572 38.6207H0.930847L6.13247 1.44965H26.8317Z" fill="#FF5500"/>
<path d="M27.1226 24.5269L27.8733 19.04H43.9072L43.1564 24.5269H27.1226ZM77.8518 1.44966L59.0679 38.6207H48.0061L47.5537 1.44966H54.8467L54.8487 32.3269L70.6124 1.44966H77.8518ZM103.145 1.44966L101.643 6.72138H88.1834L86.6819 17.1035H98.4258L97.7287 22.3752H85.9848L84.4833 33.2952H98.9084L98.1577 38.6207H76.7077L81.9093 1.44966H103.145ZM133.466 1.44966L131.911 7.09793H122.366L117.969 38.6207H110.944L115.341 7.09793H105.474L106.278 1.44966H133.466ZM150.106 0.642761C154.432 0.642761 157.81 1.96966 160.241 4.62345C162.672 7.24138 163.888 10.971 163.888 15.8124C163.888 19.5062 163.262 23.1641 162.011 26.7862C160.759 30.3724 158.722 33.3848 155.897 35.8235C153.073 38.2262 149.445 39.4276 145.012 39.4276C140.686 39.4276 137.308 38.1186 134.877 35.5007C132.446 32.8469 131.23 29.1172 131.23 24.3117C131.23 20.6538 131.856 17.0317 133.107 13.4455C134.359 9.82345 136.396 6.79311 139.22 4.35449C142.044 1.88 145.673 0.642761 150.106 0.642761ZM149.677 6.07587C146.924 6.07587 144.708 7.09793 143.027 9.14207C141.347 11.1503 140.167 13.589 139.488 16.4579C138.809 19.291 138.469 22.0524 138.469 24.7421C138.469 30.9103 140.775 33.9945 145.387 33.9945C148.175 33.9945 150.392 32.9903 152.036 30.9821C153.717 28.9379 154.896 26.4993 155.576 23.6662C156.255 20.7972 156.595 18 156.595 15.2745C156.595 12.0828 156.005 9.75173 154.825 8.28138C153.681 6.81104 151.965 6.07587 149.677 6.07587Z" fill="white"/>
</svg>
