<svg width="116" height="76" viewBox="0 0 116 76" fill="none" xmlns="http://www.w3.org/2000/svg">
<path d="M107.312 0H8.68754C3.8894 0 0 3.8894 0 8.68754V67.3129C0 72.1108 3.8894 76.0004 8.68754 76.0004H107.312C112.11 76.0004 116 72.111 116 67.3129V8.68754C116 3.8894 112.111 0 107.312 0Z" fill="#41479B"/>
<path d="M58.8134 8.70173L59.6154 11.1062L62.15 11.126C62.4782 11.1284 62.6142 11.5471 62.3502 11.7422L60.3112 13.2479L61.0756 15.6645C61.1746 15.9771 60.8184 16.2363 60.5513 16.0453L58.4894 14.5713L56.4275 16.0453C56.1606 16.2361 55.8042 15.9773 55.9032 15.6645L56.6676 13.2479L54.6285 11.7422C54.3646 11.5471 54.5005 11.1284 54.8288 11.126L57.3634 11.1062L58.1654 8.70173C58.2689 8.39044 58.7096 8.39044 58.8134 8.70173Z" fill="#FFE15A"/>
<path d="M58.8134 60.3269L59.6154 62.7314L62.15 62.7511C62.4782 62.7536 62.6142 63.1723 62.3502 63.3674L60.3112 64.8731L61.0756 67.2896C61.1746 67.6023 60.8184 67.8615 60.5513 67.6705L58.4894 66.1965L56.4275 67.6705C56.1606 67.8612 55.8042 67.6025 55.9032 67.2896L56.6676 64.8731L54.6285 63.3674C54.3646 63.1723 54.5005 62.7536 54.8288 62.7511L57.3634 62.7314L58.1654 60.3269C58.2689 60.0154 58.7096 60.0154 58.8134 60.3269Z" fill="#FFE15A"/>
<path d="M84.6259 34.5141L85.4279 36.9186L87.9625 36.9383C88.2908 36.9408 88.4267 37.3595 88.1628 37.5545L86.1237 39.0603L86.8881 41.4768C86.9871 41.7894 86.631 42.0486 86.3638 41.8576L84.3019 40.3836L82.24 41.8576C81.9731 42.0484 81.6167 41.7897 81.7157 41.4768L82.4801 39.0603L80.441 37.5545C80.1771 37.3595 80.313 36.9408 80.6413 36.9383L83.1759 36.9186L83.9779 34.5141C84.0815 34.203 84.5221 34.203 84.6259 34.5141Z" fill="#FFE15A"/>
<path d="M33.0009 34.5141L33.8029 36.9186L36.3375 36.9383C36.6658 36.9408 36.8017 37.3595 36.5377 37.5545L34.4987 39.0603L35.2631 41.4768C35.3621 41.7894 35.006 42.0486 34.7388 41.8576L32.6769 40.3836L30.615 41.8576C30.3481 42.0484 29.9917 41.7897 30.0907 41.4768L30.8551 39.0603L28.816 37.5545C28.5521 37.3595 28.688 36.9408 29.0163 36.9383L31.5509 36.9186L32.3529 34.5141C32.4567 34.203 32.8973 34.203 33.0009 34.5141Z" fill="#FFE15A"/>
<path d="M36.8759 21.0347L37.6779 23.4392L40.2125 23.459C40.5408 23.4615 40.6767 23.8801 40.4128 24.0752L38.3737 25.5809L39.1381 27.9975C39.2371 28.3101 38.881 28.5693 38.6138 28.3783L36.5519 26.9043L34.49 28.3783C34.2231 28.5691 33.8667 28.3103 33.9657 27.9975L34.7301 25.5809L32.691 24.0752C32.4271 23.8801 32.563 23.4615 32.8913 23.459L35.4259 23.4392L36.2279 21.0347C36.3317 20.7234 36.7719 20.7234 36.8759 21.0347Z" fill="#FFE15A"/>
<path d="M81.5849 46.8471L82.3869 49.2516L84.9215 49.2713C85.2497 49.2738 85.3857 49.6925 85.1217 49.8875L83.0827 51.3933L83.8471 53.8098C83.9461 54.1229 83.5899 54.3816 83.3228 54.1906L81.2609 52.7166L79.1989 54.1906C78.932 54.3814 78.5757 54.1227 78.6747 53.8098L79.4391 51.3933L77.4 49.8875C77.1361 49.6925 77.272 49.2738 77.6003 49.2713L80.1349 49.2516L80.9369 46.8471C81.0407 46.536 81.4811 46.536 81.5849 46.8471Z" fill="#FFE15A"/>
<path d="M72.1368 11.5863L72.9389 13.9908L75.4734 14.0105C75.8017 14.013 75.9377 14.4317 75.6737 14.6268L73.6347 16.1325L74.3991 18.549C74.4981 18.8617 74.1419 19.1209 73.8748 18.9299L71.8129 17.4559L69.7507 18.9299C69.4838 19.1207 69.1274 18.8619 69.2264 18.549L69.9909 16.1325L67.9518 14.6268C67.6878 14.4317 67.8238 14.013 68.1521 14.0105L70.6866 13.9908L71.4887 11.5863C71.5924 11.2753 72.0326 11.2753 72.1368 11.5863Z" fill="#FFE15A"/>
<path d="M46.3241 56.2956L47.1262 58.7001L49.6607 58.7199C49.989 58.7223 50.1249 59.141 49.861 59.3361L47.8219 60.8418L48.5864 63.2584C48.6854 63.571 48.3292 63.8302 48.0621 63.6392L46.0001 62.1652L43.9382 63.6392C43.6713 63.83 43.3149 63.5712 43.4139 63.2584L44.1784 60.8418L42.1393 59.3361C41.8753 59.141 42.0113 58.7223 42.3396 58.7199L44.8741 58.7004L45.6762 56.2959C45.7799 55.9841 46.2206 55.9841 46.3241 56.2956Z" fill="#FFE15A"/>
<path d="M80.9369 21.0347L80.1349 23.4392L77.6003 23.459C77.272 23.4615 77.1361 23.8801 77.4 24.0752L79.4391 25.5809L78.6747 27.9975C78.5757 28.3101 78.9318 28.5693 79.1989 28.3783L81.2609 26.9043L83.3228 28.3783C83.5897 28.5691 83.9461 28.3103 83.8471 27.9975L83.0827 25.5809L85.1217 24.0752C85.3857 23.8801 85.2497 23.4615 84.9215 23.459L82.3869 23.4392L81.5849 21.0347C81.4811 20.7234 81.0407 20.7234 80.9369 21.0347Z" fill="#FFE15A"/>
<path d="M36.2279 46.8471L35.4259 49.2516L32.8913 49.2713C32.563 49.2738 32.4271 49.6925 32.691 49.8875L34.7301 51.3933L33.9657 53.8098C33.8667 54.1229 34.2228 54.3816 34.49 54.1906L36.5519 52.7166L38.6138 54.1906C38.8807 54.3814 39.2371 54.1227 39.1381 53.8098L38.3737 51.3933L40.4128 49.8875C40.6767 49.6925 40.5408 49.2738 40.2125 49.2713L37.6779 49.2516L36.8759 46.8471C36.7719 46.536 36.3317 46.536 36.2279 46.8471Z" fill="#FFE15A"/>
<path d="M45.6762 11.5863L44.8741 13.9908L42.3396 14.0105C42.0113 14.013 41.8753 14.4317 42.1393 14.6268L44.1784 16.1325L43.4139 18.549C43.3149 18.8617 43.6711 19.1209 43.9382 18.9299L46.0001 17.4559L48.0621 18.9299C48.329 19.1207 48.6854 18.8619 48.5864 18.549L47.8219 16.1325L49.861 14.6268C50.1249 14.4317 49.989 14.013 49.6607 14.0105L47.1262 13.9908L46.3241 11.5863C46.2201 11.2753 45.7799 11.2753 45.6762 11.5863Z" fill="#FFE15A"/>
<path d="M71.4887 56.2956L70.6866 58.7001L68.1521 58.7199C67.8238 58.7223 67.6878 59.141 67.9518 59.3361L69.9909 60.8418L69.2264 63.2584C69.1274 63.571 69.4836 63.8302 69.7507 63.6392L71.8126 62.1652L73.8746 63.6392C74.1415 63.83 74.4979 63.5712 74.3989 63.2584L73.6344 60.8418L75.6735 59.3361C75.9374 59.141 75.8015 58.7223 75.4732 58.7199L72.9387 58.7004L72.1366 56.2959C72.0326 55.9841 71.5924 55.9841 71.4887 56.2956Z" fill="#FFE15A"/>
</svg>
