<svg xmlns="http://www.w3.org/2000/svg" xml:space="preserve" viewBox="0 0 32 32"><path fill="#721011" fill-rule="evenodd" d="m28.52 13.1-9.18-.74-3.3-8.32-3.31 8.32-9.17.74 7.13 5.55-2.37 9.12 7.72-5.23 7.71 5.23-2.36-9.12z" clip-rule="evenodd"/><path fill="#ED2024" fill-rule="evenodd" d="m28.41 13.64-.19-.73-10.93 3.4 7.38-3.88-1.63-.18L17.11 16l4.24-3.92-1.01-.11-3.49 3.77 2.65-4.2-.37-.92-2.59 4.94 1.99-6.43-.58-1.45-1.76 7.79.43-11.06-.15-.38h-.79l-.28.71.43 10.73-1.7-7.5-.56 1.44 1.91 6.15L13 10.85l-.35.91 2.51 3.98-3.39-3.67-1.02.09L14.91 16l-5.85-3.69-1.66.15 7.33 3.85-10.94-3.4-.2.76.85.69 10.19 2.3-7.71-.3 1.15.92 6.56-.26-5.37 1.22.63.51-.03.13 4.87-1.51-5.14 2.7-.26 1.14 5.58-3.53-6.05 5.59-.45 1.98 6.75-7.31-6.11 9.68.06.04 2.07-1.37 4.3-8.17-2.09 6.71 1.11-.73 1.33-5.89-.21 5.15.37-.25.4.27-.2-5.17 1.33 5.93 1.12.73-2.1-6.75 4.33 8.24 1.99 1.32.1-.06-6.11-9.68 6.42 6.95-.43-1.91-5.73-5.3 5.28 3.34-.25-1.1-4.85-2.55 4.59 1.43v-.01l.74-.58-5.24-1.19 6.42.25 1.16-.91-7.58.3 10.1-2.28z" clip-rule="evenodd"/><path fill="#AC782B" fill-rule="evenodd" d="m31.35 12.27-11.14-.9-3.98-10.02c-.12-.3-.26-.3-.38 0l-3.99 10.02-11.16.9c-.2.02-.22.17-.06.3L9.3 19.3 6.4 30.4c-.04.14.11.25.25.15l9.38-6.34 9.4 6.37c.2.14.3.1.23-.13L22.8 19.3l8.65-6.73c.15-.13.1-.3-.1-.3zm-9.41 6.6 2.6 10.05-8.5-5.76-8.5 5.76 2.6-10.05-7.86-6.11 10.11-.82 3.65-9.18 3.64 9.18 10.1.82-7.84 6.11z" clip-rule="evenodd"/><path fill="#280F0E" fill-rule="evenodd" d="M30.97 12.51 20 11.62l-3.96-9.96-3.96 9.96-10.98.9 8.53 6.63-2.82 10.92 9.23-6.26 9.23 6.26-2.83-10.92 8.53-6.64zM24.1 28.28l-8.06-5.48-8.07 5.48 2.47-9.54L3 12.94l9.59-.78 3.46-8.7 3.46 8.7 9.59.77-7.45 5.8 2.46 9.55z" clip-rule="evenodd"/><path fill="#280F0E" fill-rule="evenodd" d="m28.91 13.03-9.46-.76-3.41-8.6-3.42 8.6-9.46.76 7.36 5.73-2.44 9.4 7.96-5.39 7.95 5.4-2.43-9.41 7.35-5.73zM23 26.63l-6.95-4.73-6.96 4.72 2.13-8.22-6.42-5 8.26-.67 2.99-7.5 2.98 7.5 8.27.67-6.43 5L23 26.62z" clip-rule="evenodd"/><path fill="#AC782B" fill-rule="evenodd" d="m29.55 12.89-9.93-.8-3.58-9.02-3.59 9.01-9.93.8 7.72 6.02-2.56 9.88 8.36-5.67 8.35 5.67-2.56-9.88 7.72-6.01zm-6.21 14.27-7.3-4.96-7.3 4.96 2.23-8.64-6.74-5.25 8.67-.7 3.14-7.88 3.13 7.88 8.68.7-6.75 5.25 2.23 8.64z" clip-rule="evenodd"/><path fill="#521311" fill-rule="evenodd" d="m30.36 12.69-10.53-.86-3.8-9.55-3.8 9.55-10.52.86 8.18 6.37-2.7 10.46 8.85-6 8.85 6-2.7-10.46 8.17-6.37zM23.77 27.8l-7.73-5.25L8.3 27.8l2.37-9.15-7.15-5.57 9.2-.74L16.04 4l3.31 8.35 9.2.74-7.15 5.57 2.37 9.15z" clip-rule="evenodd"/><path fill="#AC782B" fill-rule="evenodd" d="M25.79 13.87H6.29a.2.2 0 0 0-.2.2v5.8c0 .1.1.2.2.2h19.5c.1 0 .2-.1.2-.2v-5.8a.2.2 0 0 0-.2-.2z" clip-rule="evenodd"/><path fill="#280F0E" fill-rule="evenodd" d="M6.44 14.19h19.23v5.64H6.44z" clip-rule="evenodd"/><path fill="#521311" fill-rule="evenodd" d="M6.77 14.49h18.57v5.04H6.77z" clip-rule="evenodd"/><path fill="#FFF" fill-rule="evenodd" d="M7.01 14.78H25.1v4.53H7.01z" clip-rule="evenodd"/><path fill="#E8E1BB" fill-rule="evenodd" d="M7.25 14.99h17.61v4.11H7.25z" clip-rule="evenodd"/><path fill="#361F1E" fill-rule="evenodd" d="M10.36 15.54H9.23a.56.56 0 0 0-.39.14c-.1.1-.16.22-.16.35v2.02c0 .13.06.25.16.35.1.1.24.14.4.14h1.12c.16 0 .29-.04.4-.14.1-.1.16-.21.16-.35v-.55h-.6v.43a.1.1 0 0 1-.05.08.15.15 0 0 1-.1.04h-.75a.15.15 0 0 1-.1-.04.1.1 0 0 1-.03-.08v-1.78a.1.1 0 0 1 .04-.08.14.14 0 0 1 .1-.04h.75c.03 0 .07.01.1.04a.1.1 0 0 1 .03.08v.4h.6v-.52a.46.46 0 0 0-.15-.35.57.57 0 0 0-.4-.14zm2.3 0-1.13 3h.6l.23-.65h1.14l.24.65h.6l-1.13-3h-.55zm-.11 1.86.38-1.14.4 1.14h-.78zm4.1-1.86h-1.12a.56.56 0 0 0-.4.14c-.1.1-.15.22-.15.35v2.02c0 .13.05.25.16.35.1.1.23.14.39.14h1.13c.15 0 .28-.04.39-.14.1-.1.16-.21.16-.35v-.55h-.6v.43a.1.1 0 0 1-.04.08.15.15 0 0 1-.1.04h-.75a.15.15 0 0 1-.1-.04.1.1 0 0 1-.04-.08v-1.78a.1.1 0 0 1 .04-.08.14.14 0 0 1 .1-.04h.75c.04 0 .07.01.1.04a.1.1 0 0 1 .04.08v.4h.6v-.52a.46.46 0 0 0-.16-.35.57.57 0 0 0-.4-.14zm2.06 0h-.6v3h.6v-1.28h1.14v1.28h.6v-1.78H18.7v-1.22zm4.71.5v-.5H21.4v3h2.03v-.5H22v-.77h1.3v-.5H22v-.74h1.43z" clip-rule="evenodd"/><path fill="#B7AE86" d="M21.4 18.7a.16.16 0 0 1-.17-.17v-3c0-.1.07-.17.16-.17h2.03c.1 0 .17.08.17.17v.5c0 .08-.07.16-.16.16h-1.27v.41h1.14c.09 0 .16.08.16.17v.5c0 .08-.07.16-.16.16h-1.14v.44h1.27c.09 0 .16.08.16.17v.5c0 .08-.07.16-.16.16h-2.04zm1.96-.23v-.38h-1.42v-.89h1.3v-.37h-1.3v-.87h1.42v-.37h-1.9v2.88h1.9zM19.85 18.7a.16.16 0 0 1-.17-.17V17.4h-.8v1.12c0 .09-.08.16-.17.16h-.6a.16.16 0 0 1-.17-.16v-3c0-.1.08-.17.16-.17h.6c.1 0 .17.08.17.17v1.05h1.58c.09 0 .16.08.16.17v1.78c0 .09-.07.16-.16.16h-.6zm.54-.23v-1.66h-1.74v-1.23h-.48v2.89h.48v-1.28h1.25v1.28h.49zM15.53 18.7a.72.72 0 0 1-.5-.2.61.61 0 0 1-.21-.47v-2c0-.2.07-.35.2-.48.14-.13.31-.19.5-.19h1.14c.2 0 .36.06.5.19a.6.6 0 0 1 .21.47v.52c0 .09-.07.16-.16.16h-.6a.16.16 0 0 1-.17-.16v-.36h-.7l.01 1.69h.7v-.38c0-.1.07-.17.16-.17h.6c.1 0 .16.08.16.17v.54c0 .19-.07.35-.21.48a.72.72 0 0 1-.5.18h-1.13zm0-3.11a.5.5 0 0 0-.35.12.4.4 0 0 0-.14.31v2.01c0 .13.04.23.14.31.1.09.2.13.35.13h1.13a.5.5 0 0 0 .35-.13.4.4 0 0 0 .14-.3v-.5h-.48v.38c0 .05-.02.09-.06.12a.2.2 0 0 1-.14.05h-.75a.2.2 0 0 1-.14-.05.16.16 0 0 1-.06-.12v-1.78c0-.05.02-.1.07-.13a.2.2 0 0 1 .13-.05h.75c.05 0 .1.02.14.05.04.04.06.08.06.13v.34h.48v-.46a.4.4 0 0 0-.14-.3.5.5 0 0 0-.35-.13h-1.13zM13.74 18.7a.17.17 0 0 1-.16-.11l-.2-.55h-.9l-.19.54a.17.17 0 0 1-.15.11h-.61a.17.17 0 0 1-.14-.07.17.17 0 0 1-.02-.15l1.13-3c.03-.06.09-.1.16-.1h.56c.06 0 .12.04.15.1l1.13 3c.02.05.01.11-.02.15a.16.16 0 0 1-.14.07h-.6zm.52-.23-1.09-2.88h-.47l-1.09 2.88h.48l.23-.65h1.22l.24.65h.48zm-1.8-1.02.47-1.39.47 1.4h-.94zm.63-.22-.16-.47-.15.47h.31zM9.23 18.7a.72.72 0 0 1-.5-.2.62.62 0 0 1-.21-.47v-2c0-.2.07-.35.21-.48.14-.13.3-.19.5-.19h1.13c.2 0 .37.06.5.19.15.12.22.28.22.47v.52c0 .09-.07.16-.16.16h-.6a.16.16 0 0 1-.17-.16v-.36h-.7v1.69h.7v-.38c0-.1.07-.17.16-.17h.6c.1 0 .17.08.17.17v.54c0 .19-.07.35-.21.48a.73.73 0 0 1-.5.18H9.22zm0-3.11a.5.5 0 0 0-.35.12.4.4 0 0 0-.14.31v2.01c0 .13.05.23.14.31.1.09.21.13.35.13h1.13a.5.5 0 0 0 .36-.13.4.4 0 0 0 .14-.3v-.5h-.48v.38c0 .05-.03.09-.07.12a.2.2 0 0 1-.13.05h-.76a.2.2 0 0 1-.13-.05.16.16 0 0 1-.06-.12v-1.78c0-.05.02-.1.06-.13a.2.2 0 0 1 .13-.05h.76c.05 0 .1.02.13.05.04.04.06.08.06.13v.34h.49v-.46a.4.4 0 0 0-.14-.3.5.5 0 0 0-.36-.13H9.23z"/><path fill="#EFEDA8" fill-rule="evenodd" d="M10.36 15.42H9.23a.67.67 0 0 0-.46.17.56.56 0 0 0-.19.43v2.01c0 .17.07.32.2.43.12.12.27.17.45.17h1.13c.19 0 .34-.05.47-.17.13-.11.2-.26.2-.43v-.54a.1.1 0 0 0-.11-.1h-.6a.1.1 0 0 0-.11.1v.43l-.03.01H9.4v-1.79l.02-.01h.79v.41c0 .06.05.1.1.1h.6a.1.1 0 0 0 .11-.1v-.52a.55.55 0 0 0-.2-.43.67.67 0 0 0-.46-.17zm.56 1.12h-.6v-.4a.1.1 0 0 0-.05-.08.15.15 0 0 0-.1-.04h-.75a.15.15 0 0 0-.1.04.1.1 0 0 0-.03.08v1.78c0 .03.01.06.04.08.02.02.06.03.1.03h.75c.03 0 .07 0 .1-.03a.1.1 0 0 0 .03-.08v-.43h.6v.54c0 .14-.05.26-.15.36-.11.1-.24.14-.4.14H9.23a.56.56 0 0 1-.39-.14.46.46 0 0 1-.16-.36v-2c0-.15.06-.26.16-.36.1-.1.24-.14.4-.14h1.12c.16 0 .29.04.4.14.1.1.16.21.16.35v.52zm2.3-1.12h-.56a.1.1 0 0 0-.1.07l-1.13 3v.1c.02.03.06.04.1.04h.6a.1.1 0 0 0 .1-.07l.2-.58h1l.2.59a.1.1 0 0 0 .1.06h.61c.04 0 .07-.01.1-.04s.01-.07 0-.1l-1.13-3a.1.1 0 0 0-.1-.07zm.52 3.11-.24-.65h-1.13l-.24.65h-.6l1.13-3h.56l1.13 3h-.61zm-1.2-1.14h.78l-.39-1.14-.38 1.14zm.15-.1.24-.71.24.7h-.48zm3.97-1.87h-1.13a.67.67 0 0 0-.46.17.56.56 0 0 0-.2.43v2.01c0 .17.07.32.2.43.12.12.28.17.46.17h1.13c.18 0 .33-.05.46-.17.13-.11.2-.26.2-.43v-.54a.1.1 0 0 0-.1-.1h-.61a.1.1 0 0 0-.1.1v.43l-.04.01h-.78v-1.79l.03-.01h.78v.41c0 .06.05.1.1.1h.61a.1.1 0 0 0 .1-.1v-.52a.55.55 0 0 0-.2-.43.66.66 0 0 0-.45-.17zm.55 1.12h-.6v-.4a.1.1 0 0 0-.04-.08.15.15 0 0 0-.1-.04h-.75a.15.15 0 0 0-.1.04.1.1 0 0 0-.04.08v1.78c0 .03.02.06.04.08.03.02.06.03.1.03h.75c.04 0 .07 0 .1-.03a.1.1 0 0 0 .04-.08v-.43h.6v.54c0 .14-.05.26-.16.36s-.24.14-.4.14h-1.12c-.16 0-.29-.05-.4-.14s-.15-.22-.15-.36v-2c0-.15.05-.26.16-.36.1-.1.23-.14.39-.14h1.13c.15 0 .28.04.39.14.1.1.16.21.16.35v.52zm3.24.1H18.8v-1.11a.1.1 0 0 0-.1-.1h-.6a.1.1 0 0 0-.1.1v3c0 .06.04.1.1.1h.6a.1.1 0 0 0 .1-.1v-1.18h.93v1.18c0 .06.05.1.1.1h.6a.1.1 0 0 0 .11-.1v-1.78a.1.1 0 0 0-.1-.1zm0 1.89h-.6v-1.28H18.7v1.28h-.6v-3h.6v1.22h1.74v1.78zm2.98-2.4a.1.1 0 0 0 .1-.1v-.5a.1.1 0 0 0-.1-.1H21.4a.1.1 0 0 0-.1.1v3c0 .06.04.1.1.1h2.03a.1.1 0 0 0 .1-.1v-.5a.1.1 0 0 0-.1-.1H22.1v-.56h1.2a.1.1 0 0 0 .1-.1v-.5a.1.1 0 0 0-.1-.11h-1.2v-.53h1.32zm-.13.64v.5H22v.76h1.42v.5H21.4v-3h2.03v.5H22v.74h1.3z" clip-rule="evenodd"/><path fill="#280F0E" fill-rule="evenodd" d="M13.59 21h.84v-.02a.25.25 0 0 0-.24-.22h-.63a.24.24 0 0 0-.24.25v.53c0 .14.1.25.24.25h.63c.13 0 .23-.1.24-.22v-.01h-.84v-.57zm1.94.16h-.65v-.18h.87a.25.25 0 0 0-.24-.22h-.64a.25.25 0 0 0-.25.25v.15c.02.13.12.22.25.22h.65v.19h-.9c.02.12.12.22.25.22h.66c.13 0 .24-.11.24-.25v-.16a.24.24 0 0 0-.24-.22zm3.02-.4h-.65c-.13 0-.23.1-.23.23v.55c0 .13.1.24.23.24h.65c.13 0 .23-.1.23-.24V21c0-.13-.1-.24-.23-.24zm.01.83h-.67v-.65h.67v.65zm-1.8-.3a.2.2 0 0 0 .15.06h.34v.23h-.72v-.63h.94a.24.24 0 0 0-.24-.2h-.68c-.13 0-.24.1-.24.24v.55c0 .13.1.24.24.24h.68c.13 0 .23-.1.24-.2v-.4h-.76c0 .02.01.06.05.1z" clip-rule="evenodd"/><path fill="#E2A825" fill-rule="evenodd" d="M13.73 20.83h.78a.23.23 0 0 0-.22-.2h-.58c-.13 0-.23.1-.23.22v.5c0 .12.1.22.23.22h.57c.12 0 .22-.08.23-.2v-.01h-.78v-.53zm1.8.16h-.6v-.16h.8a.23.23 0 0 0-.22-.2h-.6c-.12 0-.22.1-.22.22v.14c.01.12.1.2.23.2h.6v.18h-.83c.01.11.1.2.23.2h.6c.13 0 .23-.1.23-.23v-.14c0-.12-.1-.2-.22-.2zm2.8-.38h-.6c-.12 0-.22.1-.22.22v.52c0 .12.1.21.22.21h.6c.11 0 .21-.1.21-.21v-.52c0-.12-.1-.22-.22-.22zm0 .78h-.62v-.6h.63v.6zm-1.66-.28c.04.05.11.06.13.06h.32v.2h-.67v-.57h.87a.22.22 0 0 0-.21-.19h-.64c-.12 0-.22.1-.22.22v.52c0 .12.1.22.22.22h.64c.1 0 .2-.09.21-.2v-.36h-.7c0 .02.01.05.05.1z" clip-rule="evenodd"/></svg>