<svg xmlns="http://www.w3.org/2000/svg" xml:space="preserve" viewBox="0 0 32 32"><path fill="#D3D1B0" fill-rule="evenodd" d="M1.43 4.1h29.43v21.08H1.43z" clip-rule="evenodd"/><path fill="#722429" fill-rule="evenodd" d="M1.86 4.43h28.6v20.19H1.86z" clip-rule="evenodd"/><path fill="#E8E5BC" fill-rule="evenodd" d="M2.54 4.94h27.42v19.05H2.54z" clip-rule="evenodd"/><path fill="#2F151C" fill-rule="evenodd" d="M3.2 5.51h26.21v17.94H3.2z" clip-rule="evenodd"/><path fill="#878577" fill-rule="evenodd" d="M3.2 5.51v17.94L29.41 5.51z" clip-rule="evenodd"/><path fill="#2D2E2D" fill-rule="evenodd" d="M16.26 7.95c-6.71 0-12.04 2.58-12.04 5.76 0 3.18 5.33 5.76 12.04 5.76 6.7 0 12.03-2.58 12.03-5.76 0-3.18-5.32-5.76-12.03-5.76z" clip-rule="evenodd"/><ellipse cx="16.26" cy="13.71" fill="#D3D1B0" fill-rule="evenodd" clip-rule="evenodd" rx="11.53" ry="5.27"/><ellipse cx="16.25" cy="13.71" fill="#99654B" fill-rule="evenodd" clip-rule="evenodd" rx="11.12" ry="5.04"/><ellipse cx="16.23" cy="13.71" fill="#722429" fill-rule="evenodd" clip-rule="evenodd" rx="10.63" ry="4.77"/><g opacity=".3"><path fill="#2D2E2D" fill-rule="evenodd" d="M10.13 11.78a1.56 1.56 0 0 0-.56-.07H8.48v2.77h.66v-1.03h.46c.2 0 .34-.01.43-.04.1-.02.19-.07.29-.15.1-.07.18-.17.23-.3.05-.13.08-.27.08-.4a.8.8 0 0 0-.15-.5.84.84 0 0 0-.35-.28zm-.25 1.05c-.07.08-.18.11-.34.11h-.42v-.73h.42c.14 0 .25.03.33.1.07.06.1.15.1.27 0 .1-.03.18-.1.25zm1.68-1.12-.9 2.77h.58l.17-.57h.9l.17.57h.7l-.87-2.77h-.75zm0 1.68.3-.97.3.97h-.6zm4.46-.86a.84.84 0 0 0-.14-.46.7.7 0 0 0-.34-.29 1.55 1.55 0 0 0-.54-.07H13.8v2.77h.65v-1.1h.46l.43 1.1h.72l-.51-1.23c.32-.14.48-.38.48-.71zm-.74.23c-.05.06-.1.1-.16.12-.06.02-.15.02-.28.02h-.4v-.7h.38c.15 0 .25 0 .3.02.06.01.11.05.16.11a.36.36 0 0 1 0 .42zm3.68-1.05h-.63l-.86 1.3v-1.3h-.64v2.77h.64v-.64l.39-.57.55 1.2h.71l-.83-1.77.67-1zm.8 2.77h1.98v-.55h-1.32v-.6h1.04v-.53h-1.04v-.57h1.32v-.52h-1.98v2.77zm4.43-1.23c.33-.14.48-.38.48-.72 0-.17-.04-.32-.13-.46s-.2-.24-.34-.29a1.55 1.55 0 0 0-.54-.08h-1.22v2.78h.66v-1.1h.46l.43 1.1h.71l-.5-1.23zm-.25-.5c-.05.07-.1.1-.16.13-.06.02-.16.02-.29.02h-.4v-.7h.4c.14 0 .24 0 .3.02.05.01.1.05.15.11.04.06.06.13.06.21 0 .08-.02.15-.06.22zM9.86 15.58c.11-.03.16-.1.16-.2a.2.2 0 0 0-.06-.15c-.05-.05-.11-.07-.2-.07H9.4v.9h.36c.1 0 .17-.02.22-.07.05-.05.07-.1.07-.18 0-.05-.01-.1-.04-.14a.26.26 0 0 0-.15-.09zm-.35-.33h.23c.05 0 .1.02.13.04.03.03.04.06.04.1 0 .04-.01.08-.04.11s-.08.05-.16.05h-.2v-.3zm.38.67c-.03.03-.08.04-.14.04h-.24v-.33h.23l.11.02.07.07.02.09c0 .04-.02.08-.05.11zm.83-.17c0 .08-.02.14-.05.18a.22.22 0 0 1-.16.05c-.04 0-.07 0-.1-.02s-.06-.03-.08-.06a.32.32 0 0 1-.02-.15v-.59h-.12v.6c0 .1.03.19.08.24.05.06.13.08.23.08s.17-.02.23-.07c.06-.06.08-.14.08-.26v-.59h-.09v.59zm.3.31h.1v-.9h-.1v.9zm.43-.9h-.11v.9h.53v-.1h-.42v-.8zm.84 0h-.3v.9h.33c.11 0 .2-.04.27-.13a.5.5 0 0 0 .1-.32.49.49 0 0 0-.1-.32.36.36 0 0 0-.3-.13zm.21.7a.26.26 0 0 1-.22.1h-.18v-.7h.18c.1 0 .18.03.22.1.05.08.08.15.08.24 0 .11-.03.2-.08.27zm.35.2h.1v-.9h-.1v.9zm.9-.3v.14l-.44-.74h-.14v.9h.1v-.67l-.01-.05v-.06l.46.78h.11v-.9h-.09v.6zm.62-.06h.23a.9.9 0 0 1 0 .05c0 .08-.02.13-.07.18a.22.22 0 0 1-.16.06.23.23 0 0 1-.19-.1.46.46 0 0 1-.07-.27c0-.11.02-.2.06-.27.05-.08.11-.11.2-.11.05 0 .1.01.14.04.04.03.07.08.09.15l.1-.03c-.05-.17-.16-.26-.32-.26a.34.34 0 0 0-.29.14c-.07.09-.1.2-.1.34 0 .13.03.24.1.33.06.09.16.13.27.13.11 0 .2-.04.25-.12l.03.11h.07v-.46h-.34v.1zm1.3.18-.27-.72h-.17v.9h.1v-.78l.3.78h.07l.3-.78v.78h.1v-.9h-.17l-.26.72zm.83-.72-.3.9h.1l.08-.26h.33l.1.26h.1l-.29-.9h-.12zm-.1.55.15-.43.14.44h-.28zm.52-.45h.26v.8h.11v-.8h.26v-.1h-.63v.1zm.86.38h.36v-.1h-.36v-.28h.45v-.1h-.57v.9h.59v-.1h-.47v-.32zm1.21-.09a.28.28 0 0 0 .04-.14.26.26 0 0 0-.07-.17c-.05-.05-.12-.08-.21-.08h-.36v.9h.1v-.39h.27l.16.4h.12l-.18-.42c.06-.02.1-.05.13-.1zm-.26.03h-.23v-.32h.24c.05 0 .1.01.13.04s.05.06.05.11-.02.09-.05.12c-.03.03-.08.05-.14.05zm.48.48h.1v-.9h-.1v.9zm.5-.9-.29.9h.1l.08-.26h.33l.1.26h.1l-.29-.9h-.13zm-.08.55.14-.43.14.44h-.28zm.73-.55h-.12v.9h.53v-.1h-.42v-.8zm.9.4-.17-.04c-.1-.02-.14-.07-.14-.13 0-.05.02-.09.05-.11a.23.23 0 0 1 .14-.04c.04 0 .1.01.14.04.04.02.07.06.08.12l.1-.03c-.05-.15-.16-.23-.32-.23a.34.34 0 0 0-.22.07.22.22 0 0 0-.09.18c0 .05.02.09.04.12a.2.2 0 0 0 .07.08l.12.04.18.05c.03 0 .06.02.1.05.02.02.03.05.03.09 0 .05-.01.09-.05.12s-.1.04-.16.04c-.14 0-.23-.06-.27-.18l-.1.02c.06.17.18.26.37.26.1 0 .19-.03.25-.08a.25.25 0 0 0 .08-.2c0-.12-.08-.2-.23-.24zm.7.5h.12v-.9h-.11v.9zm.9-.3.01.07v.07l-.44-.74h-.14v.9h.1v-.78l.46.78h.1v-.9h-.08v.6zm.63-.52c.1 0 .18.07.21.21l.11-.02c-.05-.19-.15-.29-.32-.29-.12 0-.2.05-.28.13-.07.08-.1.2-.1.33 0 .14.03.25.1.34.06.1.15.14.27.14.17 0 .28-.1.33-.3l-.1-.02c-.04.15-.12.23-.23.23a.2.2 0 0 1-.18-.1.48.48 0 0 1-.07-.27.5.5 0 0 1 .07-.28c.04-.07.1-.1.18-.1zm.43.67v.15h.15v-.14h-.15zM17.86 17.15a.1.1 0 0 0-.1.06c0 .02 0 .02.02.03.03 0 .08.03.08.1 0 .1-.07.12-.13.12-.1 0-.2-.1-.26-.16-.07-.1-.14-.23-.26-.23-.06 0-.1.03-.13.06.05.1.16.22.21.27.05.04.13.13.28.16v.01h-.04a.5.5 0 0 1-.3-.11c-.13-.1-.22-.26-.28-.34-.1-.12-.2-.18-.31-.18-.19 0-.4.15-.4.36 0 .15.12.26.24.26.04 0 .08 0 .13-.04l-.01-.02c-.08 0-.24-.09-.24-.27 0-.12.06-.22.23-.22.16 0 .25.12.32.22-.04.02-.07.05-.07.12 0 .08.04.15.15.23.12.08.27.12.41.12.14 0 .33-.06.4-.17l.06-.06c.03-.03.11-.11.11-.2 0-.06-.04-.12-.11-.12z" clip-rule="evenodd"/><path fill="#2D2E2D" fill-rule="evenodd" d="M16.44 17.07a.23.23 0 0 0-.13.05v.01c.09 0 .25.1.25.28 0 .12-.06.22-.23.22s-.25-.12-.32-.22c.04-.02.07-.05.07-.12 0-.08-.04-.15-.15-.23a.74.74 0 0 0-.42-.12c-.14 0-.33.06-.4.17-.01.03-.02.03-.05.06-.03.03-.12.11-.12.2 0 .06.05.12.12.12.06 0 .09-.05.1-.06 0-.02 0-.02-.02-.03a.11.11 0 0 1-.08-.1c0-.1.07-.12.13-.12.1 0 .2.1.25.16.08.1.15.22.27.22.05 0 .1-.02.13-.06a1.2 1.2 0 0 0-.21-.26c-.05-.04-.13-.13-.28-.16v-.01h.04a.5.5 0 0 1 .3.1c.13.1.22.27.28.35.1.12.2.18.31.18.18 0 .4-.15.4-.37a.26.26 0 0 0-.24-.25z" clip-rule="evenodd"/></g><path fill="#EAE2CC" fill-rule="evenodd" d="M9.8 11.47a1.56 1.56 0 0 0-.56-.08H8.15v2.77h.66v-1.03h.46c.2 0 .34 0 .43-.03.1-.03.2-.08.29-.15.1-.08.18-.18.23-.3.05-.14.08-.27.08-.4a.8.8 0 0 0-.15-.5.84.84 0 0 0-.35-.28zm-.25 1.05c-.07.07-.18.1-.34.1h-.42v-.72h.42c.14 0 .25.03.33.1.07.06.1.15.1.26 0 .1-.03.18-.1.26zm1.68-1.13-.9 2.77h.58l.17-.57h.9l.17.57h.7l-.87-2.77h-.75zm0 1.69.3-.97.3.97h-.6zm4.46-.86a.84.84 0 0 0-.14-.46.7.7 0 0 0-.33-.3 1.55 1.55 0 0 0-.55-.07h-1.21v2.77h.65v-1.1h.46l.43 1.1h.72l-.51-1.22c.32-.15.48-.39.48-.72zm-.74.22c-.05.06-.1.1-.16.12-.06.02-.15.03-.28.03h-.4v-.7h.38l.3.01c.06.02.11.06.16.12.04.06.07.13.07.2 0 .09-.03.16-.07.22zm3.68-1.05H18l-.87 1.3v-1.3h-.64v2.77h.64v-.63l.39-.57.55 1.2h.71l-.83-1.78.67-.99zm.8 2.77h1.98v-.55H20.1v-.6h1.04v-.52h-1.04v-.57h1.32v-.53h-1.98v2.77zm4.43-1.22c.33-.15.48-.39.48-.72a.84.84 0 0 0-.13-.46.7.7 0 0 0-.34-.29 1.55 1.55 0 0 0-.54-.08h-1.22v2.77h.66v-1.1h.46l.43 1.1h.71l-.5-1.22zm-.25-.5c-.05.06-.1.1-.16.12-.06.02-.15.03-.28.03h-.4v-.7h.38l.3.01c.06.02.11.06.16.12s.06.13.06.2c0 .09-.02.16-.06.22zM9.53 15.27c.11-.03.16-.1.16-.2a.2.2 0 0 0-.06-.16c-.04-.04-.11-.06-.2-.06h-.36v.9h.36c.1 0 .17-.02.22-.07.05-.05.07-.11.07-.18 0-.05-.01-.1-.04-.14a.24.24 0 0 0-.15-.1zm-.35-.33h.23c.05 0 .1.01.13.04.03.02.04.06.04.1 0 .04-.01.07-.04.1-.03.04-.08.05-.16.05h-.2v-.3zm.38.67c-.03.03-.08.04-.14.04h-.24v-.33h.23c.05 0 .09 0 .12.02l.06.06.02.1c0 .04-.02.08-.05.1zm.83-.17c0 .08-.02.14-.05.17a.22.22 0 0 1-.16.06c-.04 0-.07 0-.1-.02s-.06-.04-.08-.07a.32.32 0 0 1-.02-.14v-.6h-.12v.6c0 .11.03.2.08.25.05.05.12.08.23.08.1 0 .17-.03.23-.08.05-.05.08-.14.08-.25v-.6h-.1v.6zm.3.3h.1v-.9h-.1v.9zm.43-.9h-.11v.9h.53v-.1h-.42v-.8zm.84 0h-.3v.9h.33c.11 0 .2-.04.27-.12a.5.5 0 0 0 .1-.33.5.5 0 0 0-.1-.31.37.37 0 0 0-.3-.13zm.21.71a.26.26 0 0 1-.22.1h-.18v-.7h.18c.1 0 .18.03.22.1.05.07.08.15.08.24 0 .1-.03.2-.08.26zm.35.2h.1v-.9h-.1v.9zm.9-.3v.13l-.44-.73h-.14v.9h.1v-.67l-.01-.06v-.06l.46.79h.11v-.9h-.09v.6zm.62-.06h.23v.05c0 .07-.02.13-.07.17a.22.22 0 0 1-.16.06.23.23 0 0 1-.19-.1.46.46 0 0 1-.07-.27c0-.1.02-.2.06-.27.05-.07.11-.1.2-.1.05 0 .1.01.14.04.04.03.07.08.09.15l.1-.03c-.05-.17-.16-.26-.32-.26a.34.34 0 0 0-.29.13c-.07.1-.1.21-.1.35 0 .12.03.23.1.32.06.1.16.14.27.14.11 0 .2-.04.25-.12l.03.11h.07v-.47h-.34v.1zm1.3.18-.27-.72h-.17v.9h.1v-.79l.3.79h.07l.3-.79v.79h.1v-.9h-.17l-.26.72zm.83-.72-.3.9h.1l.08-.27h.33l.1.27h.1l-.29-.9h-.12zm-.09.55.14-.43.14.43h-.28zm.51-.45h.26v.8h.11v-.8h.26v-.1h-.63v.1zm.86.37h.36v-.09h-.36v-.28h.45v-.1h-.57v.9h.59v-.1h-.47v-.33zm1.21-.08a.28.28 0 0 0 .04-.14.26.26 0 0 0-.07-.17c-.04-.06-.12-.08-.21-.08h-.36v.9h.1v-.4h.27l.16.4h.12l-.18-.42c.06-.02.1-.05.13-.1zm-.26.03h-.23v-.32h.25c.05 0 .09.01.12.04.03.02.05.06.05.1 0 .05-.02.1-.05.13-.03.03-.07.05-.14.05zm.48.48h.1v-.9h-.1v.9zm.5-.9-.29.9h.1l.08-.27h.33l.1.27h.1l-.29-.9h-.13zm-.08.55.14-.43.14.43h-.28zm.73-.55h-.12v.9h.53v-.1h-.42v-.8zm.9.4-.17-.04c-.1-.03-.14-.07-.14-.14 0-.05.01-.08.05-.1a.23.23 0 0 1 .13-.05c.05 0 .1.02.15.04.04.03.07.07.08.12l.1-.03c-.05-.15-.16-.22-.32-.22a.34.34 0 0 0-.22.07.22.22 0 0 0-.08.18c0 .04 0 .08.03.12l.07.08.12.04.18.04.1.05c.02.03.03.06.03.1 0 .05-.01.09-.05.12s-.09.04-.16.04c-.14 0-.23-.06-.27-.18l-.1.02c.06.17.18.26.37.26.1 0 .19-.03.24-.08a.25.25 0 0 0 .09-.2c0-.12-.08-.2-.23-.24zm.71.5h.11v-.9h-.11v.9zm.9-.3v.13l-.43-.73h-.15v.9h.1v-.79l.46.79h.1v-.9h-.08v.6zm.62-.52c.1 0 .18.07.21.21l.11-.02c-.05-.2-.15-.3-.32-.3-.12 0-.2.05-.28.14-.06.08-.1.2-.1.33s.03.25.1.34c.06.09.15.14.27.14.17 0 .28-.1.33-.3l-.1-.03c-.04.16-.12.23-.23.23a.2.2 0 0 1-.18-.1.47.47 0 0 1-.07-.27.5.5 0 0 1 .07-.28.2.2 0 0 1 .19-.1zm.43.67v.15h.15v-.15h-.15zM17.53 16.83a.1.1 0 0 0-.1.07c0 .01 0 .02.02.02.03.01.08.04.08.11 0 .1-.07.12-.13.12-.1 0-.2-.1-.25-.17-.08-.09-.15-.22-.26-.22-.07 0-.12.03-.14.06.05.1.16.22.21.26.05.04.13.14.28.17h-.04a.5.5 0 0 1-.3-.1c-.13-.1-.22-.26-.28-.34-.1-.13-.2-.18-.31-.18-.18 0-.4.15-.4.36 0 .15.12.26.24.26.05 0 .09-.01.13-.04v-.02c-.08 0-.25-.1-.25-.28 0-.11.06-.21.23-.21s.25.12.32.22c-.03.02-.07.05-.07.11 0 .08.04.15.15.23.13.08.27.12.42.12.13 0 .33-.05.4-.16.01-.03.02-.04.05-.06.03-.04.11-.12.11-.2 0-.07-.04-.13-.1-.13z" clip-rule="evenodd"/><path fill="#EAE2CC" fill-rule="evenodd" d="M16.1 16.76a.23.23 0 0 0-.12.04l.01.02c.08 0 .24.1.24.28 0 .11-.06.21-.23.21s-.25-.12-.32-.22c.03-.01.07-.05.07-.11 0-.08-.04-.15-.15-.23a.74.74 0 0 0-.42-.12c-.14 0-.33.05-.4.16-.01.03-.02.04-.05.06-.03.04-.12.12-.12.2 0 .07.05.13.12.13.06 0 .09-.05.1-.07l-.02-.02a.11.11 0 0 1-.08-.1c0-.1.07-.13.13-.13.1 0 .2.1.25.17.08.09.15.22.27.22.06 0 .1-.03.13-.06a1.2 1.2 0 0 0-.21-.27c-.05-.04-.13-.13-.28-.16h.04a.5.5 0 0 1 .3.1c.13.1.22.26.28.34.1.13.2.18.31.18.19 0 .4-.15.4-.36a.26.26 0 0 0-.24-.26z" clip-rule="evenodd"/><path fill="#2D2E2D" fill-rule="evenodd" d="M3.74 21.82v.1c.57 2.14 1.11 4.2 1.64 6.35a37.23 37.23 0 0 1 21.66 0c.53-2.14 1.07-4.32 1.64-6.45a45.04 45.04 0 0 0-24.94 0z" clip-rule="evenodd"/><g><path fill="#FBF0D7" fill-rule="evenodd" d="M4.41 22.13v.09c.53 1.8.95 3.62 1.44 5.42a40.2 40.2 0 0 1 20.7-.08c.5-1.8.94-3.63 1.48-5.43a47.8 47.8 0 0 0-23.62 0z" clip-rule="evenodd"/></g><g><path fill="#D3D1B0" fill-rule="evenodd" d="M4.87 22.37c.42 1.56.84 3.15 1.25 4.77a39.03 39.03 0 0 1 20.19 0c.4-1.62.82-3.2 1.25-4.77a46.56 46.56 0 0 0-22.7 0z" clip-rule="evenodd"/></g><g><path fill="#722429" fill-rule="evenodd" d="M7.03 22.66c.06 1.11.12 2.22.2 3.33l.96-.18-.05-.59.34-.06.16.58.95-.15a135.7 135.7 0 0 0-1.1-3.18l-1.46.25zm.98 1.99c-.03-.3-.05-.76-.07-1.4l.4 1.34-.33.06zm3.84-.88a2.7 2.7 0 0 0-.9-.47c-.15-.07-.26-.12-.3-.17a.48.48 0 0 1-.08-.24c-.01-.09 0-.15.02-.2.03-.05.07-.07.13-.08.06 0 .1 0 .13.04.02.02.04.1.06.2 0 .09.02.17.03.25l.92-.09-.01-.13a1.27 1.27 0 0 0-.15-.55c-.07-.1-.2-.18-.4-.23-.19-.06-.42-.07-.68-.04-.24.03-.44.09-.6.17a.72.72 0 0 0-.34.32c-.05.13-.06.31-.03.56.03.18.08.32.15.42.07.1.14.19.23.24l.53.24c.26.12.42.2.49.25.07.05.11.18.13.37.01.09 0 .16-.02.2s-.07.08-.13.09c-.07 0-.11 0-.14-.04-.03-.03-.05-.11-.07-.23l-.05-.4-.9.1.03.22c.04.25.1.43.17.56s.21.22.4.28c.19.07.41.08.66.06.23-.03.43-.09.6-.18.16-.09.27-.2.32-.31.05-.12.06-.3.04-.53-.04-.32-.12-.55-.24-.68zm1.96-.7c-.16-.07-.26-.13-.29-.19a.47.47 0 0 1-.07-.24c0-.09 0-.15.03-.2a.16.16 0 0 1 .14-.07c.06 0 .1.02.12.05s.04.1.05.21l.01.25.93-.04v-.13a1.25 1.25 0 0 0-.11-.56c-.07-.1-.2-.2-.38-.25s-.42-.1-.69-.08c-.24.01-.45.06-.61.14a.73.73 0 0 0-.35.3c-.07.12-.09.3-.07.56.02.17.06.31.12.42.06.1.13.2.22.25.08.06.25.15.5.28.26.12.41.21.48.27.06.06.1.18.11.38 0 .08 0 .15-.03.2-.03.04-.08.07-.14.07-.07 0-.11-.01-.14-.04-.03-.04-.04-.12-.05-.24l-.03-.4-.9.06.02.21c.02.25.06.44.13.57.07.13.2.23.38.3.19.08.4.11.66.1.23-.01.43-.06.6-.14.17-.09.28-.18.34-.3s.08-.28.07-.52c0-.32-.07-.55-.19-.7a2.7 2.7 0 0 0-.86-.52zm1.95-1.25c-.16 1.1-.3 2.2-.44 3.3h.98l.05-.6h.35l.04.6.97.01c-.14-1.1-.3-2.2-.48-3.3-.49-.02-.98-.02-1.47-.01zm.58 2.12c.03-.3.09-.76.2-1.39.04.55.09 1.01.14 1.39h-.34zm3.14.4c-.01.17-.03.28-.05.32-.02.04-.06.06-.12.06-.05 0-.09-.03-.1-.07a.89.89 0 0 1-.01-.27l.17-2.47-1.02-.05-.09 1.95c-.02.37-.02.61-.01.73a.7.7 0 0 0 .13.34c.08.1.2.2.36.27.16.07.35.12.57.13.2.01.37 0 .52-.05s.27-.11.37-.21c.1-.1.16-.2.19-.3.02-.1.05-.27.07-.52l.22-2.2-1.02-.08-.18 2.43zm2.98-2.16-1.02-.11-.37 3.28c.5.05 1.01.11 1.51.18l.1-.66-.58-.07.36-2.62zm1.06.14-.1.65.58.1-.45 2.6.94.15.5-2.6.6.11.13-.65c-.73-.13-1.47-.25-2.2-.36z" clip-rule="evenodd"/></g></svg>