<svg width="477" height="477" viewBox="0 0 477 477" fill="none" xmlns="http://www.w3.org/2000/svg">
<path d="M67.9438 135.358C66.2679 135.358 64.9617 134.003 64.9617 132.277V91.1956C64.9617 89.8773 65.849 88.5834 67.0688 88.1275C70.9133 86.6981 72.811 86.0082 76.7047 84.6527C76.9758 84.5541 77.2593 84.4926 77.5302 84.4678C77.6042 84.4678 77.7275 84.4678 77.8013 84.4678C79.4033 84.4678 80.6601 85.7248 80.6601 87.3142V128.519C80.6601 129.961 79.6867 131.341 78.3313 131.822C74.573 133.14 72.737 133.793 69.0158 135.186C68.757 135.284 68.4858 135.346 68.2272 135.37C68.1532 135.37 68.0299 135.383 67.9438 135.383V135.358ZM71.1229 127.854C72.2195 127.46 73.2669 127.078 74.4991 126.646V91.9227C73.4023 92.3171 72.3428 92.699 71.1229 93.1549V127.854ZM400.899 132.475C400.628 132.45 400.357 132.388 400.098 132.302C395.748 130.762 393.591 130.035 389.167 128.581C387.85 128.15 387.024 126.831 386.839 125.796C386.815 125.648 386.802 125.488 386.802 125.34V110.948C386.802 110.394 386.741 109.913 386.396 108.681C383.993 99.8212 381.589 90.9985 379.187 82.1759C378.953 81.3996 379.113 80.4754 379.63 79.7855C380.149 79.0954 380.937 78.7012 381.8 78.7012C381.862 78.7012 381.96 78.7012 382.022 78.7012C382.206 78.7135 382.477 78.775 382.662 78.8244C386.802 80.0935 388.823 80.7466 392.988 82.1266C394.085 82.4964 394.898 83.3958 395.218 84.6157L395.97 88.1398L396.29 86.8091C396.29 86.8091 396.315 86.6981 396.339 86.6489C396.77 85.2811 397.892 84.3939 399.211 84.3939C399.284 84.3939 399.395 84.3939 399.469 84.3939C399.691 84.4062 399.937 84.4678 400.172 84.5418C404.127 85.9219 406.049 86.612 409.992 88.0782C410.782 88.374 411.434 88.9901 411.791 89.7663C412.136 90.5303 412.173 91.356 411.89 92.1075L404.582 113.228C404.434 113.708 404.213 114.903 404.213 115.248V129.468C404.213 129.591 404.213 129.714 404.188 129.838C403.954 131.366 402.734 132.438 401.231 132.438C401.157 132.438 401.022 132.438 400.948 132.438L400.899 132.475ZM392.939 123.369C394.824 123.997 396.339 124.502 398.003 125.069V115.174C398.003 114.016 398.397 112.156 398.681 111.256L405.052 92.8468C403.807 92.3909 402.71 91.9967 401.489 91.5654L399.728 98.8353C399.444 100.745 397.855 102.162 395.958 102.162C395.847 102.162 395.736 102.162 395.613 102.15C395.441 102.138 395.107 102.088 394.934 102.039L394.738 101.978C392.988 101.386 392.125 99.7843 391.879 98.4904L389.526 87.4744C388.503 87.1418 387.59 86.846 386.716 86.5626C388.589 93.426 390.449 100.277 392.309 107.141C392.779 108.779 392.951 109.814 392.951 111.059V123.381L392.939 123.369ZM145.166 113.523C143.416 113.523 142.036 112.156 142.036 110.406V83.1494C140.927 83.3712 139.929 83.5807 138.475 83.8888C138.352 83.9134 138.155 83.938 138.019 83.9503C137.982 83.9503 137.908 83.9503 137.871 83.9503C136.183 83.9503 134.754 82.5333 134.754 80.8452V70.7534C134.754 69.2255 135.74 67.981 137.218 67.6606C145.462 65.9108 153.853 64.3459 162.158 63.0274C162.294 63.0028 162.429 62.9905 162.552 62.9905C162.589 62.9905 162.663 62.9905 162.7 62.9905C164.437 62.9905 165.756 64.2967 165.756 66.0217V75.9903C165.756 77.6661 164.536 79.0831 162.86 79.3419C161.049 79.6253 159.94 79.8101 158.424 80.0689V108.311C158.424 109.913 157.205 111.33 155.579 111.613C151.648 112.304 149.725 112.661 145.77 113.437C145.659 113.462 145.425 113.486 145.314 113.499H145.154L145.166 113.523ZM143.983 76.5817C146.349 76.5817 148.197 78.4177 148.197 80.7589V106.722C149.565 106.463 150.81 106.229 152.276 105.97V78.8613C152.276 76.5694 153.877 74.6225 156.096 74.2529C157.525 74.0064 158.512 73.8462 159.595 73.6614V69.6937C153.373 70.7288 147.101 71.8993 140.903 73.1932V77.1115C141.543 76.976 142.234 76.8406 143.071 76.6679C143.293 76.6187 143.515 76.5941 143.737 76.5817C143.774 76.5817 143.922 76.5817 143.959 76.5817H143.983ZM328.556 112.92C328.445 112.92 328.261 112.895 328.148 112.87C321.273 111.552 314.311 110.394 307.436 109.408C305.859 109.174 304.675 107.769 304.675 106.142V65.1714C304.675 63.4587 306.117 62.0171 307.817 62.0171C307.867 62.0171 307.94 62.0171 307.99 62.0171C308.064 62.0171 308.187 62.0294 308.248 62.0417C312.204 62.6209 314.138 62.9165 318.131 63.582C319.659 63.8408 320.769 65.1591 320.769 66.7363V94.8061C323.726 95.3112 325.648 95.6564 329.036 96.2971C330.564 96.5928 331.686 97.8989 331.686 99.4022V109.938C331.686 110.751 331.366 111.515 330.786 112.069C330.232 112.612 329.492 112.907 328.691 112.907C328.691 112.907 328.581 112.907 328.544 112.907L328.556 112.92ZM310.836 103.678C315.728 104.405 320.646 105.231 325.525 106.118V101.891C323.035 101.423 321.175 101.103 318.094 100.585C316.111 100.252 314.608 98.4657 314.608 96.4326V69.2378C313.264 69.0159 312.106 68.8434 310.824 68.6463L310.836 103.678ZM219.222 104.799C218.249 104.799 217.361 104.38 216.77 103.666C216.166 102.926 215.932 101.916 216.141 100.906C218.754 87.2281 221.379 73.5259 224.002 59.8114C224.275 58.5176 225.432 57.1498 227.07 57.1129C231.58 57.002 233.91 56.9774 238.383 56.9774H238.568C240.157 56.9774 241.488 58.1355 241.759 59.7375C244.446 73.2547 247.118 86.7722 249.793 100.289C250.002 101.411 249.743 102.495 249.079 103.296C248.462 104.035 247.551 104.467 246.577 104.467C243.533 104.417 241.722 104.405 239.232 104.393H237.052C235.463 104.393 234.119 103.296 233.849 101.793L232.973 95.4839L232.148 101.706C231.914 103.271 230.559 104.454 228.994 104.479C225.136 104.553 223.251 104.614 219.357 104.762C219.32 104.762 219.222 104.762 219.222 104.762V104.799ZM229.622 63.2247C227.367 74.9798 225.124 86.7351 222.87 98.5027C224.039 98.4657 225.124 98.4288 226.381 98.4042L227.157 92.5757C227.404 91.1464 228.217 89.9882 229.326 89.3473C229.228 89.2489 229.129 89.1502 229.043 89.0393C228.266 88.1028 227.958 86.846 228.18 85.6138L228.92 80.3399C229.388 76.6679 231.371 75.867 232.948 75.8547C234.538 75.8547 236.51 76.631 237.052 80.303L237.815 85.7617C238.014 87.4006 237.409 88.4603 236.88 89.0641C236.806 89.1502 236.72 89.2366 236.646 89.3104C237.692 89.9019 238.457 90.9124 238.715 92.1569C238.728 92.2184 238.752 92.3786 238.752 92.3786L239.566 98.2686C240.797 98.2686 241.882 98.2686 243.09 98.2932C240.773 86.5872 238.457 74.8813 236.14 63.1753C233.787 63.1753 231.951 63.1999 229.609 63.2493L229.622 63.2247Z" fill="url(#paint0_linear_2104_826)"/>
<path fill-rule="evenodd" clip-rule="evenodd" d="M239.368 15.5997V15.5136C237.926 15.5136 236.486 15.5136 235.044 15.5382C233.602 15.5259 232.161 15.5136 230.719 15.5136V15.5997C117.109 17.7561 33.6266 58.6901 33.6266 58.6901C33.6266 58.6901 24.5207 190.154 71.4309 284.086C122.457 386.248 235.044 458.591 235.044 458.591C235.044 458.591 344.685 386.248 398.657 284.086C448.449 189.834 436.472 58.6901 436.472 58.6901C436.472 58.6901 352.991 17.7684 239.368 15.5997Z" fill="url(#paint1_linear_2104_826)"/>
<path d="M88.9405 34.2431C50.5819 45.9737 34.5016 58.0986 33.4542 58.6038L30.1149 88.337C30.8665 87.955 87.1415 60.144 162.811 46.9717C162.479 37.2249 162.122 26.973 161.789 17.0661C133.275 21.8101 108.262 28.3284 88.9405 34.2431Z" fill="#1B6B36"/>
<path d="M389.44 34.1075C370.217 28.2546 345.437 21.8101 317.307 17.0661C316.973 26.9853 316.616 37.2249 316.283 46.984C343.54 51.7897 367.542 58.2711 386.212 64.1611C424.088 76.1012 448.882 88.263 449.128 88.3863L439.097 56.3365C438.037 55.8313 428.143 45.8997 389.44 34.1075Z" fill="#BB2025"/>
<path d="M244.039 10.0302H243.755L233.688 10.2643C208.009 10.7818 183.796 13.4064 161.802 17.0661C162.134 26.9853 162.491 37.2249 162.823 46.9717C184.831 43.1396 208.749 40.4658 234.045 39.9481L243.978 39.7018C269.791 40.2562 294.177 43.078 316.296 46.984C316.628 37.2249 316.985 26.9853 317.319 17.0661C294.892 13.2832 270.187 10.56 244.039 10.0302Z" fill="#E0E0E0"/>
<path opacity="0.52" fill-rule="evenodd" clip-rule="evenodd" d="M173.73 122.642C237.126 75.4111 315.851 59.6635 375.416 65.0112C364.907 61.6719 303.937 44.1377 237.557 44.7784C157.562 45.5424 52.6767 84.9854 52.6767 84.9854C52.6767 84.9854 49.4237 162.454 72.2812 240.317C73.1437 243.262 74.9181 246.589 76.9635 250.2C78.7133 253.293 83.3587 252.713 84.2336 249.276C88.9653 230.669 113.252 167.704 173.73 122.642Z" fill="url(#paint2_linear_2104_826)"/>
<path d="M67.9437 135.358C66.2679 135.358 64.9617 134.003 64.9617 132.277V91.1958C64.9617 89.8773 65.849 88.5833 67.0688 88.1274C70.9133 86.6981 72.811 86.0082 76.7047 84.6527C77.0743 84.5295 77.4441 84.4555 77.8013 84.4555C79.4033 84.4555 80.6601 85.7124 80.6601 87.3019V128.507C80.6601 129.949 79.6867 131.341 78.3313 131.809C74.573 133.128 72.7493 133.781 69.0158 135.173C68.6706 135.296 68.3133 135.358 67.9437 135.358ZM401.182 132.499C400.825 132.499 400.455 132.438 400.098 132.314C395.748 130.774 393.603 130.047 389.167 128.593C387.85 128.162 387.024 126.844 386.839 125.808C386.815 125.661 386.802 125.5 386.802 125.353V110.96C386.802 110.406 386.741 109.925 386.396 108.693C383.993 99.8335 381.589 91.0108 379.187 82.1883C378.953 81.4244 379.101 80.5002 379.618 79.7978C380.135 79.1078 380.925 78.7011 381.788 78.7011C382.034 78.7011 382.391 78.7504 382.625 78.8244C386.79 80.1058 388.81 80.7589 392.976 82.1389C394.073 82.5087 394.885 83.4082 395.205 84.6281L395.958 88.1522L396.278 86.8214C396.278 86.8214 396.302 86.7227 396.315 86.6735C396.746 85.3058 397.867 84.4185 399.186 84.4185C399.518 84.4185 399.838 84.4802 400.16 84.591C404.09 85.9588 406.012 86.6612 409.955 88.1274C410.745 88.4232 411.397 89.0393 411.754 89.8157C412.099 90.5797 412.136 91.4052 411.853 92.1569L404.545 113.277C404.398 113.757 404.176 114.953 404.176 115.298V129.517C404.176 129.641 404.176 129.764 404.151 129.887C403.917 131.427 402.71 132.487 401.194 132.487L401.182 132.499ZM145.179 113.536C143.429 113.536 142.049 112.168 142.049 110.418V83.1617C140.94 83.3834 139.942 83.593 138.488 83.9011C138.315 83.938 138.056 83.9626 137.884 83.9626C137.083 83.9626 136.307 83.6422 135.703 83.0508C135.099 82.4593 134.754 81.6584 134.754 80.8575V70.7657C134.754 69.2378 135.74 67.9933 137.218 67.6729C145.462 65.9231 153.853 64.3582 162.158 63.0397C162.343 63.0151 162.528 62.9905 162.712 62.9905C164.462 62.9905 165.768 64.2967 165.768 66.034V76.0026C165.768 77.6784 164.548 79.0954 162.872 79.3542C161.061 79.6376 159.952 79.8224 158.436 80.0812V108.323C158.436 109.925 157.218 111.342 155.591 111.626C151.66 112.316 149.738 112.673 145.782 113.449C145.573 113.486 145.363 113.511 145.166 113.511L145.179 113.536ZM328.716 112.932C328.556 112.932 328.285 112.907 328.136 112.883C321.286 111.576 314.323 110.406 307.448 109.42C305.871 109.186 304.688 107.781 304.688 106.155V65.1837C304.688 63.471 306.129 62.0294 307.83 62.0294C307.953 62.0294 308.15 62.0417 308.261 62.0663C312.217 62.6455 314.163 62.9412 318.144 63.6066C319.672 63.8654 320.781 65.1837 320.781 66.7611V94.8307C323.738 95.336 325.66 95.681 329.048 96.3217C330.576 96.6174 331.698 97.9236 331.698 99.4268V109.962C331.698 111.638 330.392 112.932 328.716 112.932ZM219.234 104.824C218.261 104.824 217.374 104.405 216.783 103.69C216.178 102.951 215.944 101.941 216.153 100.93C218.766 87.2527 221.391 73.5505 224.015 59.8359C224.287 58.5422 225.444 57.1744 227.083 57.1375C231.63 57.0266 233.972 57.002 238.445 57.002H238.58C240.17 57.002 241.501 58.1601 241.771 59.7621C244.458 73.2793 247.131 86.7968 249.805 100.314C250.014 101.435 249.756 102.52 249.091 103.321C248.474 104.06 247.563 104.491 246.589 104.491C243.558 104.442 241.759 104.417 239.294 104.417H237.077C235.487 104.417 234.144 103.321 233.873 101.817L232.998 95.5208L232.173 101.743C231.939 103.308 230.583 104.491 229.018 104.516C225.161 104.59 223.276 104.651 219.382 104.799C219.345 104.799 219.271 104.799 219.246 104.799L219.234 104.824Z" fill="#171716"/>
<path d="M238.112 468.054C233.701 468.054 229.289 466.735 225.518 464.075C211.176 454.007 182.563 432.702 151.993 403.031C114.004 366.164 85.2193 328.408 66.4281 290.801C25.1245 208.107 25.8516 98.2686 27.0591 66.5761C27.3301 59.454 31.7291 53.0219 38.2599 50.1878C58.924 41.2051 132.511 12.2481 226.972 9.19228C226.972 9.19228 236.744 8.94582 238.198 8.95815C239.653 8.94582 249.423 9.19228 249.423 9.19228C344.02 12.2605 417.632 41.2667 438.297 50.2618C444.79 53.0835 449.079 59.2322 449.485 66.2928C451.308 97.9729 453.847 207.8 409.918 290.948C390.117 328.445 360.975 366.101 323.331 402.883C292.969 432.542 264.912 453.872 250.89 463.95C247.069 466.686 242.585 468.066 238.1 468.066L238.112 468.054ZM237.483 22.648L233.959 22.7097C138.796 24.5209 64.2964 53.8105 43.7309 62.744C41.9934 63.4956 40.8352 65.196 40.7612 67.0814C39.5907 97.9606 38.839 204.891 78.6885 284.664C121.224 369.823 207.849 434.921 233.393 452.848C236.25 454.858 240.071 454.833 242.905 452.799C267.869 434.858 352.818 369.724 397.818 284.529C440.096 204.51 437.594 97.8373 435.82 67.0568C435.709 65.1837 434.575 63.5573 432.85 62.8057C412.285 53.8598 337.761 24.5209 242.461 22.7097L238.937 22.648C238.715 22.648 238.494 22.648 238.272 22.648H238.211H238.149C237.926 22.648 237.704 22.648 237.483 22.648Z" fill="url(#paint3_linear_2104_826)"/>
<path d="M68.1564 132.857C67.762 133.005 67.4293 132.733 67.4293 132.277C67.4293 118.588 67.4293 104.886 67.4293 91.1956C67.4293 90.9124 67.6512 90.5426 67.9346 90.4441C71.7545 89.0147 73.6766 88.3247 77.5211 86.9816C77.9155 86.846 78.1989 86.9816 78.1989 87.3142C78.1989 101.053 78.1989 114.78 78.1989 128.519C78.1989 128.864 77.9155 129.357 77.5211 129.493C73.763 130.799 71.8899 131.464 68.1564 132.857ZM145.317 111.059C144.911 111.133 144.504 110.874 144.504 110.43C144.504 100.573 144.504 90.7151 144.504 80.8452C144.504 80.4508 144.159 80.2291 143.752 80.3153C141.436 80.7835 140.278 81.0177 137.973 81.5105C137.628 81.5845 137.222 81.2148 137.222 80.8821C137.222 76.8529 137.222 74.8319 137.222 70.7903C137.222 70.4454 137.394 70.1866 137.739 70.1127C145.983 68.3629 154.251 66.8226 162.543 65.5041C162.951 65.4426 163.296 65.6151 163.296 66.0587C163.296 70.051 163.296 72.0472 163.296 76.0272C163.296 76.4831 162.951 76.8775 162.482 76.9513C160.154 77.3211 158.995 77.5182 156.665 77.9126C156.259 77.9864 155.964 78.3191 155.964 78.8244C155.964 88.6697 155.964 98.5027 155.964 108.348C155.964 108.742 155.619 109.149 155.15 109.223C151.207 109.913 149.236 110.283 145.293 111.059H145.317ZM238.571 59.4664C238.977 59.4664 239.272 59.8113 239.334 60.2057C242.021 73.7353 244.695 87.2773 247.381 100.807C247.505 101.435 247.209 102.051 246.555 102.039C242.748 101.978 240.85 101.965 237.043 101.978C236.686 101.978 236.341 101.756 236.278 101.411C235.81 98.0098 235.576 96.3094 235.109 92.9208C235.047 92.6374 234.813 92.4649 234.516 92.4772C233.247 92.4772 232.619 92.4895 231.35 92.5142C231.116 92.5142 230.882 92.7483 230.82 93.0933C230.377 96.4326 230.154 98.1084 229.711 101.448C229.649 101.842 229.243 102.076 228.948 102.088C225.078 102.162 223.131 102.224 219.261 102.384C218.732 102.409 218.437 102.027 218.56 101.448C221.173 87.7455 223.796 74.031 226.421 60.329C226.483 60.0455 226.778 59.6389 227.123 59.6265C231.707 59.5156 233.987 59.491 238.571 59.491V59.4664ZM233.408 80.8575C233.298 80.0689 233.173 79.5513 233.001 79.5636C232.828 79.5636 232.705 79.958 232.594 80.8698C232.287 83.0262 232.139 84.1105 231.831 86.2668C231.77 86.5503 231.893 86.8337 232.188 86.8337C234.073 86.8091 234.245 86.8091 234.184 86.3038C233.876 84.1351 233.728 83.0385 233.421 80.8698L233.408 80.8575ZM328.584 98.7245C328.99 98.7984 329.224 99.1311 329.224 99.4145C329.224 103.629 329.224 105.736 329.224 109.95C329.224 110.295 328.941 110.517 328.584 110.455C321.67 109.137 314.734 107.966 307.783 106.98C307.439 106.931 307.143 106.549 307.143 106.155C307.143 92.5019 307.143 78.8367 307.143 65.1838C307.143 64.8388 307.488 64.4444 307.894 64.5061C311.838 65.073 313.797 65.381 317.728 66.034C318.073 66.0956 318.307 66.4159 318.307 66.7488C318.307 76.6679 318.307 86.5872 318.307 96.5065C318.307 96.7284 318.479 96.9378 318.651 96.9624C322.632 97.6279 324.615 97.9852 328.571 98.7369L328.584 98.7245ZM381.543 81.5352C381.482 81.3504 381.606 81.1039 381.889 81.1902C386.016 82.4593 388.075 83.1248 392.189 84.4926C392.474 84.591 392.696 84.8375 392.806 85.2688C393.891 90.3209 394.433 92.8468 395.518 97.9112C395.579 98.2192 395.739 98.4411 395.801 98.4657C395.912 98.5027 396.084 98.3919 396.084 98.1084C397.119 93.8327 397.636 91.7009 398.672 87.4375C398.783 87.0802 399.004 86.8214 399.349 86.9323C403.268 88.3001 405.215 89.0024 409.109 90.4564C409.441 90.5795 409.663 90.9985 409.552 91.3066C407.112 98.3671 404.661 105.428 402.22 112.488C401.999 113.203 401.716 114.694 401.716 115.31C401.716 121.003 401.716 123.849 401.716 129.53C401.654 129.912 401.382 130.146 400.926 129.986C396.539 128.445 394.347 127.694 389.935 126.252C389.59 126.141 389.32 125.648 389.258 125.353C389.258 119.598 389.258 116.715 389.258 110.96C389.258 110.11 389.146 109.395 388.752 108.015C386.362 99.1805 383.959 90.3578 381.555 81.5475L381.543 81.5352Z" fill="url(#paint4_linear_2104_826)"/>
<path d="M238.174 60.7005C240.822 74.0699 243.472 87.4272 246.109 100.797C243.262 100.747 241.537 100.735 239.232 100.735C238.518 100.735 238.161 100.735 237.434 100.735C237.249 99.4288 237.163 98.7758 236.978 97.482C236.72 95.5843 236.584 94.6356 236.324 92.7503C236.324 92.7379 236.324 92.7256 236.324 92.7132C236.324 92.7009 236.324 92.6886 236.324 92.6763C236.152 91.8385 235.413 91.247 234.526 91.247C233.256 91.247 232.616 91.2593 231.347 91.2839C230.497 91.2962 229.769 91.9739 229.609 92.9351C229.425 94.3644 229.326 95.0792 229.129 96.4962L228.549 100.846C225.112 100.92 223.227 100.969 219.875 101.105C222.437 87.6735 225.001 74.2549 227.577 60.8361C231.74 60.7375 234.033 60.7005 238.174 60.7005ZM230.596 86.084C230.497 86.6015 230.62 87.1191 230.94 87.501C231.236 87.8585 231.679 88.0679 232.161 88.0679C232.173 88.0679 232.185 88.0679 232.21 88.0679C233.935 88.0433 234.513 88.0433 235.032 87.4518C235.475 86.9466 235.401 86.3551 235.376 86.1209C235.069 83.94 234.919 82.8557 234.612 80.6747C234.476 79.7381 234.267 78.3211 232.973 78.3211C231.654 78.3334 231.47 79.8244 231.347 80.6993C231.187 81.8083 231.113 82.3505 230.953 83.4594C230.805 84.5068 230.731 85.0243 230.583 86.0717M308.347 65.8018C311.736 66.2948 313.646 66.5904 317.059 67.1573C317.059 78.8756 317.059 84.7286 317.059 96.4469C317.059 97.2848 317.688 98.0364 318.488 98.172C322.334 98.8127 324.268 99.1701 327.964 99.8601C327.964 103.557 327.964 105.405 327.964 109.102C321.47 107.869 314.878 106.773 308.347 105.824C308.347 92.4792 308.347 79.1467 308.347 65.8018ZM162.048 66.8123C162.048 70.398 162.048 72.197 162.048 75.7828C159.89 76.1278 158.733 76.3249 156.502 76.707C155.454 76.8918 154.728 77.7913 154.728 78.8879C154.728 84.7901 154.728 87.7475 154.728 93.6497V108.067C151.118 108.695 149.195 109.052 145.721 109.742V95.5843C145.721 89.6697 145.721 86.7124 145.721 80.7978C145.721 79.7875 144.907 79.0235 143.86 79.085C143.761 79.085 143.663 79.0974 143.552 79.122C141.469 79.541 140.324 79.7752 138.438 80.1694V71.2113C146.238 69.5601 154.174 68.0814 162.048 66.8123ZM383.142 82.8557C386.235 83.8167 388.207 84.4575 391.632 85.5912C392.705 90.5692 393.234 93.0584 394.294 98.0487C394.405 98.6279 394.774 99.4042 395.476 99.6384C395.551 99.663 395.588 99.6753 395.662 99.6999C395.724 99.6999 395.748 99.6999 395.81 99.7122C396.585 99.7739 397.202 99.2194 397.276 98.4062C397.769 96.3852 398.015 95.3749 398.495 93.3541C398.977 91.3578 399.223 90.3598 399.703 88.3636C402.98 89.5095 404.867 90.1873 408.144 91.4072C406.135 97.1986 405.138 100.094 403.128 105.886C402.279 108.338 401.848 109.57 400.997 112.034C400.738 112.835 400.443 114.437 400.443 115.213C400.443 120.561 400.443 123.235 400.443 128.571C396.61 127.227 394.467 126.488 390.449 125.182V111.073C390.449 110.063 390.314 109.237 389.895 107.796C387.639 99.4905 385.385 91.1853 383.117 82.868M76.9264 88.4623C76.9264 95.1901 76.9264 98.554 76.9264 105.294C76.9264 114.548 76.9264 119.169 76.9264 128.423C73.5994 129.581 71.7757 130.246 68.6214 131.417C68.6214 122.028 68.6214 117.345 68.6214 107.956C68.6214 101.363 68.6214 98.061 68.6214 91.4687C71.899 90.2488 73.7473 89.5712 76.9264 88.4623ZM238.346 59.493C233.885 59.493 231.605 59.5176 227.083 59.6285C226.726 59.6285 226.443 60.0352 226.381 60.3309C223.756 74.033 221.131 87.7475 218.52 101.45C218.409 102.004 218.68 102.386 219.197 102.386H219.222C223.091 102.226 225.026 102.177 228.906 102.09C229.203 102.09 229.609 101.856 229.671 101.45C230.114 98.1104 230.336 96.4346 230.78 93.0953C230.842 92.7503 231.076 92.5284 231.31 92.5161C232.579 92.4915 233.207 92.4915 234.476 92.4792C234.772 92.4792 235.006 92.6517 235.056 92.9228C235.524 96.3237 235.758 98.0241 236.226 101.413C236.287 101.758 236.634 101.98 236.991 101.98C237.791 101.98 238.506 101.98 239.171 101.98C241.673 101.98 243.496 101.992 246.491 102.053C247.131 102.053 247.428 101.437 247.317 100.821C244.643 87.2916 241.956 73.7496 239.269 60.22C239.208 59.8256 238.912 59.4807 238.506 59.4807H238.322L238.346 59.493ZM232.124 86.848C231.827 86.848 231.716 86.5646 231.777 86.2811C232.087 84.1248 232.234 83.0405 232.542 80.8841C232.665 79.9723 232.776 79.5779 232.948 79.5779C233.121 79.5779 233.244 80.0832 233.355 80.8718C233.664 83.0404 233.812 84.1371 234.119 86.3058C234.181 86.8111 233.996 86.8234 232.124 86.848ZM307.793 64.5081C307.411 64.4958 307.091 64.8777 307.091 65.198C307.091 78.851 307.091 92.5161 307.091 106.169C307.091 106.563 307.386 106.945 307.731 106.995C314.682 107.993 321.63 109.151 328.531 110.469C328.556 110.469 328.593 110.469 328.618 110.469C328.925 110.482 329.172 110.272 329.172 109.952C329.172 105.738 329.172 103.631 329.172 99.4165C329.172 99.133 328.938 98.8004 328.531 98.7265C324.563 97.9749 322.58 97.6174 318.611 96.9521C318.439 96.9275 318.267 96.718 318.267 96.4962C318.267 86.5769 318.267 76.6576 318.267 66.7383C318.267 66.3933 318.033 66.0729 317.688 66.0237C313.757 65.3707 311.798 65.0625 307.854 64.4958C307.83 64.4958 307.817 64.5081 307.793 64.5081ZM162.626 65.4938C162.626 65.4938 162.54 65.4938 162.503 65.5061C154.211 66.8246 145.93 68.3649 137.699 70.1147C137.354 70.1885 137.181 70.4473 137.181 70.7923C137.181 74.8216 137.181 76.8425 137.181 80.8841C137.181 81.2045 137.539 81.5494 137.859 81.5248C137.884 81.5248 137.908 81.5248 137.921 81.5248C140.225 81.032 141.383 80.7978 143.7 80.3296C143.737 80.3296 143.786 80.3172 143.823 80.3172C144.168 80.3049 144.451 80.502 144.451 80.8595C144.451 90.7171 144.451 100.575 144.451 110.445C144.451 110.864 144.784 111.11 145.154 111.086C145.191 111.086 145.228 111.086 145.265 111.073C149.195 110.297 151.167 109.94 155.122 109.237C155.591 109.151 155.936 108.757 155.936 108.362C155.936 98.5169 155.936 88.684 155.936 78.8387C155.936 78.3334 156.231 78.0007 156.638 77.9269C158.967 77.5325 160.126 77.3354 162.454 76.9656C162.922 76.8918 163.268 76.4974 163.268 76.0415C163.268 72.0491 163.268 70.053 163.268 66.073C163.268 65.6663 162.983 65.4815 162.639 65.5061L162.626 65.4938ZM381.749 81.1922C381.528 81.1798 381.441 81.3893 381.491 81.5618C383.894 90.3844 386.296 99.2071 388.687 108.03C389.081 109.41 389.192 110.124 389.192 110.975C389.192 116.729 389.192 119.612 389.192 125.367C389.254 125.663 389.526 126.155 389.871 126.266C394.282 127.708 396.475 128.46 400.862 130C400.935 130.024 401.009 130.037 401.071 130.049C401.403 130.074 401.6 129.864 401.649 129.544C401.649 123.851 401.649 121.005 401.649 115.324C401.649 114.696 401.934 113.217 402.156 112.503C404.594 105.442 407.047 98.3814 409.488 91.3209C409.598 91.0251 409.377 90.5938 409.043 90.4707C405.15 89.0166 403.203 88.3144 399.284 86.9466C399.247 86.9343 399.198 86.9219 399.161 86.9219C398.89 86.8972 398.706 87.1314 398.606 87.4518C397.572 91.7152 397.055 93.847 396.019 98.1227C396.019 98.3814 395.884 98.4923 395.773 98.4923C395.773 98.4923 395.748 98.4923 395.736 98.4923C395.675 98.4677 395.513 98.246 395.451 97.9379C394.368 92.8734 393.825 90.3475 392.742 85.2954C392.631 84.8641 392.396 84.6176 392.125 84.5191C388.023 83.1514 385.951 82.4984 381.825 81.2168C381.8 81.2168 381.762 81.2045 381.737 81.2045L381.749 81.1922ZM77.6904 86.9466C77.6164 86.9466 77.5425 86.9712 77.4685 86.9959C73.624 88.339 71.7019 89.029 67.882 90.4584C67.5986 90.5569 67.3767 90.9266 67.3767 91.2099C67.3767 104.9 67.3767 118.602 67.3767 132.292C67.3767 132.686 67.6232 132.933 67.9436 132.908C67.9928 132.908 68.0422 132.896 68.1038 132.871C71.8374 131.479 73.7103 130.813 77.4685 129.495C77.8629 129.359 78.1463 128.866 78.1463 128.521C78.1463 114.782 78.1463 101.055 78.1463 87.3162C78.1463 87.0451 77.9738 86.9095 77.7027 86.9343L77.6904 86.9466Z" fill="url(#paint5_linear_2104_826)"/>
<path d="M238.925 25.1124L242.411 25.1741C337.256 26.973 411.397 56.164 431.864 65.073C432.727 65.4549 433.305 66.2681 433.355 67.2047C435.118 97.825 437.606 203.918 395.638 283.383C350.883 368.098 266.317 432.948 241.464 450.803C240.477 451.505 239.319 451.876 238.112 451.876C236.904 451.876 235.783 451.517 234.81 450.828C209.389 432.985 123.171 368.209 80.8943 283.567C41.3157 204.313 42.0551 97.9112 43.2258 67.1799C43.2627 66.2311 43.8419 65.381 44.7168 64.9989C65.1838 56.1147 139.301 26.9607 234.021 25.1618L237.508 25.1H237.928H238.137H238.248H238.309H238.518H238.937M238.949 22.6357C238.728 22.6357 238.506 22.6357 238.285 22.6357H238.223H238.161C237.94 22.6357 237.717 22.6357 237.495 22.6357L233.972 22.6972C138.808 24.5086 64.3088 53.7982 43.7432 62.7317C42.0059 63.4833 40.8475 65.1837 40.7737 67.0691C39.603 97.9483 38.8514 204.879 78.701 284.652C121.237 369.81 207.861 434.907 233.405 452.836C234.822 453.835 236.474 454.327 238.125 454.327C239.776 454.327 241.488 453.81 242.918 452.787C267.882 434.846 352.831 369.712 397.83 284.517C440.108 204.498 437.606 97.825 435.832 67.0445C435.721 65.1714 434.587 63.545 432.862 62.7934C412.297 53.8475 337.773 24.5086 242.474 22.6972L238.949 22.6357Z" fill="#2D2D2D"/>
<path d="M238.112 463.741C234.464 463.741 230.965 462.633 227.995 460.55C213.764 450.557 185.348 429.4 154.987 399.938C117.343 363.416 88.8419 326.042 70.2849 288.879C29.4372 207.096 30.1764 98.17 31.3717 66.7363C31.5813 61.2654 34.9575 56.3118 39.9849 54.1309C60.156 45.3699 133.275 16.5362 227.12 13.4927C227.589 13.4803 228.032 13.3941 228.451 13.2339H233.824C235.278 13.2339 236.72 13.2339 238.162 13.2585C239.689 13.2462 241.131 13.2339 242.571 13.2339H247.957C248.375 13.3818 248.82 13.4803 249.288 13.4927C343.243 16.5362 416.4 45.4192 436.583 54.2049C441.574 56.3735 444.876 61.1052 445.184 66.5269C446.995 97.9235 449.522 206.752 406.11 288.928C386.519 326.017 357.648 363.317 320.312 399.791C290.161 429.252 262.299 450.434 248.375 460.439C245.369 462.596 241.833 463.741 238.112 463.741ZM233.885 18.4091C137.933 20.2328 62.7685 49.7936 42.018 58.801C38.7774 60.218 36.5962 63.4094 36.4607 66.9335C35.2779 98.0713 34.5385 205.915 74.8441 286.611C117.823 372.669 205.175 438.321 230.928 456.398C233.047 457.889 235.536 458.665 238.125 458.665C240.711 458.665 243.287 457.851 245.43 456.31C270.581 438.235 356.194 372.583 401.639 286.549C444.433 205.532 441.919 97.8865 440.133 66.8103C439.936 63.3108 437.803 60.2549 434.575 58.8502C413.824 49.8182 338.647 20.2205 242.547 18.3968L239.023 18.3352H238.235H237.495C237.471 18.3352 233.898 18.3968 233.898 18.3968L233.885 18.4091Z" fill="url(#paint6_linear_2104_826)"/>
<path d="M403.819 229.277C403.819 229.277 400.037 237.878 383.094 238.112C374.099 238.235 365.485 231.396 356.194 222.673C366.865 223.313 374.468 220.602 377.536 219.777C372.583 219.974 355.813 220.072 349.355 214.724C346.151 212.076 343.071 209.66 340.089 207.43C328.261 196.846 322.727 178.904 290.579 186.052C258.431 193.197 256.768 234.193 253.109 237.089C249.448 239.985 250.52 245.344 250.52 245.481C246.429 247.083 239.036 244.876 230.126 242.831C225.815 239.183 220.737 236.707 215.206 235.758C213.294 234.082 211.323 232 209.512 229.486C209.241 229.105 209.955 227.454 209.697 227.06C208.243 224.89 205.952 223.695 204.904 220.936C204.781 220.602 201.885 212.937 200.837 210.302C199.643 207.283 196.302 193.05 195.822 189.218C194.294 177.278 191.189 170.821 186.002 167.062C180.814 163.305 177.302 162.035 177.253 161.875C176.958 160.864 186.039 161.728 187.098 161.826C187.887 161.9 189.231 162.331 191.189 162.085C196.253 161.457 196.499 161.568 198.977 159.855C209.118 152.818 207.898 141.162 204.473 140.459C203.093 140.176 199.902 144.698 197.252 146.953C196.772 147.36 196.069 146.879 196.266 146.275C197.387 143.022 198.94 137.49 195.675 138.956C192.126 140.546 189.366 144.772 187.543 147.976C186.704 149.454 183.685 150.576 183.205 149.59C181.862 146.83 191.288 138.734 189.243 137.81C187.85 137.182 180.875 141.692 177.906 147.754C176.785 150.058 175.738 148.666 176.045 148.05C176.353 147.421 178.597 137.847 177.401 138.106C169.638 139.745 169.946 150.428 168.467 150.982C168.172 151.093 167.63 151.217 167.407 149.319C167.136 147.027 169.072 142.172 166.311 143.712C162.479 145.844 163.834 151.29 163.206 152.917C160.631 159.595 160.852 148.925 158.339 150.637C154.851 153.028 150.871 166.755 157.895 172.522L157.821 172.756C157.821 172.756 149.109 175.664 147.951 177.61C146.793 179.557 148.395 179.04 148.395 179.04C149.689 179.126 159.632 179.718 160.347 180.888C159.546 193.494 149.972 194.11 152.264 202.451C153.311 203.573 154.433 203.831 155.493 203.659C156.133 204.781 157.082 205.705 158.202 206.296C156.268 217.201 150.909 228.661 147.397 235.389C146.756 236.609 148.875 237.618 150.588 236.51C149.491 242.844 145.61 245.049 145.191 249.608C144.6 256.064 143.762 259.823 144.464 265.418C145.166 271.011 148.37 287.056 154.9 297.109C162.626 309.013 182.219 314.583 184.856 318.131C192.225 328.014 207.603 335.703 208.071 336.848L213.862 342.738C213.862 346.83 210.868 360.323 210.868 360.323C210.251 362.848 208.772 366.902 208.772 366.902C208.772 366.902 207.615 367.444 205.655 367.716C203.918 367.962 201.009 367.864 199.68 367.815C198.337 367.765 196.993 367.913 195.872 368.381C195.059 368.713 193.765 370.155 193.197 370.821C191.669 370.846 189.858 371.068 189.292 371.511C188.441 372.163 185.496 373.666 185.238 374.64C184.979 375.627 185.188 376.648 185.188 376.648C185.188 376.648 186.113 376.648 186.445 376.131C186.778 375.614 188.417 374.874 188.872 375.01C189.329 375.145 190.006 375.614 190.66 375.614C191.312 375.614 194.651 373.963 199.371 373.963C204.09 373.963 206.432 373.74 206.309 373.828C204.461 375.059 200.603 373.076 199.643 376.415C199.186 377.979 199.778 378.139 199.791 379.298C199.803 380.469 200.751 378.127 201.22 377.573C201.7 377.007 206.838 376.575 208.723 376.279C210.486 376.008 210.609 376.279 211.508 375.256C211.508 375.256 213.37 374.111 214.293 374.013C215.218 373.914 214.428 372.522 214.847 372.188C215.267 371.855 217.583 372.015 217.755 372.534C217.927 373.051 218.815 372.866 218.877 372.114C218.938 371.363 217.891 370.684 217.177 369.798C216.463 368.91 215.452 369.083 214.859 368.492C213.481 367.148 215.489 365.559 215.021 364.968C214.428 364.216 215.218 361.728 215.316 361.357C215.415 360.987 217.731 352.843 218.741 348.949C219.025 347.878 219.9 345.4 220.786 342.948L221.884 341.852C222.093 341.778 222.376 341.754 222.685 341.741C224.964 345.536 227.478 348.702 229.671 349.775C233.418 351.598 233.319 350.39 233.319 350.39L236.35 350.477C239.419 358.942 238.605 366.681 238.605 366.681C239.369 369.132 239.677 373.568 239.677 373.568C239.677 373.568 238.1 373.902 236.375 374.271C234.649 374.64 232.456 373.939 231.113 373.902C229.769 373.853 228.426 374 227.306 374.468C226.184 374.936 224.127 377.549 224.361 377.327C224.595 377.093 226.972 376.488 227.663 376.488C228.352 376.488 229.179 377.007 229.732 376.673C230.3 376.341 229.843 377.61 232.296 377.512C234.329 377.438 235.647 377.746 235.524 377.795C233.849 378.399 227.392 379.384 226.061 379.15C224.73 378.916 221.539 379.015 220.688 379.667C219.839 380.321 216.893 381.825 216.635 382.797C216.375 383.783 216.586 384.807 216.586 384.807C216.586 384.807 217.509 384.807 217.841 384.288C218.175 383.771 219.814 383.033 220.269 383.168C220.725 383.303 221.403 383.771 222.056 383.771C222.71 383.771 226.898 382.551 231.605 382.551C236.314 382.551 234.39 381.985 237.126 381.714C239.862 381.429 234.366 386.384 234.045 387.986C233.725 389.575 234.045 389.341 234.07 390.511C234.082 391.682 235.032 389.341 235.5 388.786C235.98 388.22 239.493 388.035 240.317 386.778C241.131 385.521 241.882 383.55 242.782 382.526C242.782 382.526 244.84 381.542 245.764 381.455C246.688 381.355 245.9 379.964 246.318 379.63C246.737 379.298 248.956 381.171 249.128 381.689C249.3 382.206 250.188 382.022 250.25 381.269C250.311 380.518 249.362 378.139 248.648 377.253C247.932 376.365 246.909 376.55 246.331 375.947C245.752 375.344 244.852 370.364 244.015 369.318C243.176 368.282 247.6 369.218 247.809 368.873C248.474 367.753 245.332 365.67 245.061 365.067C244.532 363.883 243.89 357.845 243.102 353.754C242.635 351.303 245.814 349.492 245.814 349.492C245.814 349.492 245.727 344.119 246.7 342.197C247.403 340.792 236.707 327.274 242.018 323.738C243.73 323.825 245.58 323.812 247.489 323.677C256.324 323.011 269.668 315.235 269.003 312.204C268.88 311.638 268.511 311.158 267.943 310.75C274.844 308.557 279.711 305.145 279.145 302.643C279.008 302.015 278.528 301.509 277.789 301.115C282.903 296.432 286.537 291.615 286.599 286.883C286.611 285.786 286.426 283.63 286.414 282.632C291.627 278.75 292.206 283.543 297.122 277.135C297.763 281.252 298.453 285.872 299.008 289.581C293.586 295.692 288.362 296.199 288.362 296.199C288.362 296.199 293.438 296.851 299.661 293.955C299.735 294.461 299.808 294.929 299.87 295.298C299.931 295.717 300.498 295.766 300.659 295.372C300.905 294.757 301.213 293.943 301.496 292.995C303.912 291.627 306.437 289.691 308.853 286.969C309.099 287.893 309.321 288.51 309.505 288.707C310.393 289.679 310.652 287.93 310.898 284.43C311.564 283.53 312.217 282.558 312.846 281.51C313.215 281.621 313.178 281.608 313.548 281.719C313.548 283.567 313.4 285.478 313.067 287.499C309.728 307.817 298.884 311.219 298.884 311.219C298.884 311.219 313.535 310.233 320.523 290.813C320.596 290.813 320.596 290.813 320.67 290.813C321.224 293.093 321.569 295.557 321.68 298.231C322.494 319.462 312.487 325.119 312.487 325.119C312.487 325.119 328.064 320.769 330.022 297.085C339.362 300.856 346.867 297.628 346.867 297.628C346.867 297.628 338.932 299.107 330.183 290.001C330.133 288.436 330.059 286.834 329.899 285.132C329.479 280.599 327.422 276.188 324.6 271.85C324.058 270.888 323.529 269.916 323.011 268.954C322.629 267.377 322.124 265.775 321.507 264.173C322.654 266.354 324.218 268.14 325.549 270.039C343.614 295.692 365.781 288.04 365.781 288.04C365.781 288.04 357.402 289.174 341.137 273.193C339.129 271.221 337.453 269.2 335.999 267.143C342.148 270.285 347.224 270.753 348.309 269.311C337.687 264.05 333.731 253.158 326.991 241.55C326.647 239.456 326.3 237.36 325.943 235.241C338.105 250.04 343.811 264.789 358.733 271.788C384.153 283.704 393.864 266.292 393.864 266.292C393.864 266.292 387.703 271.936 370.586 266.144C363.662 263.804 358.165 258.406 352.978 251.493C357.156 252.873 361.554 253.884 365.891 254.401C348.53 245.567 345.253 232.85 333.288 221.945C332.548 220.936 331.809 219.912 331.044 218.914C347.174 230.04 356.847 247.465 374.591 248.525C400.566 250.065 403.745 229.24 403.745 229.24L403.819 229.277ZM195.008 370.932C194.713 370.883 194.319 370.846 193.876 370.834C194.688 370.611 195.81 370.401 196.241 370.401C196.932 370.401 197.757 370.92 198.312 370.586C198.878 370.254 198.374 370.217 200.812 370.118C202.847 370.044 204.227 370.352 204.102 370.377C202.34 370.784 196.327 371.154 194.996 370.92L195.008 370.932ZM306.179 277.062C305.108 279.982 303.924 282.447 302.692 284.554C303 279.477 303.037 274.043 302.557 268.708C303.147 267.574 303.691 266.452 304.171 265.32C304.306 265.467 304.429 265.615 304.552 265.763C305.206 268.769 305.908 272.392 306.573 275.866C306.449 276.261 306.326 276.655 306.179 277.062Z" fill="url(#paint7_linear_2104_826)"/>
<path d="M402.008 225.075C402.008 225.075 398.224 233.676 381.282 233.91C372.288 234.033 363.674 227.195 354.383 218.471C365.054 219.111 372.657 216.401 375.725 215.575C370.772 215.772 354.002 215.87 347.544 210.523C344.34 207.873 341.26 205.458 338.278 203.228C326.45 192.643 320.916 174.702 288.768 181.849C256.62 188.997 254.957 229.991 251.296 232.887C247.637 235.783 248.709 241.143 248.709 241.279C244.618 242.881 237.224 240.674 228.315 238.629C224.004 234.982 218.926 232.505 213.394 231.556C211.483 229.88 209.512 227.798 207.701 225.284C207.43 224.902 208.144 223.251 207.886 222.857C206.432 220.688 204.141 219.494 203.093 216.733C202.97 216.401 200.074 208.737 199.026 206.099C197.83 203.08 194.491 188.849 194.011 185.016C192.483 173.076 189.378 166.619 184.19 162.862C179.003 159.103 175.491 157.833 175.442 157.673C175.147 156.662 184.227 157.525 185.287 157.624C186.076 157.698 188.035 157.907 189.994 157.661C195.059 157.033 196.919 156.047 198.25 155.11C202.537 152.116 203.24 144.932 201.245 140.546C199.889 140.989 198.09 141.42 195.441 142.764C194.873 143.047 194.257 142.69 194.454 142.086C195.576 138.833 197.129 133.3 193.864 134.767C190.314 136.356 188.503 138.118 186.138 141.408C185.151 142.788 183.66 144.464 181.394 145.388C182.44 143.983 189.231 138.106 187.432 133.608C181.357 134.064 178.486 137.896 174.21 145.474C172.953 147.705 173.754 146.004 175.651 141.273C177.549 136.541 176.81 133.645 175.602 133.892C167.839 135.531 168.147 146.214 166.668 146.768C166.373 146.879 165.83 147.002 165.608 145.105C165.83 143.096 166.102 141.347 164.513 139.498C160.089 142.566 161.295 146.362 160.667 147.988C158.092 154.666 158.807 147.717 156.539 146.423C152.646 148.74 149.073 162.54 156.096 168.307L156.022 168.541C156.022 168.541 147.31 171.449 146.152 173.396C144.994 175.344 146.596 174.825 146.596 174.825C147.89 174.911 157.833 175.504 158.549 176.675C157.747 189.28 148.173 189.895 150.465 198.238C151.512 199.358 152.634 199.618 153.693 199.444C154.334 200.566 155.284 201.491 156.404 202.082C154.47 212.987 149.109 224.447 145.598 231.174C144.957 232.394 147.076 233.405 148.789 232.296C147.692 238.629 143.811 240.836 143.392 245.395C142.801 251.851 141.963 255.609 142.665 261.204C143.367 266.798 146.571 282.841 153.102 292.896C160.827 304.798 180.42 310.368 183.057 313.917C190.426 323.8 205.804 331.489 206.272 332.635L212.063 338.524C212.063 342.615 209.069 356.108 209.069 356.108C208.452 358.635 206.973 362.688 206.973 362.688C206.973 362.688 205.816 363.231 203.856 363.502C202.119 363.748 199.211 363.649 197.88 363.6C196.538 363.551 195.195 363.699 194.073 364.166C193.259 364.499 191.966 365.941 191.399 366.607C189.871 366.631 188.06 366.853 187.493 367.296C186.642 367.95 183.697 369.453 183.439 370.426C183.18 371.412 183.39 372.435 183.39 372.435C183.39 372.435 184.314 372.435 184.647 371.917C184.979 371.4 186.618 370.66 187.073 370.797C187.53 370.932 188.207 371.4 188.861 371.4C189.514 371.4 192.853 369.749 197.572 369.749C202.291 369.749 204.633 369.527 204.51 369.613C202.662 370.846 198.804 368.861 197.843 372.2C197.387 373.765 197.978 373.926 197.99 375.084C198.004 376.254 198.952 373.914 199.42 373.359C199.901 372.792 205.039 372.362 206.924 372.065C208.686 371.794 208.811 372.065 209.709 371.043C209.709 371.043 211.57 369.897 212.494 369.798C213.419 369.7 212.63 368.307 213.048 367.975C213.468 367.641 215.784 367.802 215.956 368.319C216.129 368.836 217.017 368.652 217.078 367.901C217.14 367.148 216.092 366.471 215.378 365.584C214.662 364.697 213.653 364.87 213.061 364.277C211.68 362.934 213.69 361.344 213.221 360.754C212.63 360.001 213.419 357.513 213.518 357.144C213.616 356.773 215.932 348.628 216.943 344.734C217.226 343.663 218.101 341.186 218.988 338.735L220.085 337.637C220.294 337.564 220.577 337.539 220.885 337.527C223.165 341.321 225.679 344.488 227.872 345.56C231.617 347.384 231.519 346.176 231.519 346.176L234.55 346.263C237.618 354.728 236.806 362.466 236.806 362.466C237.569 364.919 237.878 369.355 237.878 369.355C237.878 369.355 236.301 369.687 234.575 370.057C232.85 370.426 230.657 369.724 229.314 369.687C227.971 369.638 226.627 369.786 225.506 370.254C224.385 370.723 222.327 373.334 222.562 373.112C222.796 372.879 225.173 372.275 225.864 372.275C226.553 372.275 227.38 372.792 227.934 372.46C228.5 372.126 228.044 373.396 230.497 373.297C232.53 373.223 233.848 373.531 233.725 373.58C232.05 374.185 225.593 375.17 224.262 374.936C222.931 374.702 219.74 374.8 218.889 375.454C218.04 376.107 215.095 377.61 214.836 378.584C214.576 379.569 214.785 380.592 214.785 380.592C214.785 380.592 215.71 380.592 216.043 380.075C216.376 379.557 218.015 378.818 218.471 378.953C218.926 379.089 219.605 379.557 220.257 379.557C220.909 379.557 225.099 378.336 229.806 378.336C234.513 378.336 232.591 377.77 235.327 377.499C238.063 377.216 232.567 382.169 232.247 383.771C231.927 385.361 232.247 385.127 232.271 386.298C232.284 387.467 233.233 385.127 233.701 384.573C234.181 384.005 237.692 383.82 238.518 382.563C239.332 381.306 240.083 379.335 240.983 378.312C240.983 378.312 243.041 377.327 243.965 377.241C244.889 377.142 244.101 375.75 244.519 375.417C244.938 375.084 247.157 376.958 247.329 377.475C247.501 377.992 248.388 377.807 248.451 377.056C248.512 376.304 247.563 373.926 246.847 373.039C246.134 372.151 245.11 372.337 244.532 371.732C243.953 371.129 243.053 366.15 242.214 365.103C241.377 364.068 245.801 365.005 246.01 364.66C246.675 363.539 243.533 361.455 243.262 360.852C242.733 359.669 242.091 353.631 241.304 349.541C240.836 347.088 244.015 345.277 244.015 345.277C244.015 345.277 243.929 339.904 244.901 337.982C245.604 336.577 234.909 323.06 240.219 319.524C241.931 319.61 243.779 319.598 245.69 319.462C254.524 318.798 267.869 311.021 267.205 307.99C267.082 307.423 266.711 306.943 266.144 306.537C273.046 304.343 277.913 300.93 277.345 298.428C277.209 297.8 276.729 297.294 275.991 296.9C281.104 292.218 284.738 287.4 284.8 282.669C284.812 281.572 284.627 279.416 284.615 278.417C289.828 274.537 290.407 279.33 295.323 272.922C295.965 277.037 296.654 281.658 297.208 285.368C291.787 291.479 286.562 291.984 286.562 291.984C286.562 291.984 291.639 292.636 297.862 289.742C297.936 290.247 298.01 290.715 298.071 291.084C298.133 291.504 298.699 291.553 298.859 291.158C299.107 290.542 299.414 289.73 299.698 288.78C302.113 287.412 304.638 285.478 307.054 282.755C307.3 283.68 307.522 284.295 307.707 284.492C308.594 285.466 308.853 283.716 309.099 280.216C309.765 279.317 310.418 278.343 311.046 277.295C311.416 277.406 311.379 277.394 311.749 277.506C311.749 279.354 311.601 281.264 311.269 283.284C307.928 303.604 297.085 307.005 297.085 307.005C297.085 307.005 311.736 306.019 318.722 286.598C318.798 286.598 318.798 286.598 318.871 286.598C319.425 288.879 319.77 291.344 319.881 294.017C320.695 315.248 310.689 320.904 310.689 320.904C310.689 320.904 326.263 316.554 328.224 292.872C337.564 296.642 345.068 293.413 345.068 293.413C345.068 293.413 337.133 294.892 328.384 285.786C328.334 284.221 328.261 282.619 328.101 280.919C327.681 276.385 325.623 271.973 322.801 267.635C322.26 266.674 321.729 265.701 321.212 264.74C320.83 263.162 320.326 261.561 319.708 259.959C320.855 262.139 322.42 263.927 323.751 265.824C341.815 291.479 363.982 283.827 363.982 283.827C363.982 283.827 355.604 284.96 339.338 268.979C337.33 267.008 335.654 264.986 334.2 262.929C340.349 266.071 345.425 266.538 346.51 265.097C335.888 259.836 331.932 248.943 325.192 237.335C324.846 235.241 324.502 233.147 324.145 231.026C336.307 245.826 342.012 260.574 356.933 267.574C382.354 279.49 392.063 262.078 392.063 262.078C392.063 262.078 385.902 267.722 368.787 261.93C361.863 259.59 356.367 254.192 351.18 247.28C355.356 248.66 359.755 249.669 364.093 250.188C346.731 241.353 343.454 228.637 331.489 217.73C330.749 216.721 330.01 215.698 329.245 214.699C345.376 225.827 355.048 243.25 372.792 244.31C398.767 245.85 401.946 225.025 401.946 225.025L402.008 225.075ZM193.197 366.73C192.902 366.681 192.508 366.644 192.065 366.631C192.877 366.41 193.999 366.201 194.43 366.201C195.121 366.201 195.945 366.718 196.501 366.385C197.067 366.051 196.562 366.014 199.001 365.916C201.034 365.842 202.414 366.151 202.291 366.176C200.529 366.582 194.516 366.951 193.185 366.718L193.197 366.73ZM304.368 272.859C303.295 275.78 302.113 278.245 300.881 280.351C301.189 275.275 301.225 269.842 300.745 264.506C301.336 263.372 301.878 262.251 302.36 261.117C302.495 261.265 302.618 261.413 302.741 261.561C303.394 264.567 304.097 268.189 304.761 271.665C304.638 272.059 304.515 272.453 304.368 272.859Z" fill="url(#paint8_linear_2104_826)"/>
<path d="M186.458 134.963C186.692 137.859 183.216 141.568 181.466 143.441C180.961 143.971 180.604 144.353 180.383 144.661C180.049 145.104 180.061 145.708 180.395 146.152C180.629 146.46 180.998 146.632 181.368 146.632C181.528 146.632 181.675 146.608 181.835 146.546C183.857 145.721 185.582 144.279 187.122 142.135C189.266 139.14 190.905 137.44 194.356 135.887C194.43 135.851 194.504 135.826 194.553 135.814C194.627 136.319 194.602 137.822 193.271 141.691C193.074 142.27 193.148 142.862 193.493 143.33C193.837 143.811 194.405 144.094 195.033 144.094C195.353 144.094 195.687 144.02 195.982 143.86C197.892 142.899 199.334 142.431 200.505 142.061C201.811 146.09 200.935 151.721 197.535 154.1C196.364 154.913 194.701 155.837 189.834 156.441C189.266 156.514 188.638 156.551 187.972 156.551C186.926 156.551 186.025 156.465 185.496 156.416H185.361C183.623 156.244 180.346 155.961 177.979 155.961C175.799 155.961 174.948 156.17 174.468 156.798C174.196 157.156 174.122 157.599 174.247 158.03C174.407 158.596 174.788 158.783 175.539 159.14C176.759 159.73 179.643 161.098 183.451 163.871C188.54 167.567 191.325 173.939 192.766 185.188C193.271 189.094 196.598 203.388 197.867 206.567C198.47 208.083 199.765 211.483 201.736 216.683L201.922 217.177C202.648 219.086 203.905 220.343 205.015 221.453C205.618 222.056 206.196 222.647 206.678 223.301C206.653 223.461 206.604 223.67 206.579 223.805C206.407 224.607 206.233 225.37 206.69 226C208.415 228.389 210.399 230.571 212.58 232.468C212.753 232.616 212.962 232.714 213.184 232.751C218.334 233.627 223.288 235.98 227.514 239.552C227.661 239.677 227.848 239.763 228.032 239.813C229.339 240.108 230.606 240.416 231.839 240.711C237.089 241.968 241.636 243.041 245.196 243.041C246.761 243.041 248.055 242.831 249.152 242.399C249.62 242.214 249.928 241.771 249.94 241.267C249.94 241.242 249.94 241.142 249.916 240.982C249.706 239.516 249.485 235.869 252.071 233.824C253.205 232.924 253.847 230.682 255.177 225.703C258.689 212.642 265.207 188.318 289.039 183.019C293.844 181.948 298.268 181.405 302.21 181.405C317.194 181.405 323.958 189.204 330.515 196.746C332.695 199.26 334.951 201.86 337.464 204.102C337.488 204.127 337.513 204.151 337.55 204.176C340.68 206.518 343.698 208.895 346.767 211.434C351.006 214.933 359.126 216.227 365.916 216.646C363.5 217.029 360.715 217.312 357.635 217.312C356.588 217.312 355.516 217.275 354.456 217.213C354.431 217.213 354.406 217.213 354.382 217.213C353.889 217.213 353.446 217.509 353.249 217.952C353.038 218.434 353.163 218.988 353.532 219.332C363.908 229.068 372.126 235.106 381.035 235.106H381.294C390.301 234.981 395.772 232.554 398.989 230.176C396.352 235.586 390.068 243.164 375.551 243.164C374.702 243.164 373.814 243.139 372.926 243.09C361.689 242.424 353.569 234.686 344.98 226.504C340.359 222.105 335.579 217.546 329.996 213.69C329.787 213.541 329.541 213.467 329.295 213.467C328.962 213.467 328.642 213.602 328.407 213.85C327.988 214.293 327.951 214.97 328.321 215.452C329.012 216.35 329.713 217.312 330.552 218.458C330.601 218.532 330.663 218.594 330.724 218.643C335.086 222.61 338.327 226.923 341.469 231.088C345.807 236.843 350.267 242.758 357.685 247.809C355.676 247.341 353.643 246.774 351.623 246.109C351.498 246.072 351.363 246.047 351.24 246.047C350.846 246.047 350.477 246.232 350.243 246.564C349.933 246.995 349.933 247.588 350.255 248.018C356.441 256.286 362.058 260.931 368.455 263.101C373.703 264.875 378.484 265.787 382.662 265.787C384.731 265.787 386.456 265.564 387.873 265.244C385.125 267.722 380.48 270.519 373.469 270.519C368.615 270.519 363.254 269.151 357.512 266.465C347.47 261.758 341.703 253.39 335.025 243.705C332.018 239.343 328.913 234.833 325.154 230.249C324.92 229.954 324.563 229.806 324.206 229.806C324.032 229.806 323.86 229.843 323.688 229.917C323.183 230.151 322.887 230.694 322.986 231.248C323.195 232.468 323.392 233.676 323.589 234.895C323.737 235.783 323.885 236.67 324.034 237.557C324.058 237.704 324.108 237.84 324.182 237.975C325.511 240.268 326.743 242.547 327.927 244.741C332.326 252.898 336.194 260.07 343.231 264.641C340.94 264.432 337.884 263.433 334.816 261.868C334.642 261.782 334.445 261.733 334.248 261.733C333.903 261.733 333.558 261.881 333.312 262.152C332.941 262.584 332.904 263.212 333.238 263.667C334.828 265.923 336.553 267.956 338.512 269.877C346.877 278.097 353.249 281.904 357.548 283.653C357.093 283.678 356.613 283.69 356.107 283.69C347.778 283.69 335.579 280.474 324.785 265.146C324.378 264.567 323.946 263.987 323.515 263.421C322.567 262.164 321.581 260.857 320.829 259.416C320.607 258.997 320.189 258.751 319.733 258.751C319.561 258.751 319.387 258.788 319.227 258.862C318.636 259.133 318.353 259.811 318.587 260.427C319.202 262.028 319.696 263.593 320.041 265.06C320.065 265.158 320.102 265.257 320.152 265.355C320.693 266.366 321.236 267.352 321.766 268.288C321.778 268.313 321.79 268.325 321.803 268.349C324.932 273.155 326.559 277.197 326.916 281.079C327.051 282.583 327.151 284.147 327.2 285.872C327.2 286.18 327.336 286.463 327.545 286.685C331.093 290.382 334.555 292.415 337.439 293.512C334.469 293.5 331.549 292.907 328.728 291.775C328.579 291.713 328.419 291.689 328.271 291.689C328.05 291.689 327.828 291.75 327.631 291.873C327.299 292.082 327.077 292.427 327.051 292.821C325.993 305.551 320.99 312.45 316.739 316.074C319.239 311.823 321.581 304.885 321.163 294.029C321.064 291.404 320.706 288.83 320.127 286.377C319.992 285.823 319.499 285.44 318.944 285.428H318.796C318.279 285.428 317.797 285.749 317.625 286.242C314.052 296.172 308.494 301.078 304.058 303.504C307.3 299.931 310.861 293.82 312.549 283.543C312.881 281.547 313.041 279.588 313.041 277.566C313.041 277.025 312.684 276.532 312.155 276.385L311.872 276.297L311.452 276.174C311.341 276.137 311.218 276.125 311.107 276.125C310.689 276.125 310.282 276.348 310.047 276.717C309.468 277.677 308.828 278.626 308.162 279.539C308.027 279.724 307.94 279.945 307.928 280.179C307.904 280.511 307.867 281.128 307.805 281.781C307.682 281.695 307.547 281.633 307.399 281.596C307.3 281.572 307.214 281.559 307.114 281.559C306.769 281.559 306.425 281.707 306.191 281.978C304.071 284.357 301.706 286.303 299.142 287.745C298.859 287.905 298.662 288.163 298.564 288.471C298.539 288.545 298.514 288.62 298.502 288.694C298.317 288.596 298.12 288.545 297.922 288.545C297.75 288.545 297.565 288.583 297.405 288.657C296.295 289.174 295.225 289.568 294.226 289.876C295.495 288.94 296.839 287.745 298.194 286.217C298.44 285.946 298.539 285.577 298.49 285.218L298.28 283.813C297.762 280.376 297.171 276.372 296.605 272.761C296.531 272.269 296.172 271.875 295.692 271.764C295.594 271.738 295.495 271.725 295.385 271.725C295.003 271.725 294.644 271.899 294.411 272.207C291.996 275.361 290.973 275.398 289.556 275.447C288.2 275.497 286.525 275.546 283.949 277.468C283.629 277.702 283.444 278.073 283.456 278.466C283.456 278.934 283.506 279.613 283.543 280.339C283.592 281.178 283.653 282.126 283.641 282.693C283.592 286.525 280.844 290.887 275.226 296.025C274.929 296.297 274.781 296.691 274.83 297.085C274.88 297.479 275.114 297.825 275.46 298.022C275.706 298.157 276.137 298.428 276.198 298.736C276.482 300.03 272.958 303.135 265.823 305.403C265.38 305.539 265.047 305.932 264.974 306.388C264.9 306.856 265.097 307.313 265.478 307.583C265.798 307.805 265.997 308.051 266.046 308.26C265.972 310.221 254.573 317.613 245.652 318.279C244.593 318.353 243.521 318.402 242.473 318.402C241.759 318.402 241.031 318.378 240.33 318.341C240.305 318.341 240.28 318.341 240.268 318.341C240.022 318.341 239.786 318.414 239.589 318.55C234.981 321.606 239.232 329.344 242.042 334.471C242.707 335.69 243.533 337.168 243.718 337.773C242.941 339.646 242.842 343.157 242.83 344.685C241.747 345.474 239.663 347.347 240.145 349.849C240.465 351.524 240.76 353.495 241.043 355.417C241.537 358.719 241.821 360.63 242.19 361.431C242.374 361.849 242.756 362.195 243.373 362.762C243.558 362.934 243.853 363.205 244.136 363.489C243.779 363.463 243.422 363.439 243.102 363.439C242.621 363.439 241.5 363.439 241.068 364.351C240.822 364.856 240.908 365.46 241.302 365.953C241.599 366.334 242.104 368.184 242.411 369.28C243.002 371.412 243.25 372.2 243.693 372.669C244.161 373.162 244.729 373.346 245.172 373.494C245.578 373.629 245.787 373.703 245.947 373.9C246.17 374.173 246.404 374.616 246.626 375.096C245.947 374.603 245.233 374.247 244.716 374.247C244.382 374.247 244.075 374.345 243.829 374.542C243.201 375.034 243.188 375.762 243.225 376.242C242.153 376.525 240.81 377.153 240.502 377.302C240.354 377.376 240.219 377.475 240.108 377.598C239.466 378.324 238.949 379.347 238.431 380.346C238.111 380.961 237.815 381.54 237.52 381.997C237.274 382.366 235.721 382.748 235.067 382.908C234.71 382.994 234.39 383.08 234.107 383.166C234.439 382.723 234.833 382.219 235.129 381.849C236.73 379.84 237.791 378.509 237.2 377.29C237.064 377.018 236.644 376.378 235.573 376.378C235.475 376.378 235.363 376.378 235.239 376.39C234.045 376.513 233.552 376.698 233.084 376.907C232.764 377.055 232.394 377.215 229.843 377.215C226.283 377.215 223.028 377.881 221.291 378.238C220.873 378.324 220.392 378.423 220.294 378.435C220.134 378.435 219.775 378.275 219.554 378.164C219.332 378.066 219.111 377.955 218.877 377.881C218.717 377.832 218.555 377.807 218.383 377.807C218.112 377.807 217.78 377.869 217.423 377.992C217.817 377.733 218.211 377.487 218.469 377.327C218.975 377.018 219.406 376.747 219.689 376.525C219.935 376.365 221.033 376.144 222.61 376.144C223.214 376.144 223.756 376.181 224.113 376.242C224.322 376.279 224.569 376.291 224.89 376.291C227.058 376.291 232.542 375.428 234.218 374.825C234.784 374.616 235.116 374.036 235.018 373.445C234.919 372.866 234.784 372.138 231.211 372.138C230.99 372.138 230.766 372.138 230.52 372.151C230.446 372.151 230.385 372.151 230.311 372.151C229.56 372.151 229.437 372.003 229.363 371.905C229.226 371.72 228.845 371.252 228.155 371.252C227.934 371.252 227.711 371.301 227.489 371.412C227.378 371.4 227.206 371.351 227.07 371.314C226.972 371.289 226.874 371.264 226.775 371.24C227.391 371.078 228.094 371.004 228.882 371.004C229.029 371.004 229.177 371.004 229.314 371.004C229.683 371.017 230.213 371.103 230.766 371.191C231.605 371.326 232.542 371.486 233.49 371.486C233.996 371.486 234.452 371.437 234.882 371.351C236.595 370.98 238.172 370.647 238.172 370.647C238.777 370.524 239.195 369.97 239.146 369.353C239.146 369.169 238.851 365.003 238.098 362.417C238.209 360.963 238.605 353.803 235.758 345.93C235.586 345.45 235.141 345.128 234.636 345.116L231.605 345.029C231.605 345.029 231.58 345.029 231.568 345.029C231.236 345.029 230.928 345.166 230.693 345.4C230.36 345.339 229.696 345.14 228.463 344.537C226.713 343.688 224.347 340.927 221.982 336.971C221.76 336.602 221.353 336.368 220.922 336.368C220.909 336.368 220.885 336.368 220.873 336.368C220.38 336.393 220.034 336.442 219.739 336.54C219.554 336.602 219.394 336.7 219.258 336.836L218.161 337.933C218.038 338.056 217.94 338.216 217.878 338.388C216.744 341.494 216.043 343.551 215.796 344.5C214.958 347.716 213.245 353.791 212.605 356.084C212.482 356.539 212.394 356.834 212.37 356.896L212.345 357.007C211.766 359.004 211.668 360.297 212.037 361.147C212.013 361.209 211.976 361.283 211.951 361.332C211.594 362.072 210.768 363.785 212.247 365.239C212.716 365.694 213.245 365.879 213.676 366.014C214.096 366.15 214.305 366.224 214.465 366.433C214.527 366.507 214.588 366.594 214.662 366.668C214.453 366.656 214.256 366.644 214.071 366.644C213.024 366.644 212.58 366.89 212.345 367.075C211.705 367.567 211.705 368.307 211.742 368.787C210.706 369.107 209.512 369.81 209.104 370.069C209.006 370.13 208.908 370.217 208.834 370.303C208.587 370.581 208.263 370.743 207.861 370.783C207.577 370.807 207.232 370.844 206.789 370.918C206.295 370.992 205.593 371.078 204.805 371.178C201.563 371.572 200.06 371.806 199.272 372.138C199.629 371.523 200.295 371.412 201.897 371.4C202.993 371.4 204.238 371.375 205.248 370.721C205.704 370.426 205.913 369.847 205.753 369.329C205.667 369.058 205.384 368.443 204.435 368.443C204.274 368.443 203.979 368.443 203.536 368.467C202.463 368.516 200.468 368.59 197.621 368.59C193.985 368.59 191.152 369.501 189.624 369.995C189.34 370.094 189.007 370.192 188.86 370.229C188.687 370.204 188.38 370.057 188.158 369.958C187.935 369.86 187.713 369.749 187.479 369.675C187.332 369.626 187.159 369.601 186.987 369.601C186.716 369.601 186.382 369.663 186.025 369.786C186.419 369.526 186.815 369.28 187.073 369.12C187.578 368.812 188.01 368.541 188.281 368.332C188.564 368.159 189.821 367.912 191.472 367.887C191.583 367.887 191.682 367.875 191.78 367.838C191.879 367.862 191.989 367.887 192.088 367.887C192.631 367.899 192.914 367.936 193.037 367.961C193.382 368.022 193.924 368.047 194.676 368.047C197.004 368.047 201.132 367.752 202.636 367.395C203.251 367.259 203.659 366.668 203.585 366.051C203.536 365.62 203.487 365.165 202.353 364.905C203.03 364.88 203.597 364.831 204.078 364.77C206.196 364.474 207.503 363.871 207.552 363.846C207.847 363.711 208.07 363.451 208.181 363.155C208.243 362.983 209.685 359.016 210.325 356.428C210.448 355.874 213.344 342.751 213.344 338.585C213.344 338.265 213.221 337.945 212.987 337.724L207.293 331.944C206.912 331.39 205.999 330.798 203.413 329.159C198.446 325.993 189.192 320.102 184.079 313.252C182.994 311.798 180.074 310.332 176.045 308.322C168.873 304.737 159.041 299.821 154.16 292.304C147.716 282.384 144.574 266.44 143.909 261.13C143.391 257.001 143.724 253.983 144.205 249.793C144.353 248.474 144.5 247.118 144.648 245.578C144.821 243.669 145.733 242.178 146.78 240.44C148.012 238.408 149.417 236.09 150.033 232.567C150.119 232.087 149.91 231.593 149.503 231.322C149.294 231.187 149.059 231.113 148.825 231.113C148.591 231.113 148.357 231.174 148.148 231.31C147.803 231.543 147.47 231.58 147.248 231.58C147.088 231.58 146.952 231.556 146.854 231.519C150.772 223.978 155.787 212.876 157.648 202.328C157.747 201.799 157.488 201.268 157.007 201.022C156.084 200.542 155.319 199.789 154.79 198.866C154.568 198.484 154.16 198.249 153.717 198.249C153.656 198.249 153.582 198.249 153.52 198.261C153.385 198.286 153.261 198.298 153.126 198.298C152.571 198.298 152.078 198.077 151.586 197.646C150.785 194.319 152.177 192.557 154.271 189.944C156.539 187.098 159.361 183.55 159.792 176.796C159.804 176.538 159.743 176.292 159.607 176.07C159.201 175.416 158.596 174.431 147.569 173.703C148.838 172.669 152.879 170.932 156.416 169.761C156.798 169.638 157.093 169.33 157.204 168.947L157.278 168.713C157.427 168.233 157.278 167.715 156.884 167.407C153.36 164.523 153.175 159.632 153.385 156.97C153.68 153.052 155.073 149.688 156.428 148.173C156.674 148.653 156.884 149.306 157.031 149.75C157.415 150.908 157.796 152.116 159.029 152.116C160.26 152.116 160.877 150.945 161.837 148.468C162.072 147.877 162.122 147.187 162.171 146.46C162.282 144.932 162.405 143.071 164.253 141.334C164.708 142.344 164.585 143.379 164.437 144.772L164.413 145.006C164.413 145.104 164.413 145.191 164.413 145.289C164.499 145.979 164.745 148.099 166.445 148.099C166.742 148.099 166.976 148.025 167.124 147.963C168.159 147.569 168.467 146.386 168.984 144.427C169.835 141.223 171.091 136.417 175.478 135.234C175.674 135.924 175.724 137.847 174.517 140.853C174.048 142.024 173.642 143.022 173.322 143.811C172.212 146.534 172.188 146.583 172.594 147.175C172.829 147.519 173.211 147.717 173.617 147.717C174.394 147.717 174.628 147.285 175.293 146.115C179.483 138.697 181.96 135.678 186.507 134.988M300.929 281.608C301.361 281.608 301.767 281.387 301.989 281.005C303.344 278.713 304.552 276.125 305.574 273.316C305.699 272.982 305.797 272.662 305.895 272.342L305.982 272.084C306.043 271.887 306.056 271.676 306.019 271.479L305.982 271.295C305.315 267.857 304.638 264.309 303.997 261.339C303.947 261.13 303.861 260.944 303.714 260.784L303.529 260.574L303.332 260.34C303.098 260.07 302.753 259.922 302.407 259.922C302.346 259.922 302.284 259.922 302.21 259.934C301.792 259.996 301.435 260.279 301.275 260.661C300.805 261.745 300.276 262.855 299.698 263.975C299.587 264.186 299.536 264.42 299.561 264.653C299.993 269.434 300.042 274.707 299.698 280.314C299.661 280.881 300.018 281.399 300.572 281.572C300.695 281.608 300.818 281.608 300.929 281.608ZM196.807 364.905C196.499 364.979 196.29 365.104 196.044 365.288C195.933 365.276 195.773 365.227 195.638 365.19C195.538 365.165 195.439 365.14 195.341 365.116C195.785 365.003 196.265 364.93 196.807 364.905ZM187.467 133.657C181.392 134.113 178.521 137.945 174.247 145.523C173.876 146.177 173.679 146.497 173.642 146.497C173.543 146.497 174.345 144.661 175.674 141.322C177.487 136.787 176.882 133.928 175.774 133.928C175.724 133.928 175.674 133.928 175.625 133.941C167.862 135.579 168.172 146.263 166.693 146.817C166.619 146.842 166.531 146.866 166.445 146.866C166.162 146.866 165.805 146.595 165.633 145.154C165.854 143.145 166.125 141.395 164.536 139.547C160.112 142.615 161.32 146.411 160.692 148.037C159.878 150.144 159.398 150.896 159.041 150.896C158.276 150.896 158.116 147.359 156.564 146.472C152.67 148.789 149.097 162.589 156.121 168.356L156.047 168.59C156.047 168.59 147.334 171.498 146.176 173.445C145.425 174.714 145.843 174.936 146.225 174.936C146.435 174.936 146.62 174.874 146.62 174.874C147.914 174.961 157.858 175.553 158.572 176.722C157.772 189.329 148.197 189.944 150.489 198.286C151.351 199.198 152.251 199.543 153.138 199.543C153.335 199.543 153.532 199.531 153.73 199.494C154.371 200.615 155.319 201.54 156.441 202.131C154.506 213.036 149.146 224.496 145.634 231.223C145.19 232.074 146.09 232.825 147.248 232.825C147.753 232.825 148.308 232.69 148.813 232.345C147.716 238.679 143.835 240.883 143.416 245.443C142.825 251.901 141.987 255.658 142.689 261.253C143.391 266.846 146.595 282.89 153.126 292.944C160.852 304.848 180.444 310.418 183.08 313.966C190.449 323.849 205.827 331.538 206.295 332.683L212.087 338.573C212.087 342.664 209.092 356.157 209.092 356.157C208.477 358.682 206.998 362.737 206.998 362.737C206.998 362.737 205.839 363.279 203.881 363.551C202.993 363.674 201.811 363.711 200.677 363.711C199.543 363.711 198.557 363.674 197.892 363.649C197.732 363.649 197.572 363.649 197.412 363.649C196.241 363.649 195.07 363.809 194.084 364.216C193.271 364.548 191.977 365.99 191.411 366.656C189.883 366.681 188.072 366.902 187.504 367.345C186.655 367.998 183.71 369.501 183.451 370.475C183.191 371.461 183.4 372.483 183.4 372.483C183.4 372.483 184.325 372.483 184.657 371.966C184.967 371.498 186.37 370.832 186.95 370.832C186.999 370.832 187.049 370.832 187.086 370.844C187.541 370.98 188.22 371.449 188.872 371.449C189.526 371.449 192.865 369.798 197.584 369.798C201.539 369.798 203.831 369.638 204.398 369.638C204.508 369.638 204.545 369.638 204.533 369.663C202.685 370.894 198.829 368.91 197.867 372.249C197.412 373.814 198.003 373.974 198.015 375.133C198.015 375.367 198.052 375.453 198.113 375.453C198.372 375.453 199.063 373.851 199.444 373.396C199.925 372.829 205.064 372.397 206.949 372.102C208.711 371.831 208.834 372.102 209.734 371.078C209.734 371.078 211.594 369.934 212.519 369.835C213.442 369.737 212.654 368.344 213.073 368.01C213.221 367.899 213.602 367.838 214.047 367.838C214.859 367.838 215.87 368.022 215.981 368.356C216.043 368.553 216.215 368.652 216.4 368.652C216.707 368.652 217.053 368.406 217.103 367.936C217.164 367.185 216.116 366.507 215.401 365.62C214.687 364.733 213.676 364.905 213.085 364.314C211.705 362.971 213.713 361.381 213.245 360.79C212.654 360.038 213.442 357.55 213.541 357.179C213.639 356.81 215.956 348.665 216.966 344.771C217.25 343.7 218.124 341.223 219.012 338.77L220.109 337.674C220.319 337.601 220.602 337.576 220.909 337.564C223.19 341.358 225.703 344.525 227.897 345.597C229.511 346.385 230.409 346.607 230.903 346.607C231.568 346.607 231.531 346.213 231.531 346.213L234.562 346.299C237.631 354.765 236.817 362.503 236.817 362.503C237.581 364.954 237.889 369.39 237.889 369.39C237.889 369.39 236.312 369.724 234.587 370.094C234.23 370.167 233.848 370.204 233.453 370.204C231.974 370.204 230.385 369.761 229.326 369.724C229.165 369.724 229.005 369.724 228.845 369.724C227.661 369.724 226.504 369.884 225.518 370.29C224.445 370.734 222.511 373.162 222.561 373.162C222.561 373.162 222.561 373.162 222.573 373.149C222.807 372.916 225.186 372.311 225.875 372.311C226.406 372.311 226.997 372.606 227.501 372.606C227.661 372.606 227.811 372.582 227.946 372.495C228.008 372.459 228.057 372.446 228.106 372.446C228.426 372.446 228.352 373.346 230.262 373.346C230.348 373.346 230.422 373.346 230.52 373.346C230.742 373.346 230.953 373.346 231.162 373.346C232.825 373.346 233.861 373.605 233.748 373.642C232.245 374.185 226.898 375.034 224.853 375.034C224.618 375.034 224.421 375.034 224.285 374.997C223.855 374.924 223.239 374.887 222.573 374.887C221.156 374.887 219.492 375.071 218.914 375.514C218.063 376.168 215.118 377.672 214.859 378.644C214.601 379.63 214.81 380.654 214.81 380.654C214.81 380.654 215.735 380.654 216.067 380.135C216.375 379.667 217.78 379.003 218.358 379.003C218.408 379.003 218.457 379.003 218.494 379.015C218.951 379.15 219.628 379.618 220.282 379.618C220.934 379.618 225.124 378.398 229.831 378.398C234.538 378.398 232.616 377.832 235.35 377.561C235.426 377.561 235.5 377.561 235.561 377.561C237.791 377.561 232.591 382.292 232.27 383.845C231.95 385.434 232.27 385.201 232.294 386.37C232.294 386.605 232.333 386.692 232.394 386.692C232.653 386.692 233.342 385.09 233.724 384.633C234.205 384.067 237.717 383.882 238.543 382.625C239.356 381.368 240.108 379.397 241.007 378.373C241.007 378.373 243.065 377.389 243.989 377.302C244.913 377.202 244.124 375.811 244.544 375.477C244.581 375.453 244.618 375.441 244.679 375.441C245.307 375.441 247.192 377.067 247.352 377.536C247.414 377.733 247.586 377.832 247.772 377.832C248.08 377.832 248.425 377.586 248.474 377.116C248.535 376.365 247.586 373.986 246.872 373.1C246.158 372.212 245.135 372.397 244.556 371.794C243.976 371.191 243.078 366.211 242.239 365.165C241.919 364.77 242.374 364.659 243.078 364.659C243.89 364.659 245.024 364.807 245.627 364.807C245.849 364.807 246.009 364.782 246.034 364.733C246.7 363.612 243.558 361.529 243.287 360.926C242.756 359.743 242.116 353.705 241.327 349.613C240.859 347.162 244.038 345.351 244.038 345.351C244.038 345.351 243.952 339.978 244.926 338.056C245.627 336.651 234.932 323.134 240.243 319.598C240.957 319.635 241.697 319.659 242.448 319.659C243.509 319.659 244.593 319.622 245.713 319.536C254.549 318.87 267.894 311.095 267.228 308.064C267.105 307.497 266.735 307.017 266.169 306.609C273.069 304.417 277.936 301.004 277.369 298.502C277.234 297.874 276.754 297.368 276.014 296.974C281.127 292.292 284.763 287.474 284.824 282.743C284.837 281.645 284.652 279.49 284.64 278.491C289.851 274.609 290.431 279.404 295.348 272.995C295.988 277.111 296.679 281.732 297.233 285.44C291.81 291.552 286.586 292.058 286.586 292.058C286.586 292.058 287.079 292.119 287.954 292.119C289.876 292.119 293.61 291.812 297.897 289.802C297.971 290.308 298.045 290.776 298.108 291.145C298.145 291.367 298.317 291.49 298.502 291.49C298.662 291.49 298.822 291.404 298.896 291.219C299.142 290.604 299.45 289.79 299.735 288.842C302.149 287.474 304.675 285.54 307.09 282.816C307.337 283.74 307.559 284.357 307.743 284.554C307.903 284.738 308.051 284.824 308.174 284.824C308.728 284.824 308.939 283.136 309.136 280.278C309.801 279.377 310.455 278.405 311.082 277.357C311.452 277.468 311.415 277.456 311.784 277.566C311.784 279.416 311.636 281.325 311.304 283.346C307.965 303.664 297.122 307.066 297.122 307.066C297.122 307.066 311.772 306.08 318.759 286.66C318.833 286.66 318.833 286.66 318.907 286.66C319.462 288.94 319.807 291.404 319.918 294.078C320.73 315.309 310.725 320.966 310.725 320.966C310.725 320.966 326.3 316.616 328.259 292.932C331.71 294.324 334.902 294.769 337.562 294.769C342.109 294.769 345.103 293.487 345.103 293.487C345.103 293.487 344.623 293.574 343.785 293.574C341.173 293.574 335.025 292.735 328.431 285.86C328.382 284.295 328.308 282.693 328.148 280.993C327.73 276.458 325.673 272.047 322.851 267.709C322.307 266.748 321.778 265.775 321.261 264.813C320.878 263.236 320.373 261.635 319.758 260.033C320.903 262.213 322.467 263.999 323.798 265.898C335.111 281.965 348.048 284.972 356.131 284.972C360.951 284.972 364.043 283.912 364.043 283.912C364.043 283.912 363.92 283.924 363.66 283.924C361.849 283.924 353.655 283.063 339.399 269.053C337.39 267.08 335.714 265.06 334.26 263.002C338.228 265.035 341.764 265.948 344.057 265.948C345.313 265.948 346.188 265.677 346.57 265.158C335.948 259.897 331.994 249.005 325.252 237.397C324.908 235.303 324.563 233.207 324.206 231.088C336.368 245.887 342.072 260.636 356.994 267.635C363.476 270.667 368.935 271.801 373.469 271.801C386.729 271.801 392.125 262.139 392.125 262.139C392.125 262.139 389.438 264.604 382.674 264.604C379.2 264.604 374.665 263.95 368.861 261.991C361.935 259.639 356.441 254.253 351.252 247.341C355.43 248.72 359.829 249.731 364.166 250.248C346.804 241.414 343.526 228.697 331.561 217.792C330.823 216.783 330.082 215.759 329.319 214.761C345.45 225.887 355.122 243.312 372.865 244.372C373.79 244.421 374.69 244.458 375.564 244.458C399.063 244.458 402.02 225.099 402.02 225.099C402.02 225.099 398.237 233.701 381.294 233.935C381.208 233.935 381.134 233.935 381.048 233.935C372.138 233.935 363.599 227.144 354.382 218.495C355.503 218.557 356.588 218.594 357.635 218.594C366.593 218.594 372.989 216.338 375.736 215.599C374.874 215.636 373.654 215.661 372.2 215.661C365.262 215.661 352.891 214.958 347.556 210.534C344.352 207.886 341.272 205.47 338.29 203.24C328.345 194.331 322.838 180.223 302.21 180.223C298.317 180.223 293.881 180.728 288.779 181.862C256.631 189.007 254.967 230.003 251.308 232.899C247.649 235.795 248.72 241.154 248.72 241.291C247.735 241.673 246.564 241.845 245.221 241.845C240.982 241.845 235.092 240.206 228.34 238.654C224.027 235.006 218.951 232.53 213.417 231.58C211.508 229.905 209.537 227.823 207.724 225.309C207.453 224.927 208.169 223.276 207.91 222.882C206.456 220.713 204.164 219.517 203.116 216.758C202.993 216.424 200.097 208.76 199.051 206.124C197.855 203.105 194.516 188.872 194.034 185.041C192.506 173.1 189.401 166.644 184.227 162.885C179.04 159.127 175.527 157.858 175.478 157.698C175.367 157.328 176.501 157.205 178.029 157.205C180.715 157.205 184.645 157.575 185.324 157.636C185.841 157.685 186.852 157.784 188.035 157.784C188.675 157.784 189.352 157.759 190.043 157.673C195.107 157.044 196.967 156.059 198.298 155.122C202.587 152.128 203.29 144.944 201.292 140.558C199.937 141.001 198.138 141.433 195.488 142.775C195.353 142.837 195.218 142.874 195.095 142.874C194.676 142.874 194.356 142.554 194.504 142.098C195.488 139.214 196.832 134.532 194.848 134.532C194.59 134.532 194.294 134.606 193.924 134.779C190.375 136.368 188.564 138.13 186.198 141.42C185.213 142.8 183.722 144.476 181.454 145.4C182.502 143.995 189.291 138.118 187.492 133.62L187.467 133.657ZM300.941 280.388C301.25 275.312 301.287 269.877 300.805 264.543C301.398 263.409 301.939 262.287 302.42 261.154C302.555 261.302 302.68 261.45 302.803 261.598C303.455 264.604 304.158 268.226 304.823 271.701C304.7 272.096 304.577 272.49 304.429 272.896C303.357 275.817 302.173 278.282 300.941 280.388ZM196.118 366.531C196.278 366.531 196.426 366.507 196.561 366.421C197.127 366.088 196.622 366.051 199.063 365.953C199.284 365.953 199.506 365.941 199.703 365.941C201.379 365.941 202.463 366.187 202.34 366.211C200.96 366.533 196.955 366.828 194.651 366.828C194.022 366.828 193.517 366.804 193.234 366.755C192.939 366.705 192.543 366.668 192.1 366.668C192.914 366.445 194.034 366.236 194.467 366.236C194.996 366.236 195.587 366.531 196.093 366.531H196.118Z" fill="url(#paint9_linear_2104_826)"/>
<defs>
<linearGradient id="paint0_linear_2104_826" x1="238.494" y1="57.002" x2="238.494" y2="135.358" gradientUnits="userSpaceOnUse">
<stop offset="0.03" stop-color="#FFF5D1"/>
<stop offset="0.19" stop-color="#DFC994"/>
<stop offset="0.43" stop-color="#9C8553"/>
<stop offset="0.52" stop-color="#9F8957"/>
<stop offset="0.63" stop-color="#AA9566"/>
<stop offset="0.74" stop-color="#BDAA7D"/>
<stop offset="0.86" stop-color="#D7C79E"/>
<stop offset="0.98" stop-color="#F8EDC8"/>
<stop offset="1" stop-color="#FFF5D1"/>
</linearGradient>
<linearGradient id="paint1_linear_2104_826" x1="132.782" y1="-29.5114" x2="411.065" y2="433.861" gradientUnits="userSpaceOnUse">
<stop stop-color="#131313"/>
<stop offset="0.33" stop-color="#161615"/>
<stop offset="0.6" stop-color="#201F1E"/>
<stop offset="0.85" stop-color="#312F2C"/>
<stop offset="1" stop-color="#403D39"/>
</linearGradient>
<linearGradient id="paint2_linear_2104_826" x1="339.602" y1="294.831" x2="151.174" y2="60.6456" gradientUnits="userSpaceOnUse">
<stop stop-color="white"/>
<stop offset="1" stop-color="white" stop-opacity="0"/>
</linearGradient>
<linearGradient id="paint3_linear_2104_826" x1="148.025" y1="-13.3202" x2="380.457" y2="389.267" gradientUnits="userSpaceOnUse">
<stop offset="0.03" stop-color="#FFF5D1"/>
<stop offset="0.19" stop-color="#DFC994"/>
<stop offset="0.43" stop-color="#9C8553"/>
<stop offset="0.72" stop-color="#614D1F"/>
<stop offset="1" stop-color="#9C8553"/>
</linearGradient>
<linearGradient id="paint4_linear_2104_826" x1="95.7331" y1="-165.731" x2="559.819" y2="736.171" gradientUnits="userSpaceOnUse">
<stop offset="0.07" stop-color="#FFF5D1"/>
<stop offset="0.19" stop-color="#E0C56D"/>
<stop offset="0.45" stop-color="#9C7C2D"/>
<stop offset="0.72" stop-color="#614B1E"/>
<stop offset="1" stop-color="#9C782C"/>
</linearGradient>
<linearGradient id="paint5_linear_2104_826" x1="238.494" y1="59.4683" x2="238.494" y2="132.896" gradientUnits="userSpaceOnUse">
<stop offset="0.03" stop-color="#FFF5D1"/>
<stop offset="0.19" stop-color="#DFC994"/>
<stop offset="0.43" stop-color="#9C8553"/>
<stop offset="0.52" stop-color="#9F8957"/>
<stop offset="0.63" stop-color="#AA9566"/>
<stop offset="0.74" stop-color="#BDAA7D"/>
<stop offset="0.86" stop-color="#D7C79E"/>
<stop offset="0.98" stop-color="#F8EDC8"/>
<stop offset="1" stop-color="#FFF5D1"/>
</linearGradient>
<linearGradient id="paint6_linear_2104_826" x1="384.017" y1="434.378" x2="40.6257" y2="-267.082" gradientUnits="userSpaceOnUse">
<stop stop-color="#FFF5D1"/>
<stop offset="0.04" stop-color="#D2B36F"/>
<stop offset="0.47" stop-color="#DFBE6D"/>
<stop offset="0.72" stop-color="#FAF7C1"/>
<stop offset="1" stop-color="#9C8553"/>
</linearGradient>
<linearGradient id="paint7_linear_2104_826" x1="216.783" y1="64.4444" x2="435.069" y2="769.082" gradientUnits="userSpaceOnUse">
<stop stop-color="#131313"/>
<stop offset="0.33" stop-color="#161615"/>
<stop offset="0.6" stop-color="#201F1E"/>
<stop offset="0.85" stop-color="#312F2C"/>
<stop offset="1" stop-color="#403D39"/>
</linearGradient>
<linearGradient id="paint8_linear_2104_826" x1="214.972" y1="60.2426" x2="433.256" y2="764.88" gradientUnits="userSpaceOnUse">
<stop offset="0.07" stop-color="#FEEAA5"/>
<stop offset="0.1" stop-color="#EFD790"/>
<stop offset="0.18" stop-color="#D0AD65"/>
<stop offset="0.26" stop-color="#B98F45"/>
<stop offset="0.32" stop-color="#AB7D31"/>
<stop offset="0.37" stop-color="#A7772B"/>
<stop offset="0.4" stop-color="#BF964C"/>
<stop offset="0.45" stop-color="#E0C37C"/>
<stop offset="0.5" stop-color="#F6DF99"/>
<stop offset="0.52" stop-color="#FEEAA5"/>
<stop offset="0.56" stop-color="#EAD693"/>
<stop offset="0.66" stop-color="#B6A267"/>
<stop offset="0.79" stop-color="#634F21"/>
<stop offset="0.8" stop-color="#614D1F"/>
<stop offset="1" stop-color="#9C8553"/>
</linearGradient>
<linearGradient id="paint9_linear_2104_826" x1="191.682" y1="123.824" x2="315.728" y2="338.684" gradientUnits="userSpaceOnUse">
<stop offset="0.07" stop-color="#FEEAA5"/>
<stop offset="0.1" stop-color="#EFD790"/>
<stop offset="0.18" stop-color="#D0AD65"/>
<stop offset="0.26" stop-color="#B98F45"/>
<stop offset="0.32" stop-color="#AB7D31"/>
<stop offset="0.37" stop-color="#A7772B"/>
<stop offset="0.43" stop-color="#CDA960" stop-opacity="0.87"/>
<stop offset="0.5" stop-color="#F0D892" stop-opacity="0.75"/>
<stop offset="0.54" stop-color="#FEEAA5" stop-opacity="0.7"/>
<stop offset="0.58" stop-color="#ECD895" stop-opacity="0.62"/>
<stop offset="0.65" stop-color="#BEAA6E" stop-opacity="0.42"/>
<stop offset="0.77" stop-color="#756130" stop-opacity="0.09"/>
<stop offset="0.8" stop-color="#614D1F" stop-opacity="0"/>
<stop offset="1" stop-color="#9C8553" stop-opacity="0"/>
</linearGradient>
</defs>
</svg>
