<svg xmlns="http://www.w3.org/2000/svg" xml:space="preserve" viewBox="0 0 32 32"><path fill="#30302F" d="M31.36 13.88a.5.5 0 0 0-.13-.11 1.8 1.8 0 0 0-.82-.24c-.17-.44-.14-1-.1-1.58.02-.42.04-.9-.02-1.36a.5.5 0 0 0-.17-.31c-.34-.3-.75-.37-1.13-.2-.16.08-.29.18-.4.3l-.06-.19c.34-.1.65-.27.91-.52.67-.64.93-1.69.64-2.55a2.14 2.14 0 0 0-1.7-1.4c.12-.13.25-.3.27-.53a.5.5 0 0 0-.52-.54c-.4.02-.8.16-1.17.4v-.03c0-.4 0-.82.16-1.13.13-.43-.02-.66-.16-.78-.1-.08-.36-.23-.75 0-.4.24-1.06.98-1.48 1.88v-.01c-.1-.5-.56-.61-.78-.66l-.17-.05-.02-.07c-.3-.84-1.06-.8-1.52-.77-.34 0-.5 0-.58-.08a.45.45 0 0 0-.08-.08v-.04a2.18 2.18 0 0 0-1.03-1.47 1.56 1.56 0 0 0-1.34-.08.5.5 0 0 0-.32.37c-.31-.08-.68-.1-1.08-.05a.5.5 0 0 0-.43.5 1.84 1.84 0 0 0-.44-.01c-.16-.5-.59-.91-1.12-1.08-.48-.14-.99-.06-1.33.23-.21.14-.33.3-.4.47a1.72 1.72 0 0 0-.23-.09c-.72-.13-1.1.15-1.27.4-.07.12-.12.23-.15.34l-.32-.01c-.46-.03-1.12-.06-1.47.32a.49.49 0 0 0-.17 0 3.8 3.8 0 0 0-1.9.79.51.51 0 0 0-.06-.13c-.56-.77-1.2-.61-1.38-.54-.56.2-.94.9-.87 1.61 0 .1.02.18.05.27-.47.04-.84.42-.92.95-.05.35.04.67.24.9a.7.7 0 0 0-.16.73l-.28.3c-.37-.15-.86.05-1.04.43a.8.8 0 0 0-.01.7.97.97 0 0 0-.38.33c-.29.4-.33 1.01-.22 1.42.13.39.46.55.68.62-.53 0-1.05.5-1.38.98-.15.23-.48.78-.35 1.28l-.02.04c-.48 1-.36 1.96-.25 2.81l.02.12c-.1-.05-.2-.08-.3-.1-.56-.09-1.13.18-1.4.66-.28.53-.25 1.1.06 1.6a2 2 0 0 0 1.68.9h.08c.32 0 .6-.08.84-.21.07.53.3.9.7 1.04-.05.36.17.74.31.98l.04.07.04.05c.03.17.12.31.24.42-.13.18-.2.4-.21.61 0 .2.05.87 1.08 1.14h.07c.16 0 .32-.03.48-.1a.88.88 0 0 0 .27.31c-.03.3.04.58.21.84l.06.14c.11.3.31.8.7 1a.5.5 0 0 0 .07.22c.38.58.92 1.04 1.57 1.35-.2.23-.31.56-.29.89.05.46.4.98 1.3 1.05.75-.02 1.43-.64 1.56-1.46.23.5.76.88 1.67 1.2.05.03.1.04.17.04s.17-.03.21-.04a.5.5 0 0 0 .31-.3c.3.2.7.23 1 .25.09 0 .26.01.33.04.09.02.18.02.26 0 .04.11.1.23.16.32.17.23.42.36.67.36h.05c.46.04.87-.18 1.12-.57.23-.36.27-.82.11-1.22h.02c.35.95 1.2 1.02 2.08 1.1h.25c.34 0 .52-.16.61-.29.2-.28.11-.62.04-.86.05-.01.1-.03.13-.06a1 1 0 0 0 0 .2c0 .48.35.93.79 1.03.07.02.16.02.22 0 1.01-.21 1.24-.75 1.28-1.06.08-.5-.24-1.03-.8-1.34h-.02l.6-.33c.14.05.26.07.38.06.27-.01.5-.15.65-.37a.9.9 0 0 0 .1.03c.1.04.22.04.32 0 1.21-.44 1.67-.78 1.77-1.29a.84.84 0 0 0-.09-.52c.26-.25.42-.6.57-.93.23.32.65.43 1.11.3.4-.11.73-.46.85-.9.12-.4.04-.79-.22-1.07a.52.52 0 0 0-.16-.12l-.11-.06a1.26 1.26 0 0 0 .18-.46c.65-.3 1.12-.97 1.44-1.43a.5.5 0 0 0-.01-.58.65.65 0 0 0-.08-.09c.38-.65.33-1.37.27-1.96.1.03.2.03.28.02.49 0 .89-.3 1.04-.77.06-.17.08-.35.07-.54.27-.07.49-.27.6-.54.2-.5.01-1.13-.27-1.45zm-9.64 7.89a.5.5 0 0 0-.64-.08c-.08.06-.27.18-.3.43-.03.18.04.31.1.4-.08.07-.17.12-.27.18a8.98 8.98 0 0 0-.38.26c-.47-.05-.97.2-1.38.42-.28.14-.6.3-.78.31-.11-.18-.3-.4-.65-.36a.55.55 0 0 0-.44.43l-.58.08c-.05.01-.1.02-.15.05a4.85 4.85 0 0 0-1.78-.28h-.07l-.4-.03c0-.09-.02-.17-.07-.25a.65.65 0 0 0-.48-.34.5.5 0 0 0-.51.23 1.71 1.71 0 0 1-.39-.12.5.5 0 0 0-.1-.32c-.3-.4-.8-.7-1.3-1-.23-.15-.45-.28-.62-.41v-.17a.61.61 0 0 0-.42-.48 1 1 0 0 0 .75-.69c.14-.45-.05-.99-.43-1.25a.94.94 0 0 0-.66-.15c.47-.17.64-.48.7-.67.13-.42-.05-.9-.44-1.2-.3-.23-.64-.3-.97-.23A15.6 15.6 0 0 1 9 15.15c.75-.02 1.1-.43 1.17-.83l.12.02c.53 0 .95-.3 1.1-.8a1.44 1.44 0 0 0-.5-1.56c-.1-.06-.3-.17-.57-.17.09-.11.21-.22.39-.3a.51.51 0 0 0 .69.04l.09-.07.04-.03.01-.02c.12.04.25.06.38.06.27 0 .83-.18 1.16-.51h.03c.45.1.95-.22 1.18-.54.27-.37.15-.66.09-.78a.63.63 0 0 0-.4-.3c.21-.11.43-.22.65-.31.2.25.49.35.76.27a.53.53 0 0 0 .11-.06.7.7 0 0 0 .17-.15c.34.19.7.27 1.07.27-.33.3-.59.64-.73 1a.52.52 0 0 0 .03.62c.09.1.23.17.35.17h.13c.12-.02.23-.08.33-.12a2.6 2.6 0 0 1 1.23-.31c-.12.11-.22.23-.3.35-.3.43-.41.9-.32 1.38a.5.5 0 0 0 .34.38.5.5 0 0 0 .5-.11c.37-.35.85-.57 1.35-.61-.04.18-.04.36 0 .51.01.16.1.3.24.39.2.13.51.07.66-.12.29-.37.74-.61 1.18-.62a1.1 1.1 0 0 1 .86.43c-.05.31.05.58.2.81-.24.04-.44.14-.59.3-.17.18-.4.57-.17 1.24a.5.5 0 0 0 .12.18c.53.53 1.06.44 1.36.2l.05-.05a.69.69 0 0 1 .07.24.91.91 0 0 0-.19.3l-.03.07a1.4 1.4 0 0 0-.02.56.88.88 0 0 0-.25-.01c-.26 0-.75.13-1.09.86-.14.43-.04.84.27 1.12.32.29.8.37 1.18.21h.02l-.02.06a.51.51 0 0 0-.08.6c.03.06.08.12.14.16a2.66 2.66 0 0 1-.2.43c-.5.27-.8.7-1.08 1.13-.17.25-.34.5-.53.68l-.03-.04z"/><linearGradient id="a" x1="16.03" x2="16.03" y1="5.42" y2="27.55" gradientUnits="userSpaceOnUse"><stop offset="0" stop-color="#fff7c4"/><stop offset=".23" stop-color="#d6be77"/><stop offset=".39" stop-color="#fff7c4"/><stop offset=".6" stop-color="#a5935c"/><stop offset=".74" stop-color="#423b27"/><stop offset=".77" stop-color="#48402a"/><stop offset=".8" stop-color="#595033"/><stop offset=".84" stop-color="#766943"/><stop offset=".89" stop-color="#9d8c58"/><stop offset=".9" stop-color="#a5935c"/><stop offset="1" stop-color="#a8a66a"/></linearGradient><path fill="url(#a)" d="M14.46 8.57c-.6.25-1.22.55-1.71.99a.95.95 0 0 0-.48-.35c.53-.36 1.19-.52 1.57-1.06.06-.08.22-.33.18-.4-.46-.93-.78-1.97-1.23-2.92.1.01.3-.17.38 0 .3.95.66 1.92 1.06 2.88 0 0 .28.84.23.86zm-1.65 1.82c-.17-.44-.44-1.09-.95-.87-.61.49.08 1.29.23.7 0-.11-.27-.08-.24-.24.29-.55.84.42.34.66-.56.36-1.1-.48-.8-.96.42-.97 1.86-1 2.28-1.94l-.23-.55C13 8.28 11.4 8.56 10.82 9.5c.16.16.08.44-.13.53.34.42.72.98 1.21.97.24 0 1.01-.28.91-.6zm.4.11c.53.18 1.26-.85.46-.77-.09-.03-.28.2-.13.2.15-.11.34.15.17.25-.34.25-.75-.26-.43-.54l-.05-.07c-.12.08-.23.17-.33.26.07.19.2.4.23.6.04.05 0 .07.08.07zm-.63 16.16c.31-.78.43-1.65.73-2.44.03-.2.4-.68.05-.74-.26.4-.29 1.03-.44 1.5-.05.55-.48 1.13-.34 1.68zm-.53-3.58c-.4-.53-1.35-.93-1.9-1.37-.17.19-.62.61-.88.85a3.56 3.56 0 0 0 2.05 1.24c.47.07.7-.54.73-.72zm.8 4.56c.08.01.1-.04.12-.15.18-.65.17-1.4.6-1.94l-.32-.1c-.2.41-.15 1.57-.74 1.51-.05.4-.19.64.33.68zm-4.72-5.95a.9.9 0 0 1-.15.2l.15.17c.04-.11.01-.25 0-.37zm8.03 2.72c-.2-.34-2.1-.27-2.46-.37-.1.25-.33.97-.36 1.12.7.2 1.18.28 1.9.28.88.04 1.15-.15.92-1.03zM8.42 20.5h.08l.01-.03c.2-.03.48-.15.54-.37-.42-.68-.87-1.37-1.14-2.15l-1.1.31c.06.67.77 2.06 1.61 2.24zm-.48 1.8-.22-.25a.8.8 0 0 1-.41.04.8.8 0 0 1-.2.05c-.05.19-.16.36-.26.5.08.1.17.2.25.32.23-.2.56-.44.84-.65zm-.56-6c.24-.01.49-.02.44-.38a8.91 8.91 0 0 1 .1-2.4l-1.13-.2c-.14.82-.5 2.85.6 2.97zm-.17.29c0 .24.03.47.08.7l.54-.15-.1-.58a1.5 1.5 0 0 1-.52.03zm1.3 5.5-.05-.07c0 .06-.03.12-.05.18l.1-.12zm.47-.52c-.14-.15-.52-.57-.16-.66.19.04.2.34.37.44.1-.1.2-.22.31-.31l-.4-.49h-.03c-.63.48-1.2.16-1.65-.36.27.4.66.94 1.3 1.66l.26-.28zm.15-.22-.03.03.03-.03zm13.23-14.4c-.1.21-.17.45-.3.57.14.12.26.26.41.4.2-.33.1-.85-.11-.97zM6.49 6.91c-.24.14-.66.35-.53.6.31.49.97.66 1.4 1.03 1.68 1.04-.34 2.67-.29 4.13l.33.06c.03-.2.05-.43.15-.62-.55-1.33 1.98-2.57.43-3.5C7.25 8 5.47 7.23 7.5 6.88c.63.1 1.32 1.1 1.84 1.45l.09-.1C8.42 7.7 7.8 5.82 6.49 6.9zm16.78.31c-.12.34-.35.6-.6.85.25.13.48.24.77.27a1.6 1.6 0 0 0-.17-1.12zm-1.16-.69c0-.04.01-.1 0-.14l-.67-.01c-.07.46.58.54.67.15zm-.68.43c-.06.05-.1.18-.12.32.1.05.57.17.57.17.21-.47-.16-.73-.45-.5zm1.5.24c.12-.14.3-.45.28-.85l-.64-.01c.1.15.17 1.02.37.86zm.98.02c.16-.23.19-.54.18-.81l-.55-.01c.15.3.22.69.21 1.03.07-.04.12-.15.16-.2zm.59-1.16c-.25.02-1.03.01-2.17.01-1.24 0-1.88-.07-1.97.11-.15.3-.3.86-.6.98-.3.13-1.8-.01-2.14-.02-.24-.01-.1-.34-.53-.36s-.45.22-.46.36c0 .12.06.42.42.45.34.03.29-.23.66-.22.37.01 1.62.16 1.93.16.2 0 1.36.04 1.78.23.38.16.43.31.8.53.36.22.88.58 2.06.56l-.04-.12a2.45 2.45 0 0 1-2.21-.89c-.44-.56-2.06-.16-1.8-.85.35-.67.19-.96 1.14-.84.45-.09 3.08.25 3.13-.1zm-.55 1.47c-.11.45-.15.75-.21.92l.45.05.1-.22c.09-.25-.1-.58-.34-.75zM20.9 4.34c.36.38.44 1.09.19 1.46h-.66c-.05 0-.26.01-.38.11a.43.43 0 0 0-.1.14.7.7 0 0 0-.08.24 1.16 1.16 0 0 1-.39-2.1c.06-.04.49-.14.86-.02l.56.17zm-.27.85a.53.53 0 1 0-1.06 0 .53.53 0 0 0 1.07 0zM15.61 3c-.07-.08-.16.04-.15.11.04.15.3.1.41.1.52-.4-.7-1.16-.95-.37-.19.56.27.67 1.16.9s1.12 2.06 2.6.78c-.13-.05-.2-.16-.26-.28-.18.12-.62.37-.67.33-.8.07-.75-1.33-1.92-1.14-1 .15-.49-1.11-.05-.53 0 .09-.1.17-.17.1zm9.1 5.63c.07.25.13.55-.1.75h-.01c.7.6 1.32 1.31 1.76 2.11.17.3.25.22.17-.11-.04-.14-.01-.34-.05-.46a4.17 4.17 0 0 0-1.78-2.3zm.08 2.24c.3-.08.6.01.84.18.18.11.22 0 .07-.19-.37-.5-.82-.96-1.3-1.37-.2.1-.24.37-.3.55.27.24.52.51.7.83zm1.86-.6a9.1 9.1 0 0 1-.02-.54c-.2-.1-.37-.22-.54-.35 0 .1.03.2.04.3.14.19.27.39.38.6.08.14.16.14.14 0zm-9.3-1.52c3.15-.96 1.52.83 2.87 1.3-.3-.52-.36-1.35-.77-1.76a3.06 3.06 0 0 0-2.22.26c-2.43.4-2.68-3.6-.03-2.87a3.2 3.2 0 0 0 1.82.44 1.6 1.6 0 0 1-.41-1.12c0-.06-.08-.08-.13-.04-.1.08-.2.14-.33.18-.02.16.32.63-.04.52-.8-.8-1.76-.63-2.71.15-1.3 1.3.2 3.68 1.94 2.94zm1.15 1.57c.15.05.3.09.43.16.27-.17.68-.07.37-.48-.13-.3-.15-.9-.52-1-.98.03-2 .74-2.35 1.66l-.02.02h.03c.05.06 1.03-.67 2.06-.36zm.47 17.72c.2.04-.02-.39-.22-.94-.06-.15-.1-.11-.12.04a.52.52 0 0 1-.21.37c.03.4.17.53.55.53zm-1.71-3.2c-.05-.15-.07-.44-.13-.58l-.67.09c.06.16.09.3.08.43v.07h.72zm1.26 1.27c0-.22.03-.43.15-.6l-.32.1c.01.13.06.31.12.51.03.1.05.1.05-.01zm1.98-2.46c-.57-.64-1.68.57-2.45.55l.24 1.1c.74-.32 2.8-.4 2.21-1.65zM10.04 21.3c-.15-.7-2.15 2.07-2.44 2.37l.01.08c.74-.86 1.78-1.54 2.43-2.45zm-2.63.5c.26 0 .5-.17.5-.45-.63-.58-1.08-2.19-2.13-1.53.47.71.81 1.71 1.63 1.98zM5.38 20c.24.8 1.15 1.41 1.35 2.25.3-.6-.98-1.42-1.23-2.3l-.12.05zm2.03 4.05c-.03.21.02.41.14.57.5-.59.9-1.45 1.7-1.65a5.16 5.16 0 0 1-.2-.2c-.54.34-.98 1.34-1.64 1.28zm20.26-3.67c1.2-1.05-1.47-.62-1.73-1.29l-.1.26c.43.22 1.91.25 1.6.96.07.03.16.07.23.07zm.83-8.51c.09.65.24 1.35.48 2.14.18-.05.78-.19 1-.23-.4-.92-.05-2.09-.18-3.13-.7-.6-1.3.6-1.3 1.22zm-5.57 11.54c.26.46 1.27 1.03.82 1.6.07.06.17.1.27.1 1.04-.29-1-1.3-.82-1.97l-.27.27zm.92-4.08c1.08.3 2.07.57 3.13.9.89-.2-2.86-.95-3.12-1.08v.18zm1.6 1.36.26.11.14-.23c-.16-.05-.37-.06-.4.12zm.87.83c.27-.11.68.03.94.12.1-.15.23-.3.27-.48-.6-.14-.15-.02-1.38-.49l-.18.3c.1.09.32.28.35.55zm-1-.55c-.19.35-.44.76-.79 1.19-.5.54-.63.87.21 1.46.43-.78 2.17-2.18.58-2.66zM3.89 13.16c.83.25 1.74.06 2.55.35l.05-.23c-.47-.2-2.1.1-1.77-.74-.4-.18-.69.3-.83.62zm3.87-5.84c-.26-.28-.6-.01-.9.09.67.56 1.38.98 1.94 1.7l.15-.17c-.28-.35-1.85-1.37-1.19-1.62zM7.7 12.8l.46.09.04-.3c-.16-.03-.28-.1-.42-.21a3.5 3.5 0 0 0-.08.42zm.92-.81c.35-.88.78-1.61 1.3-2.22l-.28-.26-.46-.39c-.4.66-2.25 2.73-.89 3.18.16 0 .27-.18.33-.31zm1.51-1.46a3.35 3.35 0 0 0-.25-.22c-.61.63-.73 1.74-1.37 2.25-.01.15-.05.3-.06.44.2.12.16.43-.05.51.02.44.1.96.5 1.14 1.56.04.37-1.81.1-.96-.14.29.21.5.26.25-.15-.06-.09-.3.06-.3.24.03.35.37.18.55-.46.37-.86-.09-.82-.77.09-1.19.63-2.26 1.45-2.9zm1.09.52c-.33-.27-.59-.61-.85-.94-.08 0-.16-.07-.22-.13a8.3 8.3 0 0 0-.09.1c.41.29.7.7 1.02 1.09l.14-.12zm-1.46 9.2c1.16.01.57-1.65-.26-.96.03.17.42.6.49.23-.01-.03-.03-.03-.05-.03-.28.08-.26-.36.01-.31 1.04.28-.51 1.93-1.02-.64a.9.9 0 0 1-.5-.28c-.04-.06-.09-.02-.05.06.25.57.7 1.15.98 1.76.12.14.28.17.4.17zm-1.64-3.19c.47-.15.8.44.32.7.21.34.42.5.65.5 1.71-.09.67-1.68-.13-1.16.04.26.25.62.46.4.01-.01 0-.03-.03-.03-.13-.01-.23-.2-.09-.28.28-.18.6.18.4.45-1.37 1.09-1.15-2.05-1.22-2.91a1.95 1.95 0 0 1-.34-.72c-.2.78.16 1.65-.13 2.4l.11.65zm1.74-4.57c-.33.83.47.65.5.49 0-.04-.08-.03-.1-.02-.12.1-.34-.07-.26-.2.14-.34.76-.18.66.21-.85 1.55-1.9-1.16-.1-1.95a7 7 0 0 0-.22-.27c-.69.5-1.17 1.4-1.34 2.45.3-.11.65.06.8.33.16.09.3.28.49.31 1.19 0 .6-2.17-.43-1.35zm-.01-4.85c.64-.15 1.13-.73 1.7-1.08.37-.26.09-.69-.07-.98-.49.38-2.98 1.46-1.63 2.06zM8 7.54c-.05.04-.1.06-.16.08.82.77 1.8 1.38 2.57 2.2.05-.05.12-.06.1-.12-.09-.34-1.6-1.3-2.51-2.16zm.23 5.54c-.74-.14-2.38-.3-3.2-.44-.07.07-.09.15 0 .22.15.07.3.1.52.11 1.1.08 2.66.4 2.7.32.04-.09.05-.1-.02-.21zM7.94 6.4c.47.4.9 1.05 1.43 1.4.07.06.11.05.03-.03a.72.72 0 0 1-.22-.75c-.46-.1-.74-1.16-1.23-.62zm-3.2 12.01c-.2.06-.42.13-.38.37 0 .14-.03.34.04.42.74-.1 1.37-.6 2.13-.67l-.03-.2c-.62.03-1.6 1-1.77.08zm.3-.1.02.19c4.3-1.26 4.26-1.59-.02-.2zm3.61-12.2c.2.27.38.43.61.61H9.34c.54-.64 1.33-.97 2.02-1.42-.13-.25-.22-.47-.38-.72-.8.44-1.7.83-2.32 1.54zm-2.43 5.92c.08.02.16.04.25.04.1 0 .24 0 .29-.1a.88.88 0 0 1-.5-.14l-.04.2zm1.16-1.38c.25-.45.51-.93.26-1.39-.1-.2-.28-.32-.45-.47-.34.68-1.59 2.56-.5 2.88.44-.01.42-.72.69-1.02zM5.1 20.11l-.12.04c-.22-.06-.47.19-.57.35-.18.25.32.88.36 1.06.07.31.45.29.7.25.7.13.73 1.17.05 1.2-.18.01-.54-.21-.46-.46.06-.1.23-.1.28.02.12.25.46.08.37-.16-.4-.89-1.62.57-.28.93.35.01.67-.2.84-.49.56-1.03-.97-1.75-1.17-2.74zm1.54 2.78c-.2.22-.45.52-.13.76.1-.17.22-.34.36-.49-.1-.07-.15-.18-.22-.27zM8.25 25c1.13-2.4 2.66-.64 4.39-.12l.29-1.16a2.28 2.28 0 0 1-.7-.23c-.61 1.34-1.99.1-2.84-.24-.77.05-1.2 1.35-1.82 1.74-1.07-.62-.03-1.82.52-2.42-.66.5-1.8 1.16-1.18 2.12.15.35.34.98.69.94.23 0 .48-.27.65-.63zm-1.16-5.27c-.2-.31-.36-.64-.47-.9-.68-.1-2.32 1.32-2.54.3-.08-.42 0-.9.5-.99l1.8-.58a2.38 2.38 0 0 1-.08-.18c-.59.45-1.52.26-2.14.67-.5.15-.68 1.84-.07 2.04 2.2-.76 2.5-.98 3-.36zm.84 6.06-.23.18c.36.55.9.99 1.53 1.24.6.13 1.55.82.84 1.41-.28.27-1.04-.29-.56-.5.06 0 .14.05.15.14.07.24.41.06.35-.12-.57-1.24-1.74.76-.16.88.51 0 1-.45 1.07-.96-.02-1.19-2.4-1.18-3-2.27zm-3.9-8.5c0 .15.04.3.1.44l.2-.09-.14-.47c-.08.01-.13.09-.17.13zm7.15 7.95c.23-.03.5-.15.61-.35-.77-.25-2-1.46-2.66-.59.65.36 1.31.78 2.05.94zm-.7 1.61c.25.02.32-.26.32-.35-.07-.82-1.6-1.05-2.17-1.53-.91 1.16 1.05 1.61 1.84 1.88zm-5.86-9.3.24-.06a6.35 6.35 0 0 1-.1-.54.72.72 0 0 1-.27.16l.13.44zm.39-5.8c.07.01.69.13.92.2.03-.12.06-.29.11-.39l-.06-.29c-.28.13-.63.2-.94.15l-.03.33zm-1.56 2.41c-.18-.02-.38-.01-.51-.2-.78 1.63.28 3.2-.31 4.32-.54.8-1.79-.07-1.06-.76.1-.08.26-.02.3.1.07.14-.15.23-.13.35.09.57.85.07.7-.32-.15-.78-1.13-.73-1.44-.19-.48.92.42 1.81 1.36 1.77 2.4-.07.17-3.6 1.09-5.07zm1.17-3.12c.23.05.47.1.7.1 1 .07.91-1.78 1.63-2.53l-.61-.38c-.88.55-.66 2.48-1.52 2.52-.5.05-.81-.8-.22-.87.27-.01.25.37-.01.32-.06.13.12.26.22.24.24 0 .28-.29.34-.47.13-.25-.38-.49-.64-.5-.46.05-.58.83-.48 1.19.1.28.43.32.59.38zm-.68 5.98c.2 0 .42-.18.57-.22.42-.58-.07-1.86.07-2.62-.94-.3-1.03.47-.93 1.19.11.4-.13 1.5.29 1.65zM5.28 9.5c.15-.5.36-1.04.78-1.43a1.4 1.4 0 0 1-.16-.13c-.18.18-.37.37-.49.56.05.3-.42.52-.6.24-.06-.14.13-.28.26-.17.15-.43-1.34.03.21.93zm1.39 7.98.32-.1a4.36 4.36 0 0 1-.09-.89c-.73-.58-.57-1.8-.52-2.66-.8-.4-2.08.02-2.77-.52-.1-.66.78-1.43 1.44-.98.57.08 1.15.17 1.72.28 0-.1.02-.18.03-.28-.8.19-1.7-.38-2.52-.37-.67-.11-2.1 2-.76 1.86 3.98-.04 2.08 1.03 3.15 3.66zm-1.82-3.26c-.03 1.03.14 2.1.3 3.21.26-.11.89 0 .93-.41l-.12-1.57c-.04-.39.06-1.17-.47-1.15l-.64-.08zm7.04 11.04c-.93.75-2.04-.26-2.96-.7a4.4 4.4 0 0 0-.13.17c4.03 1.77 1.13 1.89 2.7 2.6-.05-.65.72-1.5.4-2.07zm10.08-.88c.4 1.16-1.51 1.6-2.24 2.08l.07.24c.68-.27 1.38-.62 2.19-1.1.26-.18.49 0 .64.23.19.35.56.4.73.02a8.55 8.55 0 0 1-1.3-1.55l-.09.08zm-1.72 3.09.09.16c.46-.36 1.71-.2 1.68.51-.1.24-.6.39-.63-.1-.02-.06.02-.19-.02-.22-.49.15-.26.88.14.97 2.1-.44.04-2.44-1.26-1.32zm3.7-4.15c-.63-.84 1.3-2.17 1.45-3.33-.2-.08-.38-.15-.57-.2-.15.27-.3.55-.42.86.42 1.2-1.68 2.06-.56 3.11.54.45 1.36 1.49.16 1.67-.73-.15-1.09-1-1.61-1.48l-.12.13c.56.7.9 1.46 1.68 1.72 2.43-.89 1.33-1.23-.01-2.48zm-1.71 2.5c-.77.41-1.53.86-2.35 1.17l.1.26c.8-.28 1.61-.66 2.46-1.15-.06-.08-.14-.27-.21-.28zm4.34-4.04c-.58.15-1.06 1.66-1.53 2.07l.33.32c.6-.45.66-1.94 1.55-1.95.26-.02.54.07.63.34.22.73-1.07.58-.5.18.13.08.3.01.17-.15-.69-.25-.8 1.02.12.76.43-.12.73-.78.39-1.16-.38-.18-.73-.37-1.16-.41zm4.4-7.58c-.8-.46-1.8.1-2.81.42-.34.14-.42.49-.25 1.1.2 1 .15 2.04.06 3.02.09 0 .17.02.25.03l.09.01c.6-1.34-1.02-4.6 1.65-3.95.08-.54.84-.64 1-.07.08.19-.07.53-.28.33-.05-.1 0-.26-.08-.37-.1-.09-.27-.04-.32.09-.04.23.34.54.55.59.52-.06.41-.88.14-1.2zM17.45 25.7l-.13-.56h-.83c-.25 1.16-1.85.32-2.67.58-.42.54-.36 1.3-.58 1.94-.12.44-.6.27-.92.14-.43-.36.1-2.1.24-2.6l-.48-.2c.91 1.4-1.87 2.7 1.17 3.81h.05c.8-4.01.37-2.74 4.15-3.11zm8.83-7.7c-.13-1.29.25-2.76-.6-3.85-.56-.75-1.82-2.85-2.58-1.43-.26.82 1.5 1.38 1.64 2.83 1.39.4 1.49 1.63 1.34 2.94-.06 1.06 1.57.55 2.1 1.1.23.35-.03 1.08-.5 1.1-.2-.02-.42-.13-.62-.17-.49 0-.93-.26-1.38-.42l-.05.14c.7 0 1.3.56 1.99.62.6-.16 1.07-.85 1.42-1.35-.67-.91-2.61 0-2.76-1.51zm2.35-2.35c-.01 1.07.39 2.15-.01 3.2.08.03.17.06.26.11.67-.98-.05-2.22.36-3.2.41-.62 1.34.05.81.58-.14.14-.36-.1-.2-.23.2-.23-.2-.42-.35-.19-.3.32.1.81.42.76.69 0 .8-.97.33-1.33-.42-.43-1.52-.47-1.62.3zm-14.6 12.03c-.11.02-.15.17-.15.17-.04.18.01.44.1.62.2.32.9.21 1.25.31.34-.09.18-.62.86-.63.8-.02.95.99.13 1-.27.05-.25-.34.03-.3.23 0 .28-.33.03-.4-.14-.02-.35 0-.43.11-.14.3 0 .94.42.89.67.03.97-.68.69-1.21-.52-1.03-2.06-.19-2.93-.56zm-.06-.75a14.71 14.71 0 0 0 2.66-.12c.17-.14.02-.53.03-.74-.87.18-2.59-.44-2.7.86zm3.05-.17.34-.03-.13-.7c-.07 0-.17 0-.27.02l.06.71zm4.7-2.19c-.6.57-1.82.76-2.05 1.58.63-.37 2.22-.9 2.05-1.58zm.48-.84-.37-.42c-.3.23-.6.45-.9.65.1 1.23-1.52.97-2 1.72-.43.9.52 1.67.42 2.5-.22.28-.77.14-1.04-.03-.13-.17-.14-.4-.2-.6-.15-.03-.23-.16-.28-.3.08 1.44.7 1.41 1.97 1.52.31-.01.3-.2.2-.5-1.53-3.52.2-2.5 2.2-4.54zm-8.26 3.5-.02.27c.98.12 2.2-.36 3.07.2.2 0 .42-.02.6-.09a8.3 8.3 0 0 0-.15-.58c-1.15.13-2.3.27-3.5.2zm7.69-4.15c-.08-.09-.18-.22-.25-.28-.25.18-.52.33-.78.5.12.1.19.2.24.34.27-.18.53-.36.79-.56zm.87-8.18c.78.78 1.13-.58.5-.23.3.28-.3.42-.32.06-.01-1.24 1.4.34 1.44.83.1-.03.2-.05.3-.05-.33-1.84-2.5-1.94-1.92-.61zm1.67 4.02c.6-.96-.98-2.76-1.65-1.34-.26.8.98 1.02.99.38-.16.03-.44.11-.55-.04-.09-.16-.06-.4.07-.48.7-.2 1.18.97.96 1.44l.18.04zm-.27-2.79c-.24.94 1.15 1.84.57 2.86l1.08.28c.32-.83.52-2.25-.22-3.02-.21-.32-1.2-.7-1.43-.12zm.62 3.57c-.14-.03-.3-.07-.44-.12-.06.2-.14.4-.25.6.15.05.28.14.36.21l.33-.69zm-.79-7.74-.08-.07c-1.2.18-1.6-.78-2.7-.67-.42.34-.98.82-.8 1.38v.01c.64-.83 1.97-1.23 2.82-.2.18-.25.46-.46.76-.46zm.86-1.03a3.29 3.29 0 0 0-.55-.67c-.12.47-.02.97.06 1.18a1 1 0 0 1 .5-.51zm-.67-1.8c-.77-.06-1.56-.18-2.08-.81-.73-.62-1.77-.43-2.66-.53-.5 0-1.05-.17-1.55-.09-.54.44-1.4.1-1.34-.64.06-.67 1.09-.76 1.4-.22.66-.04 1.74.38 2.13-.3-.65-.32-1.45-.13-2.1-.36-.41-.26-.86-.46-1.36-.35-1.78.43-.5 3.13 1.01 2.44.6-.43 1.3-.28 1.99-.23.35 0 .45.36.57.63.27.63.65 2.34 1.54 1.94-.01-.37-.03-.95.22-1.24.07-.13.4-.47.43-.16-.28 1.26.18 2.4 1.45 2.2a3.02 3.02 0 0 1 .33-2.13c.02-.05.03-.1.02-.16zm-2.84-1.88c0-.4-.49-.25-.52 0h.52zM18.6 4.11c.04.07.09.16.14.2h.01c1.29-1 2.35.22 2.3-.43l.02-.07c-.4-.11-.85-.26-1.27-.21-.43.07-.83.28-1.2.51zm5 16.33c-.72.4-1 1.35-1.68 1.88l.81.87c.5-.6 2.31-2.38.87-2.75zm-5.65-8.07a2.74 2.74 0 0 1 2.2-.75c.05-.23.6-.32.44-.55-.49-.2-.5-.49-.9-.62-.9.15-1.93.96-1.74 1.92zM21 6.34c-.18 0-.3.12-.36.27l-.04.1h.01c.02.06.48-.13.39-.37zM17.74 24.2l-.04.02.01-.14c-.72-1.35.29 3.07.5 3.17.41 0-.47-2.61-.47-3.05zm5.9.53c-.42-.84-1.42-1.57-1.99-2.24l-.3-.38c-.1.07-.1.08-.02.17.74.8 1.45 1.73 2.21 2.48l.1-.03zm2.87-9.35c.24-.3.72-.32 1.01-.17-.24-1.43-.99-3.69-2.52-4.1-.53-.03-.86.58-.68 1.03 1.02.84 1.99 2.03 2.2 3.24zm-.6-8.02v-.24c.03-.24.23-.87.47-1.14.19-.61-.07-1.66.26-2.25.27-.83-1.3.61-1.7 2.12-.03.1.1.14.02.31-.03.06-.1.12-.1.18-.02.17-.02.34.01.5.38.11.71.3 1.03.52zM14.93 8.62c.04.1.15.27.28.22.04-.02.04-.1 0-.23-.05-.22-.32-.57-.5-1.01-.15-.35-.21-.9-.4-1.3-.78-1.73-1.42-3.33-.87-3.48.38-.1.52.32.19.23-.01.01-.02.03-.04.03.1.87 1.2-.22.18-.57-1.4-.24-.84 1.38-.44 2.07.4.99.68 1.87 1.03 2.8.16.42.41.82.57 1.25zm2.79-4.38c.99-.77 2.1-1.3 3.36-.9-.17-.8-.84-1.52-1.7-1.2 0 .19.46 1.28.02.98-.22-.63-.95-.7-1.53-.62.03.2.73 1.19.23 1.01a1.27 1.27 0 0 0-1.47-.45l-.02.02v.04c.06.14.35.42.58.7l.33.43c.04.04.16.01.2-.01zm-2.78-1.8c.61-.43 1.3.03 1.24.72 0 .02.24.06.23.03a.17.17 0 0 0 .04-.08c.06-.14.06-.3.02-.42-.2-.7-1.12-1.12-1.71-.64-.53.35-.2 1.12-.6 1.48-.21.13-.48.09-.66-.06.42 1.1.72 1.71 1.1 2.79.15-1.08 1.15-1.3 2.22-1.46 0 0-.5-.75-.83-.85-.33-.1-1.08-.2-1.24-.5-.18-.32-.15-.8.2-1.01zm1.69.62zm-7 5.4c.52.4.64.49.97.8.53-1.02 2.79-1.29 2.57-2.71l-.67-1.6c-.18-.3.16-.46.38-.43.03-.01.06-.04.05-.11l.02-.03c-.16-.31-.3-.8-.37-1.13-.4.05-1.54-.2-1.66.26.12.87.87 1.75 1.11 2.62-.12 1.13-1.82 1.41-2.4 2.33zm7-5.4zM7.6 5.62c1.1-.33 1.76-1.59 2.98-1.78a1.65 1.65 0 0 1-.05-.28c-.65.07-1.3.36-1.8.8-.4.49-1.41 1.04-1.63.13-.1-.36.63-.79.7-.33-.02.12-.14.15-.24.11-.64.4.8.72.55-.24-1.03-1.42-2.19 1.3-.51 1.6zM8 6a.55.55 0 0 1 .38-.05c.65-.76 1.58-1.17 2.44-1.63a1.83 1.83 0 0 1-.08-.21c-1.03.53-1.91 1.12-2.77 1.83-.13.1-.11.12.03.06zm20.09 5.13c-.06-.41-.36-.6-.64-.6-1.54.39.19 3.04.26 4.04.25-.3.75-.41.97-.47a14.98 14.98 0 0 1-.6-2.97zM27.35 10c-.17-.03-.34-.1-.5-.17l.03.51c0 .05.09.1.13.07a.84.84 0 0 1 .44-.13l-.1-.28zm.33 8.72c-.01-.7.38-3.12-.46-3.27-.25.01-.54.05-.68.4.22 1.08-.61 2.73 1.14 2.87zM28 10.1c-.17 0-.23-.02-.4-.06l.09.25c.15.02.17.07.3.16.04.04.1 0 .07-.06l-.06-.29zm-5.79-5.36c-.18.1-.54.04-.73-.07.25.43.12.86-.04 1.14l2.8-.01c-.16-.2 0-.48 0-.7-.09-.43-.82-.13-.95-.72-.32-.9-1.48-.07-2.01-.7 0 .14 0 .33-.1.45-.02.02.28.2.36.24.4.17.7.01.67.37zm-16 1.99c.1-.07.23-.14.35-.2a.4.4 0 0 1-.04-.04c-.36 0-.52-.6-.15-.7.12-.02.23.19.11.27-.06.04.02.14.08.12.44-.06.14-.62-.14-.6-.58-.03-.75 1-.2 1.15zm20.08.93c-.04-.61.23-1.22.74-1.58.22-.14.45-.23.7-.27.01-.25.4-.44.42-.65-1.08.04-2.15 1.29-2.04 2.36l.18.14zm.54.3c.42.68 1.94.3 1.5-.6-.14-.35-.8-.08-.61.22.11.08-.03.24-.14.17a.34.34 0 0 1-.15-.38c.1-.48.8-.56 1.07-.2.68.98-.55 1.7-1.35 1.35-.95-.31-1.6-1.2-2.96-1.35.33.33.4.75.41.85.67.12 2.2 1.44 2.6 1.6 2.55 1 3.66-3.14.85-3.44-.93-.13-1.75.98-1.22 1.79z"/><linearGradient id="b" x1="16.6" x2="16.82" y1="13.42" y2="8.34" gradientTransform="matrix(1 0 0 -1 0 34)" gradientUnits="userSpaceOnUse"><stop offset="0" stop-color="#fff7c4"/><stop offset=".52" stop-color="#a5935c"/><stop offset="1" stop-color="#fff7c4"/></linearGradient><path fill="url(#b)" d="M2.26 20.14H31.1v4.56H2.26z"/><g fill="#30302F"><path d="M2.64 20.55h3.78v3.78H2.64zM6.66 20.55h3.78v3.78H6.66zM10.7 20.55h3.78v3.78H10.7zM14.74 20.55h3.78v3.78h-3.78zM18.78 20.55h3.78v3.78h-3.78zM22.8 20.55h3.78v3.78H22.8zM26.84 20.55h3.78v3.78h-3.78z"/></g><linearGradient id="c" x1="16.55" x2="16.55" y1="9.79" y2="13.22" gradientTransform="matrix(1 0 0 -1 0 34)" gradientUnits="userSpaceOnUse"><stop offset="0" stop-color="#3b3421" stop-opacity="0"/><stop offset=".22" stop-color="#353229" stop-opacity=".3"/><stop offset=".52" stop-color="#30302f" stop-opacity=".71"/><stop offset=".97" stop-color="#3a3422" stop-opacity=".04"/><stop offset="1" stop-color="#3b3421" stop-opacity="0"/></linearGradient><path fill="url(#c)" d="M2.8 20.73h27.5v3.52H2.8z" opacity=".77"/><linearGradient id="d" x1="8.67" x2="8.67" y1="12.01" y2="9.36" gradientTransform="matrix(1 0 0 -1 0 34)" gradientUnits="userSpaceOnUse"><stop offset="0" stop-color="#fff7c4"/><stop offset=".52" stop-color="#a5935c"/><stop offset="1" stop-color="#fff7c4"/></linearGradient><path fill="url(#d)" d="m9.32 23.15-1.35-2.14h-.36v2.86h.4v-2.1l1.34 2.1h.37v-2.86h-.4z"/><linearGradient id="e" x1="4.68" x2="4.68" y1="12.01" y2="9.36" gradientTransform="matrix(1 0 0 -1 0 34)" gradientUnits="userSpaceOnUse"><stop offset="0" stop-color="#fff7c4"/><stop offset=".52" stop-color="#a5935c"/><stop offset="1" stop-color="#fff7c4"/></linearGradient><path fill="url(#e)" d="m4.51 21.01-1.05 2.86h.43l.21-.63h1.16l.21.63h.44l-1.06-2.86h-.34zm-.27 1.9.44-1.3.45 1.3h-.9z"/><linearGradient id="f" x1="12.69" x2="12.69" y1="12.01" y2="9.36" gradientTransform="matrix(1 0 0 -1 0 34)" gradientUnits="userSpaceOnUse"><stop offset="0" stop-color="#fff7c4"/><stop offset=".52" stop-color="#a5935c"/><stop offset="1" stop-color="#fff7c4"/></linearGradient><path fill="url(#f)" d="M13.27 21.81h.41c-.12-.92-1.43-1.17-1.85-.34-.19.3-.1 1-.13 1.34-.04 1.3 1.75 1.46 1.98.22h-.4c-.2.72-1.21.54-1.16-.22.01-.24-.06-.92.07-1.13.21-.5.97-.38 1.08.13z"/><linearGradient id="g" x1="28.73" x2="28.73" y1="12.01" y2="9.36" gradientTransform="matrix(1 0 0 -1 0 34)" gradientUnits="userSpaceOnUse"><stop offset="0" stop-color="#fff7c4"/><stop offset=".52" stop-color="#a5935c"/><stop offset="1" stop-color="#fff7c4"/></linearGradient><path fill="url(#g)" d="M27.73 21.01v.38h.8v2.48h.4v-2.48h.81v-.38z"/><linearGradient id="h" x1="16.64" x2="16.64" y1="12.01" y2="9.36" gradientTransform="matrix(1 0 0 -1 0 34)" gradientUnits="userSpaceOnUse"><stop offset="0" stop-color="#fff7c4"/><stop offset=".52" stop-color="#a5935c"/><stop offset="1" stop-color="#fff7c4"/></linearGradient><path fill="url(#h)" d="M16.02 21.39h.42v2.1h-.42v.38h1.24v-.38h-.42v-2.1h.42v-.38h-1.24z"/><linearGradient id="i" x1="24.69" x2="24.69" y1="12.01" y2="9.36" gradientTransform="matrix(1 0 0 -1 0 34)" gradientUnits="userSpaceOnUse"><stop offset="0" stop-color="#fff7c4"/><stop offset=".52" stop-color="#a5935c"/><stop offset="1" stop-color="#fff7c4"/></linearGradient><path fill="url(#i)" d="M25.35 23.15 24 21.01h-.37v2.86h.4v-2.1l1.35 2.1h.36v-2.86h-.39z"/><linearGradient id="j" x1="20.71" x2="20.71" y1="12.01" y2="9.36" gradientTransform="matrix(1 0 0 -1 0 34)" gradientUnits="userSpaceOnUse"><stop offset="0" stop-color="#fff7c4"/><stop offset=".52" stop-color="#a5935c"/><stop offset="1" stop-color="#fff7c4"/></linearGradient><path fill="url(#j)" d="M19.79 23.87h1.84v-.38H20.2v-.85h1.21v-.38H20.2v-.87h1.43v-.38h-1.84z"/></svg>