<svg width="477" height="477" viewBox="0 0 477 477" fill="none" xmlns="http://www.w3.org/2000/svg">
<path d="M238.5 477L0 238.501L238.5 0L477.001 238.501L238.5 477Z" fill="url(#paint0_linear_2105_851)"/>
<path d="M294.991 113.426C295.578 112.096 295.373 110.393 294.908 109.294C286.036 88.3013 277.012 67.0966 268.581 47.3089C268.304 46.6573 267.944 46.0902 267.625 45.5897C267.501 45.3933 267.375 45.1973 267.258 44.9977C266.895 44.3787 266.234 44.0124 265.538 44.0124C265.395 44.0124 265.252 44.0276 265.111 44.0586L264.289 44.2379C263.447 44.4215 262.817 45.1254 262.727 45.9829L256.534 105.798C256.392 105.757 256.255 105.716 256.119 105.674C249.719 103.686 243.959 102.72 238.515 102.72C237.201 102.72 235.885 102.778 234.604 102.891C230.978 103.211 227.377 103.919 223.895 104.603C222.689 104.839 221.442 105.084 220.223 105.307C220.178 105.315 220.133 105.324 220.088 105.332C219.51 99.1234 218.879 92.6841 218.164 85.6656C216.933 73.5659 215.61 60.7498 214.232 47.5739C214.158 46.8776 213.972 46.2504 213.809 45.697C213.747 45.4889 213.683 45.2807 213.631 45.0715C213.42 44.2415 212.701 43.6388 211.847 43.5737L211.206 43.525C211.156 43.5216 211.107 43.5198 211.057 43.5198C210.27 43.5198 209.548 43.985 209.228 44.7151C209.002 45.2333 208.773 45.7512 208.544 46.2691C208.058 47.37 207.555 48.5084 207.073 49.6402C204.984 54.5401 202.896 59.4409 200.809 64.3415C194.821 78.4002 188.629 92.9373 182.501 107.217C181.681 109.131 181.044 111.493 182.548 114.497C185.222 119.844 187.635 125.338 189.843 130.478C189.965 130.763 189.915 131.539 189.757 131.817C188.145 134.643 186.395 137.447 184.702 140.16C184.091 141.138 183.484 142.111 182.885 143.081C182.515 143.682 182.489 144.434 182.818 145.06C182.866 145.151 182.899 145.225 182.928 145.287C183.044 145.538 183.218 145.919 183.61 146.264C184.241 146.816 184.976 147.457 185.744 148.074C211.697 168.912 224.099 196.897 222.608 231.252L222.594 231.556C222.393 236.122 222.913 236.916 227.231 238.628C233.028 240.929 235.937 242.083 239.116 242.083C242.282 242.083 245.177 240.931 250.943 238.637L251.053 238.594C252.848 237.879 254.644 236.698 254.367 233.348C253.363 221.15 254.489 209.305 257.72 198.139C262.45 181.791 270.582 167.871 281.891 156.766C284.419 154.281 287.015 151.947 289.763 149.474C291 148.361 292.28 147.211 293.547 146.048C294.254 145.402 294.402 144.345 293.899 143.53C293.275 142.518 292.652 141.495 292.027 140.468C290.447 137.879 288.815 135.203 287.118 132.595C286.675 131.914 286.612 131.638 287.07 130.691C289.455 125.749 291.973 120.263 294.991 113.426Z" fill="url(#paint1_linear_2105_851)"/>
<path d="M196.97 148.49L219.422 178.92H254.794L280.034 146.174L262.968 138.589L204.143 135.487L196.97 148.49Z" fill="#1CB2F4"/>
<path d="M293.17 112.617C293.48 111.915 293.389 110.808 293.075 110.068C284.337 89.3925 275.549 68.7385 266.75 48.0886C266.439 47.3543 265.949 46.6983 265.543 46.0058C265.269 46.0657 264.994 46.1257 264.72 46.1854C262.582 66.8283 260.445 87.4713 258.282 108.353C257.073 108.013 256.298 107.814 255.535 107.577C248.766 105.476 241.841 104.253 234.786 104.877C230.021 105.298 225.312 106.404 220.588 107.268C219.391 107.486 218.33 107.901 218.154 106.02C217.529 99.2988 216.869 92.5805 216.186 85.8649C214.892 73.1673 213.58 60.4718 212.252 47.7782C212.174 47.0278 211.89 46.2998 211.702 45.5614C211.489 45.5453 211.275 45.5291 211.064 45.5129C210.347 47.1482 209.617 48.7773 208.916 50.4198C200.731 69.6167 192.571 88.8242 184.342 108.001C183.505 109.954 183.316 111.556 184.339 113.6C186.974 118.866 189.356 124.269 191.683 129.687C192.055 130.551 191.963 131.985 191.497 132.803C189.287 136.676 186.874 140.427 184.59 144.126C184.774 144.476 184.818 144.66 184.931 144.76C185.612 145.356 186.295 145.948 187 146.515C213.902 168.114 226.118 196.544 224.608 231.334C224.435 235.332 224.335 235.327 227.973 236.77C239.156 241.206 239.145 241.181 250.321 236.735C251.894 236.11 252.545 235.451 252.385 233.508C251.381 221.333 252.407 209.337 255.809 197.581C260.509 181.331 268.516 167.103 280.498 155.338C284.24 151.661 288.213 148.23 292.206 144.574C289.994 140.986 287.795 137.284 285.451 133.681C284.569 132.326 284.567 131.289 285.277 129.82C288.021 124.141 290.623 118.39 293.17 112.617ZM221.699 171.676C221.652 171.712 221.604 171.747 221.556 171.783C220.992 168.975 220.509 166.149 219.823 163.374C219.591 162.431 218.974 160.972 218.33 160.846C211.244 159.467 208.508 153.468 204.813 147.71C205.704 148.162 206.236 148.37 206.708 148.678C211.174 151.603 215.652 154.505 220.062 157.515C220.774 158.001 221.595 158.965 221.626 159.739C221.783 163.712 221.699 167.696 221.699 171.676ZM265.078 158.27C263.841 159.666 261.484 160.097 259.567 160.765C257.989 161.315 257.193 162.227 256.93 163.934C256.508 166.685 255.862 169.397 255.311 172.127C255.263 172.094 255.214 172.06 255.164 172.027C255.164 168.052 255.12 164.075 255.213 160.104C255.228 159.492 255.747 158.683 256.268 158.332C261.361 154.901 266.504 151.549 271.993 148.487C269.723 151.782 267.701 155.306 265.078 158.27Z" fill="#231F20"/>
<path d="M123.407 317.032H353.592L238.5 432.124L123.407 317.032ZM102.522 308.381L238.5 444.359L374.478 308.381H102.522Z" fill="#231F20"/>
<path d="M173.028 146.66L170.374 138.491L84.5382 224.328H61.8864L173.028 113.185V102.362L43.4105 231.98H204.924V223.865H95.8246L173.028 146.66Z" fill="#231F20"/>
<path d="M223.5 62.7089L238.493 47.7159L254.799 64.0227L255.707 54.1061L238.493 36.893L222.594 52.7923L223.5 62.7089Z" fill="#231F20"/>
<path d="M252.908 84.7814L238.5 70.3717L225.403 83.4676L226.309 93.3841L238.5 81.1946L252.002 94.698L252.908 84.7814Z" fill="#231F20"/>
<path d="M300.025 98.4261V109.249L415.105 224.33H392.453L303.223 135.1L300.025 142.724L381.167 223.866H272.069V231.982H433.58L300.025 98.4261Z" fill="#231F20"/>
<path opacity="0.62" d="M238.501 445.067L101.319 307.885H375.685L238.501 445.067ZM103.729 308.882L238.501 443.656L373.276 308.882H103.729Z" fill="url(#paint2_linear_2105_851)"/>
<path opacity="0.58" d="M122.2 316.529L238.498 432.827L354.794 316.529H122.2ZM124.61 317.528H352.384L238.498 431.414L124.61 317.528Z" fill="url(#paint3_linear_2105_851)"/>
<path d="M238.5 11.7641L465.237 238.501L238.5 465.237L11.7641 238.501L238.5 11.7641ZM238.5 0L0 238.501L238.5 477L477.001 238.501L238.5 0Z" fill="#231F20"/>
<path d="M238.501 15.5983L461.405 238.501L238.501 461.405L15.5983 238.501L238.501 15.5983ZM238.501 11.7651L11.765 238.501L238.501 465.237L465.237 238.501L238.501 11.7651Z" fill="url(#paint4_linear_2105_851)"/>
<path d="M90.0432 253.726L111.842 281.72L102.53 288.573L90.043 272.023L77.5563 288.573L68.244 281.72L90.0432 253.726ZM161.103 267.992L138.047 253.736V286.429H150.225V275.292L173.282 289.549V256.855H161.103V267.992ZM227.203 270.926C227.203 275.62 223.018 276.126 221.218 276.126C219.42 276.126 215.235 275.62 215.235 270.926V256.855H203.055V271.949C203.055 281.263 210.185 287.281 221.218 287.281C232.253 287.281 239.381 281.263 239.381 271.949V256.855H227.203V270.926ZM304.015 277.338C304.015 285.793 292.423 286.771 283.703 286.771C282.549 286.771 281.261 286.799 279.897 286.828C278.396 286.859 276.846 286.892 275.317 286.892C273.624 286.892 272.215 286.851 271.011 286.764L269.155 286.634V256.65L271.011 256.519C274.816 256.251 279.916 256.251 283.289 256.251H283.949C292.974 256.251 303.332 257.332 303.332 265.777C303.332 267.489 302.858 269.604 301.01 271.334C303.414 273.122 304.015 275.456 304.015 277.338ZM332.425 286.429H344.603V256.855H332.425V286.429ZM403.566 268.643L407.475 259.583L405.641 258.793C401.471 256.993 396.346 256.003 391.208 256.003C380.251 256.003 373.966 260 373.966 266.968C373.966 269.772 375.062 271.789 376.863 273.251L372.344 282.758L374.157 283.613C377.504 285.187 382.931 287.281 391.379 287.281C402.26 287.281 408.758 283.194 408.758 276.348C408.758 272.507 406.612 270.134 403.566 268.643Z" fill="url(#paint5_linear_2105_851)"/>
<path d="M90.0415 268.706L77.1491 285.793L71.078 281.325L90.0415 256.972L109.005 281.325L102.934 285.793L90.0415 268.706Z" fill="#231F20"/>
<path d="M140.045 257.739L163.101 271.994V259.273H171.287V286.387L148.231 272.132V284.853H140.045V257.739Z" fill="#231F20"/>
<path d="M213.237 258.848V270.921C213.237 275.423 216.375 278.119 221.218 278.119C226.061 278.119 229.199 275.423 229.199 270.921V258.848H237.385V271.946C237.385 280.916 230.155 285.282 221.218 285.282C212.283 285.282 205.051 280.916 205.051 271.946V258.848H213.237Z" fill="#231F20"/>
<path d="M271.151 284.77V258.507C275.005 258.235 280.267 258.243 283.949 258.243C297.798 258.243 301.336 261.406 301.336 265.772C301.336 268.774 299.529 270.513 296.868 271.502C299.903 272.457 302.018 274.197 302.018 277.333C302.018 281.87 297.55 284.772 283.703 284.772C280.019 284.772 275.005 285.042 271.151 284.77ZM293.149 266.829C293.149 265.499 291.355 264.745 284.772 264.745C282.793 264.745 280.77 264.714 279.337 264.817V268.705C280.77 268.739 282.44 268.739 284.486 268.739C291.41 268.739 293.149 268.057 293.149 266.829ZM293.832 276.448C293.832 275.22 292.092 274.538 284.486 274.538C282.44 274.538 280.77 274.538 279.337 274.571V278.46C280.77 278.561 282.709 278.496 284.686 278.496C291.951 278.496 293.832 277.778 293.832 276.448Z" fill="#231F20"/>
<path d="M334.417 258.848H342.603V284.429H334.417V258.848Z" fill="#231F20"/>
<path d="M377.969 275.563C381.312 277.132 385.881 278.463 391.782 278.463C394.954 278.463 398.569 278.053 398.569 276.724C398.569 275.666 396.284 275.496 393.113 275.291C381.379 274.54 375.957 272.562 375.957 266.968C375.957 260.42 383.051 257.999 391.203 257.999C396.558 257.999 401.366 259.123 404.845 260.625L402.15 266.867C399.32 265.706 395.125 264.819 390.691 264.819C387.314 264.819 384.142 265.229 384.142 266.559C384.142 267.514 385.745 267.754 388.611 267.924C398.843 268.503 406.755 269.902 406.755 276.348C406.755 282.35 400.343 285.283 391.373 285.283C383.563 285.283 378.48 283.442 375.001 281.804L377.969 275.563Z" fill="#231F20"/>
<path d="M193.217 330.602C192.518 330.078 191.373 329.791 190.544 329.956C190.15 330.035 189.917 331.417 189.791 332.235C189.58 333.611 189.671 335.045 189.356 336.391C187.943 342.431 186.822 348.579 184.831 354.428C183.281 358.984 183.974 362.149 187.806 364.939C193.463 369.057 196.295 374.455 195.057 381.668C194.922 382.451 195.873 384.11 196.498 384.207C198.61 384.529 198.103 382.681 198.11 381.506C198.151 374.698 198.131 367.89 198.131 361.083C198.189 361.083 198.294 347.666 198.312 340.96C198.322 336.656 196.643 333.165 193.217 330.602ZM193.362 365.63C191.526 363.689 189.68 361.755 187.895 359.767C187.639 359.481 187.654 358.803 187.764 358.36C189.487 351.412 191.247 344.475 192.997 337.534C193.081 337.198 193.574 337.247 193.589 337.593C193.884 343.957 194.073 365.346 194.073 365.346C194.073 365.719 193.618 365.9 193.362 365.63Z" fill="#231F20"/>
<path d="M211.403 329.517C211.764 329.72 212.217 329.644 212.491 329.331C212.906 328.856 213.54 328.127 214.11 327.459C214.45 327.061 215.059 327.047 215.416 327.428C216.327 328.401 217.152 329.283 218.01 330.197C218.352 330.564 218.934 330.567 219.282 330.204C220.185 329.259 220.982 328.425 221.795 327.574C222.14 327.214 222.715 327.212 223.059 327.574C223.912 328.465 224.759 329.35 225.865 330.507C226.263 330.924 226.952 330.847 227.248 330.352C227.852 329.35 228.422 328.403 229.006 327.431C229.306 326.932 230.002 326.859 230.398 327.287C231.466 328.437 232.342 329.381 233.429 330.55C233.817 330.965 234.492 330.91 234.804 330.435C235.475 329.415 236.094 328.475 236.726 327.512C237.043 327.032 237.73 326.982 238.112 327.412C239.073 328.494 239.91 329.438 240.988 330.652C241.376 331.088 242.077 331.031 242.387 330.535C243.057 329.465 243.658 328.508 244.255 327.553C244.562 327.066 245.248 327.002 245.64 327.423C246.618 328.477 247.428 329.346 248.293 330.276C248.649 330.66 249.262 330.647 249.601 330.245C250.454 329.238 251.549 327.943 252.28 327.08C252.671 326.618 253.397 326.682 253.702 327.202C254.226 328.094 254.996 329.408 255.688 330.592C256.005 331.132 256.771 331.175 257.145 330.673C258.023 329.496 258.907 328.311 259.475 327.552C259.799 327.118 260.435 327.08 260.808 327.471L263.793 330.593C264.162 330.979 264.785 330.948 265.114 330.528L267.274 327.769C267.603 327.347 268.23 327.316 268.598 327.705C269.251 328.397 270.265 329.472 271.19 330.476C271.569 330.886 272.231 330.841 272.551 330.383C273.273 329.353 273.932 328.411 274.621 327.428C274.954 326.952 275.646 326.927 276.014 327.374C276.628 328.122 277.239 328.852 277.633 329.324C277.892 329.632 278.326 329.724 278.687 329.548L279.552 329.126C280.053 328.88 280.201 328.235 279.855 327.796C278.985 326.699 277.447 324.762 276.3 323.337C275.994 322.957 275.436 322.902 275.06 323.213C274.06 324.043 273.059 324.874 272.043 325.687C271.988 325.73 271.915 325.75 271.835 325.759C271.574 325.79 271.318 325.683 271.137 325.495C270.191 324.515 269.187 323.475 268.567 322.834C268.235 322.49 267.687 322.476 267.339 322.803C266.731 323.377 265.732 324.297 264.594 325.265C264.268 325.542 263.791 325.545 263.464 325.271C262.551 324.508 261.304 323.482 260.566 322.876C260.216 322.59 259.708 322.616 259.391 322.938C258.79 323.544 257.81 324.519 256.978 325.265C256.63 325.578 256.096 325.559 255.769 325.225C254.863 324.305 254.073 323.422 253.575 322.852C253.263 322.493 252.727 322.449 252.361 322.75C251.666 323.324 250.519 324.278 249.383 325.266C249.054 325.554 248.565 325.554 248.234 325.268C247.23 324.402 246.288 323.546 245.716 323.019C245.392 322.722 244.901 322.71 244.564 322.991C243.927 323.525 242.843 324.419 241.698 325.316C241.367 325.576 240.897 325.563 240.58 325.285C239.748 324.553 238.696 323.604 238.055 323.024C237.723 322.724 237.223 322.721 236.889 323.019C236.224 323.608 235.126 324.581 234.318 325.29C234.001 325.569 233.529 325.581 233.197 325.318C232.215 324.536 230.997 323.556 230.283 322.981C229.94 322.705 229.447 322.726 229.129 323.032C228.522 323.616 227.527 324.569 226.719 325.316C226.383 325.628 225.863 325.625 225.527 325.311C224.552 324.395 223.572 323.522 222.978 322.998C222.651 322.709 222.162 322.705 221.831 322.989C221.225 323.511 220.195 324.402 219.026 325.437C218.679 325.743 218.156 325.728 217.827 325.402C217.145 324.724 216.139 323.797 215.495 323.212C215.147 322.893 214.611 322.908 214.282 323.246C213.149 324.405 210.705 326.954 209.865 328.236C209.693 328.499 210.704 329.124 211.403 329.517Z" fill="#231F20"/>
<path d="M214.541 359.199C210.736 359.189 206.932 359.187 203.129 359.204C201.209 359.214 200.332 360.236 200.425 362.256C200.651 367.151 200.785 372.052 200.489 376.942C200.335 379.451 201.579 380.35 204.276 379.982C207.23 379.579 210.108 379.668 213.173 379.959C216.144 380.242 217.202 379.341 217.157 377.049C217.109 374.646 217.145 372.243 217.145 369.841H217.231C217.231 367.238 217.217 364.636 217.236 362.034C217.25 360.198 216.409 359.204 214.541 359.199ZM213.571 376.37H205.368C204.696 376.37 204.152 375.826 204.152 375.154V363.737C204.152 363.231 204.562 362.819 205.068 362.816C207.517 362.804 209.81 362.755 212.09 362.885C212.608 362.914 213.49 363.785 213.506 364.29C213.623 368.255 213.571 372.225 213.571 376.37Z" fill="#231F20"/>
<path d="M282.649 385.323C282.676 373.508 281.901 362.101 281.298 350.556C280.88 345.615 281.662 338.695 278.78 334.589C277.706 335.04 278.376 342.005 277.971 343.151C273.965 325.795 273.908 338.376 274.254 346.58C271.614 347.32 266.819 346.988 264.418 348.667C264.318 349.859 266.382 352.919 267.455 353.51C269.189 354.247 271.053 354.556 272.866 355.014C270.7 359.624 270.865 364.505 270.491 369.651C268.61 365.651 266.377 357.199 261.409 357.735C259.959 358.568 258.091 352.046 257.829 350.942C259.067 350.153 263.144 350.112 261.23 347.885C261.148 347.882 260.495 347.546 260.436 347.677C260.436 347.677 258.487 348.667 257.469 349.08C258.089 344.678 255.201 336.726 250.11 342.357C248.413 345.064 251.906 347.968 253.949 350.004C252.476 350.568 250.383 350.667 249.395 352.272L249.968 352.23C250.263 352.475 250.421 353.334 250.952 353.154C252.273 352.754 253.647 351.826 254.856 351.857C270.073 389.134 250.294 386.838 281.357 386.53C281.357 386.53 281.891 386.755 282.358 386.034H282.308C282.402 385.848 282.528 385.586 282.649 385.323ZM255.518 348.531C254.364 348.054 251.863 345.333 252.283 343.431C253.451 341.637 254.887 343.523 254.908 344.806C255.159 345.57 255.75 347.56 255.518 348.531ZM276.281 382.877C265.751 383.247 265.941 383.354 264.529 372.898C264.045 369.262 262.517 365.8 261.967 362.184C262.906 361.996 263.86 362.452 264.296 363.324L272.186 379.121L275.064 378.494C275.155 375.939 275.307 373.31 274.909 370.774C274.194 366.276 271.927 361.164 275.928 357.48C276.819 356.714 276.507 354.824 276.597 353.55C274.848 353.136 268.237 352.279 267.122 349.588C267.56 349.21 271.187 348.741 273.848 348.629L278.117 349.218C278.915 359.089 278.589 369.493 278.701 380.867C278.856 381.713 277.682 383.156 276.281 382.877Z" fill="#231F20"/>
<path d="M251.458 370.938C249.188 362.852 244.219 356.559 237.979 351.17C235.269 348.831 233.129 346.526 232.344 342.575C231.142 336.53 225.488 335.473 221.17 339.806C220.185 340.796 218.471 341.041 217.122 341.693C216.437 342.026 215.772 342.401 215.109 342.779C214.582 343.08 214.451 343.781 214.835 344.251C215.416 344.961 215.993 345.677 216.721 345.898C219.62 346.772 220.62 348.61 221.215 351.449C221.845 354.459 223.202 357.353 224.502 360.179C227.448 366.584 230.668 372.867 233.536 379.307C234.194 380.783 236.429 383.183 233.56 384.239C231.581 384.966 228.789 384.52 227.439 384.849C227.33 384.876 227.237 384.969 227.122 385.135C226.673 385.782 227.155 386.669 227.942 386.662C229.692 386.647 234.654 386.755 236.088 386.816C238.334 386.909 240.821 386.662 242.044 386.24C243.158 385.856 241.52 383.168 241.238 381.074C241.171 380.562 241.061 380.057 240.933 379.491C240.795 378.878 241.26 378.296 241.889 378.296H251.825C252.443 378.296 252.905 377.731 252.784 377.126C252.331 374.839 251.997 372.86 251.458 370.938ZM234.528 352.511C235.033 352.919 235.541 353.322 236.04 353.732C236.212 353.874 236.329 354.072 236.378 354.29C236.59 355.238 236.517 356.226 236.278 357.187C236.062 358.057 234.902 358.224 234.468 357.442C233.92 356.46 233.484 355.418 233.169 354.328C233.09 354.054 233.019 353.779 232.954 353.501C234.292 352.659 233.19 353.353 234.528 352.511ZM236.648 381.919C236.629 381.837 236.629 381.75 236.619 381.668C236.474 380.429 238.326 380.123 238.549 381.347C238.577 381.502 238.543 381.664 238.601 381.799C239.662 384.239 237.344 384.889 236.648 381.919ZM246.76 375.638C243.592 375.092 240.413 374.596 237.321 373.769C236.135 373.452 235.053 372.001 234.33 370.821C229.461 362.872 224.329 356.149 223.109 346.624C223.045 346.127 218.023 344.356 218.154 343.764C218.499 342.219 223.469 342.436 223.734 342.047C224.533 340.881 226.375 341.261 227.623 341.923C228.412 342.339 229.042 342.754 229.034 343.156C228.989 345.4 229.625 347.138 230.622 348.6C230.735 348.765 230.799 348.96 230.799 349.16C230.799 349.657 230.827 350.129 230.835 350.47C230.863 351.795 231.051 353.128 231.386 354.411C232.06 356.994 233.36 359.349 235.119 361.348C235.489 361.77 236.223 361.636 236.486 361.173C237.123 360.048 237.662 358.806 237.962 357.526C238.138 356.776 239.085 356.524 239.621 357.08C243.558 361.183 246.608 365.821 248.42 371.324C248.627 371.954 248.801 372.595 248.968 373.239C248.013 374.276 247.714 374.6 246.76 375.638Z" fill="#231F20"/>
<g opacity="0.47">
<path d="M217.493 358.949C216.788 358.236 215.795 357.874 214.543 357.871C212.777 357.867 211.012 357.864 209.246 357.864C207.204 357.864 205.163 357.867 203.12 357.878C201.827 357.883 200.812 358.264 200.106 359.008C199.855 359.273 199.652 359.579 199.493 359.922C199.498 359.626 199.503 359.287 199.509 358.901C199.528 357.537 199.547 355.647 199.565 353.55C199.602 349.266 199.631 344.21 199.64 340.965C199.652 336.187 197.759 332.341 194.013 329.538C193.222 328.947 192.086 328.58 191.045 328.58C190.778 328.58 190.522 328.606 190.281 328.652C189.051 328.899 188.744 330.27 188.474 332.035C188.374 332.684 188.336 333.323 188.298 333.941C188.253 334.708 188.21 335.43 188.057 336.091C187.697 337.624 187.353 339.186 187.02 340.696C186.042 345.123 185.033 349.7 183.569 354.003C181.776 359.269 182.84 362.976 187.02 366.017C192.625 370.097 194.824 375.146 193.742 381.446C193.574 382.426 194.123 383.617 194.643 384.341C195.144 385.035 195.701 385.433 196.295 385.524C196.522 385.558 196.741 385.577 196.946 385.577C197.909 385.577 198.486 385.18 198.799 384.847C199.576 384.024 199.509 382.875 199.459 382.035C199.448 381.854 199.436 381.678 199.438 381.516C199.443 380.731 199.445 379.942 199.448 379.153C199.612 379.58 199.838 379.952 200.132 380.266C200.838 381.017 201.873 381.396 203.208 381.396C203.59 381.396 204.009 381.366 204.455 381.304C205.735 381.13 207.049 381.044 208.47 381.044C209.839 381.044 211.293 381.122 213.046 381.289C213.437 381.325 213.807 381.344 214.145 381.344C215.631 381.344 216.713 380.977 217.453 380.221C218.177 379.484 218.514 378.439 218.485 377.025C218.452 375.366 218.459 373.669 218.468 372.028C218.468 371.744 218.469 371.46 218.471 371.176H218.561C218.561 371.176 218.559 368.279 218.559 367.495C218.555 365.709 218.552 363.861 218.566 362.047C218.576 360.72 218.214 359.678 217.493 358.949ZM198.107 381.508C198.1 382.684 198.608 384.532 196.495 384.208C195.871 384.112 194.92 382.453 195.055 381.671C196.291 374.458 193.46 369.061 187.802 364.941C183.97 362.151 183.278 358.985 184.828 354.432C186.819 348.581 187.94 342.432 189.352 336.392C189.667 335.047 189.576 333.612 189.788 332.236C189.914 331.418 190.148 330.037 190.541 329.958C191.369 329.792 192.514 330.08 193.215 330.604C196.639 333.166 198.319 336.657 198.308 340.961C198.291 347.668 198.186 361.085 198.127 361.085C198.127 367.893 198.148 374.699 198.107 381.508ZM217.229 369.844C217.2 369.844 217.172 369.844 217.143 369.844C217.143 372.247 217.105 374.649 217.154 377.052C217.2 379.344 216.143 380.245 213.172 379.963C210.106 379.672 207.228 379.582 204.274 379.985C201.577 380.354 200.334 379.456 200.485 376.945C200.783 372.056 200.649 367.154 200.423 362.259C200.33 360.239 201.207 359.218 203.127 359.209C206.93 359.19 210.735 359.194 214.539 359.202C216.408 359.207 217.248 360.201 217.234 362.037C217.216 364.64 217.229 367.242 217.229 369.844Z" fill="url(#paint6_linear_2105_851)"/>
<path d="M212.09 362.888C209.808 362.757 207.517 362.807 205.068 362.819C204.562 362.821 204.152 363.232 204.152 363.739V375.158C204.152 375.827 204.696 376.372 205.368 376.372H213.569C213.569 372.226 213.623 368.256 213.504 364.292C213.49 363.789 212.608 362.917 212.09 362.888ZM212.245 373.446C212.243 373.974 212.242 374.506 212.242 375.04H205.483V364.147C205.771 364.145 206.057 364.143 206.341 364.14C207.028 364.135 207.705 364.13 208.375 364.13C209.782 364.13 210.869 364.154 211.873 364.209C211.971 364.274 212.105 364.405 212.18 364.505C212.264 367.449 212.255 370.363 212.245 373.446Z" fill="url(#paint7_linear_2105_851)"/>
<path d="M192.995 337.538C191.243 344.478 189.485 351.417 187.761 358.363C187.651 358.806 187.635 359.486 187.892 359.771C189.678 361.76 191.524 363.692 193.358 365.633C193.615 365.904 194.071 365.723 194.071 365.349C194.071 365.349 193.88 343.96 193.587 337.596C193.57 337.25 193.079 337.202 192.995 337.538ZM189.016 359.032C189.015 358.937 189.023 358.801 189.053 358.684C190.176 354.159 191.328 349.575 192.464 345.078C192.588 351.34 192.676 359.182 192.716 363.019C191.481 361.71 190.226 360.373 189.016 359.032Z" fill="url(#paint8_linear_2105_851)"/>
<path d="M210.745 330.679C211.076 330.865 211.449 330.962 211.828 330.962C212.464 330.962 213.07 330.688 213.487 330.209C213.826 329.82 214.308 329.265 214.785 328.711L217.031 331.108C217.446 331.553 218.034 331.807 218.642 331.807C219.241 331.807 219.823 331.558 220.238 331.125L222.42 328.84L224.897 331.429C225.315 331.868 225.882 332.109 226.49 332.109C227.272 332.109 227.98 331.709 228.383 331.041L229.828 328.638L232.449 331.458C232.864 331.906 233.453 332.162 234.065 332.162C234.81 332.162 235.501 331.792 235.909 331.169L237.506 328.742L239.988 331.537C240.406 332.009 241.007 332.279 241.638 332.279C242.402 332.279 243.102 331.892 243.508 331.244L245.063 328.766L247.313 331.184C247.728 331.632 248.317 331.888 248.928 331.888C249.577 331.888 250.192 331.604 250.612 331.107L252.874 328.434L254.536 331.267C254.928 331.94 255.659 332.359 256.439 332.359C257.142 332.359 257.786 332.035 258.206 331.47L260.212 328.783L262.825 331.515C263.239 331.949 263.821 332.197 264.42 332.197C265.102 332.197 265.736 331.888 266.158 331.349L267.99 329.009C268.636 329.692 269.456 330.566 270.207 331.38C270.624 331.832 271.214 332.09 271.828 332.09C272.548 332.09 273.224 331.739 273.636 331.15L275.362 328.683C275.842 329.265 276.293 329.804 276.609 330.182C277.029 330.683 277.644 330.97 278.298 330.97C278.632 330.97 278.966 330.891 279.266 330.747L280.131 330.325C280.734 330.028 281.166 329.484 281.314 328.83C281.464 328.175 281.309 327.498 280.892 326.973C279.414 325.106 278.183 323.561 277.33 322.504C276.91 321.982 276.283 321.682 275.613 321.682C275.1 321.682 274.6 321.863 274.206 322.19L274.024 322.34C273.278 322.958 272.511 323.594 271.743 324.216L269.52 321.913C269.106 321.484 268.528 321.238 267.932 321.238C267.369 321.238 266.831 321.45 266.421 321.837C265.855 322.371 264.995 323.162 264.015 324.006C263.142 323.277 262.067 322.393 261.404 321.849C261.012 321.525 260.514 321.348 260.006 321.348C259.413 321.348 258.857 321.581 258.438 322.002C257.982 322.464 257.162 323.284 256.408 323.981C255.657 323.205 255.006 322.476 254.572 321.978C254.153 321.498 253.547 321.222 252.91 321.222C252.4 321.222 251.902 321.401 251.51 321.725C250.824 322.29 249.824 323.122 248.802 324.006C247.883 323.205 247.049 322.445 246.61 322.042C246.202 321.667 245.673 321.46 245.118 321.46C244.603 321.46 244.102 321.641 243.706 321.971C243.084 322.49 242.163 323.249 241.169 324.036C240.373 323.33 239.452 322.502 238.942 322.039C238.536 321.672 238.01 321.469 237.463 321.469C236.924 321.469 236.404 321.667 235.999 322.025C235.411 322.547 234.485 323.367 233.72 324.04C232.802 323.308 231.753 322.464 231.113 321.947C230.722 321.632 230.231 321.458 229.73 321.458C229.156 321.458 228.614 321.679 228.2 322.075C227.623 322.631 226.828 323.392 226.121 324.052C225.259 323.249 224.425 322.505 223.853 322.002C223.45 321.646 222.932 321.45 222.394 321.45C221.867 321.45 221.358 321.639 220.958 321.984C220.36 322.497 219.463 323.274 218.456 324.162C217.806 323.532 216.993 322.783 216.385 322.228C215.979 321.858 215.452 321.655 214.902 321.655C214.305 321.655 213.745 321.889 213.327 322.318C211.994 323.678 209.629 326.162 208.745 327.509C208.521 327.85 208.453 328.258 208.552 328.661C208.718 329.338 209.291 329.866 210.745 330.679ZM209.858 328.237C210.698 326.956 213.142 324.407 214.277 323.248C214.606 322.912 215.142 322.896 215.49 323.213C216.134 323.799 217.14 324.725 217.82 325.404C218.149 325.73 218.673 325.745 219.019 325.438C220.188 324.405 221.218 323.515 221.824 322.993C222.157 322.707 222.644 322.71 222.973 323C223.567 323.523 224.546 324.396 225.522 325.313C225.856 325.626 226.376 325.63 226.714 325.318C227.52 324.57 228.515 323.618 229.123 323.034C229.44 322.728 229.933 322.707 230.277 322.984C230.99 323.558 232.208 324.538 233.191 325.32C233.522 325.583 233.994 325.571 234.313 325.292C235.12 324.582 236.218 323.609 236.882 323.02C237.216 322.724 237.718 322.726 238.048 323.026C238.689 323.606 239.741 324.555 240.573 325.287C240.89 325.566 241.36 325.58 241.691 325.32C242.836 324.421 243.92 323.527 244.559 322.993C244.894 322.712 245.385 322.724 245.709 323.02C246.281 323.547 247.225 324.403 248.227 325.271C248.558 325.556 249.047 325.556 249.378 325.268C250.513 324.279 251.66 323.325 252.355 322.752C252.721 322.45 253.258 322.497 253.57 322.853C254.066 323.423 254.858 324.307 255.762 325.227C256.091 325.561 256.623 325.58 256.973 325.266C257.803 324.52 258.785 323.546 259.384 322.939C259.703 322.617 260.211 322.592 260.56 322.877C261.298 323.484 262.546 324.51 263.459 325.273C263.786 325.547 264.263 325.544 264.587 325.266C265.726 324.298 266.724 323.379 267.332 322.805C267.682 322.478 268.23 322.492 268.562 322.836C269.18 323.477 270.185 324.517 271.13 325.497C271.311 325.685 271.569 325.792 271.828 325.761C271.909 325.752 271.981 325.731 272.036 325.688C273.052 324.877 274.053 324.045 275.053 323.215C275.429 322.903 275.987 322.958 276.293 323.339C277.441 324.763 278.979 326.701 279.848 327.798C280.196 328.237 280.048 328.883 279.545 329.128L278.682 329.55C278.321 329.725 277.885 329.634 277.627 329.326C277.232 328.854 276.622 328.124 276.008 327.376C275.641 326.928 274.947 326.954 274.614 327.429C273.927 328.413 273.267 329.355 272.546 330.385C272.225 330.843 271.564 330.888 271.185 330.478C270.259 329.474 269.246 328.399 268.591 327.707C268.223 327.319 267.598 327.348 267.267 327.77L265.107 330.53C264.78 330.95 264.155 330.981 263.786 330.595L260.801 327.472C260.428 327.082 259.792 327.119 259.468 327.553C258.9 328.313 258.017 329.498 257.138 330.674C256.764 331.177 256 331.134 255.683 330.593C254.989 329.41 254.219 328.096 253.695 327.204C253.39 326.684 252.664 326.62 252.273 327.082C251.542 327.944 250.449 329.24 249.595 330.247C249.255 330.648 248.644 330.662 248.286 330.278C247.421 329.348 246.612 328.478 245.633 327.424C245.241 327.004 244.555 327.068 244.25 327.555C243.651 328.509 243.052 329.467 242.38 330.536C242.07 331.032 241.369 331.089 240.981 330.654C239.905 329.439 239.066 328.496 238.105 327.414C237.723 326.983 237.036 327.033 236.719 327.514C236.087 328.477 235.468 329.417 234.797 330.437C234.485 330.912 233.81 330.967 233.424 330.552C232.335 329.383 231.461 328.439 230.391 327.288C229.995 326.861 229.299 326.933 228.999 327.433C228.416 328.404 227.845 329.351 227.243 330.354C226.945 330.85 226.256 330.926 225.858 330.509C224.752 329.351 223.905 328.466 223.054 327.576C222.708 327.216 222.133 327.216 221.788 327.576C220.975 328.427 220.178 329.262 219.275 330.206C218.927 330.569 218.345 330.566 218.003 330.199C217.145 329.284 216.32 328.403 215.409 327.429C215.052 327.049 214.443 327.063 214.103 327.46C213.533 328.129 212.899 328.857 212.484 329.333C212.211 329.646 211.758 329.722 211.396 329.519C210.697 329.128 209.686 328.501 209.858 328.237Z" fill="url(#paint9_linear_2105_851)"/>
<path d="M252.268 343.438C251.847 345.34 254.35 348.059 255.502 348.538C255.736 347.565 255.145 345.577 254.894 344.813C254.873 343.529 253.437 341.643 252.268 343.438Z" fill="url(#paint10_linear_2105_851)"/>
<path d="M283.968 384.709C283.968 375.176 283.45 365.764 282.948 356.655C282.836 354.604 282.723 352.551 282.616 350.494L282.613 350.451C282.511 349.256 282.483 347.932 282.452 346.53C282.359 342.176 282.251 337.241 279.859 333.831L279.244 332.953L278.255 333.368C277.621 333.633 277.26 334.196 277.051 335.09C276.33 333.404 275.725 333.118 274.969 333.118C274.538 333.118 274.13 333.297 273.819 333.621C273.348 334.112 272.485 335.013 272.87 345.519C272.186 345.631 271.399 345.71 270.582 345.794C268.178 346.039 265.453 346.318 263.645 347.584L263.133 347.94L263.082 348.56C262.925 350.391 265.393 353.906 266.8 354.683L266.86 354.714L266.923 354.742C268.275 355.317 269.67 355.644 271.022 355.954C270.057 358.55 269.699 361.173 269.497 363.877C267.851 360.163 265.583 356.386 261.845 356.386C261.676 356.386 261.504 356.395 261.332 356.41C260.772 355.708 259.935 353.529 259.413 351.758C259.52 351.727 259.627 351.698 259.725 351.671C261.051 351.299 262.555 350.875 262.963 349.523C263.208 348.717 262.96 347.876 262.228 347.026L261.859 346.595L261.492 346.574C261.139 346.43 260.838 346.321 260.497 346.321C260.202 346.321 259.927 346.407 259.699 346.559C259.534 346.642 259.215 346.802 258.842 346.984C258.695 344.759 257.977 342.255 256.587 340.658C255.695 339.63 254.603 339.088 253.427 339.088C251.992 339.088 250.54 339.89 249.112 341.471L249.033 341.557L248.971 341.657C247.164 344.537 249.355 347.31 251.396 349.378C250.247 349.742 249.035 350.307 248.251 351.581L246.889 353.793L249.271 353.62C249.543 354.023 250.011 354.518 250.8 354.518C250.983 354.518 251.164 354.488 251.343 354.43C251.892 354.261 252.417 354.03 252.924 353.806C253.292 353.643 253.668 353.477 254.014 353.36C259.45 366.977 260.064 375.013 260.436 379.861C260.69 383.156 260.841 385.143 262.383 386.478C263.879 387.773 266.261 388.001 270.712 388.001C272.186 388.001 273.922 387.973 275.93 387.942C277.497 387.918 279.244 387.89 281.193 387.87C281.297 387.889 281.416 387.901 281.548 387.901C282.297 387.901 282.997 387.486 283.465 386.762L283.968 384.709ZM282.347 386.039C281.879 386.762 281.345 386.537 281.345 386.537C250.283 386.843 270.062 389.141 254.846 351.862C253.635 351.833 252.261 352.761 250.94 353.16C250.411 353.341 250.251 352.482 249.958 352.237L249.384 352.279C250.371 350.673 252.464 350.574 253.936 350.01C251.896 347.975 248.401 345.071 250.099 342.363C255.19 336.733 258.077 344.685 257.457 349.087C258.476 348.674 260.424 347.682 260.424 347.682C260.485 347.553 261.137 347.889 261.218 347.892C263.132 350.119 259.057 350.16 257.818 350.949C258.079 352.053 259.949 358.575 261.399 357.742C266.365 357.206 268.6 365.657 270.481 369.658C270.855 364.512 270.687 359.631 272.856 355.021C271.042 354.562 269.177 354.254 267.443 353.517C266.37 352.926 264.306 349.866 264.408 348.674C266.807 346.995 271.602 347.327 274.244 346.586C273.898 338.383 273.953 325.802 277.959 343.157C278.364 342.012 277.694 335.047 278.77 334.596C281.65 338.702 280.868 345.622 281.286 350.563C281.889 362.108 282.664 373.514 282.637 385.329C282.516 385.593 282.392 385.855 282.297 386.039H282.347Z" fill="url(#paint11_linear_2105_851)"/>
<path d="M278.111 349.227L273.839 348.638C271.178 348.75 267.551 349.218 267.114 349.599C268.228 352.287 274.84 353.145 276.588 353.558C276.5 354.833 276.81 356.722 275.92 357.489C271.919 361.173 274.187 366.284 274.9 370.783C275.298 373.318 275.146 375.948 275.057 378.502L272.179 379.129L264.287 363.334C263.852 362.461 262.898 362.004 261.959 362.192C262.508 365.809 264.036 369.271 264.52 372.907C265.934 383.364 265.743 383.257 276.273 382.885C277.673 383.166 278.848 381.723 278.693 380.877C278.582 369.502 278.906 359.099 278.111 349.227ZM275.784 352.036C274.592 351.803 271.661 351.233 269.831 350.334C270.946 350.181 272.372 350.036 273.777 349.972L276.865 350.398C276.91 351.025 276.951 351.653 276.989 352.286L276.895 352.263C276.61 352.196 276.245 352.125 275.784 352.036ZM276.631 381.59L276.536 381.58L276.383 381.549L275.894 381.566C274.325 381.623 272.971 381.669 271.859 381.669C268.833 381.669 267.992 381.279 267.499 380.557C266.747 379.455 266.43 377.112 265.906 373.235L265.839 372.731C265.576 370.754 265.025 368.844 264.491 366.996C264.429 366.777 264.367 366.562 264.305 366.346L271.45 380.65L276.349 379.582L276.412 377.822C276.502 375.45 276.595 372.998 276.216 370.575C276.071 369.67 275.868 368.744 275.672 367.848C274.859 364.14 274.156 360.937 276.808 358.481C276.97 358.338 277.11 358.181 277.229 358.014C277.346 362.38 277.341 366.873 277.337 371.52C277.334 374.553 277.33 377.691 277.361 380.889L277.363 381.005L277.368 381.032C277.299 381.223 276.97 381.59 276.631 381.59Z" fill="url(#paint12_linear_2105_851)"/>
<path d="M239.614 357.089C239.078 356.531 238.131 356.782 237.955 357.535C237.657 358.815 237.118 360.057 236.479 361.181C236.216 361.644 235.484 361.779 235.112 361.357C233.353 359.357 232.055 357.001 231.38 354.418C231.045 353.136 230.856 351.803 230.828 350.479C230.822 350.138 230.794 349.664 230.794 349.168C230.794 348.967 230.729 348.774 230.617 348.608C229.619 347.145 228.982 345.408 229.029 343.164C229.036 342.763 228.405 342.348 227.618 341.931C226.368 341.27 224.527 340.889 223.729 342.055C223.464 342.443 218.492 342.227 218.147 343.772C218.016 344.363 223.039 346.135 223.102 346.631C224.322 356.157 229.454 362.881 234.323 370.829C235.046 372.009 236.13 373.459 237.315 373.776C240.406 374.603 243.587 375.099 246.753 375.645C247.707 374.608 248.007 374.283 248.961 373.246C248.794 372.603 248.621 371.961 248.413 371.332C246.603 365.83 243.551 361.191 239.614 357.089ZM246.264 374.212L245.742 374.122C243.06 373.666 240.289 373.194 237.659 372.491C237.447 372.435 236.662 372.097 235.458 370.134C234.702 368.899 233.934 367.685 233.19 366.51C229.192 360.193 225.415 354.225 224.422 346.462C224.299 345.505 223.516 345.143 221.421 344.174C221.225 344.082 220.992 343.976 220.753 343.864C221.382 343.759 222.05 343.688 222.415 343.65C223.731 343.512 224.392 343.442 224.826 342.806C224.856 342.765 224.945 342.636 225.357 342.636C225.824 342.636 226.437 342.811 226.995 343.107C227.36 343.3 227.573 343.435 227.696 343.521C227.718 345.651 228.298 347.541 229.463 349.278C229.464 349.582 229.476 349.874 229.485 350.131C229.49 350.269 229.495 350.396 229.497 350.508C229.528 351.932 229.728 353.362 230.091 354.755C230.81 357.499 232.162 360.017 234.113 362.237C234.507 362.685 235.086 362.943 235.701 362.943C236.509 362.943 237.249 362.519 237.637 361.839C238.281 360.706 238.767 359.574 239.087 358.469C242.921 362.573 245.561 366.923 247.149 371.749C247.273 372.121 247.383 372.504 247.488 372.882L246.264 374.212Z" fill="url(#paint13_linear_2105_851)"/>
<path d="M253.804 375.438C253.478 373.745 253.172 372.147 252.733 370.59C250.633 363.108 246.09 356.429 238.842 350.174C236.061 347.771 234.318 345.717 233.643 342.326C232.849 338.33 230.198 335.846 226.724 335.846C224.478 335.846 222.167 336.923 220.221 338.878C219.796 339.303 219.01 339.575 218.18 339.863C217.637 340.05 217.078 340.245 216.537 340.507C215.838 340.846 215.175 341.216 214.444 341.633C213.852 341.971 213.44 342.549 213.315 343.221C213.191 343.889 213.368 344.577 213.798 345.104L213.823 345.135C214.481 345.937 215.225 346.848 216.33 347.182C218.425 347.813 219.325 348.962 219.906 351.733C220.546 354.791 221.874 357.676 223.159 360.468L223.287 360.745C224.585 363.568 225.956 366.408 227.282 369.155C228.968 372.652 230.713 376.265 232.315 379.859C232.472 380.211 232.677 380.562 232.892 380.932C233.126 381.335 233.749 382.405 233.646 382.682C233.646 382.682 233.498 382.851 233.095 382.999C232.124 383.356 230.779 383.369 229.59 383.382C228.634 383.39 227.808 383.399 227.119 383.568C226.483 383.721 226.147 384.206 226.022 384.387C225.534 385.092 225.479 386.001 225.877 386.761C226.278 387.529 227.064 388.004 227.947 388.004L228.3 388.002C230.314 388.002 234.712 388.101 236.028 388.156C236.366 388.169 236.708 388.176 237.053 388.176C239.201 388.176 241.278 387.921 242.471 387.512C244.426 386.836 243.66 384.573 243.153 383.075C242.9 382.326 242.638 381.552 242.552 380.907C242.495 380.481 242.414 380.07 242.321 379.637H251.82C252.512 379.637 253.163 379.331 253.602 378.795C254.043 378.259 254.219 377.56 254.083 376.878C253.986 376.384 253.893 375.905 253.804 375.438ZM251.82 378.308H241.882C241.255 378.308 240.79 378.89 240.926 379.501C241.054 380.07 241.164 380.574 241.233 381.084C241.515 383.178 243.153 385.868 242.037 386.253C240.814 386.673 238.329 386.919 236.083 386.826C234.649 386.766 229.685 386.659 227.937 386.673C227.148 386.68 226.667 385.793 227.115 385.147C227.231 384.98 227.324 384.887 227.434 384.861C228.784 384.532 231.574 384.976 233.553 384.25C236.424 383.196 234.189 380.793 233.531 379.317C230.661 372.877 227.442 366.596 224.496 360.189C223.197 357.363 221.838 354.469 221.209 351.461C220.614 348.621 219.615 346.783 216.714 345.908C215.988 345.687 215.409 344.971 214.828 344.261C214.444 343.791 214.575 343.09 215.104 342.789C215.767 342.412 216.432 342.036 217.117 341.704C218.464 341.051 220.178 340.806 221.163 339.816C225.481 335.483 231.137 336.542 232.337 342.586C233.123 346.537 235.263 348.843 237.973 351.182C244.212 356.569 249.181 362.862 251.453 370.95C251.992 372.872 252.326 374.851 252.777 377.136C252.898 377.743 252.436 378.308 251.82 378.308Z" fill="url(#paint14_linear_2105_851)"/>
<path d="M234.468 357.446C234.903 358.229 236.063 358.06 236.278 357.191C236.517 356.23 236.59 355.239 236.378 354.294C236.329 354.075 236.212 353.877 236.04 353.736C235.541 353.326 235.033 352.923 234.528 352.515C233.19 353.357 234.294 352.663 232.956 353.505C233.019 353.782 233.09 354.058 233.169 354.332C233.484 355.422 233.92 356.464 234.468 357.446ZM235.101 354.688C235.17 355.052 235.189 355.444 235.155 355.863C234.91 355.329 234.7 354.779 234.526 354.221C234.717 354.376 234.91 354.531 235.101 354.688Z" fill="url(#paint15_linear_2105_851)"/>
<path d="M238.543 381.356C238.32 380.13 236.467 380.438 236.612 381.675C236.622 381.759 236.622 381.845 236.643 381.928C237.337 384.897 239.655 384.246 238.594 381.807C238.536 381.673 238.57 381.509 238.543 381.356Z" fill="url(#paint16_linear_2105_851)"/>
</g>
<path opacity="0.53" d="M90.5697 256.571L90.0446 255.896L89.5194 256.571L70.556 280.922L70.1361 281.463L70.6869 281.868L76.758 286.336L77.2876 286.725L77.6837 286.201L90.0449 269.817L102.406 286.201L102.802 286.725L103.332 286.336L109.403 281.868L109.954 281.463L109.534 280.922L90.5697 256.571ZM102.937 285.8L90.0446 268.713L77.1522 285.8L71.0811 281.332L90.0446 256.979L109.008 281.332L102.937 285.8ZM163.101 258.617H162.436V259.282V270.809L140.396 257.181L139.38 256.554V257.747V284.861V285.528H140.045H148.231H148.897V284.861V273.334L170.938 286.963L171.954 287.591V286.396V259.282V258.617H171.287H163.101ZM171.287 286.396L148.231 272.141V284.861H140.045V257.747L163.101 272.004V259.282H171.287V286.396ZM401.762 269.318C398.154 267.957 393.111 267.516 388.656 267.263C387.459 267.192 386.244 267.098 385.48 266.896C384.992 266.767 384.815 266.627 384.815 266.564C384.815 266.336 385.814 265.489 390.698 265.489C394.665 265.489 398.853 266.237 401.905 267.487L402.51 267.733L402.77 267.134L405.463 260.892L405.727 260.281L405.116 260.017C401.11 258.29 396.17 257.337 391.21 257.337C381.098 257.337 375.299 260.849 375.299 266.972C375.299 273.508 382.101 275.256 393.077 275.959C394.584 276.055 395.717 276.136 396.597 276.286C397.765 276.484 397.915 276.732 397.915 276.732C397.911 277.003 396.404 277.802 391.79 277.802C386.82 277.802 382.268 276.848 378.26 274.965L377.659 274.684L377.375 275.282L374.407 281.524L374.121 282.126L374.726 282.412C377.957 283.931 383.199 285.953 391.38 285.953C401.428 285.953 407.429 282.364 407.429 276.352C407.429 273.055 405.574 270.754 401.762 269.318ZM391.38 285.288C383.57 285.288 378.487 283.447 375.008 281.809L377.976 275.568C381.319 277.137 385.89 278.466 391.79 278.466C394.961 278.466 398.576 278.058 398.576 276.727C398.576 275.67 396.292 275.499 393.12 275.294C381.388 274.545 375.964 272.566 375.964 266.972C375.964 260.424 383.058 258.002 391.21 258.002C396.564 258.002 401.373 259.129 404.852 260.629L402.158 266.87C399.327 265.711 395.131 264.824 390.698 264.824C387.321 264.824 384.15 265.232 384.15 266.564C384.15 267.518 385.754 267.757 388.618 267.928C398.85 268.508 406.762 269.907 406.762 276.352C406.762 282.355 400.35 285.288 391.38 285.288ZM298.589 271.453C300.857 270.189 302.004 268.286 302.004 265.778C302.004 260.112 296.436 257.584 283.953 257.584H283.629H283.289C279.934 257.584 274.864 257.584 271.106 257.851L270.488 257.894V258.514V284.777V285.397L271.106 285.44C272.279 285.523 273.658 285.564 275.32 285.564C276.834 285.564 278.379 285.531 279.871 285.5C281.242 285.471 282.537 285.443 283.705 285.443C290.466 285.443 295.251 284.765 298.33 283.366C301.22 282.056 302.686 280.029 302.686 277.342C302.686 274.679 301.31 272.704 298.589 271.453ZM283.705 284.779C281.254 284.779 278.216 284.898 275.32 284.898C273.863 284.898 272.444 284.868 271.154 284.777V258.514C274.781 258.257 279.657 258.25 283.289 258.25C283.515 258.25 283.736 258.25 283.953 258.25C297.8 258.25 301.339 261.414 301.339 265.778C301.339 268.78 299.531 270.52 296.87 271.508C299.906 272.464 302.021 274.204 302.021 277.342C302.019 281.878 297.552 284.779 283.705 284.779ZM334.422 258.19H333.756V258.855V284.436V285.101H334.422H342.607H343.273V284.436V258.855V258.19H342.607H334.422ZM342.607 284.436H334.422V258.855H342.607V284.436ZM229.201 258.19H228.536V258.855V270.93C228.536 275.018 225.801 277.461 221.22 277.461C216.64 277.461 213.905 275.018 213.905 270.93V258.855V258.19H213.239H205.054H204.388V258.855V271.953C204.388 276.389 206.115 280.042 209.384 282.516C212.359 284.765 216.451 285.953 221.22 285.953C225.991 285.953 230.083 284.765 233.057 282.516C236.324 280.042 238.053 276.389 238.053 271.953V258.855V258.19H237.387H229.201ZM237.387 271.953C237.387 280.922 230.157 285.288 221.22 285.288C212.285 285.288 205.054 280.922 205.054 271.953V258.855H213.239V270.93C213.239 275.432 216.377 278.125 221.22 278.125C226.065 278.125 229.201 275.432 229.201 270.93V258.855H237.387V271.953ZM284.49 274.545C282.442 274.545 280.771 274.545 279.338 274.579V278.466C279.964 278.511 280.685 278.523 281.464 278.523C282.471 278.523 283.574 278.503 284.688 278.503C291.953 278.503 293.835 277.784 293.835 276.455C293.835 275.227 292.095 274.545 284.49 274.545ZM284.688 277.838C284.114 277.838 283.544 277.843 282.988 277.848C282.464 277.853 281.953 277.859 281.464 277.859C280.883 277.859 280.411 277.852 280.005 277.836V275.23C281.276 275.21 282.725 275.21 284.49 275.21C290.249 275.21 293.168 275.628 293.168 276.455C293.168 277.373 290.316 277.838 284.688 277.838ZM293.153 266.836C293.153 265.506 291.357 264.752 284.774 264.752C284.035 264.752 283.289 264.748 282.571 264.748C281.366 264.748 280.236 264.761 279.338 264.824V268.713C280.771 268.746 282.442 268.746 284.49 268.746C291.413 268.746 293.153 268.064 293.153 266.836ZM280.005 265.453C280.796 265.418 281.696 265.413 282.571 265.413C282.928 265.413 283.289 265.415 283.655 265.415C284.027 265.417 284.4 265.418 284.774 265.418C289.891 265.418 292.486 265.895 292.486 266.836C292.486 267.404 291.1 268.081 284.49 268.081C282.725 268.081 281.276 268.081 280.005 268.06V265.453Z" fill="url(#paint17_linear_2105_851)"/>
<path d="M127.118 181.414L125.707 182.824L172.501 229.619L173.912 228.208L127.118 181.414Z" fill="#231F20"/>
<path d="M349.885 182.645L303.091 229.44L304.503 230.85L351.296 184.057L349.885 182.645Z" fill="#231F20"/>
<defs>
<linearGradient id="paint0_linear_2105_851" x1="238.5" y1="3.49349" x2="238.5" y2="470.228" gradientUnits="userSpaceOnUse">
<stop stop-color="#D8EDF0"/>
<stop offset="0.35381" stop-color="#E8EEF1"/>
<stop offset="0.50558" stop-color="#F0EFF1"/>
<stop offset="0.51763" stop-color="#E1E1E3"/>
<stop offset="0.53432" stop-color="#C6C8C8"/>
<stop offset="0.59918" stop-color="#989896"/>
<stop offset="0.6237" stop-color="#858482"/>
<stop offset="0.64558" stop-color="#828082"/>
<stop offset="0.70498" stop-color="#807D82"/>
<stop offset="0.83587" stop-color="#94847A"/>
<stop offset="0.90048" stop-color="#937D72"/>
<stop offset="1" stop-color="#927B6F"/>
</linearGradient>
<linearGradient id="paint1_linear_2105_851" x1="238.494" y1="26.1282" x2="238.494" y2="326.451" gradientUnits="userSpaceOnUse">
<stop stop-color="#FEFDFF"/>
<stop offset="0.11323" stop-color="#EFEFF0"/>
<stop offset="0.32954" stop-color="#C9CACB"/>
<stop offset="0.34278" stop-color="#C6C8C8"/>
<stop offset="0.72248" stop-color="#A99D96"/>
<stop offset="1" stop-color="#927B6F"/>
</linearGradient>
<linearGradient id="paint2_linear_2105_851" x1="236.037" y1="464.367" x2="238.622" y2="300.2" gradientUnits="userSpaceOnUse">
<stop stop-color="#E2EEF0"/>
<stop offset="0.50558" stop-color="#F0EFF1"/>
<stop offset="0.51763" stop-color="#E1E1E3"/>
<stop offset="0.53432" stop-color="#C6C8C8"/>
<stop offset="0.59918" stop-color="#989896"/>
<stop offset="0.6237" stop-color="#858482"/>
<stop offset="0.64558" stop-color="#828082"/>
<stop offset="0.70498" stop-color="#807D82"/>
<stop offset="0.83587" stop-color="#94847A"/>
<stop offset="0.90048" stop-color="#937D72"/>
<stop offset="1" stop-color="#927B6F"/>
</linearGradient>
<linearGradient id="paint3_linear_2105_851" x1="240.33" y1="229.819" x2="236.193" y2="425.44" gradientUnits="userSpaceOnUse">
<stop stop-color="#E2EEF0"/>
<stop offset="0.50558" stop-color="#F0EFF1"/>
<stop offset="0.51763" stop-color="#E1E1E3"/>
<stop offset="0.53432" stop-color="#C6C8C8"/>
<stop offset="0.59918" stop-color="#989896"/>
<stop offset="0.6237" stop-color="#858482"/>
<stop offset="0.64558" stop-color="#828082"/>
<stop offset="0.70498" stop-color="#807D82"/>
<stop offset="0.83587" stop-color="#94847A"/>
<stop offset="0.84123" stop-color="#8F8076"/>
<stop offset="0.87204" stop-color="#7A6B61"/>
<stop offset="0.90589" stop-color="#6A5C52"/>
<stop offset="0.94476" stop-color="#61534A"/>
<stop offset="1" stop-color="#5E5047"/>
</linearGradient>
<linearGradient id="paint4_linear_2105_851" x1="237.291" y1="5.05579" x2="239.905" y2="508.948" gradientUnits="userSpaceOnUse">
<stop stop-color="white"/>
<stop offset="0.49762" stop-color="#F0EFF1"/>
<stop offset="0.50558" stop-color="#F0EFF1"/>
<stop offset="0.51763" stop-color="#E1E1E3"/>
<stop offset="0.53432" stop-color="#C6C8C8"/>
<stop offset="0.59918" stop-color="#989896"/>
<stop offset="0.6237" stop-color="#858482"/>
<stop offset="0.64558" stop-color="#828082"/>
<stop offset="0.70498" stop-color="#807D82"/>
<stop offset="0.83587" stop-color="#94847A"/>
<stop offset="0.84823" stop-color="#A08978"/>
<stop offset="0.87768" stop-color="#B59375"/>
<stop offset="0.91004" stop-color="#C59A73"/>
<stop offset="0.94721" stop-color="#CE9E71"/>
<stop offset="1" stop-color="#D19F71"/>
</linearGradient>
<linearGradient id="paint5_linear_2105_851" x1="238.501" y1="325.507" x2="238.501" y2="239.414" gradientUnits="userSpaceOnUse">
<stop stop-color="#D8EDF0"/>
<stop offset="0.17509" stop-color="#E8EEF1"/>
<stop offset="0.2502" stop-color="#F0EFF1"/>
<stop offset="0.29513" stop-color="#E1E1E2"/>
<stop offset="0.32682" stop-color="#D4D5D5"/>
<stop offset="0.41301" stop-color="#CCCDCD"/>
<stop offset="0.50239" stop-color="#C6C8C8"/>
<stop offset="0.57653" stop-color="#989896"/>
<stop offset="0.60454" stop-color="#858482"/>
<stop offset="0.62081" stop-color="#8B8580"/>
<stop offset="0.70722" stop-color="#A48875"/>
<stop offset="0.79715" stop-color="#B68B6E"/>
<stop offset="0.892" stop-color="#C18C69"/>
<stop offset="1" stop-color="#C48D68"/>
</linearGradient>
<linearGradient id="paint6_linear_2105_851" x1="202.092" y1="446.552" x2="199.612" y2="298.152" gradientUnits="userSpaceOnUse">
<stop stop-color="#E2EEF0"/>
<stop offset="0.50558" stop-color="#F0EFF1"/>
<stop offset="0.51763" stop-color="#E1E1E3"/>
<stop offset="0.53432" stop-color="#C6C8C8"/>
<stop offset="0.59918" stop-color="#989896"/>
<stop offset="0.6237" stop-color="#858482"/>
<stop offset="0.64558" stop-color="#828082"/>
<stop offset="0.70498" stop-color="#807D82"/>
<stop offset="0.83587" stop-color="#94847A"/>
<stop offset="0.90048" stop-color="#937D72"/>
<stop offset="1" stop-color="#927B6F"/>
</linearGradient>
<linearGradient id="paint7_linear_2105_851" x1="209.109" y1="354.909" x2="208.764" y2="375.934" gradientUnits="userSpaceOnUse">
<stop stop-color="#E2EEF0"/>
<stop offset="0.50558" stop-color="#F0EFF1"/>
<stop offset="0.51763" stop-color="#E1E1E3"/>
<stop offset="0.53432" stop-color="#C6C8C8"/>
<stop offset="0.59918" stop-color="#989896"/>
<stop offset="0.6237" stop-color="#858482"/>
<stop offset="0.64558" stop-color="#828082"/>
<stop offset="0.70498" stop-color="#807D82"/>
<stop offset="0.83587" stop-color="#94847A"/>
<stop offset="0.90048" stop-color="#937D72"/>
<stop offset="1" stop-color="#927B6F"/>
</linearGradient>
<linearGradient id="paint8_linear_2105_851" x1="180.283" y1="318.864" x2="198.666" y2="371.375" gradientUnits="userSpaceOnUse">
<stop stop-color="#E2EEF0"/>
<stop offset="0.25834" stop-color="#F0EFF1"/>
<stop offset="0.35269" stop-color="#E1E1E3"/>
<stop offset="0.48329" stop-color="#C6C8C8"/>
<stop offset="0.58519" stop-color="#989896"/>
<stop offset="0.6237" stop-color="#858482"/>
<stop offset="0.64558" stop-color="#828082"/>
<stop offset="0.70498" stop-color="#807D82"/>
<stop offset="0.83587" stop-color="#94847A"/>
<stop offset="0.90048" stop-color="#937D72"/>
<stop offset="1" stop-color="#927B6F"/>
</linearGradient>
<linearGradient id="paint9_linear_2105_851" x1="244.424" y1="350.865" x2="245.344" y2="310.534" gradientUnits="userSpaceOnUse">
<stop stop-color="#E2EEF0"/>
<stop offset="0.50558" stop-color="#F0EFF1"/>
<stop offset="0.51763" stop-color="#E1E1E3"/>
<stop offset="0.53432" stop-color="#C6C8C8"/>
<stop offset="0.59918" stop-color="#989896"/>
<stop offset="0.6237" stop-color="#858482"/>
<stop offset="0.64558" stop-color="#828082"/>
<stop offset="0.70498" stop-color="#807D82"/>
<stop offset="0.83587" stop-color="#94847A"/>
<stop offset="0.90048" stop-color="#937D72"/>
<stop offset="1" stop-color="#927B6F"/>
</linearGradient>
<linearGradient id="paint10_linear_2105_851" x1="253.726" y1="336.973" x2="253.955" y2="349.613" gradientUnits="userSpaceOnUse">
<stop stop-color="#E2EEF0"/>
<stop offset="0.50558" stop-color="#F0EFF1"/>
<stop offset="0.51763" stop-color="#E1E1E3"/>
<stop offset="0.53432" stop-color="#C6C8C8"/>
<stop offset="0.59918" stop-color="#989896"/>
<stop offset="0.6237" stop-color="#858482"/>
<stop offset="0.64558" stop-color="#828082"/>
<stop offset="0.70498" stop-color="#807D82"/>
<stop offset="0.83587" stop-color="#94847A"/>
<stop offset="0.90048" stop-color="#937D72"/>
<stop offset="1" stop-color="#927B6F"/>
</linearGradient>
<linearGradient id="paint11_linear_2105_851" x1="265.29" y1="420.047" x2="265.519" y2="336.628" gradientUnits="userSpaceOnUse">
<stop stop-color="#E2EEF0"/>
<stop offset="0.50558" stop-color="#F0EFF1"/>
<stop offset="0.51763" stop-color="#E1E1E3"/>
<stop offset="0.53432" stop-color="#C6C8C8"/>
<stop offset="0.59918" stop-color="#989896"/>
<stop offset="0.6237" stop-color="#858482"/>
<stop offset="0.64558" stop-color="#828082"/>
<stop offset="0.70498" stop-color="#807D82"/>
<stop offset="0.83587" stop-color="#94847A"/>
<stop offset="0.86158" stop-color="#85746B"/>
<stop offset="0.89918" stop-color="#75645B"/>
<stop offset="0.94185" stop-color="#6C5B52"/>
<stop offset="1" stop-color="#69584F"/>
</linearGradient>
<linearGradient id="paint12_linear_2105_851" x1="264.971" y1="327.338" x2="277.267" y2="396.28" gradientUnits="userSpaceOnUse">
<stop stop-color="#E2EEF0"/>
<stop offset="0.12164" stop-color="#E2EEF0"/>
<stop offset="0.14166" stop-color="#E2EEF0"/>
<stop offset="0.23798" stop-color="#E1ECEE"/>
<stop offset="0.27418" stop-color="#DBE6E7"/>
<stop offset="0.30026" stop-color="#D2DBDB"/>
<stop offset="0.32147" stop-color="#C4CBCA"/>
<stop offset="0.33971" stop-color="#B3B6B4"/>
<stop offset="0.35592" stop-color="#9E9C98"/>
<stop offset="0.37063" stop-color="#847D78"/>
<stop offset="0.38374" stop-color="#685B53"/>
<stop offset="0.39385" stop-color="#4D3B31"/>
<stop offset="0.40272" stop-color="#6E5F57"/>
<stop offset="0.41377" stop-color="#908580"/>
<stop offset="0.42552" stop-color="#AEA6A3"/>
<stop offset="0.43789" stop-color="#C6C1BF"/>
<stop offset="0.45109" stop-color="#D9D5D5"/>
<stop offset="0.46552" stop-color="#E6E4E5"/>
<stop offset="0.48207" stop-color="#EEECEE"/>
<stop offset="0.50558" stop-color="#F0EFF1"/>
<stop offset="0.51763" stop-color="#E1E1E3"/>
<stop offset="0.53432" stop-color="#C6C8C8"/>
<stop offset="0.59918" stop-color="#989896"/>
<stop offset="0.6237" stop-color="#858482"/>
<stop offset="0.64558" stop-color="#828082"/>
<stop offset="0.70498" stop-color="#807D82"/>
<stop offset="0.83587" stop-color="#4D3B31"/>
<stop offset="0.85351" stop-color="#604C42"/>
<stop offset="0.88069" stop-color="#756055"/>
<stop offset="0.91057" stop-color="#856E63"/>
<stop offset="0.94487" stop-color="#8E766B"/>
<stop offset="0.99361" stop-color="#91796E"/>
</linearGradient>
<linearGradient id="paint13_linear_2105_851" x1="252.137" y1="310.217" x2="224.675" y2="381.571" gradientUnits="userSpaceOnUse">
<stop stop-color="#E2EEF0"/>
<stop offset="0.50558" stop-color="#F0EFF1"/>
<stop offset="0.51763" stop-color="#E1E1E3"/>
<stop offset="0.53432" stop-color="#C6C8C8"/>
<stop offset="0.59918" stop-color="#989896"/>
<stop offset="0.6237" stop-color="#858482"/>
<stop offset="0.64558" stop-color="#828082"/>
<stop offset="0.70498" stop-color="#807D82"/>
<stop offset="0.83587" stop-color="#94847A"/>
<stop offset="0.90048" stop-color="#937D72"/>
<stop offset="1" stop-color="#927B6F"/>
</linearGradient>
<linearGradient id="paint14_linear_2105_851" x1="235.103" y1="444.366" x2="232.823" y2="307.894" gradientUnits="userSpaceOnUse">
<stop stop-color="#E2EEF0"/>
<stop offset="0.28062" stop-color="#E2EEF0"/>
<stop offset="0.32682" stop-color="#E2EEF0"/>
<stop offset="0.37728" stop-color="#E1ECEE"/>
<stop offset="0.39684" stop-color="#DCE6E7"/>
<stop offset="0.41103" stop-color="#D5DBDB"/>
<stop offset="0.42264" stop-color="#CACCCA"/>
<stop offset="0.43266" stop-color="#BCB8B3"/>
<stop offset="0.44157" stop-color="#AB9F98"/>
<stop offset="0.4495" stop-color="#978378"/>
<stop offset="0.45132" stop-color="#927B6F"/>
<stop offset="0.45236" stop-color="#9B867B"/>
<stop offset="0.45558" stop-color="#B1A29A"/>
<stop offset="0.45922" stop-color="#C5BAB6"/>
<stop offset="0.46334" stop-color="#D5CECC"/>
<stop offset="0.46814" stop-color="#E1DDDD"/>
<stop offset="0.47409" stop-color="#EAE7E8"/>
<stop offset="0.48243" stop-color="#EFEDEF"/>
<stop offset="0.50558" stop-color="#F0EFF1"/>
<stop offset="0.51763" stop-color="#E1E1E3"/>
<stop offset="0.53432" stop-color="#C6C8C8"/>
<stop offset="0.59918" stop-color="#989896"/>
<stop offset="0.6237" stop-color="#858482"/>
<stop offset="0.64558" stop-color="#828082"/>
<stop offset="0.70498" stop-color="#807D82"/>
<stop offset="0.83587" stop-color="#94847A"/>
<stop offset="0.90048" stop-color="#937D72"/>
<stop offset="1" stop-color="#927B6F"/>
</linearGradient>
<linearGradient id="paint15_linear_2105_851" x1="232.318" y1="344.646" x2="236.34" y2="360.501" gradientUnits="userSpaceOnUse">
<stop stop-color="#E2EEF0"/>
<stop offset="0.50558" stop-color="#F0EFF1"/>
<stop offset="0.51763" stop-color="#E1E1E3"/>
<stop offset="0.53432" stop-color="#C6C8C8"/>
<stop offset="0.59918" stop-color="#989896"/>
<stop offset="0.6237" stop-color="#858482"/>
<stop offset="0.64558" stop-color="#828082"/>
<stop offset="0.70498" stop-color="#807D82"/>
<stop offset="0.83587" stop-color="#94847A"/>
<stop offset="0.90048" stop-color="#937D72"/>
<stop offset="1" stop-color="#927B6F"/>
</linearGradient>
<linearGradient id="paint16_linear_2105_851" x1="236.987" y1="377.474" x2="237.907" y2="383.335" gradientUnits="userSpaceOnUse">
<stop stop-color="#E2EEF0"/>
<stop offset="0.50558" stop-color="#F0EFF1"/>
<stop offset="0.51763" stop-color="#E1E1E3"/>
<stop offset="0.53432" stop-color="#C6C8C8"/>
<stop offset="0.59918" stop-color="#989896"/>
<stop offset="0.6237" stop-color="#858482"/>
<stop offset="0.64558" stop-color="#828082"/>
<stop offset="0.70498" stop-color="#807D82"/>
<stop offset="0.83587" stop-color="#94847A"/>
<stop offset="0.90048" stop-color="#937D72"/>
<stop offset="1" stop-color="#927B6F"/>
</linearGradient>
<linearGradient id="paint17_linear_2105_851" x1="238.782" y1="240.626" x2="238.782" y2="302.735" gradientUnits="userSpaceOnUse">
<stop stop-color="#D8EDF0"/>
<stop offset="0.35381" stop-color="#E8EEF1"/>
<stop offset="0.50558" stop-color="#F0EFF1"/>
<stop offset="0.51763" stop-color="#E1E1E3"/>
<stop offset="0.53432" stop-color="#C6C8C8"/>
<stop offset="0.59918" stop-color="#989896"/>
<stop offset="0.6237" stop-color="#858482"/>
<stop offset="0.64558" stop-color="#828082"/>
<stop offset="0.70498" stop-color="#807D82"/>
<stop offset="0.83587" stop-color="#94847A"/>
<stop offset="0.90048" stop-color="#937D72"/>
<stop offset="1" stop-color="#927B6F"/>
</linearGradient>
</defs>
</svg>
