<svg xmlns="http://www.w3.org/2000/svg" xml:space="preserve" viewBox="0 0 32 32"><path fill="#F3F0E7" d="M15.88 31.3C11.28 29.83 3.16 26.5 2.9 7.72a8.42 8.42 0 0 0 4.05-3.55c.55-.95.3-1.48.48-2.57 2.4-.26 5.81-.72 8.32-.72 2.78 0 6.4.35 8.69.59.2 2.67.63 4.58 4.38 5.98-.15 12.8-3.52 20.78-12.93 23.85z"/><path fill="#47205E" d="M25.63 7.5a9.3 9.3 0 0 0 1.76 1.11c-.14 11.37-4 18.45-11.46 21.05-2.16-.8-6.77-2.55-9.47-9.13L25.63 7.5zM15.86 2.27l.01-1.24 3.26.1-.08 1.26zM9.57 2.65l-.13-1.24 3.25-.28.07 1.25zM25.16 6.81l.8-.75s.5.65 1.75 1.26c-.22.52-.27.75-.42 1.02-1.12-.44-2.13-1.53-2.13-1.53zM6.81 6.91l-.86-.76s.63-.6 1.17-1.98c.56.19.8.22 1.1.35a7.42 7.42 0 0 1-1.4 2.39zM28.58 13.18l-1.2-.12s.14-1.4.2-2.84c.63.02.8.04 1.18.04.02 1.24-.18 2.92-.18 2.92zM3.35 13.22l1.16-.11s.14 1.45.35 2.91c-.6.1-.77.12-1.12.2-.25-1.26-.39-3-.39-3zM4.5 19.18l1.1-.38s.45 1.28.97 2.55c-.56.23-.73.28-1.05.44-.51-1.07-1.01-2.6-1.01-2.6z"/><path fill="#47205E" d="m7 24.43.94-.68s.79 1.1 1.65 2.17c-.47.38-.62.47-.88.71-.8-.87-1.71-2.2-1.71-2.2zM10.87 28.59l.6-1s1.15.7 2.37 1.34c-.28.54-.38.68-.53 1a25.58 25.58 0 0 1-2.44-1.34zM15.93 31.04v-1.16s.8-.47 2.1-.76c.2.2.42.65.66.97l-2.76.95zM27.43 19.15l-1.17-.3s.35-1.37.63-2.78c.63.12.8.17 1.17.22-.17 1.23-.63 2.86-.63 2.86zM25 24.36l-1.04-.6s.7-1.23 1.34-2.52c.57.28.72.37 1.06.52-.49 1.14-1.36 2.6-1.36 2.6zM22.2 2.56l.1-1.16 2.35.24.2 2.39s-.77.3-1.03.43c-.23-.44-.52-1.79-.52-1.79l-1.1-.1zM4.73 8.39 4.2 7.37l-1.15.39.06 2.53s.83-.08 1.1-.05c.02-.55.02-1.65.02-1.65l.49-.2z"/><path d="m6.7 24.56-.06-.1 1.2-.74.07.1z"/><path fill="#F3F0E7" fill-rule="evenodd" d="m22.61 29.94 1.65.38c.23.05.4.09.68.1.3.02 1.08-.16 1.35-1.07.16-.5.2-.82.37-1.33.75.2 2.3.46 2.3.46l-.81-2.17s1.7-1.13 2.22-1.55c-2.14-.36-2.7-.39-3.86-1.03-1.02-.52-1.37.13-1.43.44-.05.28-.35 1.18-.43 1.55a36.07 36.07 0 0 0-5.95-.94 78.8 78.8 0 0 0-1.73-.06c-1.22-.01.32.02-.77 0h-.68c-.3 0-3.04.17-3.32.2a36.74 36.74 0 0 0-4.58.85c-.11-.35-.16-1.33-.21-1.6-.05-.31-.41-.96-1.43-.44-1.15.64-1.72.67-3.86 1.03a56.1 56.1 0 0 0 2.23 1.55l-.81 2.17s1.55-.25 2.3-.47c.16.52.2.84.37 1.34.27.9 1.04 1.09 1.34 1.07.28-.02.46-.05.69-.1l1.64-.38c1.49-.35 3.54-.75 5.97-.74 2.45.02 3.01-.14 6.76.74z" clip-rule="evenodd"/><path fill="#47205E" fill-rule="evenodd" d="M18.24 11.79h-.64a.23.23 0 0 1-.23-.23V11c0-.13.1-.23.23-.23h.64c.12 0 .23.1.23.23v.55c0 .13-.1.23-.23.23zm.01-.82h-.66v.63h.66v-.63zm-1.3.82h-.68a.23.23 0 0 1-.24-.23V11c0-.13.1-.23.24-.23h.67c.12 0 .21.08.23.2h-.92v.6h.7v-.21h-.33a.2.2 0 0 1-.15-.07.22.22 0 0 1-.05-.1h.75v.38c0 .12-.1.2-.23.2zm-1.25-.42h.17v.17h-.17v-.17zm0-.35h.17v.17h-.17v-.17zm-.41.77h-.65a.24.24 0 0 1-.24-.22h.88v-.18h-.64a.24.24 0 0 1-.24-.22v-.15c0-.14.1-.25.24-.25h.63c.13 0 .23.1.24.22h-.86v.18h.64c.13 0 .23.1.24.22v.15c0 .14-.1.25-.24.25zm-1.32 0h-.62a.24.24 0 0 1-.24-.25v-.52c0-.14.1-.24.24-.24h.62c.12 0 .22.09.24.2V11h-.83v.56h.83a.24.24 0 0 1-.24.23z" clip-rule="evenodd"/><path fill="#D4D2C9" fill-rule="evenodd" d="M5.48 23.93c.48-.27.87-.42 1.23-.36s.55.51.55.51l.38 1.7-1.22.23s-1.05-.18-1.2-.52c-.14-.34-.28-.51-.05-.69.23-.17.4-.17.4-.17l-.1-.7zM24.66 25.86l.38-1.7s.18-.44.54-.5c.37-.07.76.08 1.24.36.48.28.5.28.67.32.18.04.64.36.54.68-.1.33-.86 3.17-.86 3.17l-.59-.07.56-2.43-1.27.4-1.21-.23z" clip-rule="evenodd"/><path fill="#191818" d="M30.43 24.9c-.46.36-1.73 1.21-2.12 1.48l.75 2.03a.2.2 0 0 1-.02.18.15.15 0 0 1-.15.07c-.06-.01-1.39-.23-2.17-.43a10 10 0 0 0-.13.5c-.05.21-.1.43-.2.69a1.57 1.57 0 0 1-1.45 1.18h-.05a3.8 3.8 0 0 1-.7-.1l-1.65-.39c-.95-.22-1.7-.38-2.33-.49-1.77 1.1-3.38 1.59-4.3 1.9-.85-.32-2.35-.8-4.05-1.81-.77.13-1.44.27-1.99.4l-1.64.39a3.8 3.8 0 0 1-.7.1h-.05c-.41 0-1.19-.25-1.47-1.19a8.24 8.24 0 0 1-.19-.68l-.13-.5c-.78.2-2.1.42-2.17.43a.15.15 0 0 1-.15-.07.2.2 0 0 1-.02-.18l.76-2.03a49.8 49.8 0 0 1-2.13-1.48.19.19 0 0 1-.06-.19.17.17 0 0 1 .14-.13l.7-.11c1.58-.26 2.12-.34 3.1-.9l.07-.03C3.95 20.02 2.5 14.89 2.6 7.34c4-.85 4.76-4.14 4.52-5.89 2.46-.27 5.7-.7 8.68-.7 3.1 0 6.41.34 8.94.61-.15 2.38.9 5 4.46 5.95.09 7.44-1.28 12.54-3.19 16.07.17.03.34.09.53.19 1 .56 1.53.64 3.12.9l.7.1c.06.02.11.07.13.14.01.07-.01.15-.06.19zm-4.24-3.12-.87-.42c-.38.85-.8 1.63-1.28 2.37l.82.5.02-.08v-.02l.04-.16a.97.97 0 0 1 .4-.5c.3-.52.6-1.08.87-1.7zm-1.13 2.82-.23.99.43.11a6.06 6.06 0 0 0 .68.15c.53 0 1.22-.38 1.24-.7.02-.13-.02-.18-.04-.22-.09-.1-.3-.15-.62-.15-.18 0-.4.02-.7.05-.22.03-.47-.04-.65-.16 0 .02-.12-.1-.1-.07zM25.6 7.4a7.58 7.58 0 0 1-2.51-4.43c-2.09-.2-4.74-.64-7.28-.64-2.36 0-4.95.25-7.14.47a7.4 7.4 0 0 1-.88 2.92 6.15 6.15 0 0 1-3.48 2.88c.07 5.11.82 9.04 1.99 11.9l.06.13a16.2 16.2 0 0 0 2.77 4.6l.35-.1c.78-.16 1.7-.32 2.72-.44.29-.03 3.02-.2 3.32-.2h.68c1.1.02-.45 0 .77 0a30.36 30.36 0 0 1 5.71.58c3.23-3.61 4.73-9.26 4.82-16.51a9.56 9.56 0 0 1-1.77-1.05l-.13-.1zM7.53 24.28l.08.83.3.4 1.02-.24c-.37-.44-.73-.91-1.08-1.44l-.34.21.02.09v.15zm15.31.85h.02l1.18.27c.26-.34.51-.7.76-1.07l-.83-.5c-.3.47-.78.88-1.13 1.3zm4.34-5.95-.91-.31c-.26.83-.56 1.63-.9 2.38l.87.42c.34-.76.66-1.6.94-2.5zm.73-2.88-.94-.18c-.19.92-.4 1.8-.67 2.64l.91.3c.27-.85.5-1.77.7-2.76zm.47-3.08-.95-.09c-.11 1-.26 1.96-.44 2.87l.94.19c.19-.93.34-1.92.45-2.97zm.2-2.87-.95-.07c-.04.94-.1 1.86-.2 2.74l.96.08c.1-.87.16-1.79.2-2.75zm-.86-2.92-.4.87.31.14.04.01v.04c0 .57-.02 1.13-.04 1.67l.96.07c.03-.8.04-1.61.03-2.46-.32-.1-.62-.2-.9-.33zM25.9 6.17l-.71.64c.53.56 1.2 1.06 2.02 1.44l.4-.86a5.92 5.92 0 0 1-1.71-1.22zm-1.24-1.95-.88.34c.28.75.72 1.5 1.33 2.16l.7-.63a5.58 5.58 0 0 1-1.15-1.87zm-2.5-1.64c.4.04.69.21 1.06.25h.05v.05c.04.54.26 1 .47 1.57l.88-.34a6.82 6.82 0 0 1-.43-2.28l-1.95-.2-.07.95zm-3.08-.26c1.01.07 2.02.16 2.97.25l.07-.96c-.96-.09-1.98-.18-3.01-.25l-.03.96zm-3.2-.12c1 0 2.05.05 3.08.11l.03-.95c-1.04-.07-2.1-.11-3.12-.12v.96zm-3.21-.83.03.95c1.03-.07 2.06-.12 3.06-.12v-.96c-1 0-2.05.05-3.09.13zm-3.13.28.07.96c.96-.1 1.97-.2 2.97-.28l-.03-.95a89.1 89.1 0 0 0-3 .27zm-2.23 2.5.89.34c.2-.56.32-1.15.35-1.72v-.05h.05l.9-.1-.07-.96c-.66.07-1.16.17-1.74.23.02.62-.1 1.42-.38 2.25zM6.1 6.17l.71.64A6.3 6.3 0 0 0 8.2 4.5l-.04.1-.89-.35a5.55 5.55 0 0 1-1.16 1.93zM4.28 7.44l.41.87a6.2 6.2 0 0 0 2.05-1.4l-.71-.65c-.46.47-1.04.88-1.75 1.18zM3.2 10.23l.96-.07c-.02-.52-.03-1.05-.03-1.6v-.04l.04-.01.41-.16-.4-.86c-.32.12-.65.22-1 .3-.02.84 0 1.65.02 2.44zm.2 2.88.96-.1c-.1-.86-.16-1.77-.2-2.73l-.95.06c.04.97.1 1.89.2 2.77zm.47 3.08.93-.18c-.17-.9-.32-1.86-.43-2.88l-.95.1c.12 1.04.27 2.03.45 2.96zm.74 2.88.89-.3c-.26-.82-.48-1.7-.67-2.65l-.93.19c.2.99.44 1.9.7 2.76zm.98 2.6.85-.4c-.33-.73-.64-1.53-.91-2.4l-.89.31c.29.9.6 1.73.95 2.49zm.87 1.7.16-.02a.9.9 0 0 1 .85.58l.31-.2c-.46-.7-.9-1.48-1.3-2.36l-.84.4c.26.57.54 1.1.82 1.6zm.8 1.29c-.18.12-.44.2-.67.17-.3-.03-.52-.05-.7-.05-.33 0-.53.05-.62.15-.02.03-.06.1-.04.23.02.3.71.69 1.24.69h.1l.58-.15.22-.06-.1-.98zm-1.65 3.22-.65-2.48a.65.65 0 0 1-.06-.2.66.66 0 0 1 .13-.5c.16-.2.42-.28.86-.28.19 0 .42.02.73.05h.07c.21 0 .42-.1.5-.2l.02-.07c0-.02-.1-.49-.59-.49-.17 0-.38.06-.61.18-1.04.58-1.63.68-3.21.93l-.29.04c.7.5 1.86 1.29 1.88 1.3.07.04.1.13.06.22l-.7 1.88c.45-.08 1.3-.24 1.86-.38zm7.68 1.95.2-.34-.7.08c.17.1.34.18.5.26zm2.56.04a29.6 29.6 0 0 1-1.18-.46c-.36.01-.7.04-1.04.07l-.23.4c1.02.5 1.88.8 2.45 1.01v-1.02zm2.59.05-.33-.53-.8-.01c-.54.23-1 .38-1.34.5v1.01c.59-.2 1.46-.48 2.47-.96zm.86-.43c-.39-.05-.72-.08-1.04-.1l.29.49c.24-.12.5-.25.75-.4zm7.69-3.6a2.14 2.14 0 0 1-1.17.3c-.1 0-.3-.05-.64-.14-.5-.13-1.26-.34-2.23-.52a36.31 36.31 0 0 0-4.3-.58 77.9 77.9 0 0 0-1.72-.06h-.3a.17.17 0 0 1-.06.02l-.41-.01h-.68c-.28 0-3 .16-3.3.2-.9.1-1.8.25-2.72.43-.97.19-1.73.39-2.24.52-.33.09-.53.14-.63.15h-.12c-.32 0-.75-.12-1.08-.33l.53 2.05.02.04c.09.26.14.47.2.68.04.2.1.4.17.65.23.76.86.95 1.16.95h.03c.26-.01.42-.04.66-.1.48-.1.94-.2 1.64-.37 1.37-.33 3.5-.76 6-.74h1.52c1.33 0 2.35.04 5.28.74l1.64.38a3.44 3.44 0 0 0 .7.1c.3 0 .93-.2 1.15-.95.08-.25.13-.45.18-.66l.17-.6.55-2.15zm2.9-1.03-.28-.04c-1.58-.26-2.17-.35-3.21-.93a1.39 1.39 0 0 0-.61-.18c-.5 0-.59.47-.6.49l.04.07c.07.1.28.2.5.2h.06c.3-.03.54-.05.73-.05.44 0 .7.08.86.27.1.13.14.3.13.5-.01.08-.03.15-.06.22l-.64 2.47c.55.15 1.4.3 1.84.38l-.7-1.88a.19.19 0 0 1 .07-.23c.02 0 1.19-.79 1.88-1.29z"/><path fill="#47205E" fill-rule="evenodd" d="m13.22 6.39-.27-.41c.08.4.2.8.3 1.19.05.01.06.02.09.06l.02-.01h.02c-.02-.1.11.06.15.17.02 0 .13.06.14.08.02-.06.01-.17.1-.18.03-.06-.01-.1 0-.14-.15-.29-.38-.5-.55-.76zm.74.95c.01.01.02.03.05.03.02 0 .03 0 .04-.02l.02-.05c-.01-.06-.04-.1-.09-.1a.19.19 0 0 0-.03.03v.1zm-.75-.18c-.08-.4-.32-.9-.32-1.33h.02c.1.14.27.41.33.47l.58.8c.07-.04.05-.07.1-.12.15-.13.37-.06.53 0l.1-1.25c.03-.21.07-.47.13-.52.13.06.13.24.19.4l.38 1.23h.09c-.05-.54-.24-.88-.4-1.3-.02-.1-.08-.29-.13-.38-.03-.05-.08-.08-.14-.08-.05 0-.05.05-.08.1-.14.33-.17 1.34-.19 1.66l-.1-.03c0-.06-.02-.1-.03-.16 0-.04-.03-.06-.05-.04l-.04.18-.16.01c-.02-.06-.05-.14-.1-.17h-.01v.21l-.04.05-.04.04c-.18-.38-.46-.64-.67-.98-.07-.1-.14-.32-.31-.28l-.05.05c-.04.07.01.32.04.41l.3 1.04h.07zM15.06 7l.04.04a.18.18 0 0 1 .07-.1c-.02-.16-.08-.28-.12-.4-.1-.29-.14-.56-.23-.83-.03-.1-.07-.3-.13-.38-.1.45-.1 1.18-.15 1.68l.1.08c.02 0 .14.07.16.06.02-.24.2-.27.26-.15zm-.13.6.03-.02c.01-.02.02-.04.01-.08-.02-.02-.02-.04-.06-.04-.02.02-.04.05-.02.1l.04.04zm-.42-.37c.02.06.03.09.08.1.02-.02.04-.02.05-.07.02-.07-.04-.12-.08-.12-.03.03-.04.04-.05.1zm-1.2.06-.02.02v.1c.02.03.04.05.07.05l.04-.04-.01-.1c-.02-.03-.04-.04-.08-.03zm4.47 1.99c.05.03.08-.03.12-.03l.05.02a11.25 11.25 0 0 1 0-.19.45.45 0 0 0-.03.02c-.07-.02-.1-.11-.17-.12-.01.06.03.13.06.16-.02.04-.04.06-.03.13zm.24.07h.03l.02-.04v-.05l-.04-.02H18l-.02.06.01.03.02.02zm-5.17-2.49c-.04.1 0 .24.11.23l.02-.05c-.02-.06-.09-.16-.13-.18zm5.2 1.99-.83-.1-.35-.04c-.14-.03-.26 0-.4-.02l-.89-.01-.7.01-.61.05-.89.1-.01.07.01.02c.14.03.3-.05.44-.04l.2-.03h.17c.14-.03.27-.03.4-.05l.57-.03h.27c.14 0 .3-.01.43.01h.29c.16.03.36.02.53.03-.02.04-.22.13-.27.11-.08-.03-.15-.1-.25-.1v.01c-.03.07.07.12.1.16-.03.03-.07.04-.07.11l.02.03c.08.02.15-.08.23-.05.07.02.22.12.3.06v-.06c-.02-.04-.09-.07-.13-.07v-.02a.27.27 0 0 0 .15-.14l-.02-.04c.1 0 .2.03.27.02.2 0 .44 0 .64.05h.18c.06.03.13.07.2.04a.2.2 0 0 0 .01-.08zM13.7 7.69c0 .03 0 .06.02.09.01.03.02.03.05.04.03 0 .04-.02.06-.04v-.03c0-.06-.04-.1-.09-.1l-.04.04zm1.16-3.03c.02-.04 0-.1-.02-.13-.04-.07-.07-.1-.17-.1l-.1.03c-.06.04-.06.09-.08.16 0 .08.05.15.1.18.14.05.22-.01.27-.14zm-.02.1-.03.03v.04h.07l.04-.04c-.03-.03-.03-.03-.08-.03zm-2.04.85c.08-.04.13.05.19.02 0-.01.02-.01.02-.04-.02-.11-.12-.12-.25-.11l-.08.03c-.03.05-.04.08-.02.13-.02-.01-.03-.02-.06 0-.02.02-.02.04-.01.08 0 .04.06.06.1.02.02 0 .01-.04 0-.08.08 0 .07-.04.1-.05zm4.91 3.34v-.01c-.05 0-.14.07-.18.1-.06-.03-.1-.12-.16-.13-.02.08.04.11.05.16.02.04-.06.08-.02.14l.02.02.11-.05c.06.02.1.1.16.1.05-.08-.02-.12-.06-.16.04-.04.09-.09.08-.16zM15.55 6.6l-.05-.22-.02-.02h-.03a.4.4 0 0 0-.02.22l.1.04.02-.02zm-1.08-1.62v.06l.03.02c.09.04.1-.07.2-.04.04 0 .06.06.13.04v-.01l.06-.04v-.05c-.06-.07-.12-.1-.25-.1-.08.04-.13.03-.17.12zm-1.75.44c.07 0 .15-.03.17-.1.01-.08-.02-.18-.09-.2l-.09-.03c-.06 0-.1.04-.13.13v.12c.03.06.09.06.14.08zm-.06.08.02-.03v-.03l-.02-.03h-.06c-.02.04-.03.06 0 .09.02.02.05.01.06 0zm.38.18c.02 0 .03.02.04.03.03 0 .05 0 .07-.04v-.08c-.02-.04-.02-.03-.07-.04-.03 0-.05.04-.05.09l.01.03zm-.08-.24.02-.03V5.4l-.06-.02-.03.04c.02.02.04.03.07.02zm1.6-.6V4.8l-.09-.01-.04.03v.04l.1.02.02-.03zm.7 2.14v.05c.01.04.03.06.06.06.08.04.1-.18-.02-.17l-.05.06zm.98.06c0-.07-.03-.11-.08-.12a.74.74 0 0 0-.04.04c-.02.08 0 .13.04.15h.05c0-.03.02-.05.03-.07zm2.23.18c-.15.13-.3.35-.38.58l-.02.01v-.13c0-.1-.04-.17-.05-.25-.1.1-.1.33-.16.49-.04-.02-.08-.04-.14-.04l-.04.06c-.02 0-.01-.02-.03-.02a.32.32 0 0 0-.2 0l-.01-.02c.04-.08.27-.4.25-.5v-.02c-.07 0-.29.2-.34.25-.03.03-.04.08-.08.1l.07-.27c.02-.1-.02-.46-.05-.48a1.4 1.4 0 0 0-.4.71l-.01.01c-.04-.14-.08-.34-.19-.4a.9.9 0 0 0-.07.39l-.25.01c.05-.12.19-.41.16-.61 0-.02-.01-.02-.02-.03-.04-.02-.1.02-.13.04-.08.05-.27.24-.31.34h-.01c-.04-.33-.07-.5-.19-.72-.03-.06-.06-.17-.12-.19-.06-.02-.12.11-.14.15-.15.27-.16.37-.19.78-.1-.12-.28-.41-.46-.4l-.02.02c-.02.23.09.48.16.6v.02l-.25-.01c-.02-.13-.02-.27-.06-.38h-.01c-.07.02-.18.27-.18.39h-.01a1.72 1.72 0 0 0-.2-.47l-.2-.25h-.02c-.02.28-.08.44.03.74v.01c-.03-.01-.04-.06-.07-.09-.07-.07-.26-.26-.35-.26v.01c.03.21.18.36.25.5v.02c-.09-.01-.17 0-.23.03l-.04-.06c-.06 0-.1.04-.14.04-.04-.14-.08-.4-.15-.48h-.02c-.03.1-.07.2-.05.37-.03-.03-.05-.1-.08-.15-.06-.11-.23-.4-.32-.43l.04.29.06.2-.06-.06a1.76 1.76 0 0 0 .2.45h-.02l-.01.02.11.18c.03.04.06.31.04.31-.04.17.2.1.28.08.23-.05.45-.03.7-.08.07-.02.16 0 .25-.02l.26-.02c.17-.03.39-.03.58-.02.06 0 .16.02.24 0 .07 0 .2.02.28 0h.37l.32.03c.13.02.3 0 .42.03l.61.07c.1.02.23.06.33.03a.2.2 0 0 0 .03-.1l.07-.26c.06-.06.12-.16.17-.24l-.01-.01h-.02c.03-.1.2-.34.2-.44v-.01c-.02 0-.03.02-.04.03l-.02.02.1-.48zm-.42 1.84-.03.03v.04l.02.02h.04l.02-.04c0-.02-.01-.04-.03-.05h-.02zm-.64.47c-.35-.07-.72-.04-1.09-.08h-.39c-.2-.04-.39.02-.6 0l-.72.02-.65.07-.57.07c-.02.04 0 .07.01.1.66.1 1.37.12 2.11.12h.52l.33-.02c.13-.02.26 0 .38-.02H17l.7-.07.3-.02.08-.06v-.02c-.04-.04-.15-.02-.22-.03l-.45-.06zm-.57-2.2c.03.02.05 0 .07-.02a.4.4 0 0 0 .01-.1c-.02-.02-.02-.04-.06-.05-.03.03-.04.03-.06.08 0 .05.01.08.04.1zm.85.34-.02.05c0 .03.01.06.04.07.01.01.04 0 .05-.01l.03-.05c0-.05 0-.07-.02-.09h-.04c-.02 0-.03.02-.04.03zm-1.2-.16v.06c.02.03.05.05.08.03.02-.01.03-.03.03-.08-.02-.03-.03-.06-.08-.06l-.03.05zm1.62-.2c-.03.03-.02.07-.02.1l.04.04c.03 0 .06-.02.07-.06a.16.16 0 0 0 0-.09l-.02-.03c-.03 0-.06.01-.07.04zm-.52-.03-.03-.07-.05-.01-.03.04a.11.11 0 0 0-.02.09l.04.04.05-.02.04-.07zm-4.14 2.04.04-.01c.01-.02.02-.05 0-.08 0-.02-.01-.02-.03-.02-.02 0-.03.01-.04.03a.05.05 0 0 0 0 .06l.03.02zm1.3-.43c-.01-.02-.01-.03-.03-.03l-.2.12c-.06.02-.2-.08-.25-.1-.02.01-.03.01-.03.03-.02.09.1.1.12.16-.06.02-.13.06-.1.15l.02.01c.07.02.16-.08.23-.1.06-.01.1.06.17.05.01-.01.02-.01.02-.03.02-.05-.02-.1-.04-.11v-.01a.33.33 0 0 0 .09-.14zm.63-.04v-.02c-.1-.02-.2.13-.3.1-.1-.02-.17-.1-.28-.1l-.02.02c0 .08.1.12.15.16-.05.05-.13.02-.14.11l.01.03c.09.06.22-.05.3-.07.07 0 .15.1.22.05l.02-.02c.02-.05-.03-.1-.06-.1v-.02c.03-.02.12-.09.1-.14zm-1.24.08-.13.11c-.06.02-.12-.07-.17-.1l-.02.04c0 .08.05.1.08.15-.04.05-.08.04-.08.15l.03.02a.5.5 0 0 0 .15-.1c.05 0 .07.04.12.04.04-.06 0-.1-.01-.15.03-.04.06-.08.06-.16h-.03zm1.97-.08v-.02l-.02-.01c-.06-.03-.22.08-.28.1-.07.01-.27-.1-.35-.13-.02.01-.02 0-.03.03-.01.05.12.14.16.15l.01.01c-.04.04-.12.02-.14.08a.05.05 0 0 0 0 .05c.01.04.06.04.1.02l.25-.07c.06.01.19.1.23.06.02 0 .02-.01.02-.03 0-.05-.03-.09-.07-.1.04-.06.1-.08.12-.14zm1.19.07c-.02-.12-.2.06-.28.05-.08-.01-.13-.12-.22-.12h-.01c0 .08.05.13.08.16v.01c-.02.03-.04.05-.04.11.06.08.12-.04.2-.01.08.02.14.1.23.1l.02-.04c0-.1-.06-.1-.11-.13.05-.04.1-.07.13-.13zm-3.57.54c.15-.03.33-.03.5-.06h.2c.11-.03.22-.02.33-.03l.3-.03h1.33l1.02.08.58.08c.03-.03.06-.05.08-.09l-.06-.02v-.03h-.26c-.15-.06-.34-.04-.51-.08-.12-.03-.28-.03-.43-.05l-.25-.01h-.26a1.58 1.58 0 0 0-.53-.01c-.1.01-.23 0-.3-.02h-.21c-.02.02-.06.01-.09.02-.15.03-.32 0-.5.02-.15.01-.28.03-.42.06l-.32.02-.24.05-.16.04c-.06.01-.1-.04-.15.02 0 .04 0 .05.02.07.11.03.23-.02.33-.03zm.04-.48a.5.5 0 0 0-.14.12l-.06-.02.01.2.03-.03c.04-.01.09.04.12.05l.02-.03c.02-.03 0-.1-.03-.11.02-.07.06-.08.06-.17l-.01-.01zm-.3.12h-.03c-.02 0-.03 0-.04.03v.02a.2.2 0 0 0 .03.04c.04 0 .05-.02.06-.05a.3.3 0 0 1-.01-.04zm5.27-3.68c.05-.02.1-.02.13-.08.02-.03.02-.07.01-.12-.03-.08-.07-.13-.13-.13l-.1.02c-.06.03-.1.13-.08.21.02.07.1.1.17.1zm-.32.26v-.04c0-.05-.01-.1-.05-.1-.04.01-.04.01-.06.05a.12.12 0 0 0 0 .08c.02.03.04.05.07.04.01-.01.02-.03.04-.03zm-1.77-.85v-.04a.38.38 0 0 1-.03-.03c-.05 0-.05 0-.08.03l.04.04h.07zm.26.01.02.03.1-.02v-.04a1.16 1.16 0 0 1-.04-.03h-.08v.06zm-.04-.04c.05-.03.1-.1.1-.18-.02-.07-.03-.12-.09-.16l-.1-.03c-.09 0-.12.03-.16.1a.14.14 0 0 0-.02.13c.05.13.13.19.27.14zm-.05.06c-.13 0-.2.02-.25.1V5l.05.04.01.01c.06.02.1-.03.13-.04.1-.03.11.08.2.04l.04-.02-.01-.06c-.04-.09-.1-.08-.17-.12zm1.68.58c.03.01.05 0 .07-.02l-.03-.05-.06.03.02.04zm.3.2c.02-.04 0-.07-.03-.13l-.07-.03c-.13 0-.23 0-.25.12 0 .02.01.02.02.03.06.03.11-.05.2-.02.03.01.02.05.1.06-.01.03-.02.06 0 .07.04.04.1.02.1-.02 0-.03 0-.06-.02-.08-.02-.02-.03 0-.05 0zm0-.22-.02.02v.03l.02.04h.06c.03-.04.02-.06 0-.1h-.06zm-.19.26c-.17-.05-.24.17-.3.27-.22.34-.5.6-.68.98l-.03-.04c-.03-.01-.03-.02-.05-.04v-.2l-.02-.02c-.04.04-.07.12-.09.18l-.16-.01-.04-.2c-.02 0-.04.02-.04.05l-.04.16-.1.03c-.02-.32-.05-1.33-.2-1.65-.02-.06-.02-.1-.07-.1-.06 0-.11.02-.14.07-.05.1-.1.3-.14.38-.15.42-.34.76-.4 1.3l.01.01h.1l.38-1.24c.05-.16.05-.34.18-.4.06.05.1.31.13.52L17 7c.16-.06.38-.14.53 0 .05.04.03.07.1.11l.58-.8c.06-.05.23-.32.33-.47h.02c0 .43-.24.93-.32 1.33l.08.02.3-1.04c.02-.09.07-.34.03-.42-.02-.03-.02-.03-.05-.04zm-.13 1.35.02.05c.12.01.15-.13.11-.23-.04.02-.11.13-.13.18zM16.64 5.7c-.1.27-.14.54-.23.82-.04.12-.1.25-.12.4.04.03.05.05.07.1.02 0 .02 0 .04-.04.07-.11.24-.08.26.16l.16-.06.1-.09c-.05-.5-.04-1.22-.15-1.68-.06.1-.1.29-.13.4zm-.6.88c0-.1 0-.15-.03-.22h-.03l-.02.02-.05.22.02.02.1-.04zm2.2-.19c-.17.25-.4.47-.55.76.01.03-.03.08 0 .14.09.01.08.12.1.18l.14-.08c.04-.11.17-.27.15-.17h.04c.03-.03.04-.04.09-.05.1-.4.22-.8.3-1.2l-.27.42z" clip-rule="evenodd"/><path fill="#878787" d="M22.25 25.02c1.46-1.7 3.2-5 3.91-8.25.55-2.51.91-6.5.89-7.78-.83-.29-1.86-1.05-3.06-2.57-.8-1.03-1.3-3.13-1.3-3.13s-3.3-.5-6.7-.52h-.2c-3.41.02-6.7.51-6.7.51s-.5 2.11-1.31 3.14C6.58 7.94 5.55 8.7 4.73 8.98c-.03 1.29.34 5.28.88 7.78.72 3.28 2.62 6.7 4.1 8.37l-.66.11a21 21 0 0 1-4.02-8.35 46.66 46.66 0 0 1-.9-7.92v-.42l.4-.13c.57-.2 1.52-.77 2.78-2.37a9.36 9.36 0 0 0 1.2-2.9l.1-.4.4-.06c.12-.02 2.89-.43 6-.5v-.02H16.77v.02c3.1.07 5.88.48 6 .5l.4.06.1.4c.13.55.6 2.14 1.2 2.9 1.26 1.6 2.2 2.17 2.77 2.37l.4.13v.42c.03 1.35-.34 5.36-.9 7.92a21.47 21.47 0 0 1-3.84 8.26l-.65-.13z"/><path fill="#191818" d="M15.89 2.77h-.1c-3.41.02-6.7.51-6.7.51s-.5 2.11-1.31 3.14C6.58 7.94 5.55 8.7 4.73 8.98c-.03 1.29.34 5.28.88 7.78.72 3.31 2.66 6.7 4.13 8.42l.15-.02a21.03 21.03 0 0 1-4.16-8.42c-.52-2.38-.9-6.27-.88-7.67.93-.35 1.95-1.22 3.02-2.58A9.84 9.84 0 0 0 9.2 3.4a54 54 0 0 1 6.6-.5h.2c3.07.02 6.08.43 6.6.5.1.4.57 2.17 1.31 3.1 1.07 1.36 2.09 2.23 3.03 2.58.01 1.4-.37 5.29-.89 7.67a21.26 21.26 0 0 1-4.07 8.4l.12.05a20.97 20.97 0 0 0 4.07-8.42c.55-2.51.91-6.5.89-7.79-.83-.28-1.86-1.04-3.06-2.56-.8-1.03-1.3-3.13-1.3-3.13s-3.3-.5-6.7-.52h-.1m.1-.6h.78v.02c3.1.07 5.88.48 6 .5l.4.06.1.4c.12.55.6 2.14 1.2 2.9 1.26 1.6 2.2 2.17 2.77 2.37l.4.13v.42c.03 1.35-.34 5.36-.9 7.92a20.65 20.65 0 0 1-4.1 8.51l.1.08a20.8 20.8 0 0 0 4.12-8.56c.56-2.57.93-6.6.9-7.95v-.5l-.09-.03-.4-.14c-.55-.19-1.47-.75-2.71-2.33a9.22 9.22 0 0 1-1.18-2.85l-.1-.4-.01-.08h-.08l-.4-.07c-.11-.01-2.82-.41-5.87-.5v-.02H14.86v.02c-3.05.09-5.75.49-5.86.5l-.4.06-.08.02-.03.07-.09.4c-.13.54-.6 2.11-1.18 2.85C5.97 7.55 5.05 8.13 4.5 8.31l-.4.13-.07.03v.08L4 8.97c-.03 1.36.34 5.38.9 7.95a20.89 20.89 0 0 0 4.21 8.59l.09-.08-.08-.1a20.9 20.9 0 0 1-4.1-8.44 46.66 46.66 0 0 1-.9-7.92v-.41l.4-.14c.57-.2 1.52-.77 2.78-2.37a9.36 9.36 0 0 0 1.2-2.9l.1-.4.4-.06c.12-.02 2.89-.43 6-.5v-.02H15.98"/><path fill="#F3F0E7" d="M17 23.23c-.46-.72-.2-1.5.25-1.94.02-.1.1-.1.15-.23.14-.48.5-.73.53-.86.03-.18.8.21 1.08.5.24.31-.27.95-.28 1.23-.16.03-.21 0-.38.03l-.03.31v.27c.87-.18 1.01-1.1 1.24-1.9-.2-.27-.71-.68-.84-.87.08-.08.26-.16.3-.2.63-.45 1.1-1.11 1.12-1.64.02-.16.14-.2.24-.2.1 0 .44-.1.68-.31.1-.02.11-.15.11-.18v-.09c0-.13-.25-.12-.42-.16a3.5 3.5 0 0 1-.55-.16l-.37-.16-.2-.13-.2-.04a1.6 1.6 0 0 1-.14-.07h.02c.43-.07.46-.32.35-.52a.2.2 0 0 0-.1-.08c-.02 0 0 .03.01.1.06.19.04.29-.32.38h-.18c-.09-.06-.1-.1-.2-.15-.09-.03-.33-.16-.33-.22l.37-.12c.28-.08.38-.15.47-.3a.1.1 0 0 0 0-.09l-.05.06c-.1.12-.16.16-.44.2l-.3.06c.06-.1.17-.17.28-.41l.1-.23c.03-.08.1-.28.1-.32.01-.05 0-.25-.05-.27-.02 0-.07.17-.08.25-.01.13-.04.25-.06.3-.02.05-.03.12-.06.14s-.06.01-.09-.02c-.02-.02-.14-.09-.14-.23 0-.03-.01-.26-.03-.26-.05.01-.06.24-.06.27-.02.19.14.26.16.28.03.03.01.04.02.06.01.03 0 .08-.05.12-.04.04-.05.14-.18.2-.04.03-.06.16-.1.19-.05 0-.04-.07-.09-.12-.07-.08-.15-.13-.16-.23l.04-.28c0-.1.05-.18.08-.27.06-.2.04-.32.05-.35.02-.05 0-.08-.04 0l-.13.3c0 .04-.02.11-.07.1-.03 0-.06-.1-.07-.12l-.1-.36c-.01-.03-.08-.2-.1-.2-.05 0-.03.19-.02.22.05.27.18.52.19.7 0 .02.04.1 0 .1-.02.02-.07.03-.17-.05-.09-.07-.14-.15-.18-.23-.04-.06-.14-.28-.17-.27-.06.03.08.31.1.34l.19.23-.08-.01a.94.94 0 0 0-.24.04c-.01.06.2.05.23.05.16 0 .25.11.28.15l.04.04.02.04-.01.04c-.04.03-.13.03-.2.05-.05.02-.2.03-.35.02-.08 0-.25-.03-.24.06 0 .02.19.07.25.08.04 0 .29-.01.4-.04.1-.03.18.01.26 0 .1.11.19.15.25.19.07.07.4.29.5.41.04.06-.04.12-.07.07-.02.02-.1-.02-.22-.08-.47-.2-.6-.09-.65-.02l.04.05c.2.2.4.5.74.4.1.22 0 .39-.1.57-.24.45-1.28.13-1.92.56-1.04.04-1.29.02-1.73-.02a4.7 4.7 0 0 0-1.4-.04c-.1.04-.17.06-.17.1-.19-.03-.46-.01-.55-.35-.14.09-.04-.23-.06-.24-.25.27-.42.32-.4.88.03.16.1.35.18.46.18.94.44.92.56 1.45-.12.47-.49.6-.72.79-.02.01-.07.03-.08.05-.02 0-.02.06-.04.1-.1.28-.1 1.51-.18 1.72-.02.14.09.26.09.37h.53c0-.15-.21-.36-.22-.5-.02-.42.02-.78.07-1.14 0-.05.02-.15.07-.19.17-.11.28-.16.57-.3.06.1 0 .1-.12.28-.03.04-.12.16-.13.2l.05.41c.07.24.23.85.33 1.1l.06.1.48-.02a4.64 4.64 0 0 0-.21-.28c-.14-.16-.2-.37-.24-.5-.06-.22-.09-.51-.03-.68.05-.12.27-.44.37-.53.35-.3.47-.32.6-.63 0-.02.41.17.72.15.6-.04 1.57-.26 1.72-.22-.01.63-.23 1.28-.3 1.86 0 .24-.03.45.05.6.05.08 0 .17.05.29H17c.02-.02-.02-.02 0-.04z"/><g fill="#D4D2C9"><path d="M9.64 28.58a.7.7 0 0 1-.35.2.7.7 0 0 1-.28 0 .57.57 0 0 1-.25-.1 1.23 1.23 0 0 1-.36-.65 1.25 1.25 0 0 1 0-.71c.06-.19.2-.3.4-.35a.57.57 0 0 1 .44.07c.13.08.26.23.39.44.05 0 .1-.02.14-.03l-.17-.74c-.05 0-.1.02-.14.03l-.08.1a1.42 1.42 0 0 0-1.11.2 1.04 1.04 0 0 0-.47 1.2c.04.15.11.29.2.4.1.12.2.21.33.28.13.06.26.1.41.12a1.37 1.37 0 0 0 .79-.16c.09-.05.16-.11.23-.18.07-.06.12-.14.16-.21s.08-.17.1-.26l-.14-.05c-.07.17-.14.3-.24.4zM24.14 26.96a5.03 5.03 0 0 1 .28.08c.07.03.13.1.19.2.05.1.09.18.1.27l.12.03.13-.52a33.9 33.9 0 0 0-2.02-.44l-.03.11a1.4 1.4 0 0 1 .23.1c.04.02.06.05.07.07a.2.2 0 0 1 0 .1l-.29 1.45c0 .04-.02.06-.03.08a.15.15 0 0 1-.1.05h-.1l-.12-.01-.02.11c.68.13 1.35.27 2.01.44l.2-.62-.1-.03a1.75 1.75 0 0 1-.4.36c-.02.02-.05.02-.1.02a.97.97 0 0 1-.25-.02l-.13-.03a1.39 1.39 0 0 1-.17-.05.24.24 0 0 1-.1-.06c-.02-.02-.03-.05-.04-.1s0-.08.02-.14l.13-.6.22.06c.07.01.12.03.16.05.05.03.08.06.1.1.02.03.04.08.05.14l.01.17.12.02.2-.85-.12-.03a.79.79 0 0 1-.08.14.39.39 0 0 1-.1.1.33.33 0 0 1-.15.04c-.05 0-.1 0-.16-.02l-.23-.04.17-.8.33.07zM12.92 26.77a1.02 1.02 0 0 0-.3-.3 1.18 1.18 0 0 0-.42-.18 1.46 1.46 0 0 0-.98.14c-.14.08-.26.18-.35.3-.1.1-.17.24-.2.4-.04.14-.05.3-.02.47a1.03 1.03 0 0 0 .49.71c.12.08.26.13.4.16.15.03.3.03.46 0 .2-.02.36-.07.5-.14.13-.08.24-.17.34-.29.09-.11.15-.24.2-.38s.04-.29.03-.44a1 1 0 0 0-.15-.45zm-.47.92c0 .11-.02.22-.06.31a.54.54 0 0 1-.15.23.46.46 0 0 1-.25.1c-.1.02-.19 0-.27-.03a.59.59 0 0 1-.2-.17c-.06-.08-.11-.18-.15-.3a2.02 2.02 0 0 1-.1-.35 1.4 1.4 0 0 1 .05-.74.49.49 0 0 1 .4-.31c.12-.02.22 0 .3.04.08.04.15.1.21.19.06.08.1.18.13.3a2.08 2.08 0 0 1 .1.73zM15.86 27.14l-.23-.1a.88.88 0 0 0-.26-.04v-.02l.23-.08a.84.84 0 0 0 .18-.1.37.37 0 0 0 .17-.33.37.37 0 0 0-.21-.34 1.4 1.4 0 0 0-.7-.1l-1.25.08v.12a1.62 1.62 0 0 1 .24.03c.05.01.08.03.1.05a.2.2 0 0 1 .02.1l.1 1.47-.01.1a.15.15 0 0 1-.07.06l-.1.02c-.05 0-.1.02-.12.03v.11l1.14-.07c.16 0 .3-.02.42-.04.12-.03.23-.06.32-.1.08-.05.15-.11.2-.19s.06-.16.06-.27a.42.42 0 0 0-.07-.23.52.52 0 0 0-.16-.16zm-1.15-.95.09-.01h.08c.14-.01.25.01.33.08.07.06.11.15.12.26 0 .13-.04.23-.11.31s-.2.12-.38.13h-.08l-.05-.77zm.66 1.68a.4.4 0 0 1-.3.13c-.06 0-.12 0-.17-.03-.05-.02-.08-.05-.1-.09 0-.26-.02-.51-.04-.77h.08l.08-.01c.17-.01.3.02.4.1.1.07.15.18.15.33 0 .14-.03.25-.1.34zM18.9 27.21a1.28 1.28 0 0 0-.48-.18V27l.23-.05a.83.83 0 0 0 .2-.08l.14-.13a.37.37 0 0 0 .06-.19c0-.15-.05-.27-.19-.36s-.36-.14-.68-.16L16.92 26v.11l.12.03.12.03c.04.02.07.04.08.06a.2.2 0 0 1 .02.1l-.03 1.47a.2.2 0 0 1-.02.1.15.15 0 0 1-.08.05 12.06 12.06 0 0 1-.22.03v.12l1.13.03.42-.01c.12-.01.23-.04.33-.08a.49.49 0 0 0 .21-.16.5.5 0 0 0 .1-.26c0-.09-.02-.17-.05-.23a.54.54 0 0 0-.16-.18zm-1.06-1.05H18c.14 0 .25.04.31.11.07.07.1.17.1.28a.4.4 0 0 1-.14.3c-.09.07-.21.1-.39.1l-.08-.01.03-.78zm.5 1.73a.4.4 0 0 1-.3.1.39.39 0 0 1-.18-.04c-.05-.03-.07-.06-.08-.1l.03-.77H17.96c.17.01.3.06.4.14.08.08.12.2.11.34 0 .15-.05.25-.13.33zM21.71 28.07c-.07.08-.13.15-.2.19a.3.3 0 0 1-.17.03 2 2 0 0 1-.43-.05.24.24 0 0 1-.1-.05.14.14 0 0 1-.05-.09v-.15l.18-1.37c0-.04.01-.07.03-.1.02-.02.05-.03.1-.04h.24l.02-.12c-.42-.06-.85-.1-1.27-.15l-.01.12.1.03c.05.02.1.02.13.04l.07.07a.2.2 0 0 1 .01.1l-.16 1.46a.2.2 0 0 1-.03.1.14.14 0 0 1-.08.05h-.23l-.01.12c.67.07 1.33.15 2 .26l.15-.66-.12-.01-.17.22z"/></g><g fill="#47205E"><path d="M9.5 28.5a.7.7 0 0 1-.36.2.7.7 0 0 1-.27 0 .57.57 0 0 1-.25-.1.9.9 0 0 1-.2-.25c-.06-.1-.12-.24-.15-.4a1.25 1.25 0 0 1-.02-.7c.07-.2.2-.3.4-.35.16-.04.31-.02.44.06s.27.23.4.45l.14-.03a894 894 0 0 0-.17-.75l-.14.03-.08.1a1.44 1.44 0 0 0-1.11.2c-.14.09-.25.2-.34.32a1.05 1.05 0 0 0-.13.88c.04.15.1.3.2.4.1.13.2.22.33.28.12.07.26.1.4.12a1.37 1.37 0 0 0 .8-.16c.08-.05.16-.1.23-.18a1.02 1.02 0 0 0 .26-.47l-.15-.05c-.06.17-.14.3-.23.4zM24 26.89l.14.03.13.04c.07.03.14.1.2.2.05.1.08.18.1.27.04 0 .08.02.11.03.05-.17.1-.35.13-.52-.67-.17-1.34-.31-2.02-.44l-.02.11a1.4 1.4 0 0 1 .22.1c.04.03.07.05.08.08a.2.2 0 0 1 0 .09l-.29 1.45c0 .04-.02.07-.04.09-.01.02-.04.03-.08.04a.5.5 0 0 1-.11 0h-.12l-.02.1c.67.13 1.34.28 2 .45l.21-.63c-.04 0-.07-.02-.11-.03a1.62 1.62 0 0 1-.4.37l-.08.02a1.18 1.18 0 0 1-.26-.03l-.13-.03a1.82 1.82 0 0 1-.18-.05.24.24 0 0 1-.1-.06.16.16 0 0 1-.03-.1c0-.03 0-.08.02-.14l.12-.6.23.06.16.05c.04.02.08.06.1.1.02.03.04.08.05.14v.17l.13.02.2-.85a5.12 5.12 0 0 0-.12-.03.75.75 0 0 1-.08.14.39.39 0 0 1-.1.1c-.05.03-.1.04-.15.04l-.16-.01-.23-.05.17-.8.33.08zM12.78 26.7a1.02 1.02 0 0 0-.3-.32 1.19 1.19 0 0 0-.43-.16 1.47 1.47 0 0 0-1.33.42c-.1.12-.16.25-.2.4-.04.15-.04.31-.01.48a1.03 1.03 0 0 0 .49.72c.12.07.26.12.4.15.15.03.3.03.46.01.2-.03.36-.08.5-.15.13-.08.24-.17.34-.29a1.15 1.15 0 0 0 .08-1.27zm-.47.9c0 .12-.03.23-.06.32a.53.53 0 0 1-.15.23.47.47 0 0 1-.25.1c-.1.02-.2.01-.27-.03a.57.57 0 0 1-.2-.17c-.07-.08-.11-.18-.15-.29a2.02 2.02 0 0 1-.1-.36 1.4 1.4 0 0 1 .04-.73.49.49 0 0 1 .4-.32c.12-.02.22 0 .3.04.09.04.16.1.22.19.05.08.1.18.13.3a2.18 2.18 0 0 1 .1.73zM15.72 27.06l-.24-.1a.94.94 0 0 0-.26-.04v-.02l.23-.08a.9.9 0 0 0 .19-.1c.05-.04.1-.09.13-.14a.37.37 0 0 0 .04-.19.37.37 0 0 0-.22-.34 1.4 1.4 0 0 0-.69-.1l-1.26.08.01.12a1.62 1.62 0 0 1 .24.03c.05.02.08.03.1.06a.2.2 0 0 1 .02.08l.1 1.48-.01.1a.15.15 0 0 1-.08.06 2.59 2.59 0 0 1-.22.05l.01.11 1.13-.07c.17 0 .3-.02.43-.04.12-.03.22-.06.31-.1.1-.05.16-.11.2-.19s.07-.16.07-.27a.42.42 0 0 0-.07-.23.5.5 0 0 0-.16-.16zm-1.15-.95h.09l.08-.01c.14-.01.25.02.32.08.08.06.12.15.12.27 0 .12-.03.23-.1.3-.09.08-.21.12-.38.13h-.09l-.04-.77zm.66 1.68a.4.4 0 0 1-.3.13c-.06 0-.12 0-.17-.03-.06-.02-.09-.05-.1-.09l-.04-.77h.08l.08-.01c.17 0 .3.03.4.1.1.07.15.18.15.33 0 .14-.03.26-.1.34zM18.75 27.13a.89.89 0 0 0-.22-.11 1.36 1.36 0 0 0-.26-.07v-.03l.24-.05a.83.83 0 0 0 .2-.08c.05-.04.1-.08.13-.13a.36.36 0 0 0 .06-.19.38.38 0 0 0-.18-.36 1.4 1.4 0 0 0-.68-.16l-1.26-.03v.11a2.58 2.58 0 0 1 .23.06c.05.02.08.04.09.06l.01.1-.02 1.47a.2.2 0 0 1-.03.1.16.16 0 0 1-.07.05 12.06 12.06 0 0 1-.22.03v.12c.37 0 .75.01 1.12.03l.43-.01c.12-.01.23-.04.32-.08a.49.49 0 0 0 .22-.16.5.5 0 0 0 .09-.26c0-.09-.01-.17-.05-.23a.56.56 0 0 0-.15-.18zm-1.05-1.05h.16c.15 0 .25.05.32.11.07.07.1.17.1.28a.4.4 0 0 1-.14.3c-.09.07-.22.1-.39.1l-.08-.01.03-.78zm.5 1.73a.4.4 0 0 1-.3.1.39.39 0 0 1-.18-.04c-.05-.03-.08-.06-.08-.1l.02-.76h.16c.17 0 .3.05.4.13.08.08.12.2.11.34 0 .15-.05.26-.13.33zM21.57 28c-.07.07-.13.14-.2.18-.03.02-.1.04-.17.03a1.82 1.82 0 0 1-.43-.05.24.24 0 0 1-.11-.05.13.13 0 0 1-.05-.09l.01-.15.17-1.37.04-.1c.02-.02.05-.03.09-.04h.25l.01-.12-1.26-.15-.02.12a3.96 3.96 0 0 1 .23.07c.05.03.07.05.08.08a.2.2 0 0 1 .01.09l-.16 1.47a.2.2 0 0 1-.03.09.14.14 0 0 1-.09.05h-.22l-.01.12c.66.07 1.33.16 2 .26l.14-.65-.11-.02c-.04.07-.1.14-.17.22z"/></g></svg>