<svg xmlns="http://www.w3.org/2000/svg" xml:space="preserve" viewBox="0 0 32 32"><circle cx="16.1" cy="16" r="15.39" fill="#998C67" fill-rule="evenodd" clip-rule="evenodd"/><path fill="#5E3C2A" fill-rule="evenodd" d="M24.52 22.45c-1.05.24-1.29.2-1.88.48-.6.28-.77.23-1.04-.14-.28-.36-.23-.54-.07-1.04s.14-.54.1-.76c-.03-.23-.07-.35.17-.66.25-.32.5-.53.5-.98-.03-.45.16-.62-.25-.9s-.5.2-.66-.52c-.16-.73-3.88-5.56-4.35-6.75-.47-1.18-.97-2.67-.8-3.64.1-.58.73-1.15.66-1.53s-.86-.96-.72-1.15c.13-.2 9.93-1.18 11.26 6.7 1.32 7.9-1.88 10.64-2.92 10.89zm-9.67 3.68c.1.68-4.7 1.15-7.02.28-2.3-.87-2.27-2.23-3.27-5.5-.99-3.26 1.07-6.27 1.74-6.56s1.13.24 2.09.41c.95.18.75-.24 1.53-.34.78-.1.81.2 1.77.73.95.52 1.35 1.28 1.56 1.56.21.28.78.94 1.22 1.36.43.41.4.62.62 1.32.23.7-.1.73-.27 1.6-.18.87.24.67.45 1.39.2.7-.17 1.37-.42 2.33-.24.95-.08.74 0 1.42z" clip-rule="evenodd"/><path fill="#281F15" fill-rule="evenodd" d="M7.12 12.45c.2-.13.29-.35.29-.48s.03-.12.1-.03c.08.09.14.12.3.03s.35-.38.4-.51c.06-.13-.14-.3-.21-.4-.08-.11-.26-.06-.34-.15-.07-.1.08-.33 0-.44-.07-.11-.22-.2-.36-.37-.15-.17-.24.06-.37 0-.13-.05-.16-.4-.51-.44-.35-.04-.28.6-.33.77-.06.17 0 .07.14.33.15.26.3.26.4.48.12.22-.05.37-.18.7s.02.29.15.47c.13.19.31.17.52.04zm12-5c.11-.23.15-.1.37-.21.22-.11 0-.19 0-.33 0-.15.18-.2.07-.52-.11-.3-.31.13-.59-.03-.27-.17-.16-.24-.22-.56-.05-.3-.35-.23-.7-.33-.34-.09-.55.02-.77.19s-.07.1 0 .33-.14.13-.18.33c-.04.2 0 .1.33.33.33.24.7.26 1.06.92.37.66.52.13.63-.11zm5.62 1.59c.02-.22.09-.3 0-.52-.1-.22-.15-.46-.37-.66s-1.34-.8-1.25-.33c.1.48.11.72.11 1.03 0 .31.02.18.22.51.2.34-.03.56.44.48.48-.07.35.17.55-.1.2-.28.28-.2.3-.41zm1.72 6.24c-.13-.28-.22-.26-.44-.22-.22.03-.16.05-.37.66-.2.6-.03.27-.18.62s0 .13.07.22c.08.1.02.06 0 .22-.01.17-.1.13-.07.37.04.24.07.06.33-.11l.48-.3c.42-.25.1-.01.33-.87.22-.87-.02-.32-.15-.6zm-4.8 6.29c-.23-.04-.49-.2-.29.18.2.39.24.48.4.63.17.14.28-.02.19-.37-.1-.35-.06-.4-.3-.44zm2.93-3.87c-.11.2-.37.35-.11.48s.33.13.52.04c.18-.1.29-.06.25-.33-.04-.28-.55-.4-.66-.19zM9.35 20.27c-.22-.24-.14-.2-.44-.55s-.38-.62-.55-1c-.16-.36-.18-.1-.22-.58-.03-.47-.16-.58-.33-.51-.16.07-.38.05-.48.37-.09.3 0 .45-.22.55-.22.09-.25-.06-.33.36-.07.43 0 .43.22.66.22.24.2.57.4.74.2.16.74.07.96.1.22.05.39.25.59.23.2-.02.62-.13.4-.37zm4.04 5.07c-.16-.26-.35-.22-.58-.19-.24.04-.22.28-.3.7-.07.42.5.18.74.18s.1-.03.33-.29c.22-.26-.02-.15-.19-.4zm-4.37-1.32c-.46.22.46.58.66.58s.04-.02.15-.18c.11-.17.11-.18-.07-.59-.19-.4-.28-.03-.74.19zM20.18 8c-.36-.5-.33-.1-.51.1-.18.21-.28.23-.51.23s-.24-.07-.4.1c-.17.2.03.14.29.45.25.31.73.2.84.26s.18.05.4.1c.22.06.2.04.44 0 .24-.03.02-.1-.03-.29s-.15-.46-.52-.95z" clip-rule="evenodd"/><path fill="#AA998D" fill-rule="evenodd" d="M18.45 6.78c-.13-.14-.16-.32-.25-.39-.1-.07-.36.02-.46.15-.11.12-.04.12-.22.31-.18.2-.5.02-.5.11l.43.18c.1.05.1.05.14.14.04.09-.03.16-.03.25s.07.18.07.18.07.03.14.14c.07.1.05.1.07.21.02.1-.03.13.1.21.15.1.17.04.36.11.2.07.29-.2.4-.43.1-.23.17-.7.17-.7l-.03-.15s-.27-.17-.4-.32zM20.6 8c-.1-.14-.16 0-.15.18.02.18-.14.35-.35.43-.21.07-.23-.2-.4-.36-.15-.16-.11-.05-.17.07-.05.13-.1.16-.14.36-.04.19.96.72 1.14.67.17-.05.2-.23.39-.46.17-.23.07-.23.03-.4-.03-.15-.27-.35-.35-.49zm3.1.04c-.16.01-.41.24-.57.46-.16.21-.2.32-.32.42-.12.11-.2.07-.21.36-.02.28 0 .51.03.64.04.12.15.3.25.14.1-.16.21-.21.21-.21s.11-.07.18-.04c.07.04.13.1.25.1s.25.15.25-.1-.02-.57.07-.85c.09-.28.27-.44.18-.68-.09-.23-.16-.26-.32-.24zM7.5 11.47c0-.1 0-.14.07-.25.08-.1.02-.18-.07-.21-.08-.04-.1-.04-.24-.04-.15 0-.16-.03-.29-.14-.12-.1-.12-.2-.35-.46-.23-.27-.43.39-.43.53s.34.27.46.35c.12.1.1.17.1.29 0 .12-.3.55-.35.74-.05.2-.1.18 0 .32.1.15.1.22.22.25.12.04.08.07.28-.07s.52-.48.67-.64c.16-.16.08-.32.04-.42-.04-.11-.1-.15-.1-.25zm12.73 13.22c-.14-.2-.21-.09-.29-.04-.06.06.08.1-.03.25-.1.16.03.22-.21.36-.25.14-.29.16-.29.28 0 .13-.02.3 0 .36.02.05.25-.07.32-.11s.05-.05.15 0c.08.05.19.07.24-.07l.1-.25c.06-.09.08.1.22-.1.15-.22.36-.13.1-.36-.24-.23-.17-.13-.31-.32zm6.37-7.4c-.2-.5-.1-.09-.32-.04-.23.06-.25.3-.4.57-.13.27-.5.07-.63.32s.23.28.28.5c.06.21-.08.23-.21.46s-.04.18.1.28c.15.11.04.04.15.18.1.14.09.13.39.07.3-.05.4-.39.75-1.06.35-.68.08-.78-.11-1.28zm-18.07 2.7c-.02.1.07.39.25.28.18-.1.12-.18.32-.14.2.03.34.1.53.18.2.07.29 0 .1-.18-.17-.18-.28-.21-.38-.53-.1-.32.02-.3-.1-.64-.13-.34-.26-.36-.4-.5s-.27-.13-.32.07c-.05.2-.09.37-.25.57-.16.2-.37.2-.25.39.13.2.16.3.32.32.17.02.2.07.18.18zm.89 3.55c-.34-.34-.09-.3-.28-.54-.2-.23-.16-.03-.64.22s1.1 1.3 1.28 1.35c.17.05.1 0 .2-.22.11-.2 0-.12-.06-.35s-.16-.13-.5-.46zm3.51 1.8c-.32-.15-.2-.05-.6.25-.4.3.62.34.92.43.3.09.1.02.07-.25-.02-.26-.07-.26-.39-.42zm9.36-3.75c-.15-.08-.1.02-.27-.03-.16-.05-.05-.15-.24-.03s-.04.14 0 .24c.04.11.03.02.08.16.06.15.02.06-.05.24-.07.2-.12.03-.27.14-.15.1.02.1.14.21.12.12.03.06.42-.35.4-.4.12-.12.32-.37s.02-.13-.13-.21z" clip-rule="evenodd"/><path fill="#232323" fill-rule="evenodd" d="M16.1.6a15.39 15.39 0 1 0 0 30.78 15.39 15.39 0 0 0 0-30.77zm.16 26.01a10.52 10.52 0 1 1 0-21.04 10.52 10.52 0 0 1 0 21.04z" clip-rule="evenodd"/><path fill="#F4DA6E" fill-rule="evenodd" d="M18.47 18.95a.87.87 0 0 1-.31-.06l-.06-.02c-.52-.2-.78-.3-.78-.45 0-.09.14-.2 1.14-.9l.64-.46c.2-.18.42-.3.7-.37.21-.06.75-.18 1-.18.08 0 .16.01.2.07.06.12.08.22.08.22v.04a6.04 6.04 0 0 1-.61 1.34c-.2.17-.7.56-1.1.6a2.1 2.1 0 0 0-.4.08c-.16.04-.33.09-.5.09zm-5-.02c-.18 0-.3-.01-.39-.04-.21-.06-.88-.27-1.12-.61-.08-.12-.2-.26-.32-.4-.2-.23-.4-.46-.46-.62-.1-.28 0-.5 0-.5v-.01h.01c.11-.16.35-.19.56-.2h.08c.25 0 .73.05.99.28.27.25.93.72 1.14.84.03.02.75.42.85.5.09.07.08.12.05.2l-.03.07c-.06.16-.32.46-.54.46h-.24c-.17.02-.38.03-.57.03z" clip-rule="evenodd"/><path fill="#D6D6D6" fill-rule="evenodd" d="m22.64 13.03-.46-2.36c-.71-1.78-3.91-3.58-6.35-3.58h-.08l-1.31.31c-1.47.57-3.5 1.52-4.32 3.15l-.19 1-.35 1.67c.06.47.29 1.02.5 1.56.23.56.44 1.1.44 1.47v.02l-.23.42.15 1.48-.38.77c.15.3.3.4.52.54l.26.18.21.17c.5.38.8.61 1.2.61.3 0 .67-.14 1.28-.47l.06-.03.08.15v.02c-.03.4-.2.76-.4 1.15-.31.61-.63 1.24-.31 2.04l.13.11c.08.07.15.12.23.26l.4-.24.2.6a.3.3 0 0 0 .12.03c.05 0 .1-.03.18-.09l.1-.07.04.07c.18.34 1 .6 1.93.6.85 0 1.47-.24 1.57-.59l.02-.08.34.17.01-.01c.15-.1.23-.26.25-.5v-.04l.15-.07.3.22a1 1 0 0 0 .07-.1c.06-.1.11-.18.3-.25.1-.64.03-1.4-.2-1.94-.05-.14-.12-.26-.2-.38-.14-.25-.3-.5-.3-.93v-.1l1.1.46c.07.02.16.03.24.03.94 0 2.01-1.06 2.27-1.56-.4-.72-.37-.99-.25-1.85l.02-.15c.02-.16-.05-.26-.12-.36-.05-.06-.1-.12-.1-.2l-.01-.01.47-1.58.15-.4c.17-.38.35-.81.27-1.32zm-7.87 5.29c-.05.13-.3.41-.48.41-.19 0-.93.08-1.18 0-.25-.08-.86-.28-1.08-.59-.23-.31-.69-.76-.78-1-.1-.26 0-.46 0-.46.1-.12.31-.15.51-.17.2-.01.75.04 1.02.28a11.17 11.17 0 0 0 2 1.34c.07.06.04.06 0 .19zm5.66-.29c-.18.16-.68.55-1.07.58-.38.03-.76.28-1.17.12-.4-.15-.8-.3-.8-.41 0-.12 1.52-1.11 1.76-1.31.23-.2.45-.3.68-.36.23-.06 1.05-.25 1.12-.14.06.11.07.2.07.2s-.4 1.16-.59 1.32z" clip-rule="evenodd"/><path fill="#282621" d="M16.27 24.83c-.75 0-1.64-.18-2.03-.57-.38.21-.64-.1-.68-.43l-.32.07c-.32-.04-.3-.24-.5-.42-.52-1.23.31-2 .6-3.12-.68.35-1.3.49-1.98.03-.53-.36-1.33-.8-1.6-1.41v-.09l.4-.8c-.08-.69-.28-1.3.09-1.91-.06-1.02-.88-1.54-.93-2.78-.05-.94.35-2 .53-2.9.96-1.98 3.78-3.53 5.97-3.67 2.57 0 5.85 1.86 6.6 3.76.16.79.48 1.74.55 2.54.15.97-.68 2.25-.96 3.21.04-.07.23.54.22.6-.1.72-.15 1.26.24 1.9v.1a3.6 3.6 0 0 1-1.8 1.62c-.68.28-1.16.09-1.78-.17.15.51.5.9.62 1.45.11.53.12 1.09.03 1.63-.2.1-.42.28-.53.5h-.14l-.19-.13a.88.88 0 0 1-.35.48l-.14.04-.2-.1c-.25.36-.86.57-1.72.57zm-1.9-.88c.4.74 3.19.95 3.44.02l.04-.12.36.19a.69.69 0 0 0 .23-.54l.18-.09.28.22c.11-.15.17-.26.36-.33.1-.68.05-1.49-.3-2.1-.22-.43-.43-.78-.41-1.29.41.18.92.52 1.38.52.85 0 1.9-.82 2.25-1.57-.42-.65-.35-1.23-.24-1.96.03-.24-.18-.33-.23-.54.25-.97 1.04-2.37.89-3.32-.06-.79-.32-1.6-.47-2.37-.7-1.75-3.88-3.54-6.31-3.54-2.11.45-4.66 1.38-5.68 3.45-.17.89-.35 1.77-.54 2.66.14 1.03.95 1.97.94 3.01l-.25.48.17 1.42-.4.83a5.32 5.32 0 0 0 1.74 1.33c.6.28 1.28-.13 1.8-.42l.1.22c-.08 1.15-1.22 1.97-.72 3.19.13.08.26.2.34.33l.4-.25.24.66c0-.03.26-.11.33-.16l.09.07z" opacity=".7"/><path fill="#282828" fill-rule="evenodd" d="M15.73 7.03c2.57-.05 5.8 1.85 6.5 3.62l.47 2.37c.1.7-.28 1.28-.43 1.75l-.47 1.56c.05.17.28.28.23.58-.13.99-.2 1.22.24 1.99-.27.56-1.58 1.83-2.61 1.6l-1.01-.44c0 .61.33.86.5 1.29a4 4 0 0 1 .2 2.02c-.31.1-.25.19-.43.4l-.31-.24-.08.04c-.02.25-.1.44-.27.54l-.04.04-.31-.15c-.26.92-3.22.76-3.62 0-.18.11-.23.17-.43.07l-.2-.54-.38.23c-.13-.25-.21-.25-.4-.43-.54-1.32.64-2.22.7-3.23l-.03-.07c-1.48.8-1.66.52-2.77-.32-.37-.28-.6-.32-.81-.77l.39-.78-.16-1.48.23-.43c.01-.72-.81-2.05-.93-3.03l.35-1.68.2-1.01c.77-1.58 2.66-2.53 4.35-3.2l1.33-.3zm.12.23-1.44.35c-1.9.69-3.35 1.61-4.09 3.46-.27.69-.7 1.8-.35 2.73l.74 2.1.08-.04a5.92 5.92 0 0 0-.12-2.96l.16.12c.23.61.47 2 .15 2.8l-.5.94.11 1.48c-.06.32-.27.53-.27.81.17.18.3.36.58.43v-.04l-.2-.5.16.08c1 2.6 1.75.38 3.66.7l.12.15c.1.3-.05.63-.27.74.12-.23.24-.43.11-.7-.16.08-.44.12-.54.27-.34.6-.69 1.13-.86 1.87.21.1.18.29.27.5h.2l.12.36.07-.04.2-.27.2.03c.1.16.17.24.22.47l.08-.04.2-.27.2.04c.12.18.2.38.34.58h.04c.05-.21.14-.26.27-.39.36 0 .44.06.63.2.12-.13.36-.28.62-.16.17.1.2.21.31.35h.04c.04-.35.19-.44.39-.62l.15.08.24.23c.04-.28.14-.39.35-.5.18.09.21.19.35.3l.15-.38.2.08c0-.34.1-.44.23-.63-.38-.6-.47-1.38-.93-1.9l-.47-.16c-.06.1-.07.13-.08.31l.16.4c-.05-.05-.1-.09-.16-.12a1.5 1.5 0 0 1-.08-.74l.08-.04c2.1-.37 2.52 2.07 3.78-.82h.04l-.16.58a.95.95 0 0 0 .58-.46l-.27-.74.12-1.52-.47-.82c-.3-.64-.29-2.57.24-3-.22.68-.56 2.33 0 2.96h.03l.82-2.57c.13-.66-.14-1.2-.27-1.63-.92-2.94-3.07-3.88-6.26-4.44zm3.26 15.96-.03-.66c.15.12.17.45.2.7l-.17-.04zm-.46.23c-.04-.21.06-.46.12-.7.2.2.19.47.15.82l-.27-.12zm-.43.55c-.21-.42-.33-.77-.08-1.21h.12c.19.32.13.7.08 1.13l-.12.08zm-.66.27-.2-.04a2.72 2.72 0 0 1-.11-.97l.23-.28h.12c.1.25.32.73.15 1.1-.06.1-.1.11-.2.19zm-.55.15-.77.12c-.16-.33-.08-.85 0-1.2l.27-.16.2.04c.15.23.52.67.34 1.09l-.04.11zm-1.75.04-.11-.11c0-.61.18-.84.42-1.17l.36.08c.14.26.1.74.15 1.16v.04c-.25.12-.49.03-.82 0zm-.54-.2-.24-.1c-.09-.46.01-.88.16-1.18h.12c.3.42.22.7.11 1.25l-.15.04zm-.74-.26a1.61 1.61 0 0 1-.04-1.21l.2.04c.13.5.06.65-.08 1.13l-.08.04zm-.66-.43c-.04-.35-.02-.58.11-.82l.2.58c-.1.13-.14.19-.31.24zm-.35-.31.11-.7c.1.1.04.39.08.58l-.15.12h-.04zm2.68-4.13.35.04c.02.17.03.18.12.27l.15-.31c.28 0 .35.06.51.15.16.41.57 1.41.39 1.87l-.23.27c-.07 0-.13-.02-.2-.03l-.46-.94-.4.08c-.08.33-.24.75-.54.9l-.31-.24c-.02-.77.25-1.65.62-2.06zm-4.12-2.76c.39-.01.93-.06 1.2.07l1.29 1.13 1.55.82c-.43-.02-.58-.07-.78.2-.6.28-.82.7-1.78.7 0-.03.02-.06.03-.08.36-.04.7-.15.9-.35v-.04c-.74.02-1.47.06-1.95-.27l-.66-.7v.03c.17.44.42.69.59 1.06h-.04c-.44-.3-.73-.8-.86-1.4l-.04-.7c-.06-.11-.14-.05-.23-.04a.72.72 0 0 1-.04-.04v-.04l.82-.35zm-.04.27-.08.04c.18 1.13 2.17 2.85 3.23 1.56l-.04-.08-2.22-1.36-.9-.16zm8.2-.27c.87-.02 1.3.13 1.84.35v.08h-.27c.02.98-.3 1.8-.94 2.14.14-.36.4-.67.59-1.06a1.42 1.42 0 0 0-.04-.03c-.93.77-.89 1-2.61.97l.08.12.9.35c-.93.02-1.6-.42-2-.94l-.57.04.03-.08c1.28-.22 2.08-1.31 3-1.94zm1.02.27-.97.2-2.14 1.4c.62.8 2.33.14 2.72-.4l.5-1.16-.1-.04zm-3.38-3c0 .42-1 1.08-1.37 1.32l.16.2.58.55-.85-.63c-.3.2-.73.61-1.05.63l.81-.78-.74-.74.04-.04.82.66a4.47 4.47 0 0 0 1.6-1.17z" clip-rule="evenodd"/><path fill="#AA998D" fill-rule="evenodd" d="M16.2 31.53a15.59 15.59 0 1 1 0-31.17 15.59 15.59 0 0 1 0 31.17zm-.04-30.5a14.9 14.9 0 1 0 0 29.83 14.9 14.9 0 0 0 0-29.82zm.04 29.34c-7.9 0-14.32-6.54-14.32-14.43 0-7.9 6.25-14.47 14.32-14.47s14.23 6.58 14.23 14.48S24.1 30.37 16.2 30.37zm0-28.4c-7.72 0-13.9 6.26-13.9 13.97s6.18 13.97 13.9 13.97c7.7 0 13.73-6.25 13.73-13.97S23.91 1.98 16.2 1.98zm0 24.8a10.82 10.82 0 1 1 0-21.65 10.82 10.82 0 0 1 0 21.64zM16.16 5.6a10.35 10.35 0 1 0 0 20.7 10.35 10.35 0 0 0 0-20.7zm5.06-.45a.46.46 0 0 1-.58.3l-1.19-.39a.46.46 0 0 1-.3-.58l.33-1.03a.46.46 0 0 1 .58-.3l1.2.39c.24.08.37.34.3.58l-.34 1.03zm-1.3-1.65-.39 1.2 1.25.4.39-1.2-1.25-.4zm-3.01.72 1.4.16.04-.44-.66-.07a.37.37 0 0 1-.27-.17.42.42 0 0 1-.08-.21l1.47.17-.08.75a.46.46 0 0 1-.5.36L16.9 4.6a.46.46 0 0 1-.4-.5l.12-1.08a.46.46 0 0 1 .5-.4l1.34.15c.22.02.4.2.4.43l-1.81-.2-.14 1.2zm-1.78.42-1.27.15a.48.48 0 0 1-.52-.37l1.74-.2-.04-.36-1.27.15a.48.48 0 0 1-.52-.38l-.04-.3a.48.48 0 0 1 .42-.53l1.24-.14c.24-.03.47.13.52.37l-1.7.2.04.35 1.27-.15c.24-.03.47.13.52.37l.04.31c.03.26-.16.5-.43.53zm-2.52.44-1.14.4a.48.48 0 0 1-.62-.3l-.34-.98a.48.48 0 0 1 .3-.61l1.14-.4c.23-.08.49.02.6.24v.02L11.01 4l.37 1.04 1.55-.54v.02a.48.48 0 0 1-.3.57zm-1.34 23.18.68-1.71-.26-.1.07-.18 1.05.43c.37.14.62.34.74.6.12.25.12.55-.01.88-.14.33-.34.54-.6.64-.27.1-.59.07-.95-.07l-1.06-.42.07-.17.27.1zm.72.3c.21.08.4.07.55-.02.15-.1.3-.3.41-.6.12-.3.16-.53.11-.71-.04-.18-.17-.3-.38-.4l-.2-.07-.68 1.72.19.07zm1.96-1.5 1.13.1-.01.17-.29-.02-.07 1.1c-.03.28 0 .47.08.59.08.11.22.18.43.2.2.01.35-.04.44-.14.1-.1.15-.3.17-.57l.08-1.1-.28-.02.01-.18.77.06-.01.18-.28-.03-.08 1.14c-.03.33-.12.57-.27.7-.16.13-.41.19-.75.16-.35-.02-.59-.11-.72-.27-.14-.15-.2-.4-.17-.73l.08-1.13-.28-.02.02-.18zm4.1 1.5a.85.85 0 0 0-.35-.1l-.34-.03a.9.9 0 0 1-.48-.17c-.1-.08-.17-.21-.19-.4a.65.65 0 0 1 .15-.53.94.94 0 0 1 .58-.26 2.64 2.64 0 0 1 .85.02l.06.48-.18.03a.5.5 0 0 0-.23-.31.69.69 0 0 0-.43-.05.58.58 0 0 0-.31.12.26.26 0 0 0-.09.24c.02.09.05.15.1.2.07.03.2.07.4.1l.34.03c.21.02.37.08.48.18.1.1.17.24.2.42.02.23-.03.4-.17.54-.14.13-.35.22-.65.26a2.32 2.32 0 0 1-.88-.03l-.06-.52.18-.03c.05.16.14.28.25.34a.7.7 0 0 0 .46.07.58.58 0 0 0 .33-.14.3.3 0 0 0 .09-.27c-.01-.08-.05-.15-.1-.19zm2.8-1.8-.19.06-.12-.32-.57.2.62 1.72.28-.1.06.17-1.1.4-.06-.17.28-.1-.62-1.72-.57.2.12.33-.19.07-.19-.52 2.06-.74.19.52z" clip-rule="evenodd"/><path fill="#5B4D35" d="M16.12 30.96C7.87 30.96 1.16 24.25 1.16 16S7.87 1.04 16.12 1.04 31.08 7.75 31.08 16s-6.71 14.96-14.96 14.96zm0-29.82C7.92 1.14 1.26 7.81 1.26 16s6.67 14.86 14.86 14.86S30.98 24.19 30.98 16 24.3 1.14 16.12 1.14zm.04 29.34c-3.82 0-7.43-1.52-10.16-4.28a14.54 14.54 0 0 1-.07-20.45 14.19 14.19 0 0 1 10.23-4.28c3.88 0 7.5 1.52 10.18 4.3A14.63 14.63 0 0 1 30.44 16a14.4 14.4 0 0 1-14.28 14.48zm0-28.91A14.37 14.37 0 0 0 1.88 15.99c0 7.93 6.4 14.39 14.28 14.39A14.3 14.3 0 0 0 30.34 16c0-8.1-6.23-14.43-14.18-14.43zm0 28.44A13.97 13.97 0 0 1 2.21 16 13.97 13.97 0 0 1 16.14 2a13.6 13.6 0 0 1 9.8 4.1c2.58 2.63 4 6.15 4 9.9s-1.42 7.29-4 9.92a13.6 13.6 0 0 1-9.8 4.1zm0-27.93A13.9 13.9 0 0 0 2.3 16 13.9 13.9 0 0 0 16.15 29.9c7.68 0 13.7-6.1 13.7-13.91S23.82 2.08 16.14 2.08zm0 24.59a10.68 10.68 0 0 1 0-21.34 10.68 10.68 0 0 1 0 21.34zm0-21.21a10.55 10.55 0 0 0 0 21.08 10.55 10.55 0 0 0 0-21.08z"/></svg>