<svg xmlns="http://www.w3.org/2000/svg" xml:space="preserve" viewBox="0 0 32 32"><path fill="#B62025" fill-rule="evenodd" d="M28.33 1.02H3.85l.28 19.66v.31c0 5.59 5.45 9.98 12.19 9.98 6.53 0 11.86-4.12 12.18-9.47h.03l-.2-20.48z" clip-rule="evenodd"/><g fill="#010101"><path d="M6.53 9.68 4 11.49v.46l2.46-1.77.07-.5zM6.68 15.19l-2.6 1.87v.45l2.58-1.85.02-.47zM6.56 12.46l-2.52 1.82v.45l2.47-1.78.05-.49zM7.17 17.64l-3.05 2.2v.46l3.17-2.28-.12-.38zM10.2 24.51l-2.17 3.82.3.22 2.13-3.72-.25-.32zM9.59 23.8l-.2-.34-3.05 3.3.25.28 3-3.24zM7.98 19.87l-3.71 2.68.09.4 3.66-2.64-.04-.44zM10.61 26.78l-.58 2.77.35.17.59-2.82-.36-.12zM8.63 22.2l-.11-.4-3.48 3.01c.05.12.12.23.18.34l3.4-2.95zM7.71 8.81l10.84-7.79h-.64L7.5 8.51zM6.38 6.96l8.26-5.94-.63-.01-7.85 5.65zM9.05 10.67l13.4-9.65h-.64L8.83 10.36zM8.41 5.51l-4.45 3.2v.46l4.67-3.36zM10.38 12.52l15.97-11.5h-.64L10.16 12.21zM7.01 1.01 3.88 3.27l.01.45 3.76-2.71zM10.91 1.01 3.92 6.05l.01.45 7.62-5.49zM23.21 18.8l5.26-3.16v-.43l-5.38 3.23.12.37zM22.39 17.65l6.05-4.8v-.47l-6.22 4.93.17.34zM23.56 20.05l4.93-1.82v-.4l-5.06 1.87.13.35zM17.89 18.15l10.53-7.58-.01-.46-10.74 7.74zM16.55 16.3l11.84-8.52v-.46l-12.05 8.67zM12.5 27.38l-.18 3.04.37.1.17-2.98-.36-.16zM13.67 12.29l.22.3 14.45-10.4-.01-.45zM15.22 14.45l13.14-9.47v-.45L15 14.14zM23.84 21.44l4.68-.97v-.38l-4.72.98.04.37zM24.74 22.67l3.53.35.08-.37-3.5-.34-.11.36zM18.72 28.22l1.17 2.32.36-.1-1.17-2.32-.36.1zM16.64 27.7l.85 3.22c.13 0 .25-.02.38-.04L17 27.64l-.37.07zM14.39 27.78l.4 3.1.39.04-.41-3.13-.38-.01zM20.51 28.1l1.46 1.75.36-.16-1.5-1.8-.32.21zM23.99 24.34l3.44.8.18-.34-3.46-.8-.16.34zM21.89 27.25l2.24 1.43.33-.23-2.34-1.49-.23.3zM22.94 25.78l3.04 1.33.26-.29-3.15-1.39-.15.35z"/></g><path fill="#18224E" fill-rule="evenodd" d="M27.13 2.25H5.06l.26 18.05v.29c0 5.12 4.92 9.15 10.99 9.15 5.89 0 10.7-3.78 10.98-8.7h.02l-.18-18.79z" clip-rule="evenodd"/><path fill="#0C1118" fill-rule="evenodd" d="m27.04 6.4-.08-4.22h-.74L16 12.44 5.75 2.16h-.67l.09 4.45 8.33 8.33-7.78 7.82c.21 1.19 1 1.93 1.74 3.19L16 17.44l8.74 8.75c.54-.66 1.75-1.57 1.92-3.04-3.57-3.56-8.16-8.2-8.16-8.2l8.54-8.55z" clip-rule="evenodd"/><path fill="#0C1529" fill-rule="evenodd" d="M26.96 2.21H5.09l.26 17.93v.29c0 5.09 4.87 9.09 10.88 9.09 5.84 0 10.6-3.75 10.88-8.63h.02L26.96 2.2zM16.23 29.15c-5.84 0-10.57-4.03-10.57-8.9v-.28L5.43 2.54l21.21.01.17 18.24c-.28 4.68-4.91 8.36-10.57 8.36z" clip-rule="evenodd"/><path fill="#EFE4B1" fill-rule="evenodd" d="M27.13 2 4.92 1.97l.26 18.23-.01.3c0 5.17 4.95 9.23 11.06 9.23 5.93 0 10.8-3.78 11.08-8.74v-.03l-.18-18.98zm-10.9 27.36c-5.93 0-10.74-4.09-10.74-9.04v-.29l-.24-17.7H26.8l.17 18.54c-.28 4.75-4.99 8.5-10.74 8.5z" clip-rule="evenodd"/><path fill="#EFE4B1" fill-rule="evenodd" d="M28.59.7H3.55l.29 20.14v.32c0 5.72 5.58 10.21 12.46 10.21 6.68 0 12.17-4.18 12.5-9.66v-.03L28.58.7zM16.3 30.96c-6.68 0-12.1-4.52-12.1-10v-.31L3.92 1.07l24.3.01.19 20.5c-.32 5.25-5.63 9.38-12.1 9.38z" clip-rule="evenodd"/><path fill="#E2CCA8" d="M24.62 15.82c-.1-.13-.23-.01-.22-.32.02-.3.24-1.15.26-1.5a2.3 2.3 0 0 0-.2-.99c-.15-.46-.47-.5-.73-.7-.27-.19-1.3.31-1.3.31l-1.82 1s-.07-.12.03-.27c.1-.16.09-.4.15-.55s-.1-.46-.2-.54c-.08-.07-.69-.24-.8-.3s0 0-.01 0h-.02s-.05-.1-.05-.3c0-.19.4-.53.4-.53l.55-.2-.36.64.26.4s.24.08.38.1c.13.02.46-.2.46-.2l.19-.22.3-.76-.06-.05.1-.09s-.36-.4-.7-.42c-.35-.02-1.17.1-1.36.3-.2.22-.47.39-.47.66 0 .08-.08.16-.06.27l.08.42-.3.1c-.11.03-.22.07-.27.13-.12.13-.12-.1-.12-.1l-.14-.05.01-.22c.06-.16.12-.4.1-.57-.04-.3-.08-.75-.16-.84-.07-.1-.26-.2-.4-.31l-.24-.08c-.03-.02-.07 0-.1 0a.98.98 0 0 0-.42-.03h-.1c-.27 0-.62.17-.7.22l-.03-.13c-.03-.2-.09-.58-.17-.73l-.1-.14-.21-.38-.06.06-.01-.02-.06.1c-.09.1-.2.22-.25.34-.12.2-.2.94-.2.94s-.39-.2-.7-.2c-.3 0-.58-.02-.73.09-.15.1-.27.17-.35.27-.04.05-.12.22-.18.41-.12.24-.18.51-.12.76.13.6.04.53.04.53l-.03.04h-.07v.08l-.05.08-.15-.08-.15-.09-.22-.12-.1-.54-.01-.04v-.17c0-.16-.1-.26-.24-.35a.44.44 0 0 0-.1-.1c-.03 0-.06-.03-.09-.05a.89.89 0 0 1-.08-.08c-.07-.07-.2-.12-.34-.15-.15-.07-.3-.11-.45-.11-.32 0-.8.11-.8.11l-.4.38.3.75.18.4s.34.12.47.1c.14-.02.5-.22.5-.22l.2-.35-.39-.54.54.17s.38.27.38.46a.9.9 0 0 1-.02.2h-.05l.04.05c-.01.03.03.13.03.13s-.75.25-.84.33-.29.27-.23.42c.06.15.04.4.14.55.1.16-.08.22-.08.22l-1.74-.88s-.89-.46-1.16-.27c-.27.19-.6.15-.75.61-.15.46-.3.63-.28.98.01.34.23 1.19.24 1.5s-.11.22-.2.36-.14.46-.06.61c.07.15.07.42.28.65.21.23.83.85 1 1.02.17.17 1.2 1.67 1.36 2.32.15.65.04 1.57.04 1.57l.14-.22v.55s.09.92.28 1.13c.2.2.46.74.65.92.2.17.4.28.48.44.08.15.1.44.04.51-.06.08-.15-.13-.15-.13s-.03-.26-.12-.26c-.1 0-.16-.02-.3.03-.14.06-.27.18-.23.42.03.2.05.3.15.38.1.08.47.32.56.27s.34.02.4-.05c.06-.08.19-.3.27-.48.07-.2.28-.54.28-.54l.74-.03s-.2.32-.2.5.17.57.29.62c.11.06.36.17.5.16.13-.02.55-.1.65-.18.1-.07.38-.19.42-.4.04-.21.32-.5.32-.5s.16.32.32.33c.05.01.32.01.37.03-.16.22-.02.69.08.58l.04.04c.1.11.15.18.32.04.16-.14.24-.29.22-.42-.02-.12-.14-.2-.17-.27.07-.03.17.03.24.02.25-.02.33-.35.33-.35s.11.25.15.46c.04.2.33.3.42.38s.55.15.68.16c.14.02.36-.07.47-.12.12-.06.29-.42.29-.62s-.25-.65-.25-.65l.82.13s.09.36.17.55c.07.2.17.26.23.33s.33.2.56.13c.1-.03.39-.13.48-.2.1-.08.19-.28.22-.5.02-.2-.11-.32-.25-.37-.15-.06-.22.07-.3.07-.1 0-.13.27-.13.27s-.1.2-.15.13-.12-.42-.05-.57.38-.29.57-.46c.19-.17.46-.64.65-.85.19-.2.29-1.13.29-1.13l-.01-.54.14.21s-.07-.9.08-1.55 1.14-2.24 1.3-2.4.77-.74.98-.97.2-.5.28-.65c.08-.15.08-.5-.01-.64zm-8.08-4.86s.8-.12.88-.12.08.04.2.1c.12.06.14.28.17.47.04.18 0 .31-.05.43-.04.12-.66.4-.65.34a.97.97 0 0 0-.08-.42c-.06-.13-.16-.14-.24-.16s-.36.08-.36.08l.13-.72zm-2.1.23s.16-.23.22-.26c.07-.02.5.16.62.1.11-.05.23-.06.23-.06l.09.7s-.3-.02-.37.02-.2.18-.21.2c-.02.03-.02.38-.02.38l-.6-.29s-.06-.32-.06-.42.1-.37.1-.37zm-3.86 7.22c-.07-.2-.62-1.5-.62-1.5l-.19-.17-.25-.05-.22.08-.27.26-.18.28-.22-.2-.25-.48.28-.2c.06-.03.04-.07.04-.26 0-.2-.07-.04-.2-.17-.12-.12-.22-.15-.22-.15s0-.28.14-.23c.19.06.6.01.81-.03a.8.8 0 0 0 .45-.24s.41.58.73.8c.21.14.46.19.46.19l.09 2.1s-.01.46-.12.44c-.1-.03-.2-.27-.26-.47zm.2 3.52c0-.2.1-.32.23-.45.12-.14.42-.17.43-.18.03 0 .11.07.16.1.04.02.2.33.2.4 0 0-.85.51-.91.52-.06 0-.12-.19-.12-.4zm5.25 3.58a.7.7 0 0 0 .05-.5c-.07-.2.12-.02.23-.04s-.01.14 0 .27.08.29.08.29l-.36-.02zm5.24-3.67c-.02.17-.04.26-.1.28-.04.02-.18-.17-.41-.27a4.98 4.98 0 0 1-.46-.2c-.04-.05-.02-.06.14-.3.17-.22.3-.07.33-.07.04 0 .28-.2.37.06.1.27.16.34.13.5zm2.47-6.1s-.34.05-.36.12c-.03.08-.08.2-.05.25.02.04.11.21.2.23a.3.3 0 0 1 .16.07l-.22.44s-.14.25-.2.25-.25-.27-.29-.34c-.03-.08-.17-.22-.29-.23-.11-.01-.1-.04-.24-.01-.13.02-.25.27-.35.36-.11.08-.37.73-.46.95-.09.22-.24.7-.35.8-.07.07-.12 0-.15-.05l-.03.43c-.05.18-.28.63-.41.7-.13.07-.25.57-.36.66-.11.1-.07.48-.05.66.02.17-.23.39-.28.5-.05.1-.2.1-.31.16-.11.06-.12.38-.14.44-.02.06.05.23.1.3 0 .04.27.23.55.1.2-.1.09-.42.2-.36.76.39.63 1.02.57 1.08-.04.04-.54-.26-.78-.12-.16.1-.31.44.2.75.07.04-.24.28-.32.25-.41-.16-.71-.31-1.15-.33-.34-.02-.73-.06-.8-.01-.2.13-.04-.18-.04-.18s-.02-.24-.3-.28c-.3-.05-.6.3-.6.3s-.24-.27-.45-.3c-.21-.04-.46.26-.46.26l-.08.23-.01-.21s-.21-.38-.42-.34c-.21.04-.4.36-.4.36s-.16-.3-.45-.33c-.55-.04-.4.63-.4.63s-.2-.02-.44-.06c-1.26-.24-1.98.48-2.12.38-.04-.03-.38-.3-.28-.31.52-.1.38-.37.37-.53-.02-.16-.3-.18-.37-.22-.05-.04-.36.28-.53.2-.16-.06-.2-.63.43-1.02.16-.1.4.33.43.33.25-.03.36-.14.4-.22.04-.08.12-.25.1-.3-.02-.06-.04-.2-.15-.26-.12-.05-.29-.13-.34-.24-.05-.1-.27-.55-.25-.72.02-.17.22-.4.1-.5-.1-.09-.38-.48-.51-.55s-.23-.02-.28-.2c-.05-.18-.2-4.48-.2-4.48s.06-.96.14-.93 1.37.42 1.57.4c.19-.02.95-.38 1.09-.58.13-.19.32-.57.44-.67.11-.1.27.1.46.08a.79.79 0 0 0 .38-.19c-.02.01-.03.05.16.1l.07.05c.05.04.1.03.16 0l.17.06.44.04.13-.06.02.01.43-.04.06-.02c.1.05.19.12.28.06l.21-.2.02-.01.02-.02c.05.05.2.16.36.17.19.02.34-.17.46-.07.11.1.3.48.44.67.13.19.97.36 1.16.38s1.5-.37 1.57-.4c.07-.03.15 1.11.15 1.11l-.04 1.42.02-.42s.5-.13.65-.26c.15-.12.48-.65.48-.65s1 .26 1.33.2c.33-.04.03.28.03.28z"/><path fill="#194795" fill-rule="evenodd" d="m21.11 14.1-.67.23c-.14.04-.88.12-1.02.12s-.94-.26-.98-.32l-.4-.77-.2-.13-.45-.18-.2.14s-.18.35-.32.35-.38-.08-.38-.08-.12.12-.18.1-.4-.02-.5 0c-.21.03-.3-.12-.3-.12h-.4c-.08 0-.32-.2-.32-.2s-.74.2-.82.37c-.07.18-.45.68-.45.68s-.56.34-.78.36c-.58.04-1.73-.35-1.73-.35l-.04.07-.07 2.13c0 .21.04 2.73.11 2.94l.09.31s.2.1.25.16c.06.05.25.31.25.31s.27.18.27.25l-.01.41-.24.31.34.15v.39h.2s.37.3.39.36c.02.06-.06.34-.06.34l-.1.14s.22.08.32.18l.95.85.64.27s.3.08.32.12c.04.05-.1-.23-.1-.36.01-.13.15-.28.15-.28s.25-.1.31-.02c.07.1.38.3.38.3s.14-.33.3-.34.3.04.3.04l.15.15.13.14s.22-.35.35-.33c.13.02.34.12.34.12l.18.27.04.14.18-.36s.1-.16.3-.12c.18.03.33.15.33.15l.13.06 1.3-.92.17-.25s-.08-.4-.04-.5.21-.2.21-.2l.26-.18.3-.48s-.09-.25-.04-.5c.06-.24.4-.8.4-.8l.5-.74.03-3.11.05-.86-.12-.92z" clip-rule="evenodd"/><path fill="#B62025" fill-rule="evenodd" d="m21.05 14.1-.96.26s-.54.11-.9.06c-.37-.05-.78-.21-.81-.31l-.22-.92s-.4.1-.57.05c-.18-.05-.41-.22-.41-.22s0 .31-.09.36c-.08.05-.23.14-.31.1-.08-.03-.3-.03-.3-.03s-.2.17-.26.15h-.03v4.73h-5.25c0 .45 0 .85.02.92l.12.46s.21.03.28.13.13.32.23.38l.28.2-.07.5-.23.3.3.11.06.35h.09l.23.06.3.33v.24l-.16.23.45.37.8.64.52.26.36.12s-.1-.38.02-.53a.34.34 0 0 1 .38-.1l.42.28s.19-.28.32-.31c.13-.03.33.02.38.1l.14.24v-5.27h4.95v-1.12l.08-1.42v-1.07l-.16-.64z" clip-rule="evenodd"/><path fill="#6E563E" fill-rule="evenodd" d="M18.28 11.34c.14.1.1.09.07.26h-.07v-.26zm6.45 2.64c-.09.56-.18.97-.22 1.5h.04v-.07l.07-.22h.04c0 .56.12 1.17-.07 1.61-.26.6-.88.9-1.25 1.4l-1.03 1.68c-.35.7-.07 1.7-.29 2.24l-.07-.15c.03 1.4-.73 2.23-1.62 2.9l.08.3c.08-.02.04 0 .14-.04.05-.19.08-.2.19-.3l.33.04.22.22c.01.44-.15.71-.44.84-.14.1-.5.17-.7.08-.46-.18-.46-.57-.66-1-.19-.05-.3-.06-.59-.1l-.07.03c.2.28.27.56.22.92-.65.7-1.67.31-2.09-.33-.16.05-.26.1-.43.1.23.12.18.43.03.63a.71.71 0 0 1-.39.1c-.4-.14-.38-.3-.3-.76-.28.04-.38-.01-.56-.14l-.03-.1-.16.19c-.3.67-1.64 1.27-2.12.31.03-.31.1-.6.26-.84-.32-.01-.5.04-.7.1-.15.57-.27 1.07-.99 1.07-.46-.13-.78-.32-.77-.92.06-.12.07-.15.18-.22a.4.4 0 0 1 .4-.04c.1.11.18.22.26.33v-.07c.16-.22.01-.36-.1-.51-.8-.3-1.45-1.63-1.4-2.6l-.11.1.04-1.24A6.19 6.19 0 0 0 9 18.72c-.58-.85-2.2-1.65-1.54-3.35l.08.37h.03c-.02-.56-.11-.97-.22-1.5-.1-.49.16-1 .33-1.25 1.12-1.6 2.65.36 3.67.55-.6-1.25.5-1.1.95-1.54.07-.21-.07-.44-.18-.59l-.58-.28c.13.16.23.21.27.44v.02l.01.03v.08l-.02.1-.09.12c.02.02-.06.11-.07.15-.36.25-.7.26-1.06 0-.13-.5-.65-1.15-.48-1.24.89-.97 3-.26 2.68 1.2l.44.23.07-.04c.06-.1.06-.09.15-.15-.36-1.53.57-2.5 2.05-1.9.02-.62.21-1.04.52-1.4.38.27.48.82.58 1.36.51-.33 1.5-.26 1.83.14v.04h-.03l-.22-.1-.08-.04v.03h.08l.14.19h-.18c.17.06.2.11.26.29l-.33-.18c.15.2.35.4.25.66h-.03c-.06-.45-.33-.38-.55-.63l-.08.07v.04c.32.03.47.18.52.48h-.04v-.07c-.14-.13-.37-.45-.59-.26.14 0 .32.05.4.22.09.1.1.3.12.47h-.04c-.04-.31-.15-.45-.4-.55.11.11.15.24.22.44l.03-.18a.86.86 0 0 1-.1.66l-.67.48v.03h.04l.47-.25c-.09.17-.27.27-.47.33v.03c.3-.04.43-.15.62-.29l-.04.15-.5.29.65-.33c-.07.15-.14.2-.3.26v.03c1.05-.12 1.19-1.32.89-2.23.05.04.1.06.13.17.17.32.17 1.1-.01 1.5.15 0 .2.06.28.12l.44-.22c-.43-1.44 1.82-2.17 2.68-1.24-.05.77-.47 1.55-1.4 1.43l-.1-.16-.19-.17c-.03-.05-.04-.2-.03-.26l.03-.06v-.05c.08-.2.17-.26.3-.4-.47.12-.9.38-.81.95.38.03.66.17.91.33.12.34.2.77.04 1.14 1.01-.38 2.57-2.12 3.67-.63.18.25.41.7.33 1.18zM18 10.5l.04-.04-.23-.1-.03.06.22.08zm6.6 5.39-.15-.04.15.22v-.18zm-.37 1.2c.03 0 .05-.02.07-.03.04-.16 0-.3.04-.44l.11.18v-.07l-.04-.33h.04l.07.15v-.19c-.17-.42-.24-.61-.88-.58l-.25.14.07.33c.46.14.79.22.77.85zm-2.9-1.94c.47-.18.45-.6.74-.95l.03.18.04-.4h-.22c.04.52-.3.87-.59 1.17zm.08-1.06c-.05.08-.05.05-.08.18h.04v-.07c.05-.08.07-.02.04-.1zm-.11.66h.04v-.07c.14-.12.35-.47.29-.66-.13.28-.3.36-.33.73zm.1.7c.12-.13.67-.64.56-.8-.17.32-.44.46-.7.69l.04.14.1-.03zm-.1.22.14-.08c.27-.07.68-.44.55-.77-.16.39-.54.51-.7.85zm0-.66c.25-.07.65-.84.51-1-.12.4-.42.64-.51 1zm.3.77c.21-.09.64-.52.47-.73a.97.97 0 0 1-.77.7l.04.32h.1c.42-.16.79-.41.85-.92a5.07 5.07 0 0 1-.08-.03c-.07.36-.37.66-.7.77l.08-.11zm-.27.44-.1 2.45.07-.03c.11-.63.58-1.95 1.13-2.17.48.03.68.23.81.6l.11-.05.3-.62h-.08a.9.9 0 0 1-.3-.3l.08-.25.33-.14-.04-.23c-.5.08-.9-.03-1.28-.14-.19.5-.49.74-1.03.88zm2.17 1.17c.13-.07.2-.15.22-.22l-.22.22zm.25-.92c0 .04-.02.08-.03.11.05-.07.06-.02.03-.1zm-.07.52-.3.29c.14-.03.38-.2.3-.3zm-.26.1c.17-.06.3-.24.26-.4l-.37.48.11-.07zm.59-.14-.04.15c.06-.09.07-.05.04-.15zm-2.09 4.77c.04-.43-.25-.65-.21-.7.04-.1.14.18.17.06.03-.1-.19-.28-.14-.39.03-.07.15.18.18.15.04-.13-.15-.31-.1-.37.02-.05.12.15.14.11.04-.08-.13-.3-.08-.37h.04c.07.14.02.08.11.11.06-.47.36-.57.26-1.02.1.08.08.09.18.1l.04-.32.07.1.11-.21-.07-.22c.13.03.1.04.22.04v-.04l-.15-.18.04-.04.18.1-.04-.21.11.07-.03-.3h.03l.08.26v-.07c.07-.11.03-.21 0-.4h.03l.11.22.08-.04-.04-.4h.04c.06.13.05.01.22.14.05-.26.24-.19.44-.44h-.48c-.29-.17-.47-.6-.66-.87l-.33-.04-.15.1c.04.06.12.06.04.08l-.25.15h.47v.03l-.51.08v.03h.22l-.04.08a.42.42 0 0 0-.33.4c.08.01.49-.06.46.06-.29 0-.45.02-.53.16.05.05.15.03.11.11-.21.04-.18.06-.26.22.2.62-1.57 1.9-1.28 2.97l.07-.1c-.02-.11-.1-.07 0-.12.44-.25 1.32.51 1.4.92h.03zm-1.61-.08h.07c.35.13.58.27.8.48v-.07c.11-.23-.02-.54-.1-.7-.34.03-.45-.1-.74-.18l-.25.44h.1l.08-.04c.05-.19.06-.24.26-.3v.04l-.22.33zm.73-.4-.3-.3c.06.2.12.24.3.3zm.22.95.11.11h.04v-.14l-.07-.08c-.03.04-.09.05-.08.11zm.3.37.1-.07c.07-.33.17-.7-.03-.96.06.43.03.7-.08 1.03zm.03-.26c-.04-.23-.01-.58-.14-.8.03.3 0 .71.03.95l.11-.15zm.22.04-.22.3.15.21v-.07c.08-.1.14-.28.07-.44zm-.37.73-.1-.29v.33l.1-.04zm-.1.15v.11c0-.04.02-.07.03-.1h-.04zm.18 0-.19.3h-.03v-.15l-.04.1.07.12.08-.04.18-.26c.04-.85-.75-1.62-1.69-1.6l-.3.21v.3h.05a.62.62 0 0 1 .33-.26c.24.02.5.12.58.22l.11.14c.1-.01.57.27.59.3.17.13.25.32.26.62zm-1.4.3v-.04c-.01-.15.24-.23.19-.37l-.22.18c0 .24.03.33.14.44h.04v-.03c-.1-.2-.04-.34.3-.37v-.04c-.27-.06-.32.1-.45.22zm.4-.3v-.04l-.14-.07c.07.14-.02.06.15.11zm-.18.3.11-.08h-.07l-.04.07zm.11.1-.1.11.07.08c.08-.08.07-.05.1-.19h-.07zm-.1.26c-.2-.06-.27-.1-.34-.3-.08-.18 0-.31.08-.43l.29-.11.55.18.07-.07-.03-.33c-.1-.26-.33-.45-.55-.59-.05.21-.08.29-.26.37-.22.06-.32-.02-.51-.07-.42.56-1 .74-1.5 1.2.82-.02 1.4.12 1.94.37l.25-.18v-.04zm-.19-1.47v-.03l-.07-.26-.04.3-.1-.08c-.05-.04-.08.03-.23-.07-.01.06.02.17.1.21.1.06.26.03.34-.07zm.88.3.15.3v-.2l-.15-.1zm.04.55-.04.07.11.07.07-.14h-.14zm-.88 2.71c.7.05 1.25-.47.84-1.03a3.54 3.54 0 0 1-.1-.03c-.14.06-.19.03-.27.14a.57.57 0 0 0-.07.37c-.35.06-.37.23-.73.22.1.14.21.21.33.33zm-.4-.77.07-.04v-.25h.03c0 .28.05.43.11.62h.04a2.58 2.58 0 0 1-.04-.73h.04c0 .26.01.49.07.66h.15v-.04c-.12-.25-.23-.58 0-.8-.07.22-.07.43 0 .65h.04c-.03-.3 0-.46.14-.66.53-.2 1.16-.84.44-1.28h-.14c-.1.8-.99.78-1.07 1.61.09.12.1 0 .11.26zm0-.8h.03c-.05-.15-.04-.11-.15-.19l.11.18zm-.56-.19c.1.14.31.2.52.22l-.08-.11-.44-.11zm-.62 1.83h.04c.11-.09.15-.13.18-.33.1.1.02.05.11.08l-.04-.52c-.08-.22-.2-.4-.4-.47-.12 0-.24 0-.37.03-.1.1-.13.18-.14.3.15.17.19.27.51.29-.01.16-.03.38-.1.55l.28-.26-.07.33zm-.3-.36.04-.04v-.15l-.25-.07c.03.2.04.2.22.26zm-.54.44c.22.03.3.05.4-.11-.15.07-.24.07-.4 0v.1zm-.26-.19c-.1-.17-.22-.28-.26-.55.15.14.5.5.92.55-.14-.12-.26-.16-.37-.33.02 0 .03-.02.04-.03l.26.18c-.13-.27-.38-.8 0-.99.5-.13 1 .22 1.46.11l-.73-.3c.03 0 .05-.02.07-.03l.66.18.04-.07-.07-.07-.73-.18c.32-.06.6.08.88.18v-.04c-.17-.15-.99-.3-.88-.48l.58.11c-.06-.07 0-.02-.1-.07v-.04l.69.15v-.04c-.44-.32-1.16-.33-1.8-.36-.16.26-.22.43-.66.44l.08.47c-.18.2-.29.28-.6.26.15.38.14.73.52.95zm.33-2.45c-.12-.05-.3-.08-.4-.01-.12.13-.15.14-.18.37 0 .15.1.26.2.3.13.05.27.02.45-.15.13-.17.1-.43-.07-.51zm-.39 1.17c.06-.18 0-.3-.08-.4a.66.66 0 0 0-.24-.08c-.15 0-.3.08-.37.33v.11l.16.22c.14.1.43.11.53-.18zm-2.24-.56c.48.07.44.3.45.56l.17.07a.72.72 0 0 1 0-.44c-.26-.07-.36-.2-.52-.36-.02.06-.04.13-.1.16zm.05-.4a.64.64 0 0 0-.42-.35c-.11 0-.2.07-.28.23 0 .17-.06.2.06.4.1.06.23.13.34.1.12-.02.26-.14.3-.38zm.2.23c.05.09.13.15.36.22l-.07-.19c.14.08.1.17.22.08.13-.06.08-.04.15-.15.05-.11.04-.24-.07-.43a.4.4 0 0 0-.41-.05c-.14.13-.32.33-.18.52zm.68.25c-.16-.02-.22.07-.25.2-.02.14 0 .24.03.38.05.07.1.12.27.17.18-.02.3-.15.34-.34.03-.14-.03-.2-.1-.3-.1-.05-.18-.1-.29-.1zm.14.86c.01-.07-.11 0-.14-.04.05.18.02.31-.02.47h.19c-.06-.11-.06-.31-.03-.43zm.28-.23h.18l-.06-.52c-.05-.02-.11-.06-.16-.07.04.05.07.16.1.2.02.2 0 .26-.06.39zm-.22-.88c.08.12.09.16.25.22a4.74 4.74 0 0 0-.03-.11c.1.05.09.05.14.14.19-.04.22-.1.33-.22.05-.14.01-.27-.11-.45l-.1-.06c-.1-.04-.17-.07-.28-.03l-.18.18c-.05.08-.06.2-.02.33zm.55 1.47c.09-.2.03-.33-.06-.44-.01-.02-.09-.03-.1-.04a.32.32 0 0 0-.25 0c-.2.18-.18.45.05.6.07.01.25.03.36-.12zm-.93.67c.03.05.03.09.09.14.12.06.2.07.32.04.1-.04.1-.04.17-.13.02-.08.07-.13.05-.23-.1-.24-.2-.29-.5-.29-.07.06-.08.05-.14.14-.05.1-.04.22.01.33zm-.42-.55h.08c-.04-.03-.11-.1-.1-.12.04-.01.14.1.2.11.1 0 .22 0 .3-.1.05-.1.06-.2.05-.3-.03-.13-.15-.26-.38-.3a.28.28 0 0 0-.26.11c-.05.06-.08.17-.08.31.02.1.07.2.19.3zm0-.84c.02-.09-.02-.21 0-.3-.07-.13-.19-.15-.34-.2-.16.04-.24.11-.29.22 0 .24-.02.27.1.37h.04v-.04l-.07-.14c.09.07.17.25.33.25.09-.1.13-.14.24-.16zM14 26.15c.16.14.45-.05.37-.1-.14.1-.31.06-.44.1h.07zm-.1-.4.14-.22-.08-.04c-.08.07-.1.07-.25.08l.03.18h.15zm-.67.18c.02-.1-.04-.02.04-.1.04.18.1.23.22.32l-.07-.33h.03c.06.17.1.14.26.22a1.07 1.07 0 0 1-.11-.55l.25-.03.26-.26c-.02-.19-.04-.22-.18-.3h-.3c-.26.1-.72.64-.4 1.03zm-.8-1.24h.03c.26-.15.55-.25.88-.22v.03c-.3.05-.69.1-.84.3l.07.07c.18-.1.43-.27.63-.22h.07l-.04.07c-.28.04-.57.14-.7.33.44-.18 1.26-.35 1.65-.1.04.37-.05.58-.18.87l.3-.18c-.08.21-.22.24-.37.37.44-.1.74-.4.91-.55-.05.26-.13.32-.22.51l.11-.07c.12-.23.2-.4.34-.63l.19-.23c0-.05.02-.1.03-.14-.24 0-.33-.06-.41-.21-.05-.1.01-.42 0-.44-.39-.52-2.34-.4-2.75.07v.04l.77-.22v.03h-.07l-.15.08v.03h.04c.17-.06.48-.14.66-.07-.16.01-.79.29-.96.44v.04zm-.45-2.46c0 .16-.06.25.04.3.07.05.05.04.19.07.08-.08.12-.08.18-.19-.17.06-.16.04-.2.04l-.13.07H12c.01-.18.04-.18-.04-.29zm.04.55c-.15-.12-.25-.3-.4-.4l-.48.55v.4l.07.04.48-.22c.17.06.32.1.4.25l.04.26c-.09.2-.18.33-.4.3l.1.14.2.11.83-.33 1.1-.11c-.68-.22-1.04-.74-1.54-1.14l-.4.15zm-.18 1.06.14-.07.04-.18c-.13.02-.26-.14-.29-.1-.01.07.1.1.22.17l-.11.18zm-.15-.07h-.1l.03.15.14-.04a4.14 4.14 0 0 1-.07-.1zm.33-.22-.04-.22-.07-.04-.33-.03.44.3zm.22.88.04.04c.04-.04.2-.07.17-.1-.02-.05-.11 0-.15 0-.01.03-.05.04-.06.06zm.11.11c.04.07.38-.15.59-.21l.05-.04c-.03-.05-.18.03-.3.06-.11.08-.38.16-.34.2zm-.84.99c0-.13-.03-.32-.13-.42-.12-.06-.18-.06-.28-.06l-.18.19c0 .38.1.52.26.73l.62.15c.19-.12.33-.13.4-.37-.32.03-.4-.13-.7-.22zm.3-.15.06-.03v-.55c.03 0 .05.02.08.03.05.31 0 .49-.11.7l.07.07.11-.07.07-.62v.66l.08-.04.07-.51c0 .15.01.17.07.25.1-.95-.32-.72-.8-1.35l-.22-.48c-.26.15-.42.23-.44.62.34.45 1.03.58.95 1.32zm-.93-2.01v.14c.14-.04.11-.03.19-.1l-.19-.04zm.11-.26-.03-.15-.04.19.07-.04zm-.47.33.25.3h.04l.04-.12a4.74 4.74 0 0 0-.04-.1h-.04l.04.1c-.2-.06-.23-.17-.22-.44l.22-.47c.25-.08.3-.07.59-.37l-.15.26c.47-.37.46-.7 1.25-.33v-.19c-.12-.2-.22-.21-.48-.29-.66.28-1.68.7-1.5 1.65zm.25-.26-.03-.25-.08.29h.04l.07-.04zm.22-1.61a1 1 0 0 0-.07.7h.04l.84-.55c-.15-.08-.18-.14-.22-.33.21.07.2.2.33.33-.02-.2-.09-.37-.26-.44-.18.18-.5.16-.66.29zm.33-.33v-.18l-.18.3.18-.12zm-.47 1.1-.08-.11h-.07v.22h.04l.1-.11zm-.26.26h.04c0-.12.02-.15-.04-.26v-.51c-.07.3-.1.47 0 .77zm-.14-.92c-.14.32-.14.81.1 1.03-.1-.3-.02-.73-.1-1.03zm.21.04.04-.15-.04-.03a15 15 0 0 1-.03.18h.03zM10.36 23l.08-.04.07-.22-.26-.22.11.48zm-1.9-5.06c.14-.03.04-.07.14.04 0 .11-.03.05.04.14v-.07l.1-.15.12.48.1-.07.08-.26h.04l-.11.4.1.15.05-.22h.03v.3l.11-.15-.1.25.25-.1v.1c-.1.08-.07.04-.11.19.06-.02.1-.1.18-.04-.07.2-.04.21.04.4.04-.03.04-.17.1-.1v.32c.1 0 .06-.11.16-.03-.05.3.18.71.33.99.03-.05.03-.21.1-.15l-.07.37c.05-.04.1-.2.15-.11l-.11.33h.04c.04-.04.08-.19.14-.11l-.14.4c.04-.02.09-.13.14-.07-.11.14-.16.4-.18.7h.04c.1-.53.84-1.05 1.46-.96v.22c.07-.27.09-.37.04-.7-.3-.13-.3-.55-.7-.62.1-.2-.7-1.8-.88-1.83.09-.13.1-.08.08-.26-.16 0-.18 0-.26-.07.19-.02.14.02.22-.11-.18-.22-.18-.18-.37-.37l.22.04c-.12-.13-.3-.1-.48-.19H10l-.33-.14.15-.08-.3-.1-.21.07-.66.91-.48-.03.3.3zm1.94-3.78c.07.27.22.57.4.74l.04-.19-.44-.55zm.4.3c-.05-.13-.04-.15-.15-.22l.15.22zm-.04 1.4c-.48-.08-.51-.43-.8-.67.07.4.3.52.51.77a.94.94 0 0 1-.59-.7l-.07.04-.04.07c.21.45.47.75 1 .88v-.4zm.04-.05c-.09-.23-.61-.56-.77-.88.05.47.36.78.77.88zm-.8-1.28h.03l.04-.18v.07c.15.23.22.46.37.64-.14-.14-.28-.3-.4-.46.1.42.36.73.69.94.01 0 .02.05.04.05l.03-.1a3.7 3.7 0 0 0-.28-.34c.06.06.14.1.25.15-.29-.3-.56-.53-.6-1.1l.08.04c.08.4.25.68.48.92l.07-.04v-.04c-.15-.32-.39-.6-.55-.95h-.3l.04.4zm.76 1.83c-.66-.16-.68-.53-1.1-.88-.3.2-.73.26-1.2.19-.02.15-.03.13-.08.22.22.04.28.1.4.22l-.03.37-.3.1v.04c.13.25.19.47.4.63v-.08c.2-.23.43-.71.96-.48.51.22.83 1.55.99 2.1h.07l-.1-2.43zM8.67 17.4l-.25-.15.18.22h.11l.07-.18c-.3-.14-.3-.5-.47-.62.06.37.25.48.4.73h-.04zm-.99-.4.08-.08c-.03.23-.01.32.14.44-.13-.78.42-.54.74-.99.09-.1.04-.2 0-.25-.14-.15-.36-.16-.66-.15-.1.08-.16.1-.22.22l-.22.52c.11.09 0 .12.14.29zm-.22-.85v.11l.04.04.07-.04c.04-.12.08-.13.04-.25l-.15.14zm.04-2.45c.04.51.37.5.59.8h-.04l-.4-.22c.12.2.28.25.44.4l-.19-.03.19.22v.04l-.52-.26c.16.26.3.46.66.51v.04h-.22l-.44-.33c.13.2.3.33.55.4v.04h-.18l-.26-.18c.48.65 1.6.66 2.1.07l-.04-.07h-.15l.07-.04.19-.14c.1-.64-.1-1.22-.77-1.21-.55.77-1.08.52-1.58-.04zm.73.33-.03-.33-.04.25.07.08zm-.25-.26-.08-.04-.03-.07v.15l.1-.04zm2.68-3.2c-.21.13-.32.23-.48.38.22.33.36.72.56 1.1.42.16.63.14.89-.07l.08-.16.03-.17c-.06-.27-.22-.36-.39-.52-.2 0-.23.01-.33.11v.04l.26.04-.11.18-.37-.04-.04-.07c.06-.12.07-.15.19-.22.35-.35 1.2-.08 1.43.3l.1.58v-.07c.08-.2-.07-.64-.14-.85l.18.15c-.25-.7-1.28-.87-1.86-.72zm.21.7c0 .03-.02.06-.03.08l.29.04v-.04l-.26-.07zm1.62.85c-.4.15-.74.24-1.04.43a1.4 1.4 0 0 0-.03.85c.32.2.7.4 1.07.19l-.15-.08v-.03l.3-.04-.23-.11c.2.01.18.04.3-.07v-.04c-.25-.08-.36-.27-.52-.44-.18 0-.27 0-.36.07.3 0 .43.04.55.22-.2-.08-.3-.15-.63-.14v.1c.16 0 .2-.03.33.04l-.33.04v.18l.3.26h-.15l-.26-.11v-.55c.14-.2.48-.56.85-.4.29.12.36.42.4.7-.12.25-.26.49-.55.58-1.62.43-3.3-2.28-4.55-.8l.48-.23-.07.11c-.3.05-.43.19-.48.48h.04c.05-.18.06-.18.25-.22l-.22.37h.04c.08-.1.1-.15.22-.22l-.11.25c.21-.16.34-.25.66-.33l-.04.07c-.29.08-.4.2-.55.4v.15c.03 0 .05-.02.08-.03.04-.17.03-.2.18-.26.06.12-.02.04.11.07v.48h.04l.18-.07c0-.18 0-.25.07-.33l.04.25.48-.36c.99.33 3.52 1.7 4.4.55v-.04l-.19.04c.16-.2.31-.27.37-.59h-.04l-.07.04c-.07.2-.14.31-.37.36.16-.22.33-.38.37-.73h-.04v.07c-.1.2-.13.26-.33.37.3-.69.22-1.52-.8-1.5zm.07.88c-.08-.19-.2-.29-.44-.33l.44.33zm1.94-.1h-.03c-.08.12-.12.14-.3.17v-.03l.08-.04.14-.1c0-.03-.02-.06-.03-.08h-.19c-.07.06-.08.05-.14.14v.11l.03.15.3.04.25-.22-.25.14v-.1c.11-.07.1-.06.14-.19zm-.33-.23v-.04c-.2.02-.3.08-.4 0l.15-.1h-.26l-.07.03.03.18.19.11.36-.18zm-.77-.44-.1.11h.17l.15-.07-.03-.04h-.19zm.88-1.8-.05.03c-.08.03-.2.08-.17.12l.26-.07-.04-.08zm.07.25s-.52.17-.54.6c-.03.03-.07.02-.07-.03v-.04c.03-.25.05-.38.22-.53.06-.06.07-.08.07-.1-.02-.03-.05-.02-.28.16-.08.06-.1-.02 0-.11.12-.1.4-.28.39-.3-.05-.09-.24.12-.37.17 0 0-.02 0 0-.04.04-.05.16-.13.2-.16.02-.02.01-.04-.02-.05-1 .7-.3 1.98.4 2.42l.15-.04a.28.28 0 0 1-.1-.03c-.1-.1-.27-.24-.23-.26.04-.04.27.24.48.26-.15-.11-.46-.35-.41-.38.1-.04.4.3.63.3.06 0 .01-.05-.04-.07-.18-.07-.4-.19-.36-.26.02-.02.31.19.5.22.1 0 .03-.08-.06-.1-.28-.1-.6-.28-.66-.41-.16-.24-.08-.63 0-.62.05.02-.04.24.03.22.05-.47.28-.45.22-.52-.24-.04-.4.23-.44.59h-.03l.07-.44c.1-.19.3-.31.51-.18.07.01.03-.12-.07-.14-.35.01-.39.12-.53.28-.06.09-.09 0-.05-.05.12-.17.45-.36.45-.36h-.06zm.34 1.92.18.1c-.07-.09-.04-.06-.18-.1zm.58.51-.14.22h.03l.26-.18a7.9 7.9 0 0 0-.15-.04zm.22-.04c-.07-.06-.07-.05-.22-.07l.22.07zm-.36-.22-.11.08-.04.25.07-.03c.08-.16.16-.18.08-.3zm.33-2.09a.63.63 0 0 0-.16-.46c-.02-.03-.07 0-.06.02.01.08.1.18.08.22-.03.03-.08.04-.1-.02-.06-.11-.14-.25-.2-.23-.07.01.14.23.1.26-.06.05-.26-.3-.32-.26-.07.03.11.2.07.22-.08.02-.33-.41-.4-.37-.04.04.14.22.22.33.03.08 0 .14-.04.11l-.22-.3v.15c.15.2.26.32.44.48.28.01.44-.02.59-.1v-.05zm-.04.3-.15.03-.58-.1-.26.22a2 2 0 0 0 .04.77l.47.25c-.07-.24 0-.36.15-.47.1-.15.19-.16.44-.15l-.1-.55zm.6-2c-.46.42-.52 1.77-.2 2.8 0 .02-.02.03-.03.04-.33-.23-.46-.25-.77 0v.15l.22.33c-.08.1-.15.22-.22.33l.18.1c.16 0 .28.06.44.12.06-.48-.18-.58-.37-.88l.08-.04c.32.05.54.15.47.59l.11-.08c0-.3-.1-.37-.22-.55l.26.15a.87.87 0 0 1 .04-.55l.1.07.04.4.22-.1c-.13.18-.2.25-.22.58l.11.04c-.01-.3.03-.5.33-.59l-.18.22c.16-.11.23-.2.4-.1-.15.17-.26.3-.4.5l.07.34.08-.04c.1-.17.29-.15.51-.18-.07-.21-.16-.2-.22-.4l.22-.45-.18-.22c-.32-.01-.35.11-.63.19.18-.6.38-2.27-.23-2.78zm-.12 4.27-.37-.22c.1.17.1.2.15.4.3.02.5.03.73-.03l.1-.4c-.13.16-.33.23-.61.25zm.47-.33-.22-.33-.18-.04c-.1.13-.15.23-.22.4l.11.08c.2.14.4.04.51-.1zm.52.4-.33-.03.1.1c.08 0 .15-.02.23-.03v-.04zm.03-.1c-.04-.18-.04-.18-.22-.23v.15l.22.07zm.81-3.16-.18.15-.11.22h-.04v-.04l.18-.4-.36.36.07-.22-.3.26.08-.26-.11.08-.11.22-.04-.15.04-.07-.22.14v.04c0 .23.03.28.11.4h.04c.61.01.8-.28.95-.73zm-.55 2.02c.21-.09.56-.26.48-.52.05-.19 0-.37-.04-.55-.08-.11-.16-.1-.3-.18-.16.1-.46.09-.69.15l-.07.51c.4-.05.64.12.62.59zm-.33.66-.18.07v.04c.3.02.28.12.44.26 0-.27-.04-.32-.26-.37zm.42.44s-.02.24-.25.33c-.23.09-.5-.01-.5-.01s-.17.12-.28.1c-.1 0-.32-.1-.46-.06s-.26-.06-.26-.06-.12.17-.4.11c-.19-.04-.24-.25-.24-.25s-.07.13-.27.23c-.19.1-.46-.04-.46-.04s-.18.37-.42.6c-.24.21-.65.48-1 .52s-1.6-.3-1.6-.3-.04.05-.05.1c0 .06-.13 3.79 0 4.57.1.53.08.57.06.57 0-.01 0 0 0 0 .05.07.22.1.32.24.1.15.12.26.17.32.06.07.23.1.23.1s.15.14.1.42c-.04.27-.12.48-.12.48s.17.18.2.28c.03.1.03.2.03.2s.03-.12.25.08.28.32.28.32v.22s.02.04-.02.12l-.08.12s.2.12.4.3c.17.19.46.43.66.55s.57.34.7.38c.12.05.22.06.22.06s-.11-.36.11-.53c.23-.16.48-.03.48-.03l.29.25s.1-.2.19-.25c.1-.06.25-.1.42-.04.17.07.24.3.24.3s.1-.15.24-.25.26-.08.42-.01c.15.06.3.33.3.33s.07-.18.2-.27c.13-.09.36-.07.44-.06.09 0 .18.13.18.13s.58-.3.72-.39c.14-.09.76-.62.79-.7.03-.07-.02-.23-.02-.29l.02-.2s.14-.2.23-.23.22-.14.22-.14l.25-.45s-.08-.5.03-.74c.11-.23.39-.56.53-.79.15-.22.28-.5.28-.5s0-1.3.02-1.66l.05-1.13s.1-.73.08-1.06c-.01-.33-.13-.96-.13-.96s-.05 0-.3.12c-.26.12-.83.25-1.13.25-.29 0-1.18-.18-1.3-.36-.13-.19-.35-.81-.35-.81s-.09-.03-.29-.02c-.2 0-.42-.11-.42-.11zm.5-.52c.02.11.07.13.14.26l-.29-.11.11.26.04.03.18-.07.04-.15v-.03l-.11-.19h-.11zm.4-.29.15.07v.08c-.2-.03-.3-.09-.4 0l.29.07.07.11.22-.26a5.13 5.13 0 0 0-.07-.07h-.26zm.48-.3-.15-.03-.04.11.26.07.04-.07-.11-.07zm.91-.9c-.06.04-.1.15-.07.28l.07-.03v-.26zm1.76.03v.04c-.27.05-.4.07-.51-.15.26-.02.24-.01.22-.15a22.7 22.7 0 0 0-.26-.03c-.23.18-.3.28-.43.54l.01.12c.04.1.08.2.12.22.28.19.53.17.74.03.36-.23.6-.76.66-1.17-.14-.12-.27-.18-.46-.27-.7-.11-1.5-.02-1.81.64.16.06-.02.54 0 .84h.04c-.04-.92 1.32-1.52 1.68-.66zm-.18-.11-.18.07v.04h.22l.07-.04v-.04l-.04-.03h-.07zm3.15 1.61c-1.35-1.62-3.38 1.82-4.69.8-.22-.1-.3-.27-.4-.5 0-.37.14-.59.4-.7.38-.12.74.16.84.44.06.17.04.38-.03.51l-.37.11.04-.07.26-.22v-.19l-.37.04c.08-.07.28-.1.37-.15-.13 0-.25-.02-.37-.03l-.22.1.1-.14.38-.07-.08-.08c-.4.12-.5.3-.77.52.1.1.08.1.22.07l.04.04c-.09.1-.08.05-.07.1h.18c-.05.09-.08.1-.15.15h.07l.63.04.4-.33a2.7 2.7 0 0 0-.07-.88c-1.17-.44-2.5-.43-1.83 1.21-.23-.13-.25-.24-.37-.47.03.42.28.59.48.84-.31-.12-.37-.33-.59-.52v.11c.1.25.24.32.37.52h-.19l.08.1c1.11.54 1.8.13 2.93-.21l.7-.04c.22-.13.26-.33.7-.51l.47.36.04-.25.07.03c0 .28 0 .29.18.37h.04v-.55l.07.04.15-.04.15.26v-.11c-.18-.25-.39-.3-.63-.48.35.05.49.17.7.33l-.11-.22a.65.65 0 0 0 .04-.04l.18.19c-.04-.17-.06-.22-.18-.3l.03-.07.26.22c-.11-.35-.31-.34-.55-.55l.47.22zm-4.8.15-.04.07h.08l-.04-.07zm.55-.4h-.15c-.14.12-.26.19-.36.36l.51-.37zm3.81.98v.33c.03 0 .05-.02.08-.03v-.19l-.08-.1zm.26.08h.11v-.15h-.04l-.07.15zm.4-.33v.1l.04-.1h-.04zm0 .14-.03.3c-.13.1-.25.22-.37.33-.63 0-.94-.44-1.2-.44-.24-.03-.39.12-.56.26-.06.29-.17.56-.1.91l.25.22h-.15l.04.19c.53.27 1.42.45 1.87-.11l-.3.07.04-.07c.26-.06.4-.21.51-.4-.2.17-.28.34-.66.36l.04-.07c.32-.04.5-.23.59-.48l-.44.26a4.74 4.74 0 0 0-.04-.11l.26-.19c-.1.04-.16.07-.26.04v-.04a.6.6 0 0 0 .44-.36l-.44.22c.25-.25.55-.3.59-.77l-.08-.12zm-5.06.66h.11v.04l-.14.04.03-.08zm-.47-.55-.08-.18.26.22h-.1l-.08-.04zm2.09-1.6.1-.12c-.16.05-.23.1-.36 0l.37-.07v-.04c-.22 0-.3-.01-.4-.11.2.03.38.07.47-.11-.19.06-.33.04-.44-.07h.55a.8.8 0 0 1-.14.5l-.01.01-.14.04v-.04zM16 10.85c-.13-.4-.1-1.22.03-1.64.14.46.23 1.45-.03 1.72v-.08zm.1.52-.07.03-.07-.03v-.15h.15v.15zm-2.2.1-.07-.03v-.04c.02-.07.03-.23.05-.23.07.04.01.21.03.3zm-.21.15.03-.22c.08.08.07.1.08.26h-.04l-.07-.04zm-.77 2.02.18-.22c.02.1 0 .08-.04.18l-.14.04zm-.4.51h.1v.04l-.1.04v-.08zm-1.27-2.63c.06.03.07.04 0 .08-.02.03-.29.01-.42.03l.03.07c.05.05.36-.02.43.04-.03 0 .01.05-.02.07-.08.04-.21-.02-.3.02.02 0 .04.07.06.07.1 0 .17.02.25 0 .07 0 .1.08.02.1-.4.02-.28.07-.54-.12l-.03-.06c-.06-.1-.11-.28-.03-.32.06-.02.45.02.55.03zm-.82 3.53zm2.45 9.04.11-.04h.11v.04c-.16.03-.11.07-.22 0zm5.32-12.72-.08-.08.04-.18c.05.1.06.17.04.26zm-8.18 11.7a2.5 2.5 0 0 1-.1-.81c.17.3.17.7.36.95l-.26-.15zM21.91 23l-.1.07c.19-.27.2-.54.32-.95.16.32-.02.77-.22.88z" clip-rule="evenodd"/><path fill="#E2CCA8" d="M8.09 4.2h-.72a.1.1 0 0 0-.1.11v.03c0 .03 0 .05.02.07a.1.1 0 0 0 .08.03h.03a.2.2 0 0 1 .05 0l.01.16v1.81l-.01.14-.08.01a.1.1 0 0 0-.1.11v.02c0 .06.04.11.1.11h.71a.1.1 0 0 0 .11-.1v-.03a.1.1 0 0 0-.1-.1c-.07 0-.1-.02-.1-.02V4.46l.07-.02h.02a.1.1 0 0 0 .08-.03.11.11 0 0 0 .03-.08v-.02a.1.1 0 0 0-.1-.1zM11.48 4.2h-.52a.1.1 0 0 0-.11.11v.03c0 .06.05.1.1.1l.09.01v1.51L9.21 4.23a.1.1 0 0 0-.07-.03h-.5a.1.1 0 0 0-.11.11v.02c0 .03 0 .06.03.08a.1.1 0 0 0 .07.03h.04c.1 0 .15.02.18.07.03.07.05.17.05.3v1.6l-.01.15H8.8a.1.1 0 0 0-.1.11v.02c0 .06.04.11.1.11h.52a.1.1 0 0 0 .1-.1v-.03a.1.1 0 0 0-.09-.1l-.09-.02v-1.6l1.95 1.85a.1.1 0 0 0 .12.02.1.1 0 0 0 .06-.1V4.55c0-.07.01-.09.02-.1h.09a.1.1 0 0 0 .1-.12v-.02a.1.1 0 0 0-.1-.1zM13.72 4.2h-1.7a.1.1 0 0 0-.1.11v.03c0 .06.04.1.1.1l.07.01.01.1v2l-.08.01a.1.1 0 0 0-.1.1v.03c0 .06.04.11.1.11h.7a.1.1 0 0 0 .11-.1v-.03a.1.1 0 0 0-.1-.1c-.07 0-.09-.02-.1-.02V5.62h.78c0 .04.05.08.1.08h.03a.1.1 0 0 0 .1-.1v-.24a.1.1 0 0 0-.1-.1h-.03a.1.1 0 0 0-.1.07H12.62V4.5h.76c.1 0 .14.01.16.02 0 0 .02.01.04.07v.01c0 .06.05.1.1.1h.04a.1.1 0 0 0 .1-.1V4.3a.1.1 0 0 0-.1-.1zM16.03 6.26h-.02a.1.1 0 0 0-.1.09c-.03.1-.04.12-.05.12a.11.11 0 0 1-.05.03h-.94l-.04-.04a.5.5 0 0 1-.03-.2v-.63h.81c.01.05.05.08.1.08h.02a.1.1 0 0 0 .11-.1v-.23a.1.1 0 0 0-.1-.1h-.03a.1.1 0 0 0-.1.07H14.8V4.5h.89l.05.17c.02.04.06.08.1.08h.03a.1.1 0 0 0 .11-.11v-.33a.1.1 0 0 0-.1-.1h-1.7a.1.1 0 0 0-.1.1v.03c0 .06.05.1.1.1a.3.3 0 0 1 .08.01V6.55a.29.29 0 0 1-.08.01.1.1 0 0 0-.1.1v.03c0 .06.05.11.1.11h1.84a.1.1 0 0 0 .1-.1v-.33a.1.1 0 0 0-.1-.11zM19.4 6.5a.11.11 0 0 0-.1-.07.1.1 0 0 0-.05 0 .59.59 0 0 1-.26.08.54.54 0 0 1-.24-.06 1.45 1.45 0 0 1-.38-.37 6.45 6.45 0 0 1-.32-.42l-.12-.16c.11-.07.2-.16.28-.25.1-.13.14-.27.14-.41a.6.6 0 0 0-.09-.33.58.58 0 0 0-.25-.2.9.9 0 0 0-.3-.1h-1.19a.1.1 0 0 0-.1.1v.03c0 .06.04.1.1.1l.07.01.02.1v1.9l-.01.1-.08.01a.1.1 0 0 0-.1.1v.03c0 .06.04.11.1.11h.7a.1.1 0 0 0 .1-.1v-.03a.1.1 0 0 0-.1-.1l-.08-.01a.27.27 0 0 1 0-.1v-.8H17.42l.23.31V6c.3.37.5.6.61.7.13.09.3.13.47.13.25 0 .47-.06.63-.18a.1.1 0 0 0 .04-.12l-.01-.03zm-2.27-2.02h.12c.23 0 .39.05.47.16.1.11.14.22.14.35 0 .12-.05.21-.13.28-.08.08-.23.12-.42.12h-.17v-.9zM22.25 4.2h-.52a.1.1 0 0 0-.11.11v.03c0 .06.05.1.1.1l.09.01v1.51l-1.83-1.73a.1.1 0 0 0-.07-.03h-.5a.1.1 0 0 0-.11.11v.02c0 .03 0 .06.03.08a.1.1 0 0 0 .07.03h.04c.1 0 .15.02.17.07.04.07.06.17.06.3v1.6l-.01.15h-.09a.1.1 0 0 0-.1.11v.02c0 .06.04.11.1.11h.52a.1.1 0 0 0 .1-.1v-.03a.1.1 0 0 0-.09-.1.78.78 0 0 1-.1-.02.3.3 0 0 1 0-.09V4.95l1.96 1.85c.02.02.05.03.08.03a.1.1 0 0 0 .1-.1V4.54c0-.06.01-.09.02-.1h.09a.1.1 0 0 0 .1-.12v-.02a.1.1 0 0 0-.1-.1zM25.1 4.46c-.25-.22-.59-.33-.99-.33-.33 0-.63.07-.87.22-.25.14-.43.33-.56.57-.12.22-.18.45-.18.67 0 .34.13.62.39.86.26.23.59.35.98.35.49 0 .89-.14 1.18-.43.3-.29.45-.65.45-1.07 0-.33-.13-.62-.4-.84zM24.06 6.5c-.3 0-.57-.12-.82-.36-.24-.23-.36-.5-.36-.8 0-.24.1-.43.29-.59a1 1 0 0 1 .65-.24c.17 0 .36.05.57.15.2.1.37.23.5.4.13.18.19.36.19.57 0 .14-.05.28-.14.42a1.1 1.1 0 0 1-.88.45z"/><g fill="#0C1118" opacity=".6"><path d="M8.09 4.2c.06 0 .1.05.1.11v.03a.1.1 0 0 1-.1.1h-.03a.24.24 0 0 0-.07.02V6.55l.1.01a.1.1 0 0 1 .07.04.1.1 0 0 1 .03.07v.02a.1.1 0 0 1-.1.11h-.72a.1.1 0 0 1-.1-.1v-.03c0-.06.04-.1.1-.1l.08-.02.01-.14v-1.8l-.01-.16h-.08a.1.1 0 0 1-.08-.04.1.1 0 0 1-.03-.08v-.02c0-.06.05-.1.1-.1h.73m0-.16h-.72a.26.26 0 0 0-.26.26v.03c0 .07.03.14.08.19.03.03.07.05.12.06v1.83a.26.26 0 0 0-.2.25v.02c0 .15.12.27.26.27h.72c.14 0 .26-.12.26-.27v-.02a.26.26 0 0 0-.08-.18.28.28 0 0 0-.13-.08V4.6a.26.26 0 0 0 .2-.25V4.3a.26.26 0 0 0-.25-.26zM11.48 4.2c.06 0 .1.05.1.11v.03a.1.1 0 0 1-.1.1c-.07 0-.1.02-.1.02V6.72a.1.1 0 0 1-.11.11.1.1 0 0 1-.08-.03L9.23 4.95v1.51a.3.3 0 0 0 .01.09l.1.01c.04.01.09.06.09.11v.02a.1.1 0 0 1-.11.11H8.8a.1.1 0 0 1-.1-.1v-.03c0-.06.04-.1.1-.1.05 0 .08-.01.09-.02l.01-.13V4.8a.69.69 0 0 0-.06-.3c-.02-.04-.08-.07-.17-.07h-.03a.1.1 0 0 1-.08-.03.1.1 0 0 1-.03-.08v-.02c0-.06.05-.1.1-.1h.5c.04 0 .06 0 .08.02l1.83 1.73v-1.5a.22.22 0 0 0-.08-.02.1.1 0 0 1-.11-.1V4.3c0-.06.05-.1.1-.1h.53m0-.16h-.52a.26.26 0 0 0-.26.26v.03c0 .12.08.22.2.25V5.6L9.31 4.12a.26.26 0 0 0-.18-.07h-.5a.26.26 0 0 0-.27.26v.03a.26.26 0 0 0 .26.26h.04a.3.3 0 0 1 .05 0c.01.04.03.1.03.2v1.62a.26.26 0 0 0-.2.25v.02c0 .15.1.26.25.26h.52c.14 0 .26-.11.26-.26v-.02a.26.26 0 0 0-.2-.25V5.3l1.7 1.61a.26.26 0 0 0 .45-.19V4.6c.12-.02.2-.13.2-.25V4.3a.26.26 0 0 0-.25-.26zM13.72 4.2c.06 0 .1.05.1.11v.28a.1.1 0 0 1-.1.1h-.03a.1.1 0 0 1-.1-.09c-.03-.07-.05-.08-.05-.08a.5.5 0 0 0-.16-.02h-.75v.83H13.4a.1.1 0 0 1 .1-.07h.03c.06 0 .1.04.1.1v.23a.1.1 0 0 1-.1.1h-.03a.11.11 0 0 1-.1-.07h-.78V6.55l.1.01c.05 0 .1.05.1.11v.02a.1.1 0 0 1-.1.11h-.71a.1.1 0 0 1-.1-.1v-.03c0-.06.04-.1.1-.1l.07-.01.01-.05V4.55l-.01-.1h-.07a.1.1 0 0 1-.1-.11V4.3c0-.06.04-.1.1-.1h1.7m0-.16h-1.7a.26.26 0 0 0-.26.26v.03c0 .12.08.22.19.25v1.83a.26.26 0 0 0-.2.25v.02c0 .15.13.27.27.27h.7c.15 0 .26-.12.26-.27v-.02a.26.26 0 0 0-.2-.26v-.64h.54c.05.05.12.08.19.08h.03c.14 0 .26-.12.26-.26v-.23a.26.26 0 0 0-.26-.26h-.03a.26.26 0 0 0-.19.08h-.54v-.53H13.44c.03.12.13.2.25.2h.03c.14 0 .26-.12.26-.26v-.28a.26.26 0 0 0-.26-.26z"/><path d="M15.89 4.2c.06 0 .1.05.1.11v.33a.1.1 0 0 1-.1.1h-.03a.1.1 0 0 1-.1-.07.94.94 0 0 0-.06-.16.5.5 0 0 0-.12-.01h-.77v.85H15.6a.1.1 0 0 1 .1-.07h.03c.06 0 .1.04.1.1v.23a.1.1 0 0 1-.1.1h-.03a.11.11 0 0 1-.1-.07h-.8v.62c0 .13.01.18.02.2.01.02.02.03.04.03.03.01.09.02.2.02h.47l.27-.01.06-.03s.02-.02.03-.12a.1.1 0 0 1 .1-.09h.04c.05 0 .1.05.1.1v.33a.1.1 0 0 1-.1.11H14.2a.1.1 0 0 1-.1-.1v-.03c0-.06.04-.1.1-.1l.08-.02V4.58l-.01-.13a.3.3 0 0 0-.07 0 .1.1 0 0 1-.1-.11v-.03c0-.06.04-.1.1-.1h1.69m0-.16h-1.7a.26.26 0 0 0-.25.26v.03c0 .12.08.22.19.25v1.83a.26.26 0 0 0-.2.25v.02c0 .15.13.26.27.26h1.84c.14 0 .26-.11.26-.26v-.32a.26.26 0 0 0-.26-.26H16c-.13 0-.24.09-.26.21v.03H14.97l-.01-.09V5.8h.56c.05.05.12.08.2.08h.02c.14 0 .26-.12.26-.26v-.23a.26.26 0 0 0-.26-.26h-.03a.26.26 0 0 0-.19.08h-.56v-.55h.63l.02.06c.03.11.13.19.25.19h.03c.14 0 .26-.12.26-.26v-.33a.26.26 0 0 0-.26-.26z"/><path d="M17.29 4.2c.2 0 .33 0 .42.02.1 0 .2.03.3.08.12.05.2.12.26.21a.67.67 0 0 1-.06.74c-.07.1-.17.17-.28.25l.12.16.33.42c.2.25.32.34.37.37.09.04.16.06.24.06.07 0 .16-.03.26-.08l.05-.01a.11.11 0 0 1 .1.07l.01.03a.1.1 0 0 1-.04.12c-.16.12-.37.18-.63.18a.77.77 0 0 1-.46-.14 3.98 3.98 0 0 1-.6-.7h-.02l-.23-.32H17.14v.9h.08c.06 0 .1.05.1.1v.03a.1.1 0 0 1-.1.11h-.7a.1.1 0 0 1-.1-.1v-.03c0-.06.04-.1.1-.1.05 0 .07-.01.08-.02l.01-.1v-1.9l-.01-.1h-.08a.1.1 0 0 1-.1-.11V4.3c0-.06.05-.1.1-.1h.77m-.16 1.17h.18c.2 0 .33-.03.42-.1a.36.36 0 0 0 .12-.3.54.54 0 0 0-.13-.34c-.08-.1-.24-.16-.47-.16h-.12v.9m.16-1.33h-.77a.26.26 0 0 0-.26.26v.03c0 .12.09.22.2.25v1.83a.26.26 0 0 0-.2.25v.02c0 .15.12.26.26.26h.7c.14 0 .26-.11.26-.26v-.02a.26.26 0 0 0-.2-.25v-.6h.07l.09.11.1.15c.3.4.51.62.65.72.15.12.34.18.55.18.29 0 .53-.07.72-.21.1-.07.13-.19.1-.3l-.01-.03a.26.26 0 0 0-.37-.15.43.43 0 0 1-.2.07.38.38 0 0 1-.16-.05 6.08 6.08 0 0 1-.64-.73l-.03-.05c.07-.06.13-.12.18-.19a.82.82 0 0 0 .07-.9.73.73 0 0 0-.32-.28 1.05 1.05 0 0 0-.35-.1h-.44zm0 1.18v-.6c.15.01.26.05.31.1.07.09.1.17.1.26 0 .07-.02.12-.07.17-.06.05-.17.07-.32.07h-.02z"/><path d="M22.25 4.2c.05 0 .1.05.1.11v.03a.1.1 0 0 1-.1.1c-.07 0-.1.02-.1.02V6.72a.1.1 0 0 1-.11.11.11.11 0 0 1-.08-.03L20 4.95v1.51a.3.3 0 0 0 .01.09l.1.01c.04.01.08.06.08.11v.02a.1.1 0 0 1-.1.11h-.52a.1.1 0 0 1-.1-.1v-.03c0-.06.04-.1.1-.1.05 0 .08-.01.09-.02l.01-.13V4.8a.69.69 0 0 0-.05-.3c-.03-.04-.09-.07-.18-.07h-.03a.1.1 0 0 1-.11-.1V4.3c0-.06.05-.1.1-.1h.51a.1.1 0 0 1 .07.02l1.84 1.73V4.53l-.01-.07a.22.22 0 0 0-.08-.02.1.1 0 0 1-.1-.1V4.3c0-.06.04-.1.1-.1h.52m0-.16h-.52a.26.26 0 0 0-.27.26v.03c0 .12.09.22.2.25V5.6l-1.57-1.49a.26.26 0 0 0-.18-.07h-.5a.26.26 0 0 0-.27.26v.03a.26.26 0 0 0 .26.26h.09c.01.04.03.1.03.2v1.62a.26.26 0 0 0-.2.25v.02c0 .15.1.26.25.26h.52c.14 0 .26-.11.26-.26v-.02a.26.26 0 0 0-.2-.25V5.3l1.7 1.61c.06.05.12.07.19.07.03 0 .07 0 .1-.02.1-.04.16-.13.16-.24V4.6c.12-.02.2-.13.2-.25V4.3a.26.26 0 0 0-.25-.26z"/><path d="M24.11 4.13c.4 0 .73.11 1 .33.26.22.39.5.39.84 0 .42-.15.78-.45 1.07-.3.29-.7.43-1.18.43-.4 0-.72-.12-.98-.35a1.12 1.12 0 0 1-.4-.86c0-.22.07-.44.2-.67.12-.24.3-.43.55-.57.24-.15.54-.22.87-.22m-.05 2.37c.17 0 .34-.04.5-.12.16-.08.3-.2.38-.33.1-.13.14-.27.14-.42 0-.2-.06-.39-.19-.56-.13-.17-.3-.31-.5-.41-.2-.1-.4-.15-.57-.15a1 1 0 0 0-.66.24.72.72 0 0 0-.28.58c0 .31.12.58.36.81.25.24.52.36.82.36m.05-2.52c-.36 0-.68.08-.95.24a1.6 1.6 0 0 0-.82 1.37c0 .38.15.7.45.97.28.26.65.4 1.08.4.53 0 .96-.17 1.29-.48.33-.32.5-.71.5-1.18 0-.38-.16-.7-.46-.96a1.64 1.64 0 0 0-1.09-.36zm-.05 2.36a1 1 0 0 1-.7-.3.93.93 0 0 1-.33-.7c0-.2.08-.34.23-.47.17-.14.36-.2.56-.2.15 0 .32.04.5.13.19.09.34.2.45.36.1.14.16.3.16.47a.6.6 0 0 1-.11.34.97.97 0 0 1-.76.38z"/></g></svg>