<svg xmlns="http://www.w3.org/2000/svg" xml:space="preserve" viewBox="0 0 32 32"><path fill="#15576F" fill-rule="evenodd" d="M16.03.92.3 12.35l6.01 18.49h19.44l6.01-18.49z" clip-rule="evenodd"/><path fill="#07A5C2" fill-rule="evenodd" d="M16.03 1.12.51 12.4l5.93 18.24h19.18l5.93-18.24z" clip-rule="evenodd"/><path fill="#15576F" fill-rule="evenodd" d="M8.1 30.67h1.67v-.54H8.11v.54zm3.46 0h1.67v-.54h-1.67v.54zm3.78 0H17v-.54h-1.66v.54zm3.46 0h1.66v-.54h-1.67v.54zm3.74 0h1.66v-.54h-1.66v.54zm3.1-1.75.51.16.52-1.58-.52-.17-.51 1.59zm1.06-3.29.52.17.51-1.59-.52-.16-.51 1.58zm1.16-3.6.52.17.51-1.58-.52-.17-.5 1.59zm1.07-3.28.51.17.52-1.59-.52-.16-.51 1.58zm1.66-5.15-.51 1.59.52.17.51-1.59-.52-.17zM5.42 27.61l.52 1.59.52-.17-.52-1.59-.52.17zm-1.06-3.29.51 1.59.52-.17-.51-1.58-.52.16zm-1.17-3.59.52 1.59.52-.17-.52-1.58-.52.16zm-1.06-3.28.51 1.58.52-.17-.51-1.58-.52.17zM.98 13.88l.5 1.59.53-.17-.51-1.58-.53.16zm2.29-2.84-.32-.44-1.35.97.32.45 1.35-.98zm2.8-2.03-.32-.44-1.35.98.32.44 1.35-.98zM8.8 6.36l-1.34.97.32.45 1.35-.98-.33-.44zm2.8-2.03-1.35.98.33.44 1.34-.98-.32-.44zm1.69-1.22.32.45 1.35-.98-.32-.44-1.35.97zm15.65 7.37-.32.44 1.35.98.32-.44-1.35-.98zM27.5 9.43l-1.34-.98-.32.44 1.34.98.32-.44zm-4.72-2.75 1.35.98.32-.45-1.35-.97-.32.44zm-2.8-2.03 1.35.97.32-.44-1.34-.98-.32.45zm-3.02-2.2 1.34.97.32-.44-1.34-.97-.32.44z" clip-rule="evenodd"/><path fill="#07A5C2" fill-rule="evenodd" d="M15.99 1.82 1.08 12.66 6.77 30.2h18.44l5.7-17.54z" clip-rule="evenodd"/><path fill="#C6C5C5" fill-rule="evenodd" d="M15.99 2.69 1.98 12.87l5.35 16.47h17.32L30 12.87z" clip-rule="evenodd"/><path fill="#AE2324" fill-rule="evenodd" d="M15.99 3.18 2.43 13.03l5.18 15.94h16.76l5.18-15.94z" clip-rule="evenodd"/><path fill="#6B100F" fill-rule="evenodd" d="m15.99 3.18.13 25.79h8.25l5.18-15.94z" clip-rule="evenodd"/><g fill="#DEDEDD"><path d="m10.07 26.3.54-.7h.37v1.9h-.42v-1.19l-.46.6h-.06l-.46-.6v1.2h-.42v-1.92h.37l.54.71zM11.85 25.6v1.9h-.42v-1.9h.42zM12.3 25.6h.76c.16 0 .3.04.4.15.1.1.15.24.15.4a.5.5 0 0 1-.3.46c.1.05.17.16.25.36l.22.54h-.46a9.82 9.82 0 0 1-.14-.36 1.2 1.2 0 0 0-.18-.34.22.22 0 0 0-.16-.08h-.12v.78h-.42v-1.92zm.42.34v.44h.23c.07 0 .12-.02.17-.06.04-.04.06-.1.06-.16 0-.15-.08-.22-.24-.22h-.22zM15.1 25.6l.74 1.9h-.45l-.14-.37h-.76l-.12.38h-.45l.68-1.92h.5zm.03 1.2-.28-.75-.24.74h.52zM17.53 25.72v.42a1.31 1.31 0 0 0-.64-.17.6.6 0 0 0-.45.17.61.61 0 0 0-.16.43c0 .17.05.3.16.4.1.11.25.16.42.16.1 0 .19-.02.28-.06v-.23h-.24v-.35h.66v.78a.71.71 0 0 1-.3.2c-.14.04-.28.06-.41.06a1 1 0 0 1-.72-.27.94.94 0 0 1-.29-.7.95.95 0 0 1 1.02-1c.25 0 .47.06.67.16zM19.24 27.16v.35H18v-1.92h1.22v.35h-.8v.4h.77v.36h-.77v.46h.82z"/></g><path fill="#30B14A" fill-rule="evenodd" d="m22.59 26.2-.8-.07-.3-.73-.3.73-.81.07.63.5-.2.8.68-.45.68.45-.2-.8z" clip-rule="evenodd"/><path fill="#5A0F0F" fill-rule="evenodd" d="m24.27 16.69-.21-5.15h.26v-.39h-.27l-.02-.56H21l-.02.56h-.39v.39h.38l-.21 5.15-2.22-.02-.19-6.22h.32v-.39h-.33l-.02-.71h-3.6l-.03.71h-.41v.39h.4l-.2 6.22H12.7l-.19-5.13h.29v-.39h-.3l-.02-.57H9.42l-.02.57h-.33v.39h.32l-.18 5.13h-.72v.4l16.29-.01v-.37z" clip-rule="evenodd"/><path fill="#56A5B3" fill-rule="evenodd" d="m23.85 16.27-.2-5.15h.25v-.39h-.27l-.02-.55h-3.02l-.02.55h-.4v.39h.38l-.2 5.15-2.23-.01-.19-6.23h.32v-.38h-.33l-.02-.72h-3.6l-.02.72h-.41v.38h.39l-.2 6.23h-1.78l-.18-5.14h.28v-.39h-.3l-.02-.57H9.01l-.03.57h-.33v.39h.32l-.17 5.14h-.72v.4l16.28-.02v-.37z" clip-rule="evenodd"/><path fill="#3F3F3F" fill-rule="evenodd" d="M9.7 12.38h.26v-.62h-.25v.62zm1.48 0h.26v-.62h-.26v.62zm-.74 0h.26v-.62h-.26v.62zm4.74-1.18h.26v-.62h-.26v.62zm1.47 0h.26v-.62h-.26v.62zm-.73 0h.25v-.62h-.25v.62zm5.37 1.18h.26v-.62h-.26v.62zm1.47-.62v.62h.26v-.62h-.26zm-.73.62h.25v-.62h-.25v.62z" clip-rule="evenodd"/><path fill="#BFC25A" fill-rule="evenodd" d="M14.2 21.1c-.08-.2-.45-.65-.77-1.05-.33-.4-.61-.76-.8-.83-.08.2.08.63.39 1.07.29.44.72.88.88.99l.37.22-.76-.05c-.02-.1-.08-.28-.12-.39-.07-.2-.4-.65-.67-1.05-.29-.4-.53-.76-.71-.83-.08.17.05.61.31 1.05.25.43.63.87.78.99l.32.22a17 17 0 0 1-.71-.09l-.1-.37c-.06-.2-.33-.64-.57-1.04-.24-.4-.45-.76-.62-.84-.08.17.02.6.24 1.03.2.43.54.87.67.98.1.09.21.18.3.23-.23-.03-.46-.07-.68-.12l-.08-.36c-.14-.39-.77-1.7-1.01-1.86-.24.31.45 1.73.75 1.98.08.09.18.17.26.23l-.6-.13c0-.09-.03-.25-.05-.35a7.25 7.25 0 0 0-.86-1.83c-.24.29.34 1.68.6 1.93l.24.23-.56-.15-.04-.34a6.92 6.92 0 0 0-.72-1.8c-.24.28.23 1.63.48 1.89l.2.23-.55-.18-.01-.32c-.07-.35-.4-1.6-.6-1.76-.23.26.15 1.58.36 1.83.06.09.13.17.19.23l-.49-.18v-.3a6.15 6.15 0 0 0-.48-1.73c-.23.26.07 1.54.26 1.79l.16.21-.49-.2.02-.3a5.85 5.85 0 0 0-.37-1.66c-.23.24-.01 1.48.16 1.72l.14.22-.48-.22a5.2 5.2 0 0 0-.14-.12c-.22-.12-1.94-1.25-2.56-1.56.2.49 2.07 1.66 2.45 1.7l.15.03.52.25h-.3c-.3.07-2.07.28-2.42.44.4.21 2.15-.04 2.47-.25l.3-.17.5.2-.32.03c-.3.07-2.12.37-2.46.57.43.2 2.22-.15 2.53-.38l.31-.19.49.19-.34.03c-.31.09-2.16.48-2.5.7.46.2 2.29-.25 2.6-.5l.3-.21.56.18-.35.05c-.32.1-2.22.6-2.55.86.49.2 2.36-.37 2.66-.65l.31-.24.57.16-.36.07c-.33.12-2.28.72-2.6 1.02.51.18 2.43-.5 2.73-.8l.3-.27c.2.05.4.1.6.13l-.38.1c-.34.14-2.33.86-2.64 1.19.54.17 2.5-.64 2.8-.98.1-.08.23-.22.3-.3.23.06.46.1.69.13l-.4.12c-.36.16-2.4 1.02-2.7 1.39.59.16 2.6-.8 2.89-1.17l.3-.33.71.1-.42.14c-.36.2-2.45 1.2-2.74 1.6.62.15 2.68-.98 2.96-1.38.1-.1.23-.27.3-.36l.75.06c-.11.04-.29.1-.44.17-.37.22-2.51 1.38-2.8 1.84.68.12 2.78-1.18 3.06-1.61l.28-.4c.3.02.61.02.92.01l.01-.12h-.91l-.16-.4zm9.88-1.04c.4-.04 2.25-1.21 2.46-1.7-.62.3-2.34 1.44-2.57 1.56l-.14.12-.47.22.14-.22c.17-.24.39-1.48.16-1.73a5.85 5.85 0 0 0-.38 1.68l.02.3-.48.2.16-.22c.19-.25.49-1.53.26-1.79a6.22 6.22 0 0 0-.49 1.72v.31l-.48.18.18-.23c.22-.25.6-1.57.37-1.83-.2.16-.53 1.4-.6 1.76l-.01.32-.56.18.21-.23c.24-.26.72-1.6.48-1.89-.2.16-.63 1.43-.73 1.8l-.03.34-.56.15.23-.23c.27-.25.85-1.64.61-1.93a7.21 7.21 0 0 0-.87 1.83l-.05.35c-.2.05-.39.1-.59.13.07-.06.18-.14.26-.23.3-.25.99-1.67.75-1.98a7.51 7.51 0 0 0-1.01 1.86l-.08.36c-.22.05-.45.09-.68.12.09-.05.2-.14.3-.23.13-.11.46-.55.67-.98.22-.43.32-.86.24-1.03-.17.08-.38.44-.63.84-.23.4-.5.85-.56 1.04l-.1.37-.72.1.33-.23c.15-.12.53-.56.78-1 .26-.43.39-.87.3-1.04-.17.07-.42.43-.7.83-.28.4-.6.85-.67 1.05l-.13.39-.75.05.36-.22c.17-.11.6-.55.89-.99.3-.44.47-.88.4-1.07-.2.07-.48.43-.81.83-.32.4-.7.85-.78 1.05l-.16.4c-.3.01-.6.02-.91 0l.01.13h.92l.28.39c.28.43 2.38 1.73 3.05 1.6-.28-.45-2.42-1.6-2.8-1.83a11 11 0 0 0-.43-.17l.75-.06c.07.09.2.26.3.36.28.4 2.33 1.52 2.96 1.38-.3-.41-2.38-1.41-2.75-1.6l-.41-.15.72-.09c.06.08.2.24.3.33.29.36 2.3 1.33 2.88 1.17-.3-.37-2.35-1.23-2.7-1.4l-.4-.11.68-.12.3.3c.3.32 2.26 1.14 2.81.96-.31-.32-2.3-1.04-2.64-1.18l-.38-.1.6-.13c.06.06.2.19.3.26.3.3 2.22 1 2.73.8-.32-.29-2.27-.89-2.6-1.01l-.36-.07.57-.16.3.24c.31.28 2.18.84 2.67.65-.33-.26-2.23-.75-2.55-.86l-.35-.05.55-.18.32.21c.3.25 2.13.7 2.6.5-.35-.22-2.2-.61-2.51-.7l-.34-.04c.16-.05.33-.11.49-.18l.31.2c.32.22 2.1.57 2.53.37-.34-.2-2.15-.5-2.46-.57a6.97 6.97 0 0 0-.32-.02l.49-.2.31.16c.32.2 2.07.46 2.47.25-.35-.16-2.12-.38-2.41-.43l-.31-.01.52-.25.14-.03z" clip-rule="evenodd"/><path fill="#DEDEDD" fill-rule="evenodd" d="M12.83 17.81h1.1v-.01a.32.32 0 0 0-.32-.29h-.82a.32.32 0 0 0-.32.33v.7c0 .18.14.32.32.32h.83c.16 0 .3-.12.32-.29v-.02h-1.11v-.74zm2.55.23h-.86v-.24h1.16a.33.33 0 0 0-.33-.29h-.83a.32.32 0 0 0-.33.33v.2c.02.16.16.29.32.29h.86v.24H14.2c.02.17.16.3.32.3h.87c.17 0 .32-.15.32-.33v-.21a.32.32 0 0 0-.32-.3zm3.97-.54h-.85a.31.31 0 0 0-.3.31v.73c0 .17.13.31.3.31h.85c.17 0 .3-.14.3-.3v-.74a.31.31 0 0 0-.3-.31zm.02 1.1h-.89v-.85h.89v.85zM17 18.2c.06.08.16.09.2.09h.44v.3h-.94v-.83h1.23a.31.31 0 0 0-.3-.26h-.91a.31.31 0 0 0-.31.31v.73c0 .17.14.31.31.31h.9a.3.3 0 0 0 .31-.27v-.51h-1c0 .02.02.07.07.13z" clip-rule="evenodd"/></svg>