<svg xmlns="http://www.w3.org/2000/svg" xml:space="preserve" viewBox="0 0 32 32"><circle cx="15.88" cy="16.22" r="15.04" fill="#140F21" fill-rule="evenodd" clip-rule="evenodd"/><circle cx="15.88" cy="16.22" r="14.49" fill="#92B5BD" fill-rule="evenodd" clip-rule="evenodd"/><circle cx="15.88" cy="16.22" r="14.38" fill="#9FDCF0" fill-rule="evenodd" clip-rule="evenodd"/><path fill="#010101" fill-rule="evenodd" d="m16.02 2.58.43.68c.03.06.08.09.15.1.06 0 .11-.03.15-.08l.51-.63c.04-.05.1-.07.17-.06.07 0 .12.04.15.1l.35.73c.03.05.07.1.14.1.06.01.12 0 .16-.05l.58-.57a.18.18 0 0 1 .17-.05c.07.02.12.06.14.12l.26.77c.02.06.07.1.13.12s.12 0 .17-.03l.63-.5a.18.18 0 0 1 .18-.03c.07.02.1.07.12.13l.18.8c.02.05.05.1.11.13.06.02.12.02.17-.02l.7-.42a.18.18 0 0 1 .17 0c.06.02.1.07.1.14l.1.8c0 .07.03.12.09.15.05.03.11.03.17 0l.73-.34a.18.18 0 0 1 .19.02c.05.03.08.09.08.15v.81c0 .07.02.12.07.16.05.03.11.04.17.02l.77-.25a.18.18 0 0 1 .18.03c.05.04.08.1.07.17l-.1.8c0 .06.01.12.06.16.05.05.1.06.17.05l.79-.17c.06-.01.13 0 .17.05.05.05.07.12.05.18l-.19.79c-.01.06 0 .12.04.16.04.05.1.07.16.07l.8-.08c.07 0 .13.02.17.08.04.05.05.11.03.17l-.28.77a.18.18 0 0 0 .02.17c.04.05.1.08.15.08l.81.02c.07 0 .13.03.16.09.04.05.04.12 0 .18l-.35.72c-.03.06-.03.12 0 .17s.08.1.14.1l.8.11c.07.01.12.05.15.11.02.06.02.13-.02.18l-.44.68a.18.18 0 0 0-.02.17c.02.06.07.1.13.11l.78.2c.07.02.12.07.14.13.02.06 0 .13-.04.18l-.51.62c-.04.05-.06.1-.04.17s.06.1.11.13l.76.28c.06.03.1.08.12.14.01.07 0 .13-.06.18l-.58.56a.19.19 0 0 0-.06.16c.01.06.05.11.1.14l.72.37c.06.03.1.09.1.15s-.02.13-.07.17l-.65.49a.18.18 0 0 0-.07.15c0 .07.03.12.08.15l.67.45c.06.04.09.1.09.17 0 .06-.04.12-.1.15l-.7.42c-.05.03-.08.08-.08.14s.01.12.06.16l.62.53c.05.04.07.1.06.17 0 .06-.05.11-.1.14l-.75.33a.18.18 0 0 0-.1.14c-.02.06 0 .12.04.16l.55.6c.05.04.07.1.05.17a.19.19 0 0 1-.13.13l-.77.25a.19.19 0 0 0-.1.29l.49.65c.04.05.04.12.02.18a.18.18 0 0 1-.14.11l-.8.16a.19.19 0 0 0-.13.28l.41.7c.03.06.04.12 0 .18a.18.18 0 0 1-.15.1l-.8.06a.18.18 0 0 0-.15.1.18.18 0 0 0-.01.17l.32.74c.03.06.02.13-.02.18a.18.18 0 0 1-.16.08l-.8-.03a.19.19 0 0 0-.16.08.19.19 0 0 0-.04.17l.24.77c.02.06 0 .13-.04.18a.18.18 0 0 1-.17.06l-.8-.12a.18.18 0 0 0-.16.06.18.18 0 0 0-.05.16l.14.8c.01.06 0 .12-.06.17a.18.18 0 0 1-.17.04l-.78-.21a.18.18 0 0 0-.17.04.18.18 0 0 0-.07.15l.05.81c0 .07-.02.13-.07.17a.19.19 0 0 1-.19.02l-.75-.3a.18.18 0 0 0-.17.01.18.18 0 0 0-.08.15l-.04.81c0 .07-.04.12-.1.16a.18.18 0 0 1-.18 0l-.71-.39a.18.18 0 0 0-.18 0 .19.19 0 0 0-.1.14l-.13.8a.18.18 0 0 1-.11.14.18.18 0 0 1-.18-.02l-.67-.46a.18.18 0 0 0-.17-.02.18.18 0 0 0-.12.13l-.22.77c-.02.07-.06.11-.13.13s-.12 0-.17-.04l-.61-.53a.18.18 0 0 0-.17-.04.19.19 0 0 0-.13.1l-.31.75a.18.18 0 0 1-.14.12.18.18 0 0 1-.17-.06l-.55-.6a.19.19 0 0 0-.3.03l-.4.7a.18.18 0 0 1-.15.1.18.18 0 0 1-.16-.07l-.47-.66a.18.18 0 0 0-.15-.08.18.18 0 0 0-.16.08l-.47.66a.18.18 0 0 1-.16.08.18.18 0 0 1-.16-.1l-.39-.7a.19.19 0 0 0-.14-.1.18.18 0 0 0-.16.06l-.54.6a.19.19 0 0 1-.18.06.19.19 0 0 1-.14-.12l-.3-.74a.18.18 0 0 0-.14-.11.18.18 0 0 0-.17.04l-.6.53a.18.18 0 0 1-.18.04.18.18 0 0 1-.13-.13l-.22-.77a.18.18 0 0 0-.12-.13.18.18 0 0 0-.17.02l-.66.46a.19.19 0 0 1-.19.02.18.18 0 0 1-.1-.14l-.14-.8c-.01-.06-.05-.1-.1-.14s-.12-.02-.18 0l-.7.39a.18.18 0 0 1-.19 0 .18.18 0 0 1-.1-.16l-.04-.8a.18.18 0 0 0-.08-.16.18.18 0 0 0-.17-.01l-.75.3c-.07.02-.13.01-.19-.03s-.08-.1-.07-.16l.05-.8a.18.18 0 0 0-.07-.16.18.18 0 0 0-.17-.04l-.78.21a.19.19 0 0 1-.17-.04.19.19 0 0 1-.06-.17l.14-.8a.18.18 0 0 0-.05-.16.17.17 0 0 0-.16-.06l-.8.12a.18.18 0 0 1-.17-.06.19.19 0 0 1-.04-.18l.24-.77c.01-.07 0-.12-.03-.17s-.1-.08-.16-.08l-.81.03a.19.19 0 0 1-.18-.26l.32-.75c.02-.05.02-.11-.01-.17s-.09-.08-.15-.09l-.8-.06a.18.18 0 0 1-.16-.1.19.19 0 0 1 0-.19l.41-.7a.19.19 0 0 0 0-.17.18.18 0 0 0-.13-.1l-.79-.16A.19.19 0 0 1 3 21.3a.18.18 0 0 1 .02-.19l.48-.64c.04-.06.05-.12.03-.18s-.06-.1-.12-.12l-.77-.24a.18.18 0 0 1-.13-.13.19.19 0 0 1 .05-.18l.55-.6a.18.18 0 0 0-.06-.3l-.74-.32a.18.18 0 0 1-.1-.15c-.02-.06 0-.12.06-.17l.61-.52c.05-.04.07-.1.07-.16a.18.18 0 0 0-.1-.15l-.7-.4a.19.19 0 0 1-.08-.17c0-.06.02-.12.08-.16l.67-.45a.18.18 0 0 0 .08-.15.18.18 0 0 0-.07-.15l-.65-.5a.19.19 0 0 1-.07-.16c0-.06.04-.12.1-.15l.72-.37c.05-.03.09-.08.1-.14a.18.18 0 0 0-.06-.17l-.58-.56a.18.18 0 0 1-.06-.17.19.19 0 0 1 .12-.14l.76-.29c.06-.02.1-.06.11-.12s0-.12-.03-.17l-.52-.63a.18.18 0 0 1-.03-.17c.02-.07.06-.11.13-.13l.78-.2c.06-.01.1-.05.13-.11a.19.19 0 0 0-.02-.17l-.44-.68a.18.18 0 0 1-.01-.18c.02-.06.08-.1.14-.1l.8-.12c.07 0 .12-.04.15-.1s.03-.11 0-.17l-.37-.72c-.03-.06-.02-.13.01-.18s.1-.1.16-.1l.8-.01c.07 0 .12-.03.16-.08a.18.18 0 0 0 .02-.17l-.28-.77a.18.18 0 0 1 .03-.17c.04-.06.1-.08.17-.08l.8.08c.07 0 .12-.02.16-.07.05-.04.06-.1.05-.16l-.2-.79a.18.18 0 0 1 .05-.17c.05-.05.11-.07.18-.06l.79.17c.06.01.12 0 .17-.05.04-.04.06-.1.06-.16l-.1-.8c-.01-.07.01-.13.06-.17a.18.18 0 0 1 .18-.03l.77.25c.06.02.12.01.17-.02.05-.04.08-.1.08-.16v-.8c0-.07.02-.13.08-.16a.18.18 0 0 1 .18-.02l.73.34c.06.03.12.03.17 0a.18.18 0 0 0 .1-.15l.09-.8c0-.07.04-.12.1-.15a.18.18 0 0 1 .18 0l.7.43c.04.03.1.04.16.01.06-.02.1-.07.11-.13l.18-.79a.19.19 0 0 1 .12-.13.19.19 0 0 1 .18.03l.64.5c.05.03.1.04.17.03.06-.02.1-.06.12-.12l.27-.77c.02-.06.07-.1.13-.12.07-.01.13 0 .18.05l.57.57c.05.04.1.06.17.05a.18.18 0 0 0 .13-.1l.36-.73c.02-.06.08-.1.14-.1.07-.01.13.01.17.06l.5.63c.05.05.1.08.17.07.06 0 .11-.03.14-.09l.44-.68c.03-.06.09-.09.16-.09.06 0 .12.03.16.1zm-.16 2.24A11.43 11.43 0 0 1 27.33 16.3a11.43 11.43 0 0 1-11.47 11.47A11.43 11.43 0 0 1 4.39 16.29 11.43 11.43 0 0 1 15.86 4.82z" clip-rule="evenodd"/><path fill="#92B5BD" d="M15.86 2.5c.06 0 .12.03.16.08l.43.69c.03.05.08.08.15.08.07 0 .12-.02.15-.07l.51-.63a.18.18 0 0 1 .17-.06c.07 0 .12.04.15.1l.35.73a.18.18 0 0 0 .17.1c.05 0 .1-.01.13-.05l.58-.57a.19.19 0 0 1 .13-.05h.04c.07.02.12.06.14.12l.26.77c.03.06.07.1.13.12h.05c.05 0 .08 0 .12-.03l.64-.5a.19.19 0 0 1 .1-.05.2.2 0 0 1 .07.02c.07.02.11.07.13.13l.17.8c.02.05.06.1.11.13a.18.18 0 0 0 .18-.02l.68-.42a.18.18 0 0 1 .1-.03c.03 0 .06 0 .09.02.06.03.1.09.1.15l.08.8c.01.07.04.12.1.15.03.02.06.02.1.02l.07-.01.73-.35a.2.2 0 0 1 .18.01c.06.04.1.1.1.17l-.01.8c0 .07.02.12.07.16a.19.19 0 0 0 .17.03l.77-.26a.2.2 0 0 1 .06-.01c.05 0 .09.01.12.04.05.04.08.1.07.17l-.1.8c0 .06.01.12.06.16.04.04.08.05.13.05h.04l.79-.17a.19.19 0 0 1 .17.05c.05.05.07.12.05.18l-.19.79c-.01.06 0 .12.04.16.04.05.09.07.14.07h.02l.8-.08h.03c.05 0 .1.03.14.08.04.05.05.11.03.17l-.28.77a.18.18 0 0 0 .02.17c.04.05.1.08.16.08l.8.02c.07 0 .13.03.16.09.04.05.04.12.01.18l-.36.72c-.03.06-.03.12 0 .17s.08.1.14.1l.8.11c.07.01.12.05.15.11.02.06.02.13-.02.18l-.44.68a.18.18 0 0 0-.02.17c.03.06.07.1.13.11l.79.2c.06.02.1.07.13.13.02.06 0 .13-.04.18l-.51.62c-.04.05-.05.1-.04.17s.06.1.12.13l.75.28c.06.03.1.08.12.14.01.07 0 .13-.06.18l-.58.56a.19.19 0 0 0-.05.16c0 .06.04.11.1.14l.71.37c.06.03.1.09.1.15s-.02.13-.07.17l-.64.49a.18.18 0 0 0-.08.15c0 .07.03.12.08.15l.67.45c.06.04.09.1.09.17 0 .06-.04.12-.1.15l-.69.41c-.05.04-.09.09-.1.15s.03.12.07.16l.62.52c.05.05.07.1.06.18 0 .06-.05.11-.1.14l-.74.33a.18.18 0 0 0-.11.14c-.01.06 0 .12.04.16l.56.6c.04.04.06.1.04.17a.19.19 0 0 1-.12.13l-.78.25a.19.19 0 0 0-.1.29l.49.65c.04.05.05.12.02.18a.18.18 0 0 1-.14.11l-.8.16a.19.19 0 0 0-.13.28l.41.7c.04.06.04.12 0 .18a.18.18 0 0 1-.14.1l-.81.06a.18.18 0 0 0-.15.1.18.18 0 0 0 0 .17l.31.74c.03.06.02.12-.02.18a.18.18 0 0 1-.15.08l-.82-.03a.18.18 0 0 0-.15.08.19.19 0 0 0-.03.17l.23.77c.02.06 0 .13-.04.18a.18.18 0 0 1-.17.06l-.8-.12h-.03c-.05 0-.1.02-.13.06a.18.18 0 0 0-.05.16l.14.8c.01.06 0 .12-.06.17a.18.18 0 0 1-.12.05H25l-.78-.22h-.05a.18.18 0 0 0-.12.04.18.18 0 0 0-.07.15l.05.81c0 .07-.02.13-.07.16a.19.19 0 0 1-.18.03l-.76-.3a.19.19 0 0 0-.26.16l-.03.81c0 .07-.04.12-.1.15a.18.18 0 0 1-.18 0l-.71-.38a.19.19 0 0 0-.1-.02.2.2 0 0 0-.08.02.19.19 0 0 0-.1.14l-.13.8a.18.18 0 0 1-.11.14.18.18 0 0 1-.18-.02l-.67-.46a.19.19 0 0 0-.1-.03l-.07.01a.18.18 0 0 0-.12.13l-.22.77a.18.18 0 0 1-.13.13l-.05.01a.19.19 0 0 1-.12-.05l-.61-.53a.18.18 0 0 0-.17-.04.19.19 0 0 0-.13.1l-.3.76a.18.18 0 0 1-.15.1l-.03.01a.18.18 0 0 1-.14-.06l-.55-.6a.18.18 0 0 0-.16-.06.18.18 0 0 0-.14.1l-.4.7a.18.18 0 0 1-.15.1.18.18 0 0 1-.16-.08l-.47-.66a.18.18 0 0 0-.15-.08.18.18 0 0 0-.16.08l-.47.66a.18.18 0 0 1-.15.08.18.18 0 0 1-.16-.1l-.4-.7a.19.19 0 0 0-.14-.1h-.02c-.06 0-.1.02-.14.06l-.54.6a.18.18 0 0 1-.14.06h-.03a.19.19 0 0 1-.15-.11l-.3-.75a.18.18 0 0 0-.14-.11h-.04a.18.18 0 0 0-.12.04l-.61.53a.19.19 0 0 1-.18.04.18.18 0 0 1-.13-.13l-.22-.77a.18.18 0 0 0-.12-.13.17.17 0 0 0-.06-.01.19.19 0 0 0-.1.03l-.67.46a.18.18 0 0 1-.18.02.18.18 0 0 1-.12-.14l-.13-.8a.18.18 0 0 0-.1-.14.2.2 0 0 0-.08-.02.2.2 0 0 0-.1.02l-.7.39a.19.19 0 0 1-.19 0 .18.18 0 0 1-.1-.16l-.03-.8a.18.18 0 0 0-.09-.16.18.18 0 0 0-.17-.02l-.75.3a.2.2 0 0 1-.07.02.18.18 0 0 1-.11-.04.19.19 0 0 1-.08-.16l.05-.8a.18.18 0 0 0-.07-.16.18.18 0 0 0-.17-.04l-.78.21h-.05a.18.18 0 0 1-.12-.04.19.19 0 0 1-.06-.17l.14-.8a.18.18 0 0 0-.05-.17.18.18 0 0 0-.13-.05H6.4l-.8.12h-.03a.18.18 0 0 1-.14-.06.19.19 0 0 1-.04-.18l.24-.77a.19.19 0 0 0-.04-.17.18.18 0 0 0-.14-.08h-.01l-.81.03a.19.19 0 0 1-.17-.26l.31-.75c.03-.05.02-.11-.01-.17s-.08-.08-.15-.09l-.8-.06a.18.18 0 0 1-.16-.1.19.19 0 0 1 0-.19l.41-.7a.19.19 0 0 0 0-.17.18.18 0 0 0-.13-.1l-.79-.16A.19.19 0 0 1 3 21.3a.18.18 0 0 1 .02-.19l.48-.64c.04-.06.05-.12.03-.18s-.06-.1-.12-.12l-.77-.24a.18.18 0 0 1-.13-.13.19.19 0 0 1 .05-.18l.55-.6a.18.18 0 0 0-.06-.3l-.74-.32a.18.18 0 0 1-.1-.15c-.02-.06 0-.12.06-.17l.61-.52c.05-.04.07-.1.07-.16a.18.18 0 0 0-.1-.15l-.7-.4a.19.19 0 0 1-.08-.17c0-.06.02-.12.08-.16l.67-.45a.18.18 0 0 0 .08-.15.18.18 0 0 0-.07-.15l-.65-.5a.19.19 0 0 1-.07-.16c0-.06.04-.12.1-.15l.72-.37c.05-.03.09-.08.1-.14a.18.18 0 0 0-.06-.17l-.58-.56a.18.18 0 0 1-.06-.17.19.19 0 0 1 .12-.14l.76-.29c.06-.02.1-.06.11-.12s0-.12-.03-.17l-.52-.63a.18.18 0 0 1-.03-.17c.02-.07.06-.11.13-.13l.78-.2c.06-.01.1-.05.13-.11a.19.19 0 0 0-.02-.17l-.44-.68a.18.18 0 0 1-.01-.18c.02-.06.08-.1.14-.1l.8-.12c.07 0 .12-.04.15-.1s.03-.11 0-.17l-.37-.72c-.03-.06-.02-.13.01-.18s.1-.1.16-.1l.8-.01c.07 0 .12-.03.16-.08a.18.18 0 0 0 .02-.17l-.28-.77a.18.18 0 0 1 .03-.17.18.18 0 0 1 .17-.08l.8.08h.02c.06 0 .1-.02.14-.07.04-.04.06-.1.04-.16l-.18-.79a.18.18 0 0 1 .04-.17.19.19 0 0 1 .18-.06l.79.17h.04c.05 0 .09-.01.13-.05.04-.04.06-.1.06-.16l-.1-.8c-.01-.07.01-.13.06-.17a.19.19 0 0 1 .12-.04h.06l.77.26.06.01a.19.19 0 0 0 .19-.19v-.8c0-.07.02-.13.08-.16a.18.18 0 0 1 .1-.03l.08.01.73.35.08.01a.2.2 0 0 0 .1-.02.19.19 0 0 0 .09-.15l.09-.8c0-.07.04-.12.1-.15a.18.18 0 0 1 .08-.02.2.2 0 0 1 .1.03l.7.42a.18.18 0 0 0 .16.01c.06-.02.1-.07.11-.13l.18-.79a.19.19 0 0 1 .12-.14.18.18 0 0 1 .18.03l.64.5a.18.18 0 0 0 .17.04c.06-.02.1-.06.12-.12l.27-.77c.02-.06.07-.1.13-.12h.05c.05 0 .09.01.13.05l.57.57a.18.18 0 0 0 .17.05.18.18 0 0 0 .13-.1l.36-.73c.03-.06.08-.1.14-.1h.03c.05 0 .1.02.14.06l.5.63c.05.05.1.07.16.07.07 0 .12-.03.16-.09l.43-.68c.03-.06.1-.09.16-.09m0 25.27a11.43 11.43 0 0 0 11.47-11.47A11.44 11.44 0 0 0 15.86 4.82 11.43 11.43 0 0 0 4.39 16.3c0 3.17 1.28 6.03 3.36 8.1a11.43 11.43 0 0 0 8.1 3.37m0-25.42a.34.34 0 0 0-.29.16l-.43.68-.02.02c-.01 0-.02 0-.03-.02l-.5-.63a.34.34 0 0 0-.31-.12.34.34 0 0 0-.27.2l-.36.72-.02.02-.03-.01-.57-.57a.34.34 0 0 0-.57.13l-.27.77-.02.02h-.03l-.63-.5a.34.34 0 0 0-.33-.06.34.34 0 0 0-.22.25l-.18.79-.02.02h-.03l-.69-.43a.36.36 0 0 0-.18-.05c-.05 0-.1.01-.15.04a.34.34 0 0 0-.2.27l-.08.8-.01.03h-.03l-.73-.34a.35.35 0 0 0-.5.32l.01.8-.01.03h-.03l-.77-.25a.33.33 0 0 0-.33.06.34.34 0 0 0-.12.3l.1.81-.01.03h-.03l-.8-.16-.06-.01c-.1 0-.18.04-.25.1a.34.34 0 0 0-.09.33l.2.78c0 .02 0 .02-.02.03l-.02.01-.8-.07h-.04c-.1 0-.2.04-.27.13-.08.1-.1.22-.05.33l.27.76v.03L5 8.9l-.8.02a.34.34 0 0 0-.3.17.34.34 0 0 0 0 .33l.36.72v.03l-.03.02-.8.1c-.12.02-.22.1-.27.2s-.04.24.03.34l.44.67v.03c0 .01 0 .02-.02.02l-.78.2a.34.34 0 0 0-.24.23.34.34 0 0 0 .06.33l.52.62v.03l-.02.02-.75.29c-.12.04-.2.13-.22.25s.01.23.1.32l.59.56v.02l-.01.03-.72.37a.34.34 0 0 0-.18.28c-.01.12.03.23.13.3l.65.49v.05l-.68.45a.34.34 0 0 0-.15.3c0 .12.06.22.17.28l.7.42v.05l-.62.52c-.09.08-.13.2-.11.31.01.12.09.22.2.27l.74.33.01.03v.02l-.56.6c-.08.08-.1.2-.08.32s.12.2.23.24l.77.24.02.02v.03l-.48.65c-.07.1-.09.22-.05.33s.14.2.26.22l.8.15.02.02v.03l-.4.7a.34.34 0 0 0-.01.33c.05.1.15.17.28.18l.8.07.03.01v.03l-.32.74a.34.34 0 0 0 .03.34c.06.1.17.14.28.14h.02l.8-.02h.03v.04l-.23.77a.34.34 0 0 0 .07.33.34.34 0 0 0 .31.11l.8-.12h.01l.02.01.01.03-.14.8a.34.34 0 0 0 .43.39l.78-.21h.02l.02.03-.06.8c0 .13.05.23.14.3.06.05.13.07.2.07.05 0 .1 0 .14-.02l.75-.3h.03l.01.03.04.8c0 .13.07.23.18.29a.34.34 0 0 0 .33 0l.71-.38h.03l.02.02.13.8c.02.12.1.21.2.26a.34.34 0 0 0 .34-.03l.66-.47h.03l.02.02.22.78a.34.34 0 0 0 .34.25c.08 0 .16-.03.22-.09l.61-.53h.02l.03.01.31.75a.34.34 0 0 0 .32.21c.1 0 .19-.04.26-.11l.54-.6.02-.01.03.01.4.71c.05.1.15.17.27.18h.02c.12 0 .22-.05.28-.15l.47-.65.03-.02s.02 0 .02.02l.47.65c.07.1.17.15.28.15h.03c.12 0 .22-.07.28-.18l.4-.7.01-.02h.03l.54.6a.34.34 0 0 0 .32.12c.12-.02.21-.1.26-.21l.3-.75.03-.02h.01l.02.01.6.53a.34.34 0 0 0 .33.08c.12-.04.2-.13.24-.24l.22-.78c0-.01 0-.02.02-.02h.03l.66.47a.34.34 0 0 0 .54-.23l.13-.8c0-.01 0-.02.02-.02h.03l.71.38a.34.34 0 0 0 .33 0c.1-.06.17-.16.18-.29l.04-.8.01-.03h.03l.75.3c.05.02.09.02.13.02.08 0 .15-.02.2-.06.1-.07.15-.18.15-.3l-.05-.81v-.03h.03l.79.2c.03.02.06.02.09.02a.34.34 0 0 0 .34-.4l-.15-.8v-.03l.03-.01.8.12h.06c.1 0 .2-.04.26-.11.08-.1.1-.21.07-.33l-.24-.77v-.03l.03-.01.81.02h.02c.11 0 .21-.05.28-.14.07-.1.08-.23.03-.34l-.32-.74v-.03l.03-.01.8-.07a.34.34 0 0 0 .28-.18.34.34 0 0 0 0-.33l-.4-.7v-.03c0-.01 0-.02.02-.02l.79-.15c.12-.03.21-.1.25-.22s.03-.23-.04-.33l-.48-.65v-.03l.02-.02.77-.24c.11-.04.2-.13.23-.24a.34.34 0 0 0-.08-.33l-.55-.59-.01-.02c0-.02 0-.02.02-.03l.73-.33a.34.34 0 0 0 .2-.26.34.34 0 0 0-.11-.32l-.62-.52-.01-.03s0-.02.02-.02l.7-.41c.1-.07.16-.17.16-.29a.34.34 0 0 0-.15-.3l-.67-.45-.02-.02c0-.01 0-.02.02-.03l.64-.49c.1-.07.15-.18.13-.3a.34.34 0 0 0-.18-.28l-.72-.37-.02-.02.01-.03.59-.56c.08-.08.12-.2.1-.32a.34.34 0 0 0-.22-.25l-.75-.29c-.02 0-.02 0-.02-.02v-.03l.52-.62c.08-.1.1-.21.06-.33a.34.34 0 0 0-.24-.23l-.79-.2-.02-.02v-.02l.45-.68c.06-.1.07-.22.02-.33a.34.34 0 0 0-.26-.2l-.8-.11c-.02 0-.02 0-.03-.02v-.03l.36-.72a.34.34 0 0 0-.01-.33.34.34 0 0 0-.29-.17l-.8-.02-.04-.01v-.03l.28-.76a.34.34 0 0 0-.05-.33.34.34 0 0 0-.28-.14h-.03l-.8.08h-.03v-.04l.18-.78a.35.35 0 0 0-.4-.42l-.8.16h-.02c-.01-.01-.02-.02-.01-.03l.1-.8a.34.34 0 0 0-.13-.31.33.33 0 0 0-.33-.06l-.77.25h-.02c-.01 0-.02-.01-.02-.03v-.8a.35.35 0 0 0-.5-.32l-.71.34h-.03l-.02-.02-.09-.8a.34.34 0 0 0-.19-.28.34.34 0 0 0-.33.01l-.69.43h-.03l-.02-.02-.17-.79a.34.34 0 0 0-.34-.27.34.34 0 0 0-.21.07l-.64.5h-.02l-.03-.01-.27-.77a.34.34 0 0 0-.24-.22.34.34 0 0 0-.32.1l-.58.56h-.02l-.03-.01-.35-.73a.34.34 0 0 0-.31-.2c-.1 0-.2.05-.27.13l-.5.63-.03.02c-.02 0-.02 0-.03-.02l-.43-.68a.34.34 0 0 0-.3-.16zm0 25.26c-3.01 0-5.86-1.18-8-3.31s-3.3-4.98-3.3-8c0-3.02 1.17-5.86 3.3-8a11.23 11.23 0 0 1 8-3.3A11.25 11.25 0 0 1 27.17 16.3c0 3.01-1.17 5.85-3.3 7.99s-4.98 3.31-8 3.31z"/><circle cx="15.88" cy="16.22" r="12.21" fill="#CFCCCC" fill-rule="evenodd" clip-rule="evenodd"/><circle cx="15.88" cy="16.22" r="12.09" fill="#919191" fill-rule="evenodd" clip-rule="evenodd"/><circle cx="15.88" cy="16.22" r="11.48" fill="#CFCCCC" fill-rule="evenodd" clip-rule="evenodd"/><circle cx="15.88" cy="16.22" r="11.34" fill="#140F21" fill-rule="evenodd" clip-rule="evenodd"/><circle cx="15.88" cy="16.22" r="11.03" fill="#1D536C" fill-rule="evenodd" clip-rule="evenodd"/><path fill="#EDE730" d="M12.82 16.06a2.92 2.92 0 0 1 1.48-2.54l.01-.01.01-.01v-.01l.01-.01.01-.02v-.08l-3.58-6.2a.11.11 0 0 0-.06-.05l-.08.01a10.35 10.35 0 0 0-5.16 8.93c0 .03.01.06.03.07a.1.1 0 0 0 .07.04l7.15-.02a.1.1 0 0 0 .1-.1zm1.1-1.08a2.15 2.15 0 0 0 .44 2.7c.38.33.87.52 1.37.53h.03a2.15 2.15 0 0 0 2.14-2.14 2.15 2.15 0 0 0-2.87-2c-.46.16-.85.48-1.1.9zm6.15 8.36.88 1.5v.09a.1.1 0 0 1-.04.06 10.26 10.26 0 0 1-10.36-.07l.01-.08.9-1.56 8.61.06zm-1.78-3.08-.93-1.6a.1.1 0 0 0-.14-.04 2.92 2.92 0 0 1-2.94 0 .1.1 0 0 0-.08-.02.1.1 0 0 0-.06.05l-.94 1.62 5.09-.01zM24.7 11a10.24 10.24 0 0 0-3.82-3.85.1.1 0 0 0-.08-.01.1.1 0 0 0-.06.05l-3.55 6.18a.1.1 0 0 0 .04.15 2.95 2.95 0 0 1 1.46 2.54v.02c0 .03.01.06.03.07s.05.04.08.04h7.13c.03 0 .06-.02.08-.04a.1.1 0 0 0 .03-.07c0-1.78-.47-3.53-1.34-5.08z"/><path fill="#1F4654" d="M10.67 7.13h.03l.06.05 3.57 6.2.01.01V13.49l-.01.01-.01.01v.01h-.02v.01a2.93 2.93 0 0 0-1.48 2.54.1.1 0 0 1-.1.1l-7.16.02a.1.1 0 0 1-.1-.1 10.27 10.27 0 0 1 5.21-8.95m10.17.02a10.24 10.24 0 0 1 5.17 9.02.1.1 0 0 1-.07.02H18.8c-.02 0-.05 0-.07-.03s-.03-.04-.03-.07v-.02a2.92 2.92 0 0 0-1.47-2.54.1.1 0 0 1-.04-.15l3.56-6.18a.1.1 0 0 1 .06-.05h.03m-5.08 6.78a2.14 2.14 0 1 1 0 4.28h-.03a2.14 2.14 0 0 1 .03-4.28m-1.53 4.67a2.93 2.93 0 0 0 2.99.02l.05-.01a.1.1 0 0 1 .1.05l.92 1.6H13.2l.94-1.6a.1.1 0 0 1 .09-.06m-2.76 4.67 8.6.07.88 1.5v.08l-.04.07a10.26 10.26 0 0 1-10.36-.07l.01-.08.9-1.57m-.79-16.3c-.05 0-.1 0-.14.03a10.51 10.51 0 0 0-5.23 9.07c0 .07.03.14.08.2s.12.07.19.07l7.14-.01c.15 0 .27-.12.27-.27a2.76 2.76 0 0 1 1.39-2.4h.01l.02-.01.03-.02v-.01l.01-.01.02-.02.02-.02v-.03l.02-.02v-.02l.01-.03v-.15l-.03-.02-.03-.09h-.02l-3.53-6.1a.28.28 0 0 0-.23-.14zm10.17.01-.07.01a.27.27 0 0 0-.16.13l-3.56 6.18c-.07.13-.03.3.1.37a2.78 2.78 0 0 1 1.39 2.4v.02a.27.27 0 0 0 .26.27h7.14a.27.27 0 0 0 .27-.27 10.52 10.52 0 0 0-5.23-9.07.27.27 0 0 0-.14-.04zm-5.08 6.79a2.27 2.27 0 0 0-1.98 1.12 2.3 2.3 0 0 0 1.94 3.48h.04a2.3 2.3 0 0 0 0-4.6zm-1.53 4.66-.07.01a.27.27 0 0 0-.17.13l-.93 1.62-.14.24h5.65l-.14-.25-.93-1.6a.27.27 0 0 0-.37-.1 2.78 2.78 0 0 1-2.77-.01.27.27 0 0 0-.13-.04zm-2.86 4.68-.05.08-.9 1.57a.27.27 0 0 0-.03.2c.02.07.07.13.13.17a10.5 10.5 0 0 0 10.47 0c.06-.04.1-.1.13-.16a.27.27 0 0 0-.03-.2l-.88-1.52-.04-.08h-.1l-8.6-.06h-.1z"/><path fill="#1D536C" d="M22.25 13.14h-.48v-.34h.34c.24 0 .43-.2.43-.43v-1.04c0-.23-.19-.43-.43-.43h-.34v-.17h.4c.23 0 .43-.2.43-.43V9.2c0-.24-.2-.43-.43-.43H20.1a.43.43 0 0 0-.29.12.43.43 0 0 0-.29-.12h-1.16c-.1 0-.2.04-.28.1a.42.42 0 0 0-.27-.1h-1.24c-.17 0-.32.1-.39.25a.43.43 0 0 0-.39-.25h-1.24a.44.44 0 0 0-.18.04.44.44 0 0 0-.17-.04h-1.24c-.18 0-.33.1-.4.25a.43.43 0 0 0-.38-.25h-1.04a.43.43 0 0 0-.35.18.43.43 0 0 0-.34-.18H9.4c-.24 0-.43.2-.43.43v5.45c0 .23.2.43.43.43h1.04c.12 0 .24-.06.32-.15.08.1.2.15.32.15h1.08c.24 0 .43-.2.43-.43v-.73a1.59 1.59 0 0 0 .87 1.06c.28.14.6.2.95.2.32 0 .6-.05.85-.17.26-.13.47-.31.63-.55.11-.17.2-.34.24-.52v.7c0 .24.2.43.43.43h1.24c.1 0 .18-.03.25-.08.07.05.15.08.25.08h1.28c.1 0 .18-.03.25-.08.08.05.17.08.26.08h2.15c.24 0 .43-.19.43-.43v-1.09c0-.23-.2-.42-.43-.42zm-10.07 1.52h-1.09l-.64-2.48v2.48H9.4V9.2h1.04l.69 2.45V9.21h1.03v5.45zm3.6-1.8c0 .4 0 .7-.03.86s-.09.34-.2.52c-.12.17-.27.3-.46.4-.2.09-.42.13-.67.13-.29 0-.54-.05-.76-.16-.21-.1-.38-.25-.48-.42-.11-.17-.17-.35-.2-.55l-.02-1.2V9.2h1.23v4.08c0 .24.02.4.04.46.02.07.07.1.14.1s.13-.04.15-.1c.02-.08.03-.25.03-.53V9.21h1.24v3.64zm2.53 1.8-.5-2.34v2.34h-1.24V9.2h1.24v2.12l.55-2.12h1.16l-.7 2.46.77 2.99H18.3zm3.94 0H20.1V9.2h2.07v1.09h-.83v1.03h.77v1.04h-.77v1.2h.91v1.09z"/><path fill="#F0EFEF" d="m11.14 11.66-.69-2.45H9.41v5.45h1.04v-2.48l.64 2.48h1.09V9.21h-1.04zM14.55 13.22c0 .28-.01.45-.03.52-.03.07-.08.11-.15.11-.07 0-.12-.03-.14-.1a1.81 1.81 0 0 1-.04-.45V9.2h-1.23v3.22c0 .62 0 1.02.02 1.21.02.2.09.38.2.55.1.17.27.31.48.42.22.1.47.16.76.16.25 0 .48-.04.67-.13a1.27 1.27 0 0 0 .67-.92c.02-.17.03-.46.03-.87V9.21h-1.24v4.01zM19.52 9.21h-1.16l-.55 2.12V9.21h-1.24v5.45h1.24v-2.34l.5 2.34h1.28l-.78-2.99z"/><g><path fill="#F0EFEF" d="M21.34 13.57v-1.2h.77v-1.04h-.77V10.3h.83V9.21H20.1v5.45h2.15v-1.09z"/></g><g><circle cx="8.7" cy="21.52" r=".11" fill="#010101" fill-rule="evenodd" clip-rule="evenodd"/><path fill="#1D4654" d="M8.7 21.77a.25.25 0 1 1 0-.5.25.25 0 0 1 0 .5zm0-.28a.04.04 0 0 0-.04.03c0 .02.02.04.04.04s.03-.02.03-.04a.03.03 0 0 0-.03-.03z"/><path fill="#010101" d="M10.96 21.1a.69.69 0 0 0-.48.17.75.75 0 0 0-.23.44c-.04.2 0 .35.09.46.09.1.23.16.4.16a.7.7 0 0 0 .4-.11c.1-.08.19-.19.23-.33l-.3-.01c-.06.14-.15.22-.28.22-.08 0-.14-.03-.18-.08-.03-.05-.04-.15-.01-.3.04-.26.15-.4.31-.4.15 0 .2.1.18.26l.34-.02c0-.3-.15-.46-.47-.46z"/><path fill="#1D4654" d="M10.75 22.47a.65.65 0 0 1-.52-.21c-.12-.14-.16-.34-.12-.57a.88.88 0 0 1 .28-.52c.15-.14.34-.21.57-.21.2 0 .36.05.47.16.1.1.15.26.14.45 0 .07-.06.13-.13.14l-.34.01a.14.14 0 0 1-.15-.16v-.08h-.04c-.03 0-.12 0-.17.26-.03.15 0 .2 0 .2s0 .02.05.02c.03 0 .1 0 .15-.13.02-.06.07-.1.14-.1l.3.02a.14.14 0 0 1 .13.19.72.72 0 0 1-.3.4.87.87 0 0 1-.46.13zm-.2-1.06a.6.6 0 0 0-.16.33c-.03.15-.01.26.06.33a.3.3 0 0 0 .07.07l-.02-.04c-.06-.09-.07-.22-.04-.4a.89.89 0 0 1 .09-.3zm.6-.14.01.02a.3.3 0 0 1 .07.14h.04a.22.22 0 0 0-.05-.1.18.18 0 0 0-.07-.05z"/><path fill="#010101" d="M12.75 21.12h-.96l-.21 1.19h.97l.04-.24h-.64l.04-.26h.51l.04-.22h-.51l.04-.25h.64z"/><path fill="#1D4654" d="M12.55 22.45h-.97a.14.14 0 0 1-.13-.16l.2-1.2a.14.14 0 0 1 .14-.11h.97a.14.14 0 0 1 .14.16l-.04.23a.14.14 0 0 1-.14.12h-.08c.03.04.05.08.04.12l-.04.23c0 .04-.03.07-.06.1h.01a.14.14 0 0 1 .14.16l-.04.23a.15.15 0 0 1-.14.12zm-.8-.28h.09a.14.14 0 0 1-.03-.12l.04-.26c0-.04.04-.08.08-.1h-.01a.14.14 0 0 1-.03-.13l.04-.24.03-.06h-.05l-.16.9z"/><path fill="#010101" d="M14.01 21.37a.48.48 0 0 0-.19-.19.8.8 0 0 0-.36-.06h-.41l-.2 1.19h.46c.2 0 .37-.06.5-.17a.7.7 0 0 0 .24-.43.5.5 0 0 0-.04-.34zm-.28.33c-.02.1-.06.2-.13.27a.35.35 0 0 1-.28.12h-.13l.13-.75h.13c.07 0 .12 0 .17.03.04.03.07.07.1.13a.4.4 0 0 1 0 .2z"/><path fill="#1D4654" d="M13.3 22.45h-.46c-.04 0-.08-.02-.1-.05s-.04-.07-.04-.11l.2-1.2a.14.14 0 0 1 .15-.11h.41c.2 0 .34.02.43.08.1.05.18.13.25.24.07.12.08.27.06.44a.85.85 0 0 1-.3.5.9.9 0 0 1-.6.21zm-.29-.28h.07a.14.14 0 0 1-.03-.1l.13-.76c0-.02 0-.03.02-.05h-.03l-.16.9zm.75-.86a.4.4 0 0 1 .09.15c.03.08.04.17.02.27a.65.65 0 0 1-.09.24.55.55 0 0 0 .13-.28c.02-.1.01-.19-.02-.25a.34.34 0 0 0-.13-.13zm-.32.17-.08.46a.2.2 0 0 0 .13-.06.39.39 0 0 0 .1-.2v-.13l-.04-.05a.2.2 0 0 0-.1-.02h-.01z"/><path fill="#010101" d="M15.08 21.12h-.36l-.64 1.19h.28l.12-.25h.44l.04.25h.34l-.22-1.2zm-.48.72.21-.41.07.41h-.28z"/><path fill="#1D4654" d="M15.3 22.45h-.34a.14.14 0 0 1-.14-.12l-.02-.12h-.23l-.09.17a.14.14 0 0 1-.12.07h-.28a.15.15 0 0 1-.12-.07.15.15 0 0 1 0-.14l.63-1.19a.14.14 0 0 1 .13-.07h.36c.07 0 .13.05.14.11l.22 1.2c.01.04 0 .08-.03.11a.14.14 0 0 1-.1.05zm-.22-.28h.05l-.17-.9h-.16l-.01.02h.04c.06 0 .11.05.12.11l.07.42c.01.04 0 .09-.03.12.04.02.06.06.07.1l.02.13zm-.62-.28-.02.04a.3.3 0 0 1 .04 0v-.01l-.02-.03z"/><path fill="#010101" fill-rule="evenodd" d="M16.75 21.27a.25.25 0 0 0-.14-.12.77.77 0 0 0-.26-.03h-.6l-.2 1.19h.32l.08-.47h.23l.12.47h.35l-.16-.53c.17-.06.27-.16.3-.3a.3.3 0 0 0-.04-.2zm-.3.2c0 .04-.02.07-.05.1a.21.21 0 0 1-.08.05.61.61 0 0 1-.14.02h-.2l.06-.3H16.37c.03 0 .05.02.07.05s.02.05.01.09z" clip-rule="evenodd"/><path fill="#1D4654" d="M16.66 22.45h-.35a.14.14 0 0 1-.14-.1l-.1-.36-.06.34a.14.14 0 0 1-.14.12h-.32a.14.14 0 0 1-.14-.16l.2-1.2a.14.14 0 0 1 .14-.11h.6c.13 0 .23.01.3.04.1.03.18.1.23.19.05.08.06.18.04.29a.5.5 0 0 1-.25.36l.12.4c.02.05 0 .1-.02.14a.15.15 0 0 1-.11.05zm-.25-.28h.05l-.1-.35v-.06l-.06.01.02.03.1.37zm-.7 0h.04l.06-.36c0-.04.03-.07.06-.1a.14.14 0 0 1-.03-.1l.06-.3.01-.05h-.04l-.15.9zm.82-.9.02.04c.04.05.06.12.05.19 0 .03-.02.05-.03.07a.2.2 0 0 0 .07-.12l-.01-.1a.12.12 0 0 0-.07-.07h-.03zm-.38.22h.13l.02-.02h-.14v.02z"/><path fill="#010101" d="M18.34 21.1a.69.69 0 0 0-.47.17.74.74 0 0 0-.24.44c-.03.2 0 .35.1.46.09.1.22.16.4.16a.7.7 0 0 0 .4-.11c.1-.08.18-.19.23-.33l-.3-.01c-.06.14-.15.22-.28.22-.08 0-.14-.03-.18-.08-.04-.05-.04-.15-.01-.3.04-.26.14-.4.3-.4.15 0 .21.1.19.26l.34-.02c0-.3-.15-.46-.48-.46z"/><path fill="#1D4654" d="M18.13 22.47a.65.65 0 0 1-.51-.21c-.13-.14-.17-.34-.13-.57a.88.88 0 0 1 .28-.52c.16-.14.35-.21.57-.21.21 0 .37.05.47.16.1.1.15.26.15.45 0 .07-.06.13-.14.14l-.33.01a.14.14 0 0 1-.15-.16v-.08h-.04c-.03 0-.13 0-.18.26-.02.15 0 .2 0 .2s.01.02.06.02c.03 0 .1 0 .14-.13.02-.06.08-.1.14-.1l.3.02c.05 0 .1.03.12.06.02.04.03.08.02.13a.72.72 0 0 1-.3.4.86.86 0 0 1-.47.13zm-.2-1.06a.6.6 0 0 0-.16.33c-.02.15 0 .26.06.33a.3.3 0 0 0 .08.07.2.2 0 0 1-.03-.04c-.06-.09-.07-.22-.04-.4a.89.89 0 0 1 .1-.3zm.61-.14.01.02a.3.3 0 0 1 .07.14h.04a.22.22 0 0 0-.05-.1.2.2 0 0 0-.07-.05z"/><path fill="#010101" d="M20.17 21.27a.25.25 0 0 0-.14-.12.78.78 0 0 0-.26-.03h-.6l-.2 1.19h.32l.08-.47h.23l.12.47h.35l-.16-.53c.17-.06.27-.16.29-.3a.28.28 0 0 0-.03-.2zm-.3.2c0 .04-.02.07-.04.1a.22.22 0 0 1-.09.05.61.61 0 0 1-.14.02h-.2l.06-.3h.33c.03 0 .05.02.07.05.02.02.02.05.02.09z"/><path fill="#1D4654" d="M20.07 22.45h-.35a.14.14 0 0 1-.13-.1l-.1-.36-.06.34a.14.14 0 0 1-.14.12h-.32a.14.14 0 0 1-.14-.16l.2-1.2a.14.14 0 0 1 .14-.11h.6c.13 0 .23.01.3.04.1.03.18.1.23.19.05.08.06.18.04.29a.5.5 0 0 1-.25.36l.12.4c.02.05 0 .1-.02.14a.15.15 0 0 1-.12.05zm-.23-.28h.04l-.1-.35v-.06l-.06.01.02.03.1.37zm-.7 0h.03l.06-.36c0-.04.03-.07.06-.1a.14.14 0 0 1-.02-.1l.05-.3.01-.05h-.03l-.16.9zm.81-.9.02.04c.04.05.06.12.05.19 0 .03-.02.05-.03.07a.2.2 0 0 0 .07-.12l-.01-.1a.12.12 0 0 0-.07-.07h-.03zm-.38.22h.13l.02-.02h-.14v.02z"/><g><path fill="#010101" d="M21.58 21.12h-.97l-.2 1.19h.96l.04-.24h-.64l.04-.26h.51l.04-.22h-.51l.04-.25h.65z"/><path fill="#1D4654" d="M21.37 22.45h-.96a.14.14 0 0 1-.14-.16l.2-1.2a.14.14 0 0 1 .14-.11h.97a.14.14 0 0 1 .14.16l-.04.23a.14.14 0 0 1-.14.12h-.08c.04.04.05.08.04.12l-.04.23c0 .04-.03.07-.06.1h.01a.14.14 0 0 1 .14.16l-.04.23a.14.14 0 0 1-.14.12zm-.8-.28h.1-.01a.14.14 0 0 1-.03-.12l.04-.26c.01-.04.04-.08.08-.1a.14.14 0 0 1-.04-.13l.04-.24.03-.06h-.05l-.15.9z"/></g><g><path fill="#010101" d="M22.84 21.12h-.97l-.2 1.19h.96l.04-.24h-.64l.04-.26h.51l.04-.22h-.51l.04-.25h.65z"/><path fill="#1D4654" d="M22.63 22.45h-.96a.14.14 0 0 1-.15-.16l.2-1.2a.14.14 0 0 1 .15-.11h.96a.14.14 0 0 1 .15.16l-.04.23a.14.14 0 0 1-.14.12h-.08c.03.04.04.08.04.12l-.04.23c0 .04-.03.07-.06.1h.01a.14.14 0 0 1 .14.16l-.04.23c0 .07-.07.12-.14.12zm-.8-.28h.09a.14.14 0 0 1-.03-.12l.04-.26c0-.04.04-.08.08-.1a.14.14 0 0 1-.04-.13l.04-.24.03-.06h-.05l-.16.9z"/></g><g><path fill="#010101" d="m23.13 21.12-.21 1.19h.31l.05-.27.23-.25.19.52h.34l-.27-.77.4-.42h-.31l-.52.56.1-.56z"/><path fill="#1D4654" d="M24.04 22.45h-.34a.14.14 0 0 1-.14-.1l-.1-.29-.05.04-.04.23a.14.14 0 0 1-.14.12h-.3a.14.14 0 0 1-.15-.16l.2-1.2a.14.14 0 0 1 .14-.11h.32a.14.14 0 0 1 .14.16l-.02.09.2-.21a.15.15 0 0 1 .1-.04h.3c.06 0 .11.03.14.08.02.05 0 .11-.03.15l-.34.37.25.67v.06c0 .08-.06.14-.14.14zm-.24-.28h.04l-.2-.58-.01-.01-.07.08c.04.01.07.04.09.09l.15.42zm-.7 0h.01l.03-.16.04-.07.12-.13h-.02a.14.14 0 0 1-.08-.16l.07-.39h-.02l-.16.9z"/></g><g><path fill="#010101" fill-rule="evenodd" d="M9.47 22.58c-.28.25-.98.27-1.42-.27a.9.9 0 0 1 .1-.33c.01.04.06.1.08.14.12.13.57.66 1.17.35.2-.1.3-.42.34-.55 0-.03.02-.02.02 0a.94.94 0 0 1-.3.66z" clip-rule="evenodd"/><path fill="#1D4654" d="M8.95 22.89c-.39 0-.76-.18-1.01-.5a.14.14 0 0 1-.04-.1c.02-.15.07-.26.11-.37a.14.14 0 0 1 .13-.08c.05 0 .1.03.13.08l.07.1c.28.34.52.4.68.4.1 0 .21-.02.31-.08.13-.07.22-.31.26-.43l.01-.04c.04-.1.13-.12.15-.12.04 0 .08.02.11.05.02.02.04.06.04.13 0 .11-.03.47-.34.76a.92.92 0 0 1-.6.2z"/></g><g><path fill="#010101" fill-rule="evenodd" d="m9.5 20.79.09.18c.04.09 0 .07-.02.02l-.15-.19a.3.3 0 0 1 .07-.01z" clip-rule="evenodd"/><path fill="#1D4654" d="M9.6 21.18c-.09 0-.14-.08-.15-.11l-.14-.17a.14.14 0 0 1-.03-.13.14.14 0 0 1 .09-.1.44.44 0 0 1 .1-.03c.06 0 .11.02.14.07.06.08.08.13.1.19l.01.02c.02.04.05.12 0 .19a.15.15 0 0 1-.12.07z"/></g><g><path fill="#010101" d="M9.28 20.48c-.34-.37-.92-.34-1.26-.1-.35.25-.51.72-.31 1.3.05-.13.14-.3.26-.45-.01-.26.02-.38.12-.52a.7.7 0 0 1 1-.2c.06-.02.16-.03.19-.03z"/><path fill="#1D4654" d="M7.7 21.82a.14.14 0 0 1-.13-.1c-.1-.3-.12-.6-.05-.85.07-.25.21-.46.42-.6.18-.14.43-.22.67-.22.3 0 .58.12.78.33.03.04.04.1.03.14s-.07.09-.12.1h-.02l-.16.03a.14.14 0 0 1-.12-.02.52.52 0 0 0-.3-.1.6.6 0 0 0-.49.26c-.07.11-.1.2-.1.43 0 .03 0 .07-.02.1-.13.15-.21.32-.25.41a.14.14 0 0 1-.13.09zm.34-1.27c-.2.17-.3.42-.27.72l.06-.09a.8.8 0 0 1 .21-.63z"/></g><g><path fill="#010101" fill-rule="evenodd" d="m8.93 22.5.16-.14c.04-.02.05-.06-.02 0l-.2.12.06.01z" clip-rule="evenodd"/><path fill="#1D4654" d="M8.93 22.64H8.9a.25.25 0 0 1-.12-.05.14.14 0 0 1-.05-.13c0-.04.03-.09.07-.11l.16-.1.02-.01c.04-.03.08-.06.13-.06.06 0 .12.05.14.1.01.05.02.13-.09.2l-.06.05-.1.08a.15.15 0 0 1-.08.03z"/></g><g><path fill="#010101" fill-rule="evenodd" d="M9.82 20.66c-.24-.28-1.18-.11-1.7.53-.5.65-.62 1.28-.22 1.56.19.14.41.1.65-.01-.04-.02-.09-.03-.15-.07-.18.05-.29.02-.38-.14-.2-.33.18-.91.45-1.19.18-.19.96-.82 1.32-.58.12.08.13.24.11.39-.01.09 0 .09.02 0a.55.55 0 0 0-.1-.48z" clip-rule="evenodd"/><path fill="#1D4654" d="M8.18 22.98a.62.62 0 0 1-.36-.11.69.69 0 0 1-.3-.48c-.05-.36.13-.82.5-1.28a1.91 1.91 0 0 1 1.4-.72c.23 0 .4.06.5.18a.69.69 0 0 1 .12.68c-.04.1-.11.1-.14.1a.15.15 0 0 1-.11-.04c-.05-.06-.04-.12-.03-.18.01-.13 0-.22-.05-.25a.2.2 0 0 0-.12-.03c-.32 0-.85.42-1.02.59-.12.12-.27.32-.38.54-.1.2-.11.37-.05.47.05.1.09.1.13.1.02 0 .06 0 .1-.02.04 0 .07 0 .1.02l.08.03.06.03c.05.03.08.08.08.13s-.03.1-.08.13a1 1 0 0 1-.43.11zm.86-2.24c-.28.09-.58.27-.8.54-.32.4-.47.79-.43 1.07l.02.09a.95.95 0 0 1 .1-.58 2.35 2.35 0 0 1 .93-1.01c.06-.04.12-.08.18-.1z"/></g></g><g><circle cx="8.7" cy="21.52" r=".11" fill="#C52A29" fill-rule="evenodd" clip-rule="evenodd"/><path fill="#C52A29" d="M10.96 21.1a.69.69 0 0 0-.48.17.75.75 0 0 0-.23.44c-.04.2 0 .35.09.46.09.1.23.16.4.16a.7.7 0 0 0 .4-.11c.1-.08.19-.19.23-.33l-.3-.01c-.06.14-.15.22-.28.22-.08 0-.14-.03-.18-.08-.03-.05-.04-.15-.01-.3.04-.26.15-.4.31-.4.15 0 .2.1.18.26l.34-.02c0-.3-.15-.46-.47-.46zM12.75 21.12h-.96l-.21 1.19h.97l.04-.24h-.64l.04-.26h.51l.04-.22h-.51l.04-.25h.64zM14.01 21.37a.48.48 0 0 0-.19-.19.8.8 0 0 0-.36-.06h-.41l-.2 1.19h.46c.2 0 .37-.06.5-.17a.7.7 0 0 0 .24-.43.5.5 0 0 0-.04-.34zm-.28.33c-.02.1-.06.2-.13.27a.35.35 0 0 1-.28.12h-.13l.13-.75h.13c.07 0 .12 0 .17.03.04.03.07.07.1.13a.4.4 0 0 1 0 .2zM15.08 21.12h-.36l-.64 1.19h.28l.12-.25h.44l.04.25h.34l-.22-1.2zm-.48.72.21-.41.07.41h-.28z"/><path fill="#C52A29" fill-rule="evenodd" d="M16.75 21.27a.25.25 0 0 0-.14-.12.77.77 0 0 0-.26-.03h-.6l-.2 1.19h.32l.08-.47h.23l.12.47h.35l-.16-.53c.17-.06.27-.16.3-.3a.3.3 0 0 0-.04-.2zm-.3.2c0 .04-.02.07-.05.1a.21.21 0 0 1-.08.05.61.61 0 0 1-.14.02h-.2l.06-.3H16.37c.03 0 .05.02.07.05s.02.05.01.09z" clip-rule="evenodd"/><path fill="#C52A29" d="M18.34 21.1a.69.69 0 0 0-.47.17.74.74 0 0 0-.24.44c-.03.2 0 .35.1.46.09.1.22.16.4.16a.7.7 0 0 0 .4-.11c.1-.08.18-.19.23-.33l-.3-.01c-.06.14-.15.22-.28.22-.08 0-.14-.03-.18-.08-.04-.05-.04-.15-.01-.3.04-.26.14-.4.3-.4.15 0 .21.1.19.26l.34-.02c0-.3-.15-.46-.48-.46zM20.17 21.27a.25.25 0 0 0-.14-.12.78.78 0 0 0-.26-.03h-.6l-.2 1.19h.32l.08-.47h.23l.12.47h.35l-.16-.53c.17-.06.27-.16.29-.3a.28.28 0 0 0-.03-.2zm-.3.2c0 .04-.02.07-.04.1a.22.22 0 0 1-.09.05.61.61 0 0 1-.14.02h-.2l.06-.3h.33c.03 0 .05.02.07.05.02.02.02.05.02.09zM21.58 21.12h-.97l-.2 1.19h.96l.04-.24h-.64l.04-.26h.51l.04-.22h-.51l.04-.25h.65zM22.84 21.12h-.97l-.2 1.19h.96l.04-.24h-.64l.04-.26h.51l.04-.22h-.51l.04-.25h.65zM23.13 21.12l-.21 1.19h.31l.05-.27.23-.25.19.52h.34l-.27-.77.4-.42h-.31l-.52.56.1-.56z"/><path fill="#C52A29" fill-rule="evenodd" d="M9.47 22.58c-.28.25-.98.27-1.42-.27a.9.9 0 0 1 .1-.33c.01.04.06.1.08.14.12.13.57.66 1.17.35.2-.1.3-.42.34-.55 0-.03.02-.02.02 0a.94.94 0 0 1-.3.66zM9.5 20.79l.09.18c.04.09 0 .07-.02.02l-.15-.19a.3.3 0 0 1 .07-.01z" clip-rule="evenodd"/><path fill="#C52A29" d="M9.28 20.48c-.34-.37-.92-.34-1.26-.1-.35.25-.51.72-.31 1.3.05-.13.14-.3.26-.45-.01-.26.02-.38.12-.52a.7.7 0 0 1 1-.2c.06-.02.16-.03.19-.03z"/><path fill="#C52A29" fill-rule="evenodd" d="m8.93 22.5.16-.14c.04-.02.05-.06-.02 0l-.2.12.06.01zM9.82 20.66c-.24-.28-1.18-.11-1.7.53-.5.65-.62 1.28-.22 1.56.19.14.41.1.65-.01-.04-.02-.09-.03-.15-.07-.18.05-.29.02-.38-.14-.2-.33.18-.91.45-1.19.18-.19.96-.82 1.32-.58.12.08.13.24.11.39-.01.09 0 .09.02 0a.55.55 0 0 0-.1-.48z" clip-rule="evenodd"/></g></svg>