<svg xmlns="http://www.w3.org/2000/svg" xml:space="preserve" viewBox="0 0 32 32"><circle cx="15.9" cy="17.05" r="12.96" fill="#1F2020" fill-rule="evenodd" clip-rule="evenodd"/><path fill="#C02026" fill-rule="evenodd" d="M4.35 20.9c1.77 5.36 6.23 7.87 11.7 7.87 5.49 0 10.11-2.62 11.88-7.8l-23.58-.08z" clip-rule="evenodd"/><path fill="#1F2020" fill-rule="evenodd" d="M16.06.73a15.37 15.37 0 1 0 0 30.73 15.37 15.37 0 0 0 0-30.73zm0 26.94a11.58 11.58 0 1 1 0-23.15 11.58 11.58 0 0 1 0 23.15z" clip-rule="evenodd"/><path fill="#1F2020" fill-rule="evenodd" d="M16.06 1.16a14.94 14.94 0 1 0 0 29.87 14.94 14.94 0 0 0 0-29.88zm0 29.6a14.67 14.67 0 1 1 0-29.33 14.67 14.67 0 0 1 0 29.33z" clip-rule="evenodd"/><g fill="#010101" opacity=".2"><path d="M16.22 4.07V1.6h-.5v2.47l.44-.01h.06zM10.74 2.55l-.46.2.96 2.37.46-.2-.96-2.37zM8.08 3.92l-.42.27L9.1 6.36c.14-.1.27-.2.42-.29L8.08 3.91zM21.96 2.85l-.46-.2-.95 2.24.46.2.95-2.24zM3.92 7.96l-.28.42 2.24 1.48.27-.43-2.23-1.47zM24.83 7.76l1.68-1.68-.36-.35-1.67 1.67.35.36zM30.28 13.59l-.1-.5-2.26.47.1.5 2.26-.47zM28.18 16.5h2.36V16h-2.35v.5zM2.66 10.21l-.2.46 2.5 1.06c.05-.16.12-.31.18-.46L2.66 10.2zM24.23 4.2l-.42-.28-1.3 1.96.43.28 1.3-1.97zM28.25 8.38l-.27-.41-1.93 1.28.28.42 1.93-1.29zM29.6 11l-.18-.47-2.18.88.19.47L29.6 11zM13.25 1.89l-.5.1.5 2.43.5-.11-.5-2.42zM23.79 28.45l.42-.28-1.38-2.07-.42.27 1.38 2.07zM27.96 24.4l.28-.41-2-1.32-.29.41 2.01 1.32zM21.19 29.75l.46-.2-.94-2.32-.47.18.95 2.34zM18.63 30.52l.49-.1-.52-2.55-.5.1.53 2.55zM29.27 22.05l.2-.46-2.18-.92-.2.46 2.18.93zM30.16 19.28l.1-.49-2.28-.46-.1.5 2.28.45zM10.12 29.46l.46.2 1.03-2.43-.46-.2-1.03 2.43zM2.41 21.44l.19.47 2.53-1.03-.2-.46-2.52 1.02zM1.65 18.96l.1.5 2.72-.56a10.2 10.2 0 0 1-.1-.5l-2.72.57zM3.73 24.1l.27.41 2.3-1.53-.27-.42-2.3 1.53zM1.7 13.04l-.1.5 2.7.54.1-.5-2.7-.54zM7.8 28.24l.41.28 1.5-2.28-.42-.28-1.5 2.28zM12.9 30.4l.48.1.52-2.6c-.16-.02-.33-.06-.49-.1l-.52 2.6zM19.13 1.94l-.5-.1-.47 2.4.49.08.48-2.38zM7.47 24.4l-1.91 1.92.35.36 1.92-1.92a9.9 9.9 0 0 1-.36-.35zM24.35 24.9l1.74 1.73.35-.36-1.73-1.72-.36.35zM7.7 7.54 5.86 5.68l-.36.36L7.36 7.9l.35-.36zM4.14 16H1.42v.5h2.73l-.01-.4V16zM15.71 28.1v2.63h.5v-2.61h-.05l-.45-.01z"/><path d="M7.83 24.76c.45.44.94.84 1.46 1.2l5.14-7.8-6.6 6.6zM6.3 22.98c.36.5.75.98 1.17 1.43l6.58-6.58-7.75 5.15zM13.9 27.9c.6.12 1.2.19 1.81.2v-9.2l-1.8 9zM11.61 27.23c.58.23 1.18.43 1.8.57l1.84-9.15-3.64 8.58zM9.71 26.24c.46.3.94.56 1.44.79l3.55-8.37-4.99 7.58zM26.23 22.66c.32-.48.6-1 .86-1.53l-8.96-3.8 8.1 5.34zM16.22 28.12c.64 0 1.27-.06 1.88-.16l-1.88-9.17v9.33zM27.29 20.67c.24-.6.44-1.21.59-1.85l-9.38-1.88 8.79 3.73zM24.71 24.55c.45-.46.87-.95 1.24-1.47l-7.92-5.22 6.68 6.69zM18.89 16.5l9.09 1.83c.11-.6.18-1.2.2-1.83h-9.3zM5.13 20.88c.26.59.56 1.15.9 1.68l7.82-5.2-8.72 3.52zM18.6 27.87c.56-.11 1.1-.27 1.64-.46l-3.55-8.79 1.9 9.25zM20.71 27.23c.6-.24 1.16-.53 1.7-.86l-5.21-7.83 3.51 8.69zM22.83 26.1c.54-.36 1.05-.76 1.52-1.2l-6.93-6.93 5.41 8.13zM4.47 18.9c.12.52.28 1.03.47 1.52l8.16-3.3-8.63 1.78zM22.52 5.88c-.48-.3-.98-.56-1.5-.8l-3.7 8.68 5.2-7.88zM18.16 4.23c-.64-.1-1.28-.16-1.94-.16v9.8l1.94-9.64zM20.55 4.9a11.9 11.9 0 0 0-1.9-.58l-1.93 9.6 3.83-9.03zM24.48 7.4c-.48-.45-1-.87-1.54-1.24l-5.38 8.15 6.92-6.9zM15.71 4.08c-.67.02-1.32.1-1.96.23l1.96 9.55V4.08zM13.26 4.42c-.53.13-1.05.3-1.56.5l3.39 8.38-1.83-8.88zM9.1 6.36c-.5.36-.96.75-1.4 1.18l6.51 6.5-5.1-7.68zM26.05 9.25c-.37-.53-.77-1.03-1.22-1.5l-6.86 6.87 8.08-5.37zM7.36 7.9c-.44.48-.85.99-1.21 1.53l8.04 5.3L7.36 7.9zM4.3 14.08c-.1.63-.16 1.27-.16 1.92h9.7l-9.53-1.92zM4.95 11.73c-.23.6-.41 1.22-.55 1.86l9.36 1.88-8.8-3.74zM4.15 16.5c.02.65.1 1.29.21 1.9l9.26-1.9H4.15zM5.88 9.86c-.27.45-.52.92-.73 1.4l8.08 3.44-7.35-4.84zM27.92 13.56c-.12-.58-.29-1.14-.5-1.68l-9 3.63 9.5-1.95zM11.24 5.12c-.6.27-1.18.59-1.73.95l5.38 8.08-3.65-9.03zM27.24 11.41c-.26-.6-.56-1.2-.91-1.74l-8.1 5.38 9.01-3.64zM28.19 16c0-.66-.07-1.31-.18-1.95L18.55 16h9.64z"/></g><path fill="#570F0F" fill-rule="evenodd" d="M27.08 11.35 4.95 11.3a9.6 9.6 0 0 0-.9 4.79c0 1.66.4 3.38.99 4.84l21.93.08c.64-1.51 1-3.18 1-4.92 0-2.12.02-3-.9-4.75z" clip-rule="evenodd"/><path fill="#131414" fill-rule="evenodd" d="M16.06 4.13a11.96 11.96 0 1 0 0 23.93 11.96 11.96 0 0 0 0-23.93zm0 23.52a11.55 11.55 0 1 1 0-23.1 11.55 11.55 0 0 1 0 23.1z" clip-rule="evenodd"/><path fill="#FFCD05" fill-rule="evenodd" d="M16.06 3.89a12.2 12.2 0 1 0 0 24.41 12.2 12.2 0 0 0 0-24.41zm0 23.99a11.78 11.78 0 1 1 0-23.57 11.78 11.78 0 0 1 0 23.57z" clip-rule="evenodd"/><path fill="#FFCD05" fill-rule="evenodd" d="M16.06.66a15.44 15.44 0 1 0 0 30.87 15.44 15.44 0 0 0 0-30.87zm0 30.33a14.9 14.9 0 1 1 0-29.8 14.9 14.9 0 0 1 0 29.8z" clip-rule="evenodd"/><path fill="#010101" fill-rule="evenodd" d="M16.06 1.12a14.97 14.97 0 1 0 0 29.95 14.97 14.97 0 0 0 0-29.95zm0 29.43a14.45 14.45 0 1 1 0-28.9 14.45 14.45 0 0 1 0 28.9z" clip-rule="evenodd"/><path fill="#FFCD05" fill-rule="evenodd" d="m16.94 17.75.38 5.96h6.06l-2.25-5.96h-4.19zM8.5 23.7h6.1l.35-5.96h-4.2L8.5 23.7zM6.2 13.13v3.12H7.5v1.16h1.02v-1.16h6.97v1.16h1.02v-1.16h7.23v1.16h1.01v-1.16h1.18v-3.12H6.19zm12.99-.69-1.83-4.52h-1.14l.33 4.52h2.64zm-3.51-4.52h-1.14l-1.83 4.52h2.65l.32-4.52z" clip-rule="evenodd"/><g fill="#1F2020"><path d="M8.36 15.83a.76.76 0 0 1-.62-.26.94.94 0 0 1-.22-.62.9.9 0 0 1 .22-.63c.15-.17.36-.25.64-.25.27 0 .48.09.62.27.14.18.21.38.21.61 0 .25-.07.46-.22.63-.14.17-.35.25-.63.25zm.01-1.43c-.24 0-.36.18-.36.55 0 .37.12.56.36.56s.36-.19.36-.56c0-.37-.12-.55-.36-.55zM11.52 14.1l-.6 1.7h-.5l-.6-1.7h.5l.4 1.22.41-1.22h.39zM13.64 14.42h-.94v.35h.74v.33h-.74v.37h.95v.34h-1.42V14.1h1.41v.32zM14.92 15.13v.68h-.46V14.1h.87c.16 0 .29.01.38.05.1.03.18.09.24.17.07.09.1.18.1.29 0 .2-.11.35-.34.44l.36.76h-.51l-.3-.68h-.34zm0-.73v.44h.29c.09 0 .16 0 .2-.02a.22.22 0 0 0 .11-.07.2.2 0 0 0 .05-.14.2.2 0 0 0-.05-.12.2.2 0 0 0-.1-.07l-.22-.02h-.28zM17.41 15.17v.64h-.47V14.1h.78c.17 0 .3.01.4.05.1.03.17.09.25.17s.1.18.1.3c0 .09-.01.17-.05.25a.47.47 0 0 1-.17.19l-.2.09c-.06.02-.17.02-.31.02h-.33zm-.01-.3h.3c.11 0 .2-.03.24-.08.05-.04.07-.1.07-.15a.2.2 0 0 0-.08-.17c-.05-.04-.13-.06-.23-.06h-.3v.45zM20.24 14.1l.62 1.7h-.5l-.12-.35h-.64l-.13.36h-.4l.63-1.71h.54zm-.53 1.04h.42l-.21-.6-.21.6zM22.97 14.47l-.4.12c-.05-.14-.16-.2-.33-.2-.18 0-.27.05-.27.15 0 .04.01.07.05.1.03.03.1.06.23.08.2.03.35.07.44.1.1.04.17.1.24.18.06.07.1.16.1.26a.5.5 0 0 1-.21.4c-.14.12-.34.17-.61.17-.2 0-.38-.04-.52-.12a.57.57 0 0 1-.28-.35l.43-.09c.04.16.18.24.4.24.1 0 .18-.02.24-.05.05-.04.07-.08.07-.13s-.02-.09-.07-.12a.99.99 0 0 0-.27-.07c-.25-.05-.43-.1-.54-.19a.4.4 0 0 1-.16-.34c0-.15.06-.28.2-.38a.8.8 0 0 1 .51-.16c.4 0 .64.14.75.4zM25.23 14.47l-.4.12c-.05-.14-.16-.2-.33-.2-.19 0-.28.05-.28.15 0 .04.02.07.05.1.04.03.12.06.24.08.2.03.35.07.44.1.1.04.17.1.24.18.06.07.1.16.1.26a.5.5 0 0 1-.21.4c-.14.12-.35.17-.62.17-.2 0-.37-.04-.51-.12a.58.58 0 0 1-.29-.35l.43-.09c.05.16.19.24.4.24.11 0 .2-.02.24-.05.05-.04.08-.08.08-.13s-.02-.09-.07-.12a.98.98 0 0 0-.27-.07c-.26-.05-.44-.1-.54-.19a.4.4 0 0 1-.16-.34c0-.15.06-.28.19-.38a.8.8 0 0 1 .52-.16c.39 0 .64.14.75.4z"/></g><path fill="#C02026" d="M8.79 14.1c-.14-.18-.35-.27-.63-.27-.27 0-.48.09-.63.25a.91.91 0 0 0-.22.63c0 .25.07.45.22.63.14.17.35.26.62.26.28 0 .49-.09.63-.26a.94.94 0 0 0 .22-.63.96.96 0 0 0-.21-.6zm-.63 1.17c-.24 0-.36-.19-.36-.56 0-.37.12-.55.36-.55s.35.19.35.55-.11.56-.35.56z"/><path fill="#FEECA0" d="M8.16 13.83c.28 0 .49.1.63.27.14.18.21.38.21.61 0 .25-.07.46-.22.63-.14.17-.35.26-.63.26a.77.77 0 0 1-.62-.26.94.94 0 0 1-.22-.63.9.9 0 0 1 .22-.63c.15-.16.36-.25.63-.25m0 1.44c.24 0 .35-.19.35-.55s-.11-.56-.35-.56-.36.19-.36.55c0 .37.12.56.36.56m0-1.52c-.3 0-.52.1-.69.28a.99.99 0 0 0-.24.68c0 .26.08.49.24.68.16.19.39.28.68.28.3 0 .53-.1.7-.28.15-.18.23-.41.23-.68 0-.24-.08-.47-.23-.66-.15-.2-.39-.3-.69-.3zm0 1.44c-.08 0-.28 0-.28-.48 0-.47.2-.47.28-.47.08 0 .27 0 .27.47 0 .48-.2.48-.27.48z"/><path fill="#C02026" d="m10.51 15.08-.4-1.22h-.49l.59 1.71h.5l.6-1.71h-.39z"/><path fill="#FEECA0" d="m11.3 13.86-.59 1.7h-.5l-.6-1.7h.5l.4 1.22.4-1.22h.4m.11-.08h-.56l-.02.06-.33.99-.32-1-.02-.05H9.5l.03.1.6 1.71.02.06H10.77l.02-.05.6-1.71.03-.1z"/><path fill="#C02026" d="M12.02 15.57h1.41v-.34h-.94v-.37h.74v-.32h-.74v-.35h.94v-.33h-1.41z"/><path fill="#FEECA0" d="M13.43 13.86v.33h-.94v.35h.74v.32h-.74v.37h.94v.34h-1.41v-1.71h1.41m.08-.08h-1.57v1.87h1.57v-.5h-.94v-.21h.74V14.46h-.74v-.2h.94V13.78z"/><path fill="#C02026" d="M15.84 14.37c0-.1-.03-.2-.1-.28a.48.48 0 0 0-.24-.18c-.1-.03-.23-.05-.39-.05h-.87v1.7h.47v-.67h.33l.3.68h.52l-.36-.76c.22-.09.34-.23.34-.44zm-.53.14c-.03.04-.07.06-.11.07l-.2.02h-.29v-.44h.27c.11 0 .18 0 .22.02a.2.2 0 0 1 .11.07c.03.03.05.08.05.12a.2.2 0 0 1-.05.14z"/><path fill="#FEECA0" d="M15.11 13.86c.16 0 .3.02.4.05.09.03.17.09.23.17.07.09.1.19.1.3 0 .2-.12.34-.35.43l.37.76h-.51l-.3-.68h-.34v.68h-.47v-1.71h.87m-.4.74H15c.09 0 .16 0 .2-.02s.08-.03.11-.07a.2.2 0 0 0 .05-.13.19.19 0 0 0-.05-.13.2.2 0 0 0-.1-.07l-.22-.02h-.28v.44m.4-.82h-.94v1.87h.62V14.97h.2l.28.63.03.05H15.99l-.06-.12-.33-.68c.26-.13.32-.33.32-.48 0-.12-.04-.23-.11-.33s-.17-.17-.28-.2c-.11-.04-.24-.06-.42-.06zm-.32.46h.2l.2.01c.02 0 .04.02.06.05.02.02.03.05.03.07a.15.15 0 0 1-.1.13.72.72 0 0 1-.18.02h-.21v-.28z"/><g><path fill="#C02026" d="M17.9 13.9c-.08-.02-.22-.04-.4-.04h-.77v1.7h.47v-.63h.33c.14 0 .24 0 .3-.02a.64.64 0 0 0 .21-.09c.07-.04.13-.1.17-.19s.06-.16.06-.24a.44.44 0 0 0-.11-.3.57.57 0 0 0-.25-.18zm-.17.65c-.05.05-.13.07-.24.07h-.3v-.45h.3c.1 0 .18.02.23.06a.22.22 0 0 1 0 .32z"/><path fill="#FEECA0" d="M17.5 13.86c.18 0 .32.02.4.05.1.03.18.09.26.17.07.08.1.18.1.3 0 .09-.02.17-.05.25s-.1.14-.17.19a.61.61 0 0 1-.2.09l-.32.02h-.32v.64h-.47v-1.71h.78m-.33.76h.3c.12 0 .2-.02.25-.06.04-.05.07-.1.07-.16a.2.2 0 0 0-.08-.17c-.05-.04-.13-.06-.23-.06h-.3v.45m.32-.84h-.86v1.87H17.28V15h.25c.14 0 .25 0 .32-.02a.7.7 0 0 0 .23-.1.55.55 0 0 0 .2-.22c.04-.1.06-.19.06-.29a.53.53 0 0 0-.13-.35.68.68 0 0 0-.28-.2c-.1-.03-.24-.05-.42-.05zm-.25.47h.23c.08 0 .15.01.18.04s.05.06.05.1c0 .05-.01.08-.05.1-.02.03-.07.06-.18.06h-.23v-.3z"/></g><g><path fill="#C02026" d="m19.49 13.86-.63 1.7h.4l.13-.34h.64l.12.35h.5l-.62-1.71h-.54zm0 1.04.22-.6.2.6h-.41z"/><path fill="#FEECA0" d="m20.03 13.86.61 1.7h-.5l-.11-.34h-.64l-.13.35h-.4l.63-1.71h.54m-.53 1.04h.42l-.21-.6-.21.6m.58-1.12H19.43l-.02.05-.63 1.71-.04.1H19.32l.02-.05.1-.3h.53l.1.3.02.06h.66l-.03-.1-.62-1.72-.02-.05zm-.47 1.04.1-.28.1.28h-.2z"/></g><g><path fill="#C02026" d="M22.48 14.59c-.1-.04-.24-.08-.44-.11-.12-.02-.2-.05-.23-.08a.13.13 0 0 1-.06-.1c0-.1.1-.15.28-.15.17 0 .28.06.34.2l.39-.11c-.11-.27-.36-.4-.75-.4a.8.8 0 0 0-.52.15c-.13.1-.2.23-.2.38s.06.27.17.35c.1.08.29.14.54.18.13.03.22.05.27.08.05.03.07.07.07.12 0 .05-.02.09-.08.12a.42.42 0 0 1-.23.06c-.22 0-.36-.08-.4-.24l-.43.08c.04.16.14.28.28.36.14.08.31.12.52.12.27 0 .47-.06.6-.17a.5.5 0 0 0 .21-.4.4.4 0 0 0-.1-.27.55.55 0 0 0-.23-.17z"/><path fill="#FEECA0" d="M22.01 13.83c.39 0 .64.14.75.4l-.4.12c-.05-.14-.16-.2-.33-.2-.19 0-.28.05-.28.15 0 .04.02.07.06.1.03.03.1.06.23.08.2.03.35.07.44.1.1.04.17.1.24.18.06.08.1.17.1.26a.5.5 0 0 1-.21.4c-.14.12-.35.17-.62.17-.2 0-.37-.04-.51-.12a.57.57 0 0 1-.28-.35l.42-.08c.05.16.19.24.4.24.11 0 .2-.02.24-.06.06-.03.08-.08.08-.13a.13.13 0 0 0-.07-.11.94.94 0 0 0-.27-.08c-.25-.04-.43-.1-.54-.18a.4.4 0 0 1-.16-.35c0-.15.06-.28.2-.38a.8.8 0 0 1 .51-.16m0-.08a.88.88 0 0 0-.57.18c-.15.12-.22.27-.22.44s.07.32.2.41c.11.09.3.15.56.2.17.03.23.05.25.07.03.01.03.03.03.05 0 0 0 .03-.04.06-.03.01-.08.04-.2.04-.24 0-.3-.1-.32-.19l-.02-.07-.07.02-.43.08-.08.02.02.08c.05.18.16.32.32.4.15.1.34.13.55.13.3 0 .52-.06.67-.18a.58.58 0 0 0 .23-.46.5.5 0 0 0-.11-.32.64.64 0 0 0-.27-.2c-.1-.04-.25-.07-.46-.11-.15-.03-.19-.05-.2-.06-.02-.01-.02-.03-.02-.04 0-.05.07-.07.2-.07.18 0 .23.08.26.15l.03.07.07-.03.39-.1.09-.03-.04-.09c-.12-.3-.4-.45-.82-.45z"/></g><g><path fill="#C02026" d="M24.97 14.76a.55.55 0 0 0-.23-.17 2.6 2.6 0 0 0-.44-.11c-.13-.02-.2-.05-.24-.07a.13.13 0 0 1-.05-.1c0-.11.1-.16.28-.16.17 0 .28.06.33.2l.4-.11c-.11-.27-.36-.4-.75-.4a.8.8 0 0 0-.52.15c-.13.1-.2.23-.2.39 0 .15.06.26.17.34.1.08.28.14.54.18a.9.9 0 0 1 .27.08c.05.03.07.07.07.12 0 .05-.03.09-.08.12a.42.42 0 0 1-.23.06c-.22 0-.36-.08-.4-.24l-.44.08c.05.16.14.28.29.36.14.08.31.12.51.12.27 0 .48-.06.61-.17a.5.5 0 0 0 .21-.4c0-.1-.03-.2-.1-.27z"/><path fill="#FEECA0" d="M24.27 13.83c.39 0 .64.14.75.4l-.4.12c-.05-.14-.16-.2-.33-.2-.19 0-.28.05-.28.15 0 .04.02.07.05.1.04.03.11.06.24.08.2.03.34.07.44.1.1.04.17.1.23.18.07.08.1.17.1.26a.5.5 0 0 1-.2.4c-.14.12-.35.17-.62.17-.2 0-.37-.04-.52-.12a.57.57 0 0 1-.28-.35l.43-.08c.05.16.18.24.4.24.11 0 .19-.02.24-.06.05-.03.08-.08.08-.13a.13.13 0 0 0-.07-.11.92.92 0 0 0-.28-.08c-.25-.04-.43-.1-.53-.18a.4.4 0 0 1-.16-.35c0-.15.06-.28.19-.38a.8.8 0 0 1 .52-.16m0-.08a.89.89 0 0 0-.57.18c-.15.12-.22.27-.22.44s.06.32.19.41c.12.09.3.15.57.2a.8.8 0 0 1 .25.07c.02.01.03.03.03.05 0 0 0 .03-.04.06-.03.01-.08.04-.2.04-.24 0-.3-.1-.32-.19l-.02-.07-.07.02-.43.08-.09.02.03.08c.05.18.16.32.32.4.15.1.34.13.55.13.29 0 .51-.06.66-.18a.58.58 0 0 0 .24-.46.5.5 0 0 0-.11-.32.64.64 0 0 0-.27-.2c-.1-.04-.25-.07-.46-.11-.15-.03-.2-.05-.2-.06-.02-.01-.02-.03-.02-.04 0-.05.07-.07.2-.07.18 0 .23.08.26.15l.03.07.06-.03.4-.1.08-.03-.03-.09c-.12-.3-.4-.45-.82-.45z"/></g><g><path fill="#FFCD05" fill-rule="evenodd" d="M20.25 9.24h-.64a.25.25 0 0 0-.26.25v.55c0 .14.12.26.26.26h.64c.13 0 .24-.1.26-.23v-.01h-.87v-.59h.87a.26.26 0 0 0-.26-.23zm1.39.41h-.68v-.18h.9a.26.26 0 0 0-.24-.23h-.66a.25.25 0 0 0-.26.25v.16c.02.13.12.23.26.23h.67v.19h-.93c.02.13.13.23.26.23h.67c.15 0 .26-.12.26-.26v-.16a.25.25 0 0 0-.25-.23zm3.11-.42h-.66c-.14 0-.24.1-.24.24v.57c0 .14.1.25.24.25h.66c.14 0 .25-.11.25-.24v-.58c0-.13-.11-.24-.25-.24zm.02.86h-.7v-.66h.7v.66zm-1.86-.31a.2.2 0 0 0 .15.07h.35v.23h-.74v-.65h.97a.25.25 0 0 0-.24-.2h-.71c-.14 0-.24.1-.24.24v.57c0 .14.1.25.24.25h.7c.13 0 .24-.1.25-.22v-.4h-.79c0 .02.02.06.06.1z" clip-rule="evenodd"/></g></svg>