<svg xmlns="http://www.w3.org/2000/svg" xml:space="preserve" viewBox="0 0 32 32"><path fill="#B31F24" fill-rule="evenodd" d="M30.13 5.6h-3.68c.52-1.22 1.1-2.34 1.07-3.15-.09 0-5.97-1.38-10.71-1.38-4.82 0-11.14 1.38-11.2 1.38-.03.81.55 1.92 1.07 3.15H2.9c-.18 3.6.76 22 13.62 25.94C29.37 27.61 30.3 9.21 30.13 5.6z" clip-rule="evenodd"/><path fill="#010101" fill-rule="evenodd" d="m30.15 6.47-.02-.87h-1.86l-9.98 2.28 8.53-3.13c.22-.5.42-.98.55-1.4l-9 4.08 8.56-5.1c-.37-.08-.9-.2-1.54-.31L17.88 7.3l5.99-5.56a58.4 58.4 0 0 0-1.17-.18l-4.84 5.22 3.95-5.35-.98-.12-3.43 5.46 2.58-5.55-.86-.07-1.97 5.25 1.33-5.3c-.27 0-.54-.02-.8-.03l-.97 5.6.2-5.61h-.78l.2 5.25-.79-5.22c-.26 0-.53.02-.8.04L16 6.64l-2-5.45-.84.08 2.4 5.28-3.11-5.2-.96.11 3.94 5.6L10.4 1.6l-1.17.18 5.7 5.28-6.88-5.08c-.6.1-1.1.2-1.5.28l8.37 5.25-9.17-4.25c.12.43.32.9.54 1.41l8.26 3.1L5.88 5.6H2.9l-.02.55L14.8 8.22 2.92 7.77c.01.39.04.81.07 1.26l11.46-.43L3.1 10.3l.15 1.25 11.5-2.63L3.5 13.07l.25 1.28 10.94-4.97-10.63 6.35c.1.45.22.9.35 1.36L15.18 9.5l-10.2 9.45c.18.49.36.98.56 1.47l9.65-10.41-8.91 12.08c.25.52.52 1.04.82 1.55l8.55-13.62L8.4 25.65c.39.51.8 1.01 1.23 1.49l6.27-16.75-4.62 18.33c.52.43 1.06.82 1.64 1.18l3.43-19.77-.8 21.08c.31.12.64.23.96.33.34-.1.67-.22 1-.34l-.79-20.72 2.96 19.68c.6-.34 1.15-.72 1.68-1.13l-4.3-18.86 6.25 17.07c.44-.47.85-.97 1.23-1.49l-7.04-15.5 8.21 13.76c.3-.5.6-1.02.86-1.55l-8.95-12.7L27.5 20.4c.2-.49.38-.98.55-1.47l-9.92-9.2 10.4 7.68c.14-.46.26-.92.37-1.37L18.14 9.28l11.13 5.16a42 42 0 0 0 .25-1.3l-11-4.12 11.2 2.83c.07-.43.12-.85.17-1.25L18.25 8.58l11.79.45c.03-.45.06-.87.07-1.26l-11.5.44 11.54-1.74z" clip-rule="evenodd" opacity=".28"/><path fill="#B31F24" fill-rule="evenodd" d="M29.27 6.18c.03-.1-2.03-.04-2-.13.02-.1-1.21-.1-1.19-.19.5-1.9.96-3.2.96-3.2.14-.53-.05-.97-.41-.97H6.41c-.36 0-.54.44-.39.97 0 0 .35 1.14.89 3.08l.06.22c.02.1-3.29-.05-3.26.04.57 2.08.53 6.66.53 6.66.08.33.19.55.46.55h23.66c.27 0 .56-.26.64-.58 0 0-.27-4.35.27-6.45z" clip-rule="evenodd"/><path fill="#181818" fill-rule="evenodd" d="M23.26 7.01c-.04-.78-.84-1.4-1.81-1.4-.98 0-1.77.62-1.82 1.4v3.57h3.64V7.01zm-7.43-1.4c-.97 0-1.77.62-1.81 1.4v3.57h3.63V7.01c-.05-.78-.84-1.4-1.82-1.4zm-4.34 0c-.98 0-1.77.62-1.82 1.4v3.57h3.64V7.01c-.05-.78-.85-1.4-1.82-1.4z" clip-rule="evenodd"/><path fill="#F2622A" fill-rule="evenodd" d="m3.53 11.74 1.1 4.59 22.98.17 1.97-4.76z" clip-rule="evenodd"/><path fill="#181818" fill-rule="evenodd" d="M29.78 5.44h-3.2c.53-1.22.7-2.33.66-3.14-.08 0-5.82-1.38-10.44-1.38C12.1.92 5.94 2.3 5.9 2.3c-.03.8.13 1.92.67 3.14H3.25C3.08 9.02 4 27.3 16.52 31.2c12.5-3.9 13.43-22.18 13.26-25.76zM16.51 29.75C5.12 26.21 4.23 9.54 4.37 6.26h3.38c-.48-1.12-1-2.14-.97-2.88.05 0 5.7-1.27 10-1.27 4.24 0 9.5 1.27 9.58 1.27.02.74-.5 1.76-.97 2.88h3.29c.14 3.28-.76 19.95-12.16 23.5z" clip-rule="evenodd"/><path fill="#F8F1D4" fill-rule="evenodd" d="M29.98 5.28h-3.26c.54-1.23.7-2.36.68-3.18-.09 0-5.9-1.4-10.6-1.4-4.76 0-11 1.4-11.06 1.4-.03.82.14 1.94.68 3.18H3.06c-.17 3.64.77 22.18 13.46 26.14C29.2 27.46 30.13 8.92 29.98 5.28zM16.52 29.51C5.3 26.04 4.43 9.65 4.57 6.42h3.47c-.46-1.1-1.02-2.17-1-2.9 1.73-.34 5.5-1.25 9.73-1.25 4.17 0 8.52 1.06 9.27 1.24.03.74-.45 1.82-.92 2.92h3.34c.14 3.22-.74 19.6-11.95 23.08z" clip-rule="evenodd"/><path fill="#3D575F" fill-rule="evenodd" d="M30.4 5.04h-3.1c.44-1.28.49-2.3.46-3.15-.09 0-6.1-1.45-10.94-1.45C11.88.44 5.43 1.9 5.37 1.9a9 9 0 0 0 .65 3.15h-3.4c-.14 3.93 1.03 22.75 13.9 26.7C29.38 27.78 30.55 8.96 30.4 5.03zM16.52 30.27C4.79 26.67 3.68 9.4 3.8 5.83h3.27a6.97 6.97 0 0 1-.77-2.8c.06 0 5.97-1.34 10.5-1.34 4.43 0 9.94 1.33 10.02 1.33.02.79-.16 1.63-.66 2.8h3.07c.12 3.59-.98 20.86-12.71 24.45z" clip-rule="evenodd"/><path fill="#E8E8E8" fill-rule="evenodd" d="M8.77 11.69h5.22v4.66H8.77z" clip-rule="evenodd"/><path fill="#3D575F" d="M5.31 29c-.6 0-1.08-.49-1.08-1.08v-4.87c0-.6.49-1.09 1.08-1.09h22.45c.6 0 1.08.49 1.08 1.09v4.87c0 .6-.48 1.08-1.08 1.08H5.3z"/><path fill="#F8F1D4" d="M28.3 27.92c0 .3-.24.54-.54.54H5.3a.54.54 0 0 1-.54-.54v-4.87c0-.3.24-.54.54-.54h22.45c.3 0 .54.24.54.54v4.87z"/><path fill="#768990" d="M5.31 28a.1.1 0 0 1-.09-.08v-4.87c0-.05.04-.1.1-.1h22.44c.05 0 .09.05.09.1v4.87a.1.1 0 0 1-.1.09H5.32z"/><g fill="#3D575F"><path d="M8.84 27.35H7.58l.6-1.93h-.64l.4-1.3h2.54l-.4 1.3h-.64l-.6 1.93zM10.84 27.35l1-3.23h1.26c.44 0 .73 0 .87.03.14.02.25.07.34.15s.14.19.16.33c.03.14.02.28-.03.44-.1.32-.29.57-.55.73.18.4.2.91.07 1.55h-1.31v-.03c.13-.38.17-.67.14-.87-.03-.2-.13-.3-.3-.3h-.02l-.37 1.2h-1.26zm2.08-2.57h-.02l-.2.62h.03a.5.5 0 0 0 .3-.07.47.47 0 0 0 .15-.25c.07-.2-.02-.3-.26-.3zM16.61 26.8l-.33.55H15l2.03-3.24h1.8l-.05 3.24h-1.26v-.55h-.9zm.46-.76h.47l.02-.8-.49.8zM21.33 27.35h-1.26l1-3.23h1.27l-1 3.23zM24.48 26.37l-.3.98H22.9l1-3.24h.9l.34 1.09.34-1.09h1.26l-1.02 3.26h-.95l-.3-1z"/></g><g fill="#F8F1D2"><path d="M8.43 27.05H7.17l.6-1.93h-.64l.4-1.3h2.54l-.41 1.3h-.63l-.6 1.93zM10.43 27.05l1-3.23h1.26c.44 0 .73 0 .87.03.14.02.25.07.34.15s.14.2.16.33c.03.14.01.28-.03.44-.1.32-.29.57-.55.73.18.4.2.91.07 1.55h-1.31v-.03c.13-.38.17-.67.14-.87-.03-.2-.13-.3-.3-.3h-.02l-.37 1.2h-1.26zm2.08-2.57h-.03l-.19.62h.04c.12 0 .21-.02.28-.07a.46.46 0 0 0 .16-.25c.07-.2-.02-.3-.26-.3zM16.2 26.5l-.33.55h-1.28l2.03-3.23h1.8l-.04 3.23H17.1v-.55h-.9zm.46-.76h.47l.01-.8-.48.8zM20.92 27.05h-1.26l1-3.23h1.27l-1 3.23zM24.07 26.07l-.31.98H22.5l1-3.23h.9l.34 1.08.33-1.08h1.26l-1 3.25h-.97l-.3-1z"/></g><path fill="#F04923" fill-rule="evenodd" d="M20.67 16.96h-.73a.29.29 0 0 0-.29.29v.62c0 .16.13.3.29.3h.73c.15 0 .27-.12.29-.27v-.01h-.99v-.66h.99v-.02a.29.29 0 0 0-.3-.25zm1.57.47h-.77v-.2h1.03a.3.3 0 0 0-.29-.27h-.74a.29.29 0 0 0-.29.29v.18c.02.14.14.26.29.26h.76v.21h-1.05a.3.3 0 0 0 .29.26h.77c.15 0 .28-.13.28-.29v-.18a.29.29 0 0 0-.28-.26zm3.53-.48h-.75a.28.28 0 0 0-.28.28v.64c0 .16.13.28.28.28h.75c.15 0 .28-.12.28-.28v-.64a.28.28 0 0 0-.28-.28zm.02.98H25v-.76h.79v.76zm-2.11-.36c.06.08.15.08.17.08h.4v.26h-.84v-.73h1.1a.28.28 0 0 0-.28-.23h-.8a.28.28 0 0 0-.27.28v.65c0 .15.12.27.27.27h.8c.15 0 .27-.1.28-.24v-.46h-.9l.07.12z" clip-rule="evenodd"/></svg>