<svg xmlns="http://www.w3.org/2000/svg" xml:space="preserve" viewBox="0 0 32 32"><g fill="#210000"><path d="M28.05 11.34h-.02v.01l.02-.01zm-.13-.31.02.08a.6.6 0 0 0 .02-.07h-.04zM28 13.4l.02.04-.01-.04zm.16-2.16a.46.46 0 0 0-.08-.08l.02.14.04-.03.02-.03zm-.27 7.41-.01.01zm.09-5.16.04-.03-.03-.01-.01.04zm.82 5.92c-.08.22 0 .15-.26.34l-.09-.17c.23-.36.1-.36.29-.78-.16-.06-.14-.02-.25-.12l-.03.02-.05.18.03.06h-.05c-.11.44-.24.87-.4 1.3l.28-.1.09-.16-.01.13.12-.04c.15-.18.02-.12.25-.05l.02-.06c0-.19.06-.23.1-.32v-.02l-.02-.13h.06v-.03l.01-.02-.02-.06-.06.03zm-.78-5.96v-.01.01zM26.9 23.54a.49.49 0 0 0 .03-.06l-.15.05.04.04c.03 0 .05-.02.08-.03zm-.25-15.3-.04-.04a.3.3 0 0 1 .04.04zm.34-.02.14-.02-.15-.2-.02.02-.02-.07-.06-.08h-.12l.06-.07-.06-.1c-.22.16-.26.34-.15.5l.38.02zM27.3 11l.01.03-.01-.03zm-.04-.1v-.01l-.02-.01.02.03zm-.56-.7.01.01h.15c-.06-.04-.1-.05-.17-.07v.06h.02zm.43-1.99v.01h.01zM13.8 28.75c-.15-.02-.04.02-.17-.06.24-.14.06-.08.11-.3l-.1-.01v.02l-.03-.03-.2-.04-.01.03-.03-.04-.44-.1c-.01.05 0 .02-.09.1l.02.07.33-.03c-.1.27.05.1-.27.22l-.06-.19c-.23.03-.2.04-.35-.03l.09-.16.2.06v-.07c-.24-.06-.47-.1-.7-.18v.02l-.2.1c0 .14.04.02-.1.2l-.02-.06.08-.14-.22-.17-.03-.06.05-.06-.2-.07-.02.07-.06.02-.03-.06.04-.06a12.5 12.5 0 0 1-2.14-1.05l-.2.04.06-.12a13.3 13.3 0 0 1-1.9-1.48l-.16-.05.03-.06-.1-.09h-.11l.06-.05-.15-.14V25h-.15l-.02-.2.15-.08-.26-.29-.14-.02h.11l-.4-.45-.15.15.03.02a.4.4 0 0 1 .13.02l-.06.06c.1.13.09.05.28.08l-.18.23c-.18-.16-.2-.1-.38-.19l.05-.06c-.09-.08-.13-.07-.27-.15l.21-.2c0-.25 0-.23.07-.3a12.87 12.87 0 0 1 6.22-20.15v-.02h.05a12.83 12.83 0 0 1 6.72-.27l.1-.04-.02.06.14.04a.82.82 0 0 1-.03-.07l.17-.08c0 .2.04.13-.02.18 1.06.27 2.08.66 3.01 1.18 0-.03-.02-.05-.03-.08l.44-.13.05.26a4.9 4.9 0 0 0-.2.1l.4.25c.13-.18.24-.34.33-.52l-.51-.3v.04c-.38-.07-.05-.02-.39.1v-.36a13.32 13.32 0 0 0-3.52-1.28v.05l-.07.03-.04-.1A13.48 13.48 0 0 0 6.07 24.86c.07.02.14.06.2.1.2.04.33.06.5.18h.1l-.01.24c.04.03.06.04.1.04 0-.02.02-.04.04-.06l.02.07.03.01.06-.17c-.15-.03-.03 0-.17-.07l.26-.05.05.41.12-.2.09.18c-.19.06-.2.04-.4 0v.01h-.03c.05.13.07 0 .02.18-.04-.05-.1-.1-.14-.17a.67.67 0 0 1-.21-.05l.32.29.05-.01a.2.2 0 0 0-.04.02l.44.35v-.13l.15-.14c-.03.19-.02.14-.14.27.33.27.66.53 1.01.76l.22-.32.03.33-.2.02c.8.53 1.68 1 2.6 1.35l.06-.02.04.05.5.16-.01-.02a7 7 0 0 0 .2 0l.03.09c.23.07.46.16.7.22a.51.51 0 0 1 .06-.03v.05l.24.06.02-.01v-.01l.06-.1.02.03.07-.07.16.1.16-.05v.03l.06-.04-.03.11.03.09h-.08l-.01.02.18.02.08-.03.03.05.16.02c0-.02 0 0 .11-.1v.11l.1.02c0-.05-.02-.1-.04-.14l.13-.2a.29.29 0 0 1-.37.04zm8.18-24.8.08.17-.23-.04-.03-.05.18-.09zM6.45 24.92l-.14-.02v-.2l.2-.07-.05.29zm5.04 3.32.32-.08c-.13.21-.08.26-.32.08zm15.19-18.5-.07.02c.05.14.07.18.07.24l.09-.12-.08-.13-.01-.01zm-.28-1.83-.23.03.12.16.12-.19zm.6.99a3.1 3.1 0 0 0-.08.08l.14.03a.53.53 0 0 1-.02-.07L27 8.9z"/><path d="M26.58 11.62c-.13-.12-.18-.18-.17-.23l-.02.28.05.12c.06-.02-.02-.05.13.02a4.7 4.7 0 0 0-.1.04c0 .03.02.06.03.08l.02.04.1-.03-.01.19a1 1 0 0 1 .02.04l-.04.02.09.25.06.25.17-.07.08.17-.2.1.1.41c.03.04.06.07.1.09l.06.18-.11-.02c.01.09.04.17.06.26l.18-.17.08.18-.23.22.07.47h.04v.01l.13-.06c.09.18-.01.1.17.2-.1.19-.17.11-.26 0l.02.03-.08.05.01.17c.08.17.35.27.56.43a.5.5 0 0 1 .08-.1.4.4 0 0 0 0-.05l.03.01c.11-.1.25-.14.42-.15a11.8 11.8 0 0 0-.14-1.23.1.1 0 0 1-.05.06c-.3-.34-.26-.1-.53-.17a.63.63 0 0 0-.02-.06c.36-.22.27-.1.3-.37l-.19.02c0 .28 0 .23-.24.4l-.08-.17c.06-.05.1-.08.1-.1l-.02-.01v-.07c-.02-.02-.02-.07-.02-.14l.53-.25.08.23h.03l-.1-.44a.83.83 0 0 1-.1.06l.02.06-.06.02-.17-.05a.41.41 0 0 1-.24-.12c.14-.18.14-.22.15-.44l.28-.02c-.07-.24-.16-.47-.24-.7-.02.06-.03-.04-.11.11l-.08-.17.06-.03h.1l-.15-.41-.17-.06-.08-.18.03-.09.08.02-.07-.15c-.17-.04-.21 0-.39.18 0 .13-.03.27-.1.32a.86.86 0 0 0-.2-.14l-.01.43c.01-.05.1-.08.2-.14l.09.2.02-.02-.02.04c.02.06.02.1-.02.19.16-.03.14-.03.32-.18l.06.18-.29.16a5.8 5.8 0 0 1-.13-.1v.02a.48.48 0 0 1-.03-.05l-.02-.02h.01l-.03-.05zm1.3 3.33c-.42.01-.26.18-.51.09a.9.9 0 0 0-.02-.06c.3-.24.12-.28.34-.45l.07.12v-.06h.15l.08.18-.14.06.04.12zm.13-.93c.04.3.14.28-.05.5l-.04-.13-.05-.06c-.06.06-.14.1-.28.2l-.11-.24.32-.05c-.07-.13.02-.15.2-.22zm-.45-.13.1.31-.25.08c-.03-.38 0-.2.15-.39zm-.46-.6.14.02.04.12c-.16-.07-.05.02-.18-.14zm.23-.35c-.06.15-.12.17-.25.28l-.16-.29.06-.02c.22.07.16.09.35.03zm.05-.5-.08.17-.15-.02.09-.17.14.03zm-.34-1.1-.17-.1.13-.03.14-.19v.06h.12l-.06.18-.07-.15c-.01.11-.03.08-.1.22zm-.04.54h.2c-.02.28.12.13-.1.32l-.1-.1v-.22zm1.76 4.97.23-.11-.01-.02a.75.75 0 0 0 .04-.05c-.08 0-.16 0-.25-.03l-.01.2zm0 2.35.02-.04-.08.02.06.02zm.01-.6v-.1l-.04-.05-.18.18.22-.02zm.57-2.17c0 .02-.02.03-.03.05l-.02-.02.03.05.06.04v-.12h-.04zm-.45 1.75-.15-.03h-.02l.16.05v-.02zm-15.61 10.7-.06.05h.03l.04-.02v-.03zM28.86 18.6l-.01-.01v.01zm-.38-6v-.01a.76.76 0 0 0-.04.03v.09l.04.16.17-.21.09.03c.08.19-.06.13.14.15l.06.12-.38.1c-.02 0-.02.01-.03.02l.09.52.3.16c0-.08-.01-.12 0-.14v-.16l.2-.05-.04.22c.03.17.05.33.04.47a.4.4 0 0 0 .16.07l.04-.07-.01-.11c-.05-.01 0 0-.1-.07h.1l-.13-.74c-.1.02-.06.05-.2 0h.2l-.02-.08-.08-.02h.08l-.02-.1-.02.02.01-.06-.1-.43c-.05.23-.05.07-.2.23-.01-.14.09-.27.03-.14l.16-.11-.07-.26-.46.35-.01.02zm.5.62-.2-.12h.15l.06.12zm-.03-.99z"/><path d="m28.13 11.66.14.43h.02l-.02.02.1.29a2 2 0 0 0 .06-.07v.04a.68.68 0 0 0 .06-.06h.1c-.03 0-.05-.02-.13-.06l-.03-.06h.08l-.13-.3-.06.06v-.14l.08-.07.09-.11c.1.32 0 .25.26.4-.03.12-.02.14-.05.17h.02l.05.1.18-.06-.08-.3s-.02 0-.06.07l.05-.1-.05-.16-.06.07c-.17-.32-.4-.21-.62-.16zm.87 2.32c0-.03 0-.08.02-.11-.05.04-.06.04-.02.1zm-3.26 10.68-.2.1-.04.07a.26.26 0 0 1-.03-.05l-.02.02c-.04.19-.1.14-.19.37h-.04a.5.5 0 0 1-.2.04v.07l-.19.04-.01.05-.04-.04-.35.08c-.02.07-.03-.03-.11.12l-.01-.03-.06.05v.01h.15c-.09.27.05.07-.2.2a1.38 1.38 0 0 1-.04-.06.39.39 0 0 1-.28.14l-.4.3c.08.12.08.04.25.1l-.2.2a.49.49 0 0 0-.22-.17l-.18.14c0 .04.01.08.03.1l.2.12c.42-.39.87-.64 1.33-.92-.09-.18-.05-.08-.02-.2l.08.17c.33-.2.68-.43 1.02-.74l.28-.31-.51-.1.2.13zm-1.86 1.4c-.02-.15.08-.28.02-.15l.17-.12c-.05.29-.05.1-.2.26zm.76-.6.2-.03c-.09.02-.04.05-.2.02zm2.88-12.78v.01zm1.1-1.3a.54.54 0 0 1-.02-.06l-.19.06h.2zm.41 2.39a4.8 4.8 0 0 0-.03.04l.02.02.01-.06zM7.47 26.19l.02-.02h-.02v.02zm21.95-10.42c-.05.03-.08.12-.28-.06l.28-.2-.01-.21-.1.09-.03-.13.13.02c-.01-.33-.04-.66-.07-.99l-.1-.04c.03.2.08.02 0 .21a2.69 2.69 0 0 0-.14-.2l-.05.26h.2c-.1.02-.06.05-.2 0v.04c-.18-.13-.11-.12-.22-.1-.01.04-.02 0-.08.05l.01.19h.13l-.12.23v.09h.06l-.04.15.2.02.1-.08.04.08.13.01c.01.21.1.23 0 .41-.05-.08-.23.13-.45.14v.2l.19-.06.05.28c.06-.04.13-.1.24-.15l.01-.02.1.02v-.01c-.01-.02-.05-.05-.1-.14h.11l.01-.1zm-.36-.98c-.06-.2-.04-.09 0-.2.03.05.04.11.06.18l-.06.02zm.12.37-.06-.19.18-.06-.12.25z"/><path d="M28.8 15.39v.05l.02-.1-.02.05zm.2 3.36.05.07.03-.1h-.02l-.06.03zm-.27-4.47c.14-.06.2-.1.23-.21-.1-.14-.21-.26-.29-.32l.06.19-.06-.04c0 .09.03.17.04.25l.02.05h-.01v.08zm-1.12-1.85-.09.25c.1-.15.07-.05.1-.25zm1.36 6.72h-.02.02zm.15-2.49c0 .05.01-.01-.12.12l-.01-.04v.15c-.12.08-.17.15-.25.22l-.01.04h.18a.37.37 0 0 1-.2.17l-.03.17.14.03.06.18-.14.05.13.27h.31c0-.28-.1-.16.1-.37v-.06h-.25l-.14-.15.35-.03.05.12.02-.1c-.04 0-.07-.02-.11-.03l.1-.03.03-.04.03-.35-.07.05a.79.79 0 0 1-.02-.06l.1-.03v-.1c-.06-.06-.03-.08-.14-.2l-.11.02zm-2.05-7.51h.01v.15l.05.08c.06-.1.1-.23.14-.37l-.1.08-.03.04.01-.03-.08.05zm1.71 7.3.14-.17a.6.6 0 0 0-.03-.08h-.1l-.01.25zM11.9 28.13v-.06l-.04.06v.01l.04-.01zM24.55 5.75c-.05-.02-.08-.06-.11-.09l.1.1zm.29 2.31c-.07-.19-.03-.14-.02-.28l-.04.03V7.7c-.17-.03-.21-.1-.39-.15l.08.18-.32-.07c.05.16-.05.23-.1.31l.41.46c.03-.16.06-.34.04-.5h.14v.3l.03.45.3.4c.18-.05.15-.05.32-.23l.08.18-.27.2-.04-.03c.09.12.16.25.24.37l.02-.02.3.05a1.9 1.9 0 0 0-.1-.1l-.05.06-.11-.1-.02-.16-.05-.08.04-.08.8-.05c.02-.05.02-.11.03-.17-.02 0-.04 0-.06-.02l.04-.05c0-.02-.02-.03-.03-.05a.22.22 0 0 1-.08-.06c-.02-.02-.04-.04-.1-.06l.07-.02-.28-.39-.02.07-.08-.05a.38.38 0 0 1-.12.05c.06.11.07.09 0 .26l-.05.02-.04-.12c-.03-.03-.03-.06-.05-.1 0 .18 0 .16-.05.27h.01l.06.18-.22-.07-.02-.06.1-.03-.12-.04.12-.06.11-.2a.72.72 0 0 1-.07-.42c-.12-.01-.18 0-.25.08h.1c.04.31.02.43-.14.65l-.16-.09c.07-.27-.02-.33.02-.5l-.01-.05zm.91.72-.06.17c.03-.15-.01-.04.06-.17zm-.23-.11.07-.02.06.18-.19.06.06-.22zm-.45.07c-.04.15-.04.12-.13.24v.04-.05l-.06-.17.2-.06zm1.26.76-.08.17h.2a5.95 5.95 0 0 0-.04-.12l-.08-.04zm-1.49-3.87c-.14-.13-.27-.26-.42-.37-.1.14-.1.29.02.4l.4-.03zM5.9 24.14l.02-.03c-.04-.23-.04-.22.02-.3a.21.21 0 0 0-.02-.02l-.19.14c.1.16.13.2.17.21zm18.49-18.1zm-5.96 22.74.02.06.12.1.04-.01-.07-.25-.11.1zm2.29-2.48.19-.07.03.05.02-.02-.01-.1-.06.02-.06-.2.06-.01-.06-.15-.48.23v.01h.03l.05.19-.47.22-.03-.15h-.02l-.03-.06v-.02l-.2.07.02.04c.07 0 .08.02.2.11l-.08.01c.23.03.3-.03.48.23.13-.25.03-.26.34-.45.06.07.04.13.08.04zm-.22-.28.19-.06c-.04.26.05.07-.13.25l-.06-.19zm-1.2 1.45-.1.11.09-.02v-.09zm6.16-17.64c.1.15.2.29.28.44a.94.94 0 0 1 .17-.15c-.16-.21-.1-.06-.12-.38l-.07.02h.07l-.07.18h-.14l.05-.15-.17.04zm-5.84 17.56zm-3.72-.27-.05-.06c-.19.06-.07.08-.27.01l.08-.13c-.14 0-.27-.02-.4-.03l-.1.1-.03-.09c-.19.2-.02.16-.3.2a.83.83 0 0 1-.03-.06c-.07-.06-.01-.09-.12-.05l-.04.04-.05.33-.17-.07.03-.23-.14.05a.32.32 0 0 1-.13.14c0 .05-.02.08-.06.19l-.09-.12c-.1.03-.22.05-.39.06l-.03-.33.7-.26a11.1 11.1 0 0 1-1.74-.4l-.16-.01.02.05-.12.06-.14-.15.09-.04c-.88-.3-1.7-.71-2.46-1.2l.1.21-.24.11-.03-.07-.2.07.08.24-.25.08-.08-.25.25-.07-.02-.07.08-.16.13-.04.16-.07c-.62-.4-1.19-.86-1.71-1.38-.03.1 0 .05-.17.18v-.02c-.02.04-.03.02-.17.11l-.02-.06.08-.16.1.01.05-.11h.08c-.84-.83-1.53-1.8-2.07-2.86-.1.02-.06.02-.22-.14l.12-.06a11.14 11.14 0 0 1-1.06-3.68l-.07.07-.08-.18c.06-.13.08-.24.12-.36v-.24l-.02.05-.52.1-.11-.23.17-.09.03.2.43-.26-.01-.26A11.22 11.22 0 0 1 14.89 4.56l.19-.06a.36.36 0 0 0-.02.06 11.17 11.17 0 0 1 6.04 1.21c0-.11.03-.2.12-.28l.04.33.23-.14a.7.7 0 0 1-.03.28l.47.29.27-.04.06.19h-.08c.31.21.61.43.9.66l.04-.07.02.12.14.13.07-.07.3.01c-.18-.12-.2-.1-.38-.33l.04-.08.78-.16v-.08c-.24-.22-.5-.42-.76-.62.1.17.11.1.07.3l-.06.04-.05-.12a.6.6 0 0 1-.19-.4l-.43-.3-.1.1a.43.43 0 0 1-.01-.16l-.07-.05h-.08l-.01-.05a12.2 12.2 0 0 0-3.66-1.51l.07.29.2-.17c.05.3.02.3-.09.4l-.15.15c-.12-.34-.19-.51-.06-.68a12.3 12.3 0 0 0-6.5.26l.05.12c-.14-.04-.08 0-.16-.08a12.3 12.3 0 0 0-5.89 19.17l.08-.14c-.05.14 0 .05-.08.15l.09.11.05-.15c-.02.14 0 .06-.05.16l.14.15h.05c.08-.02.17-.02.26-.03l-.02.08.14-.03c-.05.29.05.07-.18.23l-.09-.1-.02.02.23.27c0-.04 0-.02.14-.05l-.05.15.03.03.04-.02c.04-.15-.04-.07.15-.14-.04.22-.03.23-.15.21a12.16 12.16 0 0 0 3.55 2.63l.27-.03-.07.12c1.05.5 2.16.85 3.34 1.03l-.01-.05.4-.05c0 .06.03.1.04.16l.26.04.03-.04v.04h.1c-.02-.01-.03-.04-.04-.06l.03-.06c-.1.06-.16.07-.35-.04l-.02-.06.52-.21h.02l.84-.35.03-.07zm-6.44-2.24.1.1-.16.12a10.1 10.1 0 0 1-.06-.19l.12-.03zm13.97-18.6.06-.03.08.18-.17.08c0-.08.02-.16.03-.23zm-.53.39-.09-.18.18-.08c-.02.16-.02.13-.1.26zm.33-.37.08.18-.23-.04a.83.83 0 0 1-.03-.06l.18-.08zm-.55-.54.27-.05c.08.31.07.44-.05.67l-.17-.06c.04-.32-.1-.32-.05-.56zm-.95-.83c-.04.26.05.06-.13.24L21.54 5l.19-.06zm-.27.01c-.07.16.01.05-.15.19 0-.05-.02-.09-.03-.13l.18-.06zm-2.1-.5c.21-.1.2-.06.43-.14l.09.18-.59.13-.08-.18h.14zm-1.22-.15h.14c-.05.18.02.05-.12.2 0-.02-.02-.03-.03-.05v-.15zm-.46-.36.06-.03.09.04c-.08.19.02.02-.15.14v-.15zm-.18.37.05.12c-.1-.07-.06.01-.05-.12zm-.16.3-.05-.13h.14l-.09.12zm-.06-.91.08.18-.23-.04-.03-.06.18-.08zm-.22.6.06.12h.14l-.15.15-.11-.24.06-.03zm-2.23.08-.16.12-.06-.19.22.07zm-1.75-.34-.07.18c.03-.16 0-.04.07-.18zM13 4.5c.06.23.06.19.02.35-.04-.25-.09-.15-.02-.35zm-.52-.34-.06.18c.03-.16-.01-.04.06-.18zm0 .44c0 .09.03.18.04.26l-.2.03-.08-.18.23-.11zM4.62 15.89l-.05-.12h.14l-.08.12zm.04-.23-.08-.18h.14l-.06.18zm-.07-.76.12.09.02.2h-.15l-.05-.12.06-.17zm-.08 1.97-.14-.14.12-.06.08.18-.06.02zm2.83 7.07-.06-.13-.12.15c-.02-.06-.03-.13-.06-.19h.16l.2-.03-.12.2zm.23.23.04.13c-.1-.1-.06 0-.04-.13zm.2-.07.06.12c-.1-.08-.06.01-.06-.12zm2.45 1.7.14.02-.05.29-.12-.17.03-.14zm-.17.18.12-.06.08.17a.3.3 0 0 1-.06.03 4.9 4.9 0 0 1-.14-.14zm.17.5c.25 0 .2.02.37.09-.15.02-.17.04-.37-.1zm.52-.1c-.03-.21-.11-.1-.03-.32l.18.14c-.06.23 0 .07-.15.19zm.4.23.09-.11.08.17-.17-.06zm.15-.39c-.07.2-.03.1-.3.24l-.07-.17.31-.1-.24-.09-.02-.01c-.06 0-.11 0-.25-.07l.13-.02-.12-.09a7 7 0 0 1 .2 0l.03.1.14.05a.91.91 0 0 1-.11.03v.01l.27.02v-.02l.12-.04.1.1.06.2-.19.05-.06-.19zm.56.92-.12.04-.12-.17.18-.06c-.18-.12-.21-.07-.4-.23l.47-.08.08.32h-.14l.05.18zm.4-.26a.48.48 0 0 0-.06-.03h-.01l-.17-.06-.03-.06.2-.02v.01l.07-.04v.2zm1.25.3.03.12-.22-.07.19-.05zm-1.01.03-.08-.18.17-.08-.09.26zm1.18.52-.08-.17c-.23.06-.2.06-.35.02l.06-.18.23.04.06.11.32-.07c-.07.29.05.09-.24.25zm1.66-.58.06-.23c-.02.22.03.08-.06.23zm7.63-22.19h.07l.3-.14-.12-.24-.3.34.05.04zM6.85 25.55l.02-.02-.01-.01v.04z"/><path d="M23.49 5.03a.45.45 0 0 1-.3.07c.23.15.44.32.65.48l.16-.07.08.17c.09-.17.15-.34.22-.51l-.15-.11-.4.06-.14-.44h.03l-.18-.14-.16.07.4.4c-.07 0-.14 0-.21.02zM6.4 25.12l.08.17a.36.36 0 0 1-.05-.02l.08.07c.04.03.06.03.16.07l.03-.05-.3-.25zM24.04 7.28c.13.07.07 0 .15 0h-.15zM6.72 25.23c0 .01 0 .03.02.05l.02-.03-.04-.02zm7.06 3.17.1.24c.15-.07.23-.13.29-.18h-.04c-.03 0-.06.02-.1.04l.01-.06-.26-.04zm1.05.14-.48-.05-.05.08.12.02.02.06.15.03.05.39-.06.02c-.2-.07-.12-.01-.27-.19l-.12.17.17.02h.01c.15.02.29.05.44.06v-.08c-.17-.16-.17-.02-.14-.29.2-.05.14.08.27-.2-.1-.01-.12-.02-.11-.04zm4.42.19h.18l-.15-.08-.03.08zm0 .01v-.01zm-.01-.59.02.03h-.06l.21.31.23.04-.05.15.42-.13.26-.42c.03.06.03.01.06-.02a.64.64 0 0 0-.02-.3c-.35.14-.7.25-1.07.34zm-7.89-2.02h-.08l.02.05h.02l-.01.03v.01l.09.03a3 3 0 0 1-.04-.12zm15.92-3.57.1-.1-.08-.01a.56.56 0 0 0-.06.04l-.05.04h-.02l-.1.08v-.02a.34.34 0 0 1-.27.04c-.25.4-.53.8-.83 1.16 0 .19.05.05-.08.22l.17-.05-.05-.2.27-.11.05-.06c.03-.23.01 0 .12-.2v.18l.03-.01v-.02h.06v.01l.08.01-.04.08.02.08-.54.24.02.07c.08-.03.16-.08.3-.17l.11.25c.13-.15.24-.31.35-.47-.03.02 0 .02-.14-.01l.1-.04-.05-.05a.3.3 0 0 1 .04-.02l-.17-.17.06.19-.16-.08-.06-.2.04-.07c.19.07.32.1.48.25.13-.18.24-.37.36-.56l-.09-.12.15.03.14-.21c-.04.05-.07.11-.26-.02zm-.26.75-.15-.03.01-.2.19-.06-.05.29zm-.1-.52a7 7 0 0 1 .21 0c-.1.02-.05.05-.2 0zm.11-.1h.2c-.09.02-.05.05-.2 0zM24.98 6.36l-.08-.03-.05.07H25l-.02-.04zm.26.01c.04 0 .07-.02.1-.03l.05-.07-.04-.03-.14-.15.07-.07-.1-.08a.81.81 0 0 0-.12.28c.07.03.13.08.18.15zm-.59-.24-.1.05.1.1v-.15zm2.45 2.42c.1.04.11.02.08.2l-.12-.12c.05.15.09.16.08.18l.11.1-.02-.04.06-.17c.01.2.04.08-.03.23.1.11.15.27.16.43l.03-.02.27-.05c-.06.29.05.07-.18.23l-.12-.12a.4.4 0 0 1-.06.23l.06-.06c0 .21-.02.18-.08.2.09.16.16.33.24.49l.08-.01-.07.03.24.54.14.02c-.05.1-.06.11-.08.12l.17-.03v.1c.32.09.28-.02.46.04h.06l-.16-.4-.02.03h-.07l.08.06.05.12-.23-.03.06-.15h-.12c0 .01-.03-.01-.14.02l.03-.03h-.27c.07-.17.08-.16.25-.29.12.2-.04.1.19.15l.1-.1v-.02l-.2-.4a.88.88 0 0 1-.15.19l-.02-.06.14-.2-.13-.27c-.05.25-.02.22-.27.18l.12-.05c.04-.15-.03-.08.14-.14-.09-.17-.17-.34-.27-.5v.1l-.22-.06-.02-.06.17-.12-.1-.2.01.16-.1-.1a6.35 6.35 0 0 1-.12-.17l.09-.07a3.23 3.23 0 0 0-.07-.11l-.06.05-.05-.18.01-.01-.02-.03h.02l-.05-.09.02.06a.78.78 0 0 1-.1.2zm.45 1.6.2-.01c-.09.02-.04.05-.2.02zm.18-.22-.15.14v-.14h.15z"/><path d="M27.97 9.68h-.01v.01l.01-.01zm-1.01 8.12-.11.53.1-.03-.05.5-.16-.05-.15.48.11-.04-.02-.02.06-.03.2-.04.04-.06a.38.38 0 0 0-.02.06h.05c-.06.28.05.06-.18.22l-.1-.1c-.03.08.01.02-.13.14l-.04.11v.05l.14-.15c0 .3-.03.1-.15.29a.3.3 0 0 1 0-.16.9.9 0 0 1-.08.1v-.01l-.1.27h.06l-.06.08c0 .18.26.28.47.38l.08-.04v.09l.05.17h-.06v.03h-.15v-.01c-.04 0-.07.02-.1.04.08.02.16.05.24.12-.06.11-.1.04.03.2l.12.07.09-.18a.48.48 0 0 0-.06-.03l.08-.02.2-.45c-.06 0-.14-.04-.29-.08-.08-.17-.13-.2-.14-.26l-.1-.01.1-.02.01-.14-.07.07v-.15h.05c-.02-.04-.03.02.03-.13l.06.06.1-.04c.04-.15-.05-.07.15-.14-.06.26-.03.23-.24.2.2.22.18.25.3.33h.15c.14-.39.26-.8.37-1.21a.45.45 0 0 0-.1-.13l.06-.02-.05-.11.16-.08.03-.02.05-.31c-.18-.02-.23-.12-.68-.21l-.06.02-.29-.13zm0 2.25c-.1.03-.06.05-.21.02l.2-.02zm.06-1.09L27 18.9l.27-.02c-.12.18 0 .04-.25.08zm.47.55-.09-.18.2-.02-.11.2zm.12-.4-.16-.08.21-.2-.05.29zm-.2-.4.13-.05.04.13c-.15-.05-.04 0-.16-.09zm.09-.55-.06.13.31-.03-.2.2-.12-.16c-.03.02-.07.03-.17.11l-.05-.26.06-.03.23.04zm-.57 5.36.02-.03-.03.04h.01zm-.36.13-.03-.1h-.03l-.03.01.05.17.04-.08z"/><path d="M28.24 15.85v-.42l-.1.13.02.05-.05.02-.09.13c0-.04 0-.07-.02-.1l-.09.03-.02-.08-.1.11c-.04.11-.08.15-.2.27l-.05-.1-.05.02c0 .25 0 .27-.2.44l.08-.22c.04-.18 0-.12.1-.21l-.2.05-.1-.2-.01.13.04.1-.05.02c0 .25-.03.5-.05.73h.05a.49.49 0 0 1-.05.02l-.08.64c.07.04.15.09.23.11l.05-.08v.48c.35-.18.38-.25.7-.22 0 .04.02.08.05.11l.05-.32a1.71 1.71 0 0 0-.08-.14c.04 0 .08-.02.11-.03l.02-.08-.04-.09.05-.02.04-.4-.25.17-.06-.18.32-.23v-.15a.76.76 0 0 0-.14-.03l.06-.17.1.03v-.1l-.15-.2.06-.02h.1zm-1.06 1.22c.1-.2.07-.06-.01-.27.13.07.19.2.3.32l-.15.18c-.06-.14 0-.08-.14-.23zm.38.56-.06.03-.08-.25.25-.08-.1.3zm-.06-.86.14.02-.1.1-.04-.12zm.25.55a1.01 1.01 0 0 1-.02-.06l.06-.17c0 .21.03.07-.04.23zm-.26-1.02.1-.1.29.04c-.06.19-.18.27-.4.06zm.58 1.23-.04.23-.08-.18.12-.05zm-1.53 1.85.06-.02-.02-.08-.04.1zM25.25 7.7 25 7.42c.01.1.02.15-.02.2.1 0 .18.02.27.08zm.4-1.1c.05.12.01.08.23.12l.05.19-.3.1.33.43h-.2l.28.33.12-.12c.14.19-.03.11.2.12l.09-.11-.03-.1H26l-.07-.45.25-.07.03.05.02-.04-.6-.66a6.86 6.86 0 0 0 .02.2zm.58.44v.01zM25 25.08c-.18.03-.1 0-.17.1l.19.03-.02-.13zm.64-18.69h-.01.01zm-.29.15c.04.1.05.2.04.3a.84.84 0 0 0 .18-.23l-.03-.03-.11-.02-.03-.06.15-.14c.03 0 .06.02.08.03l-.13-.15v.12l-.15-.02.06.19a.6.6 0 0 1-.06.01zm-.69.66v.03l.03-.04-.03.02zm-.18-.05-.05-.12-.09-.03-.06.17.2-.02zm.72-.77-.2.2.12.14c.04-.1.07-.21.08-.34zm.23.68.14.16.05-.01-.08-.25-.11.1zm-.37-1.24-.03-.03-.03.06.07.03-.01-.06z"/><path d="m26.4 7.38.04-.1-.21-.23v.06c.05.1.11.18.17.27zM15.38 28.6l.06-.03h-.08l.02.02zm-.35-.61.33.01c-.15-.03-.1 0-.26-.14l-.07.13zm.8.04h.13l-.06-.08-.07.08zm.2-.62-.01-.03v.03zm.36 1.35.05-.05a.5.5 0 0 1-.03-.12l-.2.1.18.07zm.12-1.77a.18.18 0 0 0-.03-.07h-.08l.1.09.01-.02zm-.51.3-.08.06h.1l-.03-.06zm5.83.55zm-.27-.06a.87.87 0 0 1-.13.1.35.35 0 0 1-.09.18h.04l.18-.09-.07-.07h.2a4.8 4.8 0 0 0-.13-.12zm.02-2.03-.06-.01-.07.06-.02-.08-.28-.05-.1.05v.13c.27.11.44.25.63.25v-.03l.05-.02-.15-.3zm-1.29 1.2V27l.1.02-.03-.13-.07.07zm-.35.36.01-.01h-.01zm.1-.57h.07l-.01-.05-.06.05zM22 27.76l-.02-.01.02.01zm-5.94-.02c.05-.02.1-.04.13-.07-.1-.04-.03-.06-.13.07zm.14-.61.1.06.19-.06v-.04l-.3.04zm2.24.39.04-.17-.08.03-.08-.32-.35.02.01.02c.27 0 .28.04.44.32l-.19.06-.06-.05-.09.06.05.1.2-.05c.02 0 .03-.02.04-.04l-.02.04.09-.02zm-1.67.46h.19l-.01-.03-.15-.03a.53.53 0 0 0-.03.06zm-.7-.65a5.11 5.11 0 0 1 .12.09l.15.13.25-.18c-.16 0-.32-.03-.52-.04zm.43.27v.03l.04-.09-.13.06.03.02a.95.95 0 0 0-.06.02l.1.07c0-.03 0-.06.02-.1zm2.32-.93c.04-.04.1-.08.16-.11v-.03l-.16.04v.1zm-1.74 1.12a.94.94 0 0 0-.42 0l.45.03a.37.37 0 0 0-.03-.03zm.92-.17-.07-.03-.06.05-.25-.13c0 .14-.02.27-.04.3l-.03.07.24-.07c.05-.06.1-.12.21-.2zm.92-.56.3-.18h-.2l-.02-.2c-.06.07-.14.13-.19.17-.02.1-.04.23-.04.4l.04-.06a.38.38 0 0 1-.02-.06l.11-.05.02-.02zm-1.67.48c-.03-.1-.07-.16-.1-.21-.19.05-.37.06-.55.04.19.23.22.21.42.2-.03-.03-.06-.05-.09-.1.15.05.04 0 .17.09.15-.07.1.04.15-.02zm1.32.08h-.03a1.8 1.8 0 0 1-.12.1l.15-.06v-.04zm-.72-.36v-.12c-.05.12-.03.1-.02.17l.02-.05zm-.2-.24-.01-.01v.13h.07l.15-.3-.2.18zm1.45 1.62c-.13.03-.02.08-.18-.02 0 .05-.02.1-.04.14h.1l.03.08.11-.02v-.02h-.06l.04-.03.03-.13h-.04zm-.77-.22-.19.1-.05-.08c-.04.03-.06.06 0 .1-.24.17-.13.2-.2.27l-.25.07-.03-.32-.07-.01c.01.13 0 .16-.12.28l.02.05-.35.18c-.3-.2-.25-.24-.6-.16a.83.83 0 0 0-.03-.12l-.2.1h.09l-.07.23a.9.9 0 0 0-.48-.04l-.28.12.43.02h.15l-.01-.02.2-.02.01.02h.07l-.02-.05.24-.11.02.15.64-.06.04-.06.66-.07-.01.05c.07 0 .14-.02.2-.03l.02-.01-.1-.31.56-.18-.29-.04v-.05zm-1.11-1.54c-.17.02-.35.02-.52.03a1 1 0 0 0 .58.03l-.06-.07zm-1.64.6c.01.24-.04.16-.2.26l.03.11.17.16.2.01c0-.13 0-.27-.06-.38v-.01a.38.38 0 0 0-.14-.15zm8.66-2.68a1.15 1.15 0 0 0-.08-.06l.04.1.04-.04zm-.16.14h-.04l.01.03.03-.03zm.32.48.02-.01v-.02l-.02.03zm.2-.19.13.04-.08-.09-.04.05zm.2-.07v.04l.03-.03h-.04z"/><path d="m24.07 24.86-.03-.07c-.01.12.02.04-.1.16.1.06.03.02.16-.08a.2.2 0 0 0-.03-.01zm-3.82 2.26-.01.05-.07-.02.13.07a.61.61 0 0 0-.02-.1h-.03zm4.44-1.41.06-.02v-.02l-.06.04zm-3.88 1.92-.3.12.34.22.13-.14c.03.02.06.02.09.02l-.05-.15a8.5 8.5 0 0 1-.2-.07zm7.2-12.18h.02l.03-.22h-.18l-.06.06c.08.1.1.1.2.16zm-5.33 10.5.03.05.15-.1a1.15 1.15 0 0 1-.03-.1c-.12-.06-.25-.11-.37-.18l-.1.26c.22-.06.01 0 .2.12l-.05-.11.17.06zm-.2 1.1-.22.28.1.09c0-.23-.1-.1.13-.24l-.01-.13zm-1.28-.26a6.16 6.16 0 0 0-.05-.12l-.09.11h.15zm.64.71a.79.79 0 0 0 .05-.17l-.16.21.11-.05zm1.14-1.98-.17.08.05.12.12-.2zm-.26 1.28c.07-.14.03-.03.06-.18l-.06.17zm-1.04-.23.04.02.17-.1-.21.08zm2.7-.34.1-.06-.1-.02v.08zm-2.97 1.42h.01a.96.96 0 0 0 .08-.1c-.2-.01-.18.01-.24-.08l-.1.13-.07-.04.1.27c.08-.03.16-.1.23-.18zm.1-.12.03-.04-.07-.15h-.01l.05.19zm1.69-1.87-.07.01h.04l.02-.01zm.97-.8v-.04l-.07.05.05.01.02-.02zm-3.3 2.04.04.08.14-.07-.07-.16-.1.15zm1.78.21v.07h.25v.08l.1-.06v-.11l-.35.02zm2.15-1.91c-.01.02-.02.04-.07.07l.05.06.05-.01c.03-.08.01-.03-.02-.12zm-.78-.6h.01-.01zm2.08-2.08.08-.11-.1.1.03.01zm-1.74 2.17h-.01v.01zm.04-.06h.02l.12-.1v-.07a.9.9 0 0 0-.15.16v.01zm1.01.03-.02-.13a.21.21 0 0 0-.07.09l.06.12-.13-.02c.05.06.06.05.2.07a5.31 5.31 0 0 1-.04-.13z"/><path d="m23.27 25.53.25-.12.2-.15c-.1-.19-.14-.13.12-.36l.07.04-.05-.16.15-.05-.03-.05.03-.07-.14.06-.08-.18.18-.08.08.18h-.02l.32.1a.37.37 0 0 1 .04-.07l-.02-.19.17-.08v.1l.07-.05v.06c.2-.2.38-.4.56-.62l-.5.24-.02-.06-.01-.01c-.05.02-.04.04-.18.01l.18-.02a.4.4 0 0 1-.02-.04l.11-.05.56-.34.05.1c.21-.26.4-.54.6-.82l-.07-.13a7.91 7.91 0 0 0 .2-.07l.09-.1-.06-.03-.06.08-.14-.44c-.1.23-.06.1-.19.27l-.01-.27c-.12-.18-.03-.06-.16-.3l.66-.06c.06.26.06.44-.02.6l.1-.1-.05-.1.05-.04c0-.13.02-.1.16-.25l.1.01c.16-.27.32-.54.46-.82a4.16 4.16 0 0 0-.2-.2l-.02.03-.11-.09.04-.02a.89.89 0 0 0-.18-.13l.07.16-.13-.04a.42.42 0 0 0-.03.07l.02-.02.01.02h.07l-.03.09.03.06.02-.02c.1.17-.02.13.26.18a.8.8 0 0 1-.03.14c-.01.04-.02.05-.03.05a.78.78 0 0 1-.15.22c-.07-.24.04-.33-.18-.35.04-.12.04-.13.09-.19l-.25.15a.84.84 0 0 1-.15.14.7.7 0 0 0 0-.05l-.07.05v.02h.01l.12.16a.32.32 0 0 1-.03.03v.02l-.05.03-.13.12-.03-.09c-.06-.03 0-.01-.13-.04l-.06-.11.12-.06.04-.02.14-.06-.09-.18.15-.1c-.1-.4.08-.4.46-.68a.78.78 0 0 1-.4-.08c0 .03-.01.06-.03.07-.1.22-.22.43-.33.64l.01.01.06.19-.2.06-.05.1.04.08-.08-.02c-.52.87-1.14 1.66-1.86 2.36.17.2.12.09.33.12l-.18.23c-.17-.14-.2-.1-.35-.17a11.3 11.3 0 0 1-1.98 1.46c.1.2.18.4.28.55l.18-.23c0 .26-.02.26-.21.46l.26.17.15-.09c-.05-.16.03-.09.11-.33-.26 0-.05.06-.26-.1l.2-.02-.3-.2c.48-.24.46-.25.7-.49l.2.12c-.04-.22-.1-.07.1-.26l.4-.04.03.2c-.12.05-.23.1-.35.17l.23.18zm2.46-2.83-.07.22a.74.74 0 0 0-.06.02l-.06-.19.19-.05zm.67-1.37.08.18-.2.02-.03-.06-.02-.06.17-.08zm-1.82 2.78c-.09.03-.04.05-.2.03l.2-.03zm-.08-.17v-.15h.15l-.15.15zm.74-.57-.12.2-.08-.17.2-.03zm-.35.17c-.06.27 0 .23-.27.2l.12-.06c.04-.15-.04-.07.15-.14zm-.52-.34.27-.05c-.06.29.05.07-.18.23l-.15-.15.06-.03zm-.18.38.15-.14c-.01.29-.03.1-.16.28-.04-.13.05-.28 0-.14zM21.7 25.4l.23-.1.11.23c-.29.02-.14.08-.34-.13zm1.93-.9c-.04.26.05.07-.13.25l-.06-.19.19-.06zm1.44.61.06-.09a.8.8 0 0 1-.03-.25l-.11.11.03.32.04-.07h-.03c.01 0 .03 0 .04-.02z"/><path d="m25.13 25.02.02.06-.07.03-.02.03.16.02-.08-.16-.01.02zm.1-.39c.08.06.06.04.09-.01l-.05-.04a.55.55 0 0 1-.04.05zm-.08.07.1.02-.06-.05a.3.3 0 0 1-.04.04zm.33.08.06-.03v-.15l-.12.06v.01l.05.11zm-.81-.78h-.03v.01l.03-.01zm2.18-3.24-.13.06.08.08.05-.14zm-.61-9.79a.34.34 0 0 1-.13.02l.09.22c0-.07.02-.16.04-.24zm1.19 4.28-.05.01.02.02.03-.03zm-.28.05.01.32.16-.23-.04.02.07-.14a.81.81 0 0 1-.2.03zm.75 5.24-.03.01-.05.13.02.05.06-.03c.02-.04 0 0 0-.16zm-1.42-.25-.04-.13-.1.1.14.02zM24 7.66c-.18-.18-.1-.04-.16-.36-.17.08-.26.13-.34.15l.39.35.12-.14zm2.45 13.22-.02.05.06.13.03-.09-.04-.09h-.03z"/><path d="m27.98 20.25-.09.23.1-.04.09.17-.18.09-.04.07-.02-.05a.41.41 0 0 1-.04.02l-.1.19.1.03.18-.09.12.1.08.31c-.17-.05-.28-.06-.4-.13l-.13.06v-.14l-.34.68c0 .04-.02.07-.03.1h.03c-.08.24 0 .13-.15.18l-.01.02.16-.01c.02.13.07.18.07.25l.12-.02-.03.1.2-.2v-.02h.03l.01-.02v.02h.08l.04-.06c-.03 0-.05-.02-.09-.04l-.02-.06h.15c.1-.17.18-.36.26-.54v-.04l.03-.01.2-.44a1.1 1.1 0 0 1-.11-.14l.19-.05.05-.14-.04-.14.1-.03.01-.03-.28.16-.3-.34zm-.59 1.96-.05-.12.14.01-.09.11zm.22-.46v-.14l.15-.15c-.04.2-.02.13-.15.3zm.38-.98h.2c-.09.02-.05.05-.2 0zM26.3 10.06l.06.19-.3-.11c.01.2-.14.23-.2.35l.02.03.24-.05c-.03.22.02.13-.13.27l.08.18c.33-.27.2-.08.22-.53l.32.07c-.08.13-.06.1-.09.26.1-.12.09-.1.15-.14-.02-.13 0-.1.03-.25l-.2.04.05-.16c-.07-.05-.13-.1-.25-.15zm-.16-.29L26 9.75c.11.09.06.01.14.02zm-.49 14.39.1.2v-.29l-.1.1zm-8.21 4.38-.18-.01.07.13.1-.12zm-.3.03c-.1.15-.03.06-.05.28l.05-.28zm7.63-2.68h.01v.01h-.01zm-6.47.97v-.16l-.34.06v.05h-.02v.07c.2-.08.11-.07.36-.02zM24.85 25l-.07.07h.04l.03-.06zm-5.02 2.03-.06-.08c-.07.04.02.07-.14 0l-.03.23h.22l-.16-.15.18.06c-.01-.02-.02-.03-.01-.06zm-3.39.85-.3.14.31-.02a.5.5 0 0 1 0-.12zm3.16-1.13c-.22.01-.2-.1-.22.04l.06-.03v.08a2 2 0 0 1 .27-.07c0-.04 0-.09.02-.17l-.19.01.07.14zm-.58 1.46-.14.04.05.17c-.26-.02-.18-.18-.25.07.08-.02.19-.02.28-.02.18-.16.15-.1.06-.26zm6.82-4.25.03-.04-.12.13.12-.03-.03-.06zM9.73 9.53a.64.64 0 0 0 .02-.24.68.68 0 0 0-.04-.22.35.35 0 0 0-.09-.14.1.1 0 0 0-.06-.03c-.03 0-.05.01-.06.03a.07.07 0 0 0-.02.05c0 .02 0 .04.03.07.03.05.05.1.06.17a.53.53 0 0 1-.09.4l.14.12c.06-.07.1-.14.11-.2zM17.2 5.1l-.06-.01h-.04L16.45 5h-.04l-.08.01c-.02.01-.04.03-.04.06s.01.06.05.08l.06.03.01.02.01.07-.14 1.15a.69.69 0 0 0 .02.31c.02.07.06.13.13.2.07.05.15.1.25.14.08.03.19.06.31.07h.04l.02-.18a.48.48 0 0 1-.09-.05.13.13 0 0 1-.03-.06.23.23 0 0 1-.02-.1l.01-.17.15-1.23c0-.03.01-.06.03-.07l.02-.02.06-.01c.04 0 .06-.03.06-.07v-.05l-.04-.03zm7.1 4.39v-.02l-.01.01zm-8.47-2.5c.07-.01.1-.04.1-.1 0-.03-.03-.05-.07-.06l-.06-.02-.02-.01-.03-.07-.2-1.47.01-.08.02-.02.05-.02c.04-.02.06-.05.05-.09 0-.05-.04-.07-.12-.06h-.04l-.65.1.23 1.71v.1l-.03.01-.06.03c-.05.01-.07.04-.06.09 0 .02.02.04.04.05a.2.2 0 0 0 .1.01h.05l.65-.1h.04zM13.32 26l.1.01.47-.87-.03.04c-.06-.16-.05-.02-.01-.18l.08.07.13-.23.12-.54-.25.46-.12-.98-.76-.18h-.1a.08.08 0 0 0-.04.07c0 .05.02.09.09.12l.06.05c.02.03.03.07.04.14l.09.76h.03l-.03.03.01.1.13.08a.74.74 0 0 1-.11.07l.1.97zm.2-2.12.1.08-.1.1c-.06-.16-.04-.02 0-.18zm1.16-16.74.18-1.18-.06-.49-.07.47-.4-.79-.68.1a.14.14 0 0 0-.08.03c-.02.01-.02.03-.02.06 0 .05.04.07.1.08.04 0 .06 0 .08.02a.3.3 0 0 1 .07.1l.8 1.61h.08zm-.87.01v.03c0 .05.05.07.12.06l.37-.05c.07 0 .1-.04.1-.09 0-.02-.03-.05-.07-.06L14.27 7a.21.21 0 0 1-.1-.09.27.27 0 0 1-.03-.06.85.85 0 0 1-.01-.1l-.06-.44-.22-.42.12.89c.02.14-.02.25-.12.32a.17.17 0 0 0-.04.04zm-2.11.86v.04c.02.05.07.05.14.03l.34-.15c.06-.03.09-.06.07-.11-.01-.03-.04-.04-.08-.05l-.06-.01a.22.22 0 0 1-.12-.06.24.24 0 0 1-.05-.05l-.04-.09-.17-.4-.32-.36.35.82c.05.14.04.25-.04.35a.18.18 0 0 0-.02.04zm.7 18.04.42.09c.08.02.12 0 .14-.06 0-.03-.01-.06-.05-.1l-.05-.05a.24.24 0 0 1-.07-.13.35.35 0 0 1-.01-.07c0-.02 0-.06.02-.11l.07-.32-.13.02c.01-.12.07-.13.16-.24l-.01-.08-.02-.02h.02l-.05-.38-.21.98c-.04.16-.12.26-.26.3a.2.2 0 0 0-.05.02l-.02.04c0 .05.03.09.1.1zm.4-18.55c-.05.03-.06.06-.04.1.01.03.03.04.05.05.03 0 .06 0 .1-.02l.05-.03.6-.25.04-.02c.07-.02.1-.06.07-.11-.01-.04-.04-.05-.08-.05h-.09l-.04-.07-.58-1.36a.13.13 0 0 1 0-.08v-.02l.05-.04c.03-.03.03-.06.02-.1-.02-.05-.07-.06-.13-.03l-.04.02-.6.25.67 1.6c.01.04.02.07.01.1l-.01.01-.06.05zm9.3-.52-.03.02v-.05l-.02-.01-.39.46a.08.08 0 0 0 0 .13l.07.02.06-.03.07-.06c.07-.06.14-.1.21-.12v-.01h.01a.3.3 0 0 1 .14 0l.03-.03.1-.11-.2-.17.06.14-.09.04.01-.2-.02-.02zm-1.34-.3c.2-.14.2-.23.27-.35l-.05-.03-.03-.02a.13.13 0 0 0-.08-.02.08.08 0 0 0-.06.03c-.02.03-.01.07.02.1l.04.05v.02c0 .02 0 .04-.02.07l-.09.15zm1.78 1.48-.06-.05.1.01.26-.31v-.06l.06-.01.04-.05-.26-.22-.07.08.05-.1-.22-.19-.1.12.01.02c-.12.13-.12.14-.05.4l.02-.1c.15.2.07.12.06.27a1.2 1.2 0 0 1-.23-.36l-.83.99-.07.04h-.02c-.01 0-.03 0-.07-.03-.04-.02-.08-.01-.1.02a.06.06 0 0 0-.02.07c.01.02.03.05.07.08l.03.03.5.42.05.04.08.04c.03 0 .05 0 .07-.02a.1.1 0 0 0 0-.1l-.05-.07V9.1c0-.03.01-.05.04-.08l.71-.86zm.24-.35-.11.07-.04-.09.15.02zm-.42-.35c.12-.05.04-.04.18-.02l-.12.07-.06-.05zm-.1.7-.08.03v-.11l.09.08zm-.35.36.03.03.01.12c-.06-.13-.04-.03-.04-.15zm-.5-1.65a.14.14 0 0 1 .06-.06h.08c.04.01.07 0 .1-.03a.07.07 0 0 0 0-.07.17.17 0 0 0-.06-.06l-.04-.02h-.01c-.32.12-.48.23-.8.3-.05-.1-.05-.1-.05-.13l-.6 1c-.01.04-.03.06-.05.06h-.08c-.04-.01-.07 0-.1.04a.06.06 0 0 0 0 .06l.06.06.04.02.56.33.04.03.08.02c.02 0 .04-.01.05-.04.02-.03.02-.06-.01-.1l-.04-.04v-.02c0-.02 0-.05.02-.08l.75-1.27zm-.11-.14.03.1-.08.03.05-.13zm-.32.57.06-.12.1.08-.16.04zm.03-.42.1.02v.12l-.08.04-.07-.12.05-.06zm-.2.23.08.11-.12.01.05-.12zm2.13.94a.63.63 0 0 1-.1.24v.02l-.01.04h-.02v.02a.11.11 0 0 0-.03.07l.03.06.07.02a.1.1 0 0 0 .06-.04L23 8.4l-.1-.2c.22.04.01-.14.29-.1l-.06.14.03-.04h.01l.07-.1.07-.09-.09-.08-.02.02-.15-.16-.03-.02-.05.06h.01L23 8l-.08.03v.02zm0 .29.02.12c-.03-.1-.02-.02-.01-.12z"/><path d="m24.56 9.76.04.02.06-.15-.14-.19a.23.23 0 0 1-.08.03l.02-.1-.02-.02a.44.44 0 0 0-.05-.06.1.1 0 0 0-.04-.02l-.06.01a.09.09 0 0 0-.03.05l.01.07c.02.07 0 .12-.04.15a.33.33 0 0 1-.1.06l-.37.1-.1.18.37-.1c.01-.02.04-.02.13-.05l-.02.03.1-.02.08-.02h.06c.01-.02.03-.03.04-.1a.2.2 0 0 1 .05.1l.09.03zm-.43-.05.05-.12.04.08-.1.04zm-5.99-2.59a.23.23 0 0 0-.07.02.05.05 0 0 0-.03.03c-.01.05.02.1.1.12l.33.12c.04.01.07.02.1.01.02 0 .03-.02.04-.04.01-.03 0-.05-.02-.07l-.03-.04a.25.25 0 0 1-.07-.14c0-.05 0-.11.03-.18l.27-.74-.06-.3-.36.99c-.05.13-.12.2-.23.22zm.65-1.52.02.1.35 1.96.38.14.22-.61-.27-1.56-.6-.22a.44.44 0 0 0-.14-.03l-.04.01-.03.04v.05l.02.03.05.04.04.05zm.46.8c.06.16.05.15.02.24-.07-.15-.05-.1-.02-.24zm.02.3.03.03-.11.07a3.54 3.54 0 0 1-.06-.06l.02-.03h.12zm-.22-.13.1.08-.09.1c-.02-.1-.02-.08-.01-.18zm1.11-.38c.04-.05.1-.07.15-.08l.08-.01.03-.04V6l-.1-.06-.34-.13h-.08a.07.07 0 0 0-.05.04v.04c0 .02 0 .03.02.05.05.05.08.1.09.15 0 .05 0 .1-.04.19l-.14.38.06.3.23-.63a.5.5 0 0 1 .09-.14zm-2.72.69a.41.41 0 0 1-.26.1l-.02.18c.07 0 .13-.01.18-.03.1-.03.19-.09.25-.16a.7.7 0 0 0 .16-.39l.11-.96a.44.44 0 0 1 .06-.16.24.24 0 0 1 .11-.1.41.41 0 0 0 .07-.03.07.07 0 0 0 .03-.05c0-.02 0-.05-.03-.06l-.03-.02h-.06l-.36-.05h-.1l-.03.06.01.05.06.04c.1.07.13.17.12.3l-.12.96a.44.44 0 0 1-.15.32zm-1.41 19.37a.09.09 0 0 0-.06-.08l-.06-.03a.15.15 0 0 1-.1-.14v-.09l.26-1.08-.1-.34-.32 1.38a.64.64 0 0 1-.07.18l-.06.07-.1.06c-.05.02-.07.05-.07.08s.02.05.04.07c.03.02.06.02.1.02l.42-.01c.08 0 .12-.03.12-.09zm-.97-1.88.04-.08.02-.01.07-.01c.05 0 .07-.03.08-.07.02-.06-.02-.1-.1-.11l-.04-.02-.73-.16-.41 1.9a.19.19 0 0 1-.05.1l-.02.01h-.08c-.06 0-.09.03-.1.07 0 .03 0 .04.02.06l.02.02.08.05h.06l.06.02.02-.05.05-.13c.1.1.16.17.2.24l.4.1h.03c.08.02.13 0 .14-.06.01-.04 0-.08-.04-.1l-.06-.04-.01-.02V26l.07-.36.28-1.26zm-.68 1.53c-.02-.11-.03-.02.01-.15l.04.03.03.09c-.03 0-.06.02-.08.03zm.27-.38a1.66 1.66 0 0 0-.07-.06l.15-.04-.08.1zm-.14-.23.1-.2.13.12c-.14.09-.11.06-.23.08zm4.79-.58.03-.09.03.04.06-.08c.02-.05.03-.1.03-.16l-.02.01-.06-.05.08-.03a.7.7 0 0 0-.03-.2c-.02-.07-.07-.11-.1-.17l-.05-.02.03-.02-.06-.09-.15.07a.72.72 0 0 1-.02-.18l-.15-.06h-.03l.01-.01-.04-.02c-.11-.01-.28.01-.5.07l.05.18c.05-.01.1 0 .14.02a.1.1 0 0 1 .06.05l.04.11.15.52a.4.4 0 0 1 .01.17c0 .03-.01.06-.03.07a.4.4 0 0 1-.09.06l.05.18c.2-.06.36-.12.45-.2.05-.03.07-.09.1-.14a1.3 1.3 0 0 1-.2-.5c.18.04.04.06.2-.04l.08.11c-.13.14-.13.15-.06.4zm-.4-.78-.09-.08.18-.07-.08.15zm.24.2.01-.22.08.18-.1.04z"/><path d="M17.46 26.2c0-.02 0-.04-.02-.05a.14.14 0 0 0-.06-.03c-.04-.02-.06-.03-.07-.05l-.03-.1-.55-1.93-.66.02-.04.16.04.14.09-.06.03.03-.04.24-.05-.09.3 1.08-.38.02-.03.2.46-.02.06.24v.05a.1.1 0 0 1 0 .05.1.1 0 0 1-.05.04.2.2 0 0 0-.06.04v.06c0 .02 0 .04.02.06l.08.02.83-.03c.09 0 .13-.04.13-.1zm-1.25-1.9-.06-.06.12-.06-.05.12zm2.69 1.64a.2.2 0 0 0 .09-.05c.02-.02.03-.05.02-.07-.01-.05-.05-.07-.1-.07h-.08l-.03-.01a.17.17 0 0 1-.05-.09l-.53-1.88-.14.04h.04v.13l-.08.03-.07-.1.03-.04-.49.13-.04.01-.08.05a.06.06 0 0 0-.01.07c0 .05.04.07.08.07h.07l.02.02c.02.01.03.04.05.07l.45 1.61v.09l-.01.02-.06.04c-.04.02-.05.06-.04.1 0 .03.02.05.05.06h.1l.04-.02.7-.2h.06zm-1.05-1.54v-.11c.02.1.01.01 0 .11zm-.07-.25.04-.1a2 2 0 0 0-.08.1l-.1-.15.11-.07a2 2 0 0 0 .1.08l-.02.02.07.1-.12.02zm.27-.05.1.08-.15.04.05-.12zm-.05.65c-.01-.11-.02-.02.02-.15l.07.06-.09.1zm.06-.33-.06-.06c.12-.02.02-.02.15.02l-.09.04zm.12.32.06-.13.1.09c-.06 0-.1.03-.16.04zM12.53 7.79l-.13-1.2-.2-.45.06.47-.59-.65-.64.26a.13.13 0 0 0-.06.06.07.07 0 0 0 0 .06c.02.04.06.06.12.05h.08a.3.3 0 0 1 .1.08l1.19 1.35.07-.04zM10.92 8.8l-.1-.14a.16.16 0 0 1-.11.01c-.04-.01-.09-.05-.14-.12l-.8-1.06a.23.23 0 0 1-.05-.13.2.2 0 0 1 .04-.12l-.1-.13a.78.78 0 0 0-.29.51.95.95 0 0 0 .04.42c.04.14.11.28.21.42.21.27.45.42.72.46.2.03.4-.01.58-.13zm.39-.61c.04-.27-.04-.54-.25-.81a1.1 1.1 0 0 0-.73-.48c-.1-.01-.2 0-.3.02a.8.8 0 0 0-.27.12l.1.13a.28.28 0 0 1 .08-.02l.06.02c.03.01.06.04.1.08l.79 1.06c.05.06.07.12.07.17v.05c0 .02-.02.04-.04.06l.1.13a.86.86 0 0 0 .3-.53zm-2.84.09a2.17 2.17 0 0 0-.24.15l.13.12a.32.32 0 0 1 .11-.06.48.48 0 0 1 .15-.02.88.88 0 0 1 .44.1.2.2 0 0 0 .08.03c.02 0 .04 0 .05-.03a.08.08 0 0 0 .02-.06.09.09 0 0 0-.04-.07l-.47-.4C8.68 8 8.66 8 8.64 8c-.03 0-.04.01-.06.03a.05.05 0 0 0-.02.07l.01.04c.02.03 0 .06-.01.08a.31.31 0 0 1-.09.05zm-.34.26a.72.72 0 0 0-.15.3.97.97 0 0 0 .12.72c.08.12.17.22.28.32.15.13.3.23.46.28.15.05.3.05.45.02a.85.85 0 0 0 .44-.28l-.14-.12a.19.19 0 0 1-.05.04.13.13 0 0 1-.07.02c-.02 0-.05 0-.07-.02a.23.23 0 0 1-.06-.04l-.05-.04-.92-.8a.33.33 0 0 1-.11-.15c-.02-.05 0-.1.02-.15l-.13-.12-.02.02zM23 10.33l.5-.4.42-.76a.17.17 0 0 1 .05-.06.06.06 0 0 1 .05-.01l.05.02c.03.01.06 0 .09-.01v-.02a.59.59 0 0 1-.23 0c0-.08.04-.04-.07-.1-.1-.02-.09-.01-.19 0l.02.13c.1-.02.02-.02.11-.01l-.14.1-.14-.23-.02.16-.1-.09c.1-.09.1-.07.27-.11-.1-.1-.06.02-.07-.11.16.09.43.18.56.19a1.33 1.33 0 0 0-.1-.08h.05l-.02-.04-.16-.2h-.01l-.09.04c-.04-.14 0 0 .02-.15l-.15-.2c-.05-.05-.1-.06-.13-.03l-.03.03v.07c0 .03 0 .06-.02.1l-.53.94-.4.31c-.02.02-.05.04-.07.03h-.03l-.06-.04c-.04-.03-.07-.03-.1 0-.02 0-.03.03-.03.06l.04.09.03.03.41.52.03.04a.2.2 0 0 0 .07.07l.07-.01c.04-.03.04-.07.03-.11a.47.47 0 0 1-.03-.06v-.03c0-.03.02-.05.05-.07zm.56-1.53c.05-.05.02-.05.12-.07l-.12.07zm.01-.22c.1.09.06.04.07.12l-.1-.08.03-.04zm.16.75-.05.12c-.04-.13-.04-.04.05-.12zm-.15-.02.01.12-.1-.02-.06-.06.15-.04zm-.24.02.1.08-.06.07c-.06-.13-.04-.04-.04-.15zM9 18.27l.02-.05c-.08-.1-.07-.02-.07-.16l.1.01-.08-.25-.08-.04.04-.04c-.16-.07-.1.03-.19-.14l.03-.03c.03-.06.06-.03 0-.08a.3.3 0 0 0-.03-.02l-.21.05v-.13l.15-.03-.06-.07a.22.22 0 0 1-.12-.05h-.13l.06-.07a1.7 1.7 0 0 1-.14-.23l.2-.1.32.38a7.3 7.3 0 0 1-.18-1.28l-.03.03-.06-.06.06-.12.04.04c-.01-.6.04-1.2.17-1.8l-.1.12-.13-.12.04-.03-.09-.11-.14.1-.1-.13.14-.1.1.13.03-.03.12.02.06.06.08.09c.1-.48.26-.94.45-1.38-.06 0-.03.01-.15-.06h.01l-.1-.09.03-.02.12.01.01.07a.7.7 0 0 1 .08 0l.02.05a7.5 7.5 0 0 1 1.28-1.94c-.03-.06-.02-.03.04-.17l.06.06a7.34 7.34 0 0 1 2.02-1.5.98.98 0 0 0-.06-.03l.1-.1c.09.02.16 0 .24 0l.15-.06h-.03l-.19-.3.12-.12.1.1-.13.05.27.21.15-.07a7.38 7.38 0 0 1 9.24 3.67l.08.1h-.04l.23.53a7.2 7.2 0 0 1 .42 3.47.2.2 0 0 1 .2.01l-.2.1.15.1a.48.48 0 0 1-.18.05l-.07.36.09.16-.1.08-.03-.05a4.3 4.3 0 0 1-.2.7l.06.02-.07.03-.05.12.06.03.07.18c.04-.14.02-.15.11-.3h.07l.27.44c.02 0 .04 0 .06-.02l.2-.6c-.08.09-.04.08-.17.1l-.03-.02.06-.06a.4.4 0 0 1 .2-.21l.08-.34-.08-.03c.05-.04.08-.04.1-.05v-.1l.02-.02c.16-.85.2-1.73.08-2.6l-.16.1.15.1c-.17.09-.18.07-.27.03l-.12-.06c.18-.15.27-.24.4-.2a8.16 8.16 0 0 0-1.67-3.94l-.06.06c-.01-.1-.02-.05.01-.11a8.1 8.1 0 0 0-13.17.82l.1.01h-.1l-.06.07h.1c-.09.02-.03.02-.1 0l-.06.12.02.03.07.16h-.05l.04.08c-.18.04-.03.05-.18-.05l.04-.08-.01-.02-.11.21c.02 0 0 0 .05.08h-.1l-.02.03.03.02c.1-.01.03-.04.12.06-.14.02-.15.04-.17-.04a8.13 8.13 0 0 0-.7 2.18c-.04.2-.07.41-.09.62l.08.15-.1-.01c-.05.75-.01 1.52.15 2.3l.03-.03.12.23-.09.07.04.17.03.01-.02.01.01.06.04-.04h.04c-.06-.03-.08-.07-.06-.22a.32.32 0 0 1 .04-.02l.25.27.41.45H9zm-.2-4.4-.05.08-.1-.08.1-.07.05.06zm14.69 4.27.03.03-.09.1a2.64 2.64 0 0 0-.1-.1c.06 0 .1-.02.16-.03zm-.37-.23.1-.1.09.1h-.19zm.3.11-.08.1-.03-.16.03-.03.09.1zm.21-.45.1.14c-.18.13-.25.15-.43.13v-.12c.2-.05.18-.13.33-.15zm.3-.79c-.17.04-.03.05-.19-.02l.1-.08.09.1zm-.08-.16c-.11 0-.02.02-.14-.05l.06-.05.08.1zm-.17-1.41c.1.1.08.11.18.23l-.09.1-.22-.33.1-.1c0 .04.02.06.03.1zm-.2-.79.03.1c-.11 0-.02.01-.15-.04l.03-.03.1-.03zm.12-.36.03.03v.06c-.13 0 0 .01-.12-.06l.09-.03zm-.27-.03-.06.06c.02-.08-.02-.03.06-.06zM23.1 14l.06-.06.03.1c-.02-.02-.06-.03-.09-.04zm.54-.25-.08.1-.04-.15.03-.03.1.08zm-.42 0-.06.07.03.1-.12-.07.12-.12.03.03zm-.56-1.34-.11-.08.1-.08v.16zm-.2-1.16h-.12c.1-.02.02-.02.12 0zm-.3.06c-.13.1-.1.08-.21.1.14-.09.07-.1.2-.1zm.08-.4h-.12.12zm-.27.1-.15.1-.06-.12.09-.1.12.12zm-8.77-2.2.06-.07.03.1-.09-.04zm.15-.04.1-.1.02.1h-.12zm.45-.22-.02.1-.12.05-.04-.09.06-.06h.12zm-1.23.41.06-.12.06.06-.09.1a.94.94 0 0 0-.03-.04zm-3.7 3.38.07-.06a1.55 1.55 0 0 0-.12-.04l.1-.08.04.1.06.12-.15-.04zm-.09.2-.06.05c.03-.08-.02-.04.06-.05zm.1.1-.06.07c.02-.08-.03-.04.06-.06zm-.49 1.9.02.1-.18.04.07-.11.1-.03zm-.14-.05.06.05-.09.1-.03-.03.06-.13zm-.27.22c.06.15.03.12.03.25-.05-.1-.06-.1-.03-.25zm.18.3c.12-.07.04-.1.19-.1l-.05.14c-.15.02-.04.02-.14-.05zm-.05.3.1.02-.1.1v-.13zm.28 0v-.01c-.14 0-.08.01-.22-.12l.09-.1.13.18v-.18c-.02-.04-.02-.08-.01-.18l.04.08.02-.1.05.13-.06.05.01.09a.51.51 0 0 1-.04-.06l.05.18.01-.02.05.07-.04.09-.1.08-.08-.1.1-.09zm-.44.55-.05-.06.07-.12.08.1c.04-.13 0-.14.05-.3l.16.28-.18.12-.03-.09-.1.07zm.25.19v-.17l.03-.03.06.12.04.03-.13.05zm.1.83-.06.06v-.16l.07.1zm-.25-.6.1-.1.09.1h-.19zm-.04.84.09-.1c-.1-.12-.09-.1-.1-.2h.12l.04.15-.06.06.12.18c-.2.02-.04.05-.21-.09zm.74.88h.15c-.13.03-.04.02-.15 0zm11.12 4.06c.06-.1.1-.14.13-.14l-.19.01a.97.97 0 0 0-.07.05c.02.04.03-.02 0 .09a2.17 2.17 0 0 0-.04-.07l-.05.03-.02.02.03.06a4.2 4.2 0 0 1-.16.04v-.03l-.16.08-.16.07.06.1-.1.08-.09-.12-.26.1a.24.24 0 0 0-.05.08l-.11.06v-.08l-.17.07.13.1-.1.07-.17-.13a7.85 7.85 0 0 1-.3.13c0 .02.03.05.05.08-.11.07-.08 0-.12.13-.13-.05-.09-.1-.02-.17l-.02.01-.05-.04-.1.02c-.11.07-.15.26-.23.41l.08.05.02-.01v.02c.09.07.12.15.15.26.27-.06.54-.13.8-.21a.16.16 0 0 1-.05-.03c.2-.23.04-.19.06-.37l.04-.02c.18.21.1.17.27.16l-.03-.12c-.19.03-.15.02-.3-.12l.11-.07.07.06.01-.02h.05c.01-.02.04-.03.09-.03l.22.32-.14.07v.03l.28-.12a.4.4 0 0 1-.05-.06l-.04.02-.02-.04.02-.11c0-.06 0-.1.05-.18.14.08.16.07.3.06l.05.18.44-.23c-.04 0 .03-.02-.08-.06l.1-.07.03.04v.06l.26-.14.03-.12.1-.07a.3.3 0 0 0 .06 0v.07l.1-.07c0-.11-.03-.14-.17-.23-.09.01-.18 0-.22-.03a.52.52 0 0 0 .07-.14l-.29.03c.04 0 .07.05.12.12l-.13.07.02.02-.02-.01c-.04.02-.07.02-.13 0 .03.1.03.1.15.2a1.5 1.5 0 0 0-.12.06l-.13-.18.05-.1h-.01l.03-.02v-.02.01l.04-.02zm-2.06 1.2c-.06-.28-.15-.16-.12-.33l.04-.02c.19.18.2.05.33.18l-.07.06h.05l.01.09-.1.07-.07-.08-.07.03zm.62-.01c-.2.06-.16.12-.33.02l.08-.05.04-.03c-.05-.03-.08-.08-.16-.17l.14-.1.07.2c.08-.05.1.01.16.13zm.04-.31-.2.1-.07-.16c.25-.06.14-.02.27.06zm.35-.37v.1l-.08.03c.03-.11-.01-.02.08-.13zm.26.12c-.1-.03-.13-.07-.22-.14l.18-.14c0 .01 0 .03.02.04-.02.15-.04.12.02.24zm.32-.02-.1-.04-.01-.1.12.04v.1zm.7-.34c.02-.04.04-.08.04-.12l.04.07.14.08h-.03v.1c-.03-.02-.07-.02-.12-.03l.1-.06c-.08 0-.06-.01-.16-.04zm-.36.03.02.14c-.18 0-.07.09-.22-.04l.06-.08.14-.02zm2.39-1.86c.11-.06.09-.03.18-.04l-.02-.02.07-.01c0-.12.05-.16.06-.28l-.11.07v-.21c-.1.04-.14-.01-.21-.04l-.26.32c.11 0 .23 0 .34-.03l.01.1-.2.03a2.4 2.4 0 0 0-.29.07l-.23.24c.05.1.05.1.18.18l-.1.07-.16-.15.01-.03c-.06.07-.14.13-.22.2h.02v.2l.05-.07-.04-.02.05-.09.1-.02.06-.05.06.02.11.53h.12v-.05l.04.03.03-.03.03-.06a.3.3 0 0 0 .04-.07c0 .02 0 .03.02.04a6 6 0 0 0 .22-.23h-.05l.02-.06a.24.24 0 0 1-.04-.07c-.07.05-.05.05-.18.03 0-.01 0-.03-.02-.04l.08-.04.06-.04c-.12.02-.1.01-.18 0a1.8 1.8 0 0 1-.11.06l.02-.15.04-.02.03.06.02-.08.04.07.14.06a.49.49 0 0 1 .28-.1c0-.08-.02-.12-.08-.15l.01.06c-.2.06-.28.06-.44-.02l.04-.12c.18.02.21-.05.32-.04h.04zm-.38.69-.12-.03c.1 0 .03-.01.13.03zm.05-.17.02.04-.12.06a3.32 3.32 0 0 0-.06-.12l.16.02zm-.1-.29c-.1-.01-.08-.01-.17-.06h-.03.04l.1-.06.06.12zm-1.04.97c-.1.07-.18.15-.28.2.05.05.09.08.1.11.14-.1.04-.06.25-.09l-.02-.05v.05l-.11-.04v-.1c.02.01.06.03.1.03a.57.57 0 0 1-.04-.1zm-4.84 1.25-.36-.02.03.06-.33.02.01-.1-.33-.06.03.07.02-.01.02.03.05.13.04.02h-.04l.01.02c-.2 0-.04.04-.17-.1l.05-.07c-.05 0 0 .01-.1-.07a.75.75 0 0 1-.08-.01h-.03l.11.08c-.19.03-.06 0-.2-.07a.17.17 0 0 1 .1-.02l-.07-.04-.18-.04v.04a3.37 3.37 0 0 0-.06-.03c-.11.01-.15.2-.2.35l.04.05h-.06l-.11.06v-.04h-.02a.45.45 0 0 1-.02-.1l-.03-.06c0 .06-.02.1-.05.18-.09-.03-.04-.07-.13.03a.33.33 0 0 0-.03.1l.12.03.02-.04.02.05.32.08.02-.2c.1-.07.11-.1.15-.11v-.07l.02.06h.1l-.06-.05h.1v.03c.03-.02 0-.03.1 0a.26.26 0 0 1-.05.04l.05.06c.1.02.04-.03.1.09-.17 0-.15.01-.15-.14-.13.15-.15.15-.2.23l.02.1c.28.06.57.1.85.12l.08-.07.01.03.07-.04.07.1.02.01h.21c-.01-.12.05-.16.06-.47a.33.33 0 0 0-.01-.03l.05-.21zm-1.48.22c-.03-.06-.05-.02-.04-.13 0 .04.02.09.04.13zm.72-.06.04-.02.04.17c-.13-.06-.03.01-.08-.15zm-.31.36.1-.07.04.13-.14-.06zm.27.05.04-.12.16.12h-.2zm.26-.18.03.08-.07.04c.01-.1-.01-.03.04-.12zm.37 0c-.06 0-.08-.02-.1-.03l.06.21-.16-.12.1-.09-.1-.1.17-.06.02.03v.16z"/><path d="m17.25 23.6.08-.02c.07 0 .13-.03.2-.04l-.1-.04-.03.01-.02-.03a1.1 1.1 0 0 0-.1-.04l.07-.02-.03-.06a.51.51 0 0 1 .05-.03l-.08-.04c-.08-.02-.1-.04-.2-.1l.06-.06-.02-.02c-.17.02-.18.02-.31-.09l.15.02c.12.02.08 0 .15.04a.84.84 0 0 1-.06-.12l.13-.09-.1.01-.05.04-.02-.03-.5.04.02.03-.03-.03-.43.02a.76.76 0 0 0-.05.17.1.1 0 0 1 .07.02c-.11.02-.22.03-.32.06.15.2.2.22.21.43a.2.2 0 0 0-.06.04h.22l.08-.06.04.06h.05c.02 0 .04-.01.05-.03l.03.04.27-.02-.15-.15.12-.06.19.19h.09a.4.4 0 0 0 0-.11l.13.02-.01.07.06-.01.11-.12.03.03.01.07zm-.92-.58c.14.04.05.04.17-.04-.03.1-.1.15-.17.23a4.28 4.28 0 0 1-.14-.08c.09-.05.05 0 .14-.11zm-.33.3-.02-.03.15-.08.08.16a6.29 6.29 0 0 1-.21-.04zm.56-.13v.1l-.08-.06.08-.04zm-.33.23.03-.02.12.02c-.14.03-.04.03-.15 0zm.64-.28.08.06v.2c-.13-.02-.2-.1-.08-.26zm-.75.51h-.16l.1-.07.06.07zm-6.29-2.92.09.16.11.13c.12-.07.09-.1.25.06l-.02.05.1-.04.03.1c.02 0 .03 0 .04-.02l.05.02-.05-.09.12-.06.06.12-.12.06v-.02l-.05.22.04.03.13-.03.07.12h-.08l.05.04-.04.01.43.35-.18-.32.04-.03c-.01-.03-.02-.03-.01-.11l.02.1h.03l.04.07.25.36-.07.03c.19.14.38.25.57.37l.09-.05.04.12.01.02.08.05.01-.04-.06-.04.29-.1c-.16-.07-.07-.04-.19-.13l.18-.01c.11-.09.04-.03.19-.12l.07.44c-.16.05-.29.06-.4 0l.07.07.07-.04.03.04c.08-.01.06 0 .17.1a.3.3 0 0 0 0 .07c.18.1.37.18.57.27l.12-.15h-.02c.02-.03.03-.06.06-.08v.02a1 1 0 0 0 .09-.12c-.04.02-.07.03-.1.06l.02-.1-.05-.01.01.01h-.01v.06l-.06-.02a.14.14 0 0 1-.04.02l.02.01c-.11.07-.1 0-.11.19-.04 0-.07-.02-.1-.03h-.03a.7.7 0 0 1-.16-.1c.17-.06.23 0 .23-.13.08.02.09.02.13.05l-.1-.17a.57.57 0 0 1-.1-.09h.03a.54.54 0 0 1-.04-.05h-.01l-.1.1a.43.43 0 0 1-.03-.02h-.01l-.02-.03-.09-.08.06-.03c.02-.04 0 0 .02-.1.03 0 .05-.01.08-.03a.9.9 0 0 0 .04.08l.01.02.05.09.12-.06.07.1c.26-.1.28.04.47.28 0-.13.01-.21.04-.27a.16.16 0 0 1-.05-.02l-.44-.2-.13.06a2.21 2.21 0 0 0-.05-.14l-.06-.03a.3.3 0 0 1-.06.03v-.05a7.8 7.8 0 0 1-1.64-1.15c-.12.12-.06.08-.07.22l-.16-.11c.09-.12.07-.13.1-.24-.4-.38-.75-.8-1.06-1.27l-.35.21.16.11c-.18.01-.18 0-.32-.12l-.1.18.07.1c.1-.04.05.02.22.06 0-.17-.04-.03.05-.18l.02.14.13-.22c.17.32.18.3.35.46l-.07.14c.15-.04.04-.08.18.05l.05.27-.14.02-.12-.22-.12.15zm2 1.54-.16-.04v-.04l.11-.05.05.13zm.94.4-.11.05-.03-.13.04-.02.04-.02.06.11zm-1.94-1.12c-.02-.06-.03-.03-.02-.13l.02.13zm.12-.06h.1v.1l-.1-.1zm.4.47a2.6 2.6 0 0 0-.13-.07l.11-.06.03.13zm-.12-.23c-.19-.02-.16 0-.14-.17l.04.08c.1.02.04-.03.1.1zm.2-.35.05.17c-.2-.02-.05.04-.16-.1l.09-.11.02.04zm-.25-.11.1.1c-.2 0-.07-.03-.2-.1.09-.03.19.02.1 0zm-1.33-1.6.09.16-.16.09c-.03-.2-.06-.1.07-.24zm.68 1.26c-.17-.01-.04.04-.17-.07l.13-.05.04.12zm10.2 1.23v-.1c-.05.08 0 .04 0 .1z"/></g><path fill="none" d="M-.05-3.67h35.83v37.13H-.05z"/><g fill="#CBC8B8"><path d="m8.46 13.1-.04.07c.07-.06.06 0 .04-.08zm16.14-.17-.04.08c.06-.06.05 0 .04-.08zm-1.3-.06c.01.02.03.03.06.04l.01-.04h-.08zM7.75 17.61v.03l.05-.08-.05.03v.02zm.45.51c0-.09.05-.02-.06-.13l-.01.06.06.04-.02.03h.04z"/><path d="m4.08 18.02.06-.01.06.02-.07.1h2.12v-.01h.95l.02-.08c-.06-.05-.04-.03-.05-.13l.14.04V18l.03.02v.02l.09-.02c-.1.07-.03.05-.1.05l-.02.05h.24l.01-.1.04.06.04.04h.2l-.06-.08.15-.02.02.1h.12l.04-.14-.07.02c.06-.03.03-.02.07-.02l.02-.1.02.02v-.03l.07.05.03.01c.1-.03.01.01.09-.1a.3.3 0 0 0-.02-.01l-.24.01-.06-.07.1-.1.08.02-.1.05c.23.04.2.06.38.15l-.02.02.05.1-.1.02-.01-.05-.03.04-.02-.01.02.12H9.5v-.06l.08.06h.17l-.07-.04.02-.02.06.06h.4l.01-.02.04.02h.53l-.06-.19c.14.07.18.12.16.2h.92a.5.5 0 0 1-.1-.14l.64.03-.04.1h1l.1-.02v.02H14v-.03h.1a.24.24 0 0 0-.02.03h1.63a.6.6 0 0 1-.08-.1c.1-.09.03-.01.1-.12.22.08.17.16.44.21v.01h.12l-.02-.02.03.02h.84v-.02l.06.02h2.48l-.1-.03.1-.17c.21.05.02 0 .17.14l-.1.06h.2v-.07c.05.03.07.05.08.07h7.9v-.89c-.03 0-.05-.02-.08-.03l.07-.03v-.54l-.02.03.01-.09h.01v-.42l-.05.05.05-.09v-.16l-.1.13c-.11-.03-.05-.03-.14 0l-.09-.05.18-.2.1.08h.05v-.23l-.02.02c-.01-.07-.02-.04.02-.06v-.15l-.08-.26c.08-.07.05-.11.08-.14v-.2l-.01-.07h.01v-.06l-.18.04.02-.17c.13-.04.04.05.15-.08h-.06l-.03.06a1.02 1.02 0 0 0-.09-.05l.07-.03-.06-.05.18.03-.03-.06.03.06v-.93c0 .05-.02.09-.03.14h-.05l-.01.04h-.02l.02.08c-.08-.09-.05-.02-.05-.1-.11-.03-.06-.01-.22.08l-.01-.06a1.68 1.68 0 0 0-.05-.09l.05-.08.25.04c.05-.06.03-.04.12-.06v-.7H24.9c-.01.03-.02.07-.11.05v-.05h-.1c.04.03.08.06.12.13a.95.95 0 0 0-.05.04h-.25c0-.1.01-.07-.03-.14l.03-.03h-.21l-.04.05-.1-.01.07-.04h-.85l-.02.03-.02.02-.07.03-.05-.02.03-.06h-3.58l-.09.04-.06-.04h-2.66l-.01.07c-.26-.12-.08.1-.28.06l.01-.1.05-.03h-.14v.03l-.02-.03h-.1c.06.06.14.07.23.2l-.05.04h-.25c0-.08 0-.06-.03-.13l.08-.11h-.27l.04.04-.08.09-.08-.01.08-.05-.03-.01-.09.07.03-.08a.6.6 0 0 1-.17-.05h-.43v.06c0-.02-.02-.04-.03-.05H15s-.02 0-.02.02l-.06-.03h-.01v.01h-.94v.08l-.27-.02-.01-.07h-1.5l.1.12-.12.07-.14-.19h-.07v.03l-.16.04-.04-.07H8.91c.03.07.03.06.02.16-.25-.12-.08.1-.28.06l.01-.1c.06-.07.12-.09.23-.12h-.22l.02.01-.02.03-.07-.04h-.2l-.04.05-.05-.03v-.02H8.2l-.01.03-.05-.03h-.08v.03L8 12.87h-.1l-.03.07.03.01.23-.01.06.06-.07.09-.09-.01.09-.06c-.23-.02-.2-.04-.38-.11l.02-.04h-.74c-.02 0-.04.02-.08.07l-.05-.07h-.55c0 .03-.02.05-.03.08a3.25 3.25 0 0 1-.1-.05l.01-.03H4.78v.05a2.72 2.72 0 0 0-.1-.03l.01-.02h-.25c0 .06.02 0-.08.08l-.1.07.14-.15h-.6v3.41-.02 1l.02.04c.02-.23.04-.21.1-.4l.12.09c0 .05-.02.1-.03.14H4c-.05-.1 0-.03-.1-.08v.03l.02.22-.06.07-.06-.04v.2l.12.08c-.05.05-.06.11-.12.18v.04h.08c.09.07.11.13.15.25-.08.04-.06.04-.16.03.09-.23-.05-.13-.07-.23v.24h.27l.02-.1zm23.58-.85c.03-.08.02-.06.1-.11l.02.02.01.13-.13-.04zm.2-.32c-.06-.08-.04-.02 0-.09l.03.02-.04.07zm.05-.54a.31.31 0 0 0-.03.05.37.37 0 0 0-.06-.03l.09-.02zm-.08.08.04.06-.05.04c-.06-.09-.04-.03 0-.1zm-.1.12.09.04-.05.1c-.08.08-.05.1-.13.2-.03-.09.07-.2.1-.34zm-.16-1.84.13-.13c-.07.12 0 .04-.13.14zm.1.11v-.09c.02 0 .02.01.03.02l.02.03-.05.04zm.2-.43-.14.03-.01-.06.13-.13.03.16zm-.19-.49.03.02-.04.07.01-.09zm-.06.13c.14.05.01-.05.23-.01a.63.63 0 0 0-.06.03c-.04.08-.06.07-.15.15-.08-.11-.03-.04-.02-.17zm.02.33-.09.18v-.22l.09.04zm0 3.04-.03.07-.1-.04c.09-.05.03-.03.13-.03zm-.04-3.86.08-.02.03.02-.06.06-.06-.03.01-.03zm-.14 2.07c-.06-.08-.05-.02 0-.09v.1zm.04-.9-.02.01c0 .04.01 0-.1.09l-.02-.06.14-.13-.02.09h.02zm-.07-.39c.02 0 .02.02.03.02l.02.04-.05.04v-.1zm-.02.1c0 .06.01.1.03.16l-.13-.08.1-.08zm-3.65-1.4-.06.05-.07-.03c.06-.03.06-.02.13-.03zm-.16.07c-.12-.05-.04-.04-.14-.03l-.01-.1c.1-.06.12 0 .15.13zm-.4 0-.02.02a5.16 5.16 0 0 0-.07-.03c.07-.05.02-.04.09 0zM21.9 13l-.1.02c.07-.04.01-.02.1-.02zm-.29-.1c.07.08.04 0 .04.1a1.33 1.33 0 0 0-.06-.06l.02-.05zM20 12.87l.12.09-.16.02.04-.1zm-.44 4.42c-.1-.06-.03 0-.11-.1l.11.1zm-.4-4.4.1-.02c-.11.1-.06.1-.2.08l.1-.07zm-3.55.1.07.1h-.1l.03-.1zm-.05.05-.06.07a5.23 5.23 0 0 1-.08-.04c.06-.03.07-.03.14-.03zm-.16.08c-.13-.05-.04-.04-.14-.03l-.02-.1c.1-.06.13 0 .16.13zm-.25-.15.03-.05c0 .06.02.02-.03.05V13c-.03 0-.06.02-.08.03L15 13l.04-.08.1.05zm-.11-.08c-.06.03-.01.01-.08.02l.08-.02zm-.05.23-.01.02-.08-.03c.08-.05.02-.04.1 0zm-1.29-.05-.1.02c.07-.04 0-.02.1-.02zm-.3-.1c.08.08.04 0 .05.1l-.07-.05.03-.06zm-1.88-.08.07.12-.12.03-.02-.09.07-.06zm-.67 4.75.05.07-.03.06c-.06-.1-.04 0-.02-.13zm-.16-.02c-.08.04-.01.03-.1.02l.1-.02zm-.7.24.1.06-.06.08-.1-.05.05-.09zm-.77.17.02-.03.06.07c-.1.01-.02.03-.08-.04zm-.07-.16.08-.07.07.04c-.07.04-.07.03-.15.03zm.11-.36.08.05c-.1.05-.03.03-.1-.02l.02-.03zm-.1.29c.07-.04.01-.02.08-.03l-.08.03zm-.1-.1v-.03l.1-.03.04.03-.05.09-.1-.06-.03.05c0-.06-.02-.02.03-.05zm-.1-.13v.11c-.1.06-.12-.02-.14-.16.12.06.04.06.14.05zm-.14.18.03.06-.03.06v-.12zm.4.23c-.07.06-.33.1-.4.12-.09-.13-.14-.01-.17-.18.18.07.33-.03.57.07zm-.43-.4c-.07.03-.07.03-.15.03l.08-.07.07.04zm-.22-4.7.01.1-.04-.05.03-.05zm-.13.06c.07.07.16.08.25.21l-.05.04-.25.01c0-.1 0-.07-.03-.14l.08-.12zm-.41 4.92.07.04H8l.02-.03zM6.25 18l-.07-.1h.1l-.03.1zm.33-1.81-.07-.1.14-.08-.07.18zm-.01-1.38c.05-.1 0-.03.08-.12l-.08.12zm-.03-.4.16-.04.07.1c-.18.02-.08.1-.23-.07zm.56 3.17-.17-.08.32.01v.05l-.15.02zm-.12-4.39c.08-.04.02-.03.09.01l-.01.03-.08-.04zm.87 4.76-.08-.05.08-.07a.6.6 0 0 0 .05.03l-.05.09zm-.21-4.82-.06.06c-.03 0-.06-.02-.08-.03.06-.04.07-.03.14-.03zm-.21-.23.01.1a.84.84 0 0 0-.03-.04l.02-.06zm.04.3c-.12-.04-.04-.04-.14-.03l-.01-.1c.1-.05.13.01.16.14zm-.02 4.46.02-.02.07-.07h.03l-.02-.03.06-.04h.26c-.01.1-.02.08.01.16a9.2 9.2 0 0 0-.09.1l.01.02h-.03a.63.63 0 0 0-.11.03l-.03.05v-.04a.73.73 0 0 1-.07.03l.03.03c-.09.04-.02.03-.09-.02h-.01l-.01-.08a.62.62 0 0 1-.22.09c-.02-.1-.02-.07.01-.19.15.1.16.03.18-.02zm-.22-4.6.02-.05c0 .06.03.02-.02.05l-.01.03-.08.02-.05-.02.04-.08.1.05zm-.2-.06.09-.02c-.06.03-.01 0-.08.02zm.08-.09-.06.07-.07-.04c.06-.03.06-.02.13-.03zm-.14.12c-.1.15-.1.08-.24.16l-.08-.15h.32zm-.55.17c.1.12.03.06.18.12-.05.12-.04.1-.13.18-.08-.25-.13-.13-.05-.3zm0 2.75.02.1-.13-.13c.04 0 .08.02.11.03zm-.11-1.93.03.15c-.02 0-.04 0-.05.02l-.17-.03.02-.16a3 3 0 0 1 .17.02zm-.16-.83-.1.07-.02-.1.12.03zm0 1.4.03.15-.2.04c.06-.14.03-.1.17-.2zm-.22.25.02.1c-.11-.05-.03 0-.12-.08l.1-.02zm-.15-1.68-.1.01c.07-.03 0-.02.1-.01zm-.3-.11c.07.09.04 0 .05.11l-.07-.06.02-.05zm-.31 3.11.03.16-.1.02-.1-.14.15-.03zM4.1 17.22l.03-.07c.03 0 .05.02.08.03l-.09.06-.02-.01zm.12-1.5.08.03-.15.22-.1-.07H4l.1-.17c.1.01.05.02.12-.01zm-.12-.3-.04-.04.04-.05c.06.08.04.02 0 .1zm.17 1.54v.09l-.03-.01a.3.3 0 0 1-.02-.04l.05-.04zm-.1 1.03h-.02l-.02-.1c.08.08.04 0 .05.1zm.1-.14-.02-.01c0-.03.02-.06.03-.08v.08zm.05-.13c-.13-.03-.01.05-.2.04l.05-.05c.04-.07.05-.07.13-.16.08.1.03.04.02.17zm.16-.3-.03-.02a.61.61 0 0 0-.01-.04l.04-.04v.1zm-.05-1.25c.06.07.05.02 0 .1v-.1zm.07.82c-.03.03 0 .03-.09.06l.09-.06zm-.13.23v.21l-.07-.03.08-.18zm-.1-2.82.09.03c-.08.05-.03.03-.12.05l.04-.08zm-.04.25c-.02.09-.01.07-.08.12h-.03v-.13l.11.01zm-.09.52c.08-.08.05-.1.12-.2.02.07-.06.2-.08.33-.03 0-.05-.02-.08-.03l.04-.1zm-.07-.19c.05.08.03.02-.01.09h-.03l.04-.09zm-.02.49.05.02-.07.03.02-.05zm-.03-.3-.01.1-.03-.01a.78.78 0 0 0 .04-.08zm.03.45-.04.1h-.03l.07-.1zm-.01.48c.01.08.02.02-.04.08l-.02-.01.06-.07zm-.24.12.04-.08c.03.06.02.07.03.14l-.07-.06zm0 .4.04-.05.05.02-.1.02zm.08-1.1-.08-.03.04-.11.08.03-.04.1zm.08 1.22c.04-.18-.06-.3 0-.55.06.05.11.3.14.36-.1.11 0 .14-.14.19zm.02.4.06.07c-.03 0-.06 0-.1.02l.04-.08zm.08.16-.03-.07.03.07zm-.08-.03v.1l-.03-.02.03-.08zm-.02.2.08.04-.03.08-.07-.06.02-.05zm-.03.24.05.02-.1.02.05-.04zm.06.14h-.03l.04-.09c.05.08.03.02 0 .1z"/><path d="M16.35 13.08c.06-.05.05.01.03-.07a.61.61 0 0 1-.03.07zM8.1 18.12h.02v-.02l-.03.02z"/></g><path fill="#210000" d="M6.44 13.71h.67v.27c-.25.17-.31.48-.35.73-.02.1-.04.22-.17.22a.14.14 0 0 1-.15-.13v-1.1zm.88 0h1.14v2.96c0 .17 0 .2.15.25.06.02.1.06.1.13 0 .13-.15.14-.17.14H7.23c-.02 0-.18 0-.18-.14 0-.07.05-.1.1-.13.17-.05.17-.08.17-.25v-2.96zm2.02 1.09c0 .02-.02.13-.16.13-.13 0-.15-.12-.17-.22-.04-.25-.1-.56-.34-.73v-.27h.67v1.09zm1.93 2.46c-.37 0-.66 0-.98-.18-.42-.23-.47-.4-.47-.64v-2.2c0-.18 0-.2-.16-.26-.06-.02-.1-.06-.1-.12 0-.14.15-.15.17-.15h1.32c.01 0 .17.01.17.15 0 .06-.04.1-.1.12-.17.05-.16.08-.16.25v2.24c0 .05-.05.42.3.52v.27zm.83-2.81c-.08-.58-.37-.4-.37-.6 0-.15.19-.14.24-.14h.53c.05 0 .24 0 .24.14 0 .2-.3.02-.37.6v1.75c-.04.77-.6 1.05-.9 1.06v-.28c.43-.13.6-.37.63-.79v-1.74zm2.18-.54c-.18.06-.33.2-.33.39 0 .22.12.36.68.58.82.31 1 .75 1 1.18 0 .72-.6 1.19-1.28 1.2V17c.22-.06.41-.17.42-.42.01-.3-.33-.42-.56-.52-.58-.24-1.13-.5-1.13-1.24 0-.7.52-1.14 1.2-1.17v.27zm-1.2 2.24c0-.1.02-.23.15-.23.1 0 .16.08.17.16.07.37.33.83.74.91v.27c-.4 0-.5-.17-.66-.17-.15 0-.14.16-.25.16-.15 0-.15-.18-.15-.2v-.9zm2.43-1.5c0 .1-.02.22-.15.22-.11 0-.15-.09-.17-.18a.97.97 0 0 0-.7-.78v-.27c.3 0 .6.18.66.18.12 0 .1-.16.23-.16.14 0 .13.15.13.2v.79zm1.93 2.61c-1.02-.02-1.5-.8-1.5-1.75 0-1.07.6-1.83 1.5-1.87v.27c-.22.05-.3.24-.3.44v2.2c0 .2.08.39.3.44v.27zm.21-3.62c.17 0 .53.19.65.19.07 0 .1-.03.13-.09s.06-.1.12-.1c.15 0 .15.15.15.17v1.08c0 .02 0 .17-.15.17-.1 0-.15-.08-.17-.17-.08-.38-.3-.86-.73-.98v-.27zm.92 2.54c.09 0 .14.08.14.16-.01.39-.57.94-1.06.92V17a1 1 0 0 0 .77-.66c.02-.08.05-.14.15-.14zm1.47-1.28-.44 1.58c-.07.29 0 .37.15.44.07.03.14.06.14.15 0 .13-.15.12-.24.12h-.54c-.1 0-.26 0-.26-.14 0-.1.08-.1.18-.15.1-.05.23-.16.32-.5l.55-2.03h.02l.12.52zm.5 1.4h-.68l.06-.28h.57l-.47-2.05.06-.26h1.03l.7 2.95c.02.13.03.21.16.27.06.03.11.06.11.14 0 .13-.16.13-.25.13h-1.16c-.1 0-.23-.01-.23-.13 0-.08.03-.1.09-.14.12-.06.14-.1.1-.28l-.1-.36zm2.12-1.71h.01l.26.46v1.4c.08.6.37.4.37.61 0 .14-.19.14-.24.14h-.53c-.05 0-.24 0-.24-.14 0-.2.3-.02.37-.6v-1.87zm2.43 1.48v1.12h-.7l-1.7-2.93c-.08-.13-.1-.2-.25-.25-.08-.03-.14-.05-.14-.15 0-.14.14-.14.23-.15h1.2l1.36 2.36zm-.27-1.51c0-.67-.39-.5-.39-.7 0-.14.16-.15.2-.15h.64c.04 0 .2.01.2.14 0 .22-.39.04-.39.7v1.14l-.27-.47v-.66z"/><path fill="#CBC8B8" d="m11.87 13.81.31-.18.05-.14-.82-.03c.13.22.24.25.46.35zm-6.17-.84h-.41l.22.1.2-.03-.01-.07zm.66.21.01-.13h-.3l-.1.1.05.26c.13.03.14-.08.4-.1l-.06-.13zm14.71 4.14.17.18.06-.01c-.15-.22.03-.09-.23-.17zm5.14-1.51a9.8 9.8 0 0 1-.2.03l.03.2.19-.1-.02-.13zM4.47 13.49l-.13.02.09.13.04-.15zm5.68-.08.12.4c.15-.23.12-.27-.12-.4zm4.41.1-.13.03.02.13c.11-.11.04-.01.11-.15zm5 2.47.12-.09-.15-.11.02.2zm-15.22-2-.04.22.27-.04.05-.14-.17-.25c-.12.16-.1.12-.11.22zm2.52-.56-.09.36c.12-.14.05 0 .1-.22.16.14.05.02.1.19l.21.04-.04-.27-.28-.1zm.33-.04.03.2.14-.02c-.12-.19-.01-.08-.17-.18zm13.47 4.4c.2.03.12.02.26-.1l-.13.02c-.05.03-.09.05-.13.09zM6.61 13.6l-.2.02.16.19.07-.01-.03-.2zm15.22 4.22.2-.02-.15-.12-.05.14zm-15.98-4.2-.14-.07-.09.41.1.07.11-.06.09-.01c-.12-.24-.16-.1-.07-.35zm13.88 2.6.11-.15-.07.01-.04.15zM6.85 13.85l.16.18c-.11-.19 0-.08-.16-.18zm14.6 2.19.15.11a4.87 4.87 0 0 0-.1-.19l-.05.08zm4.46-2.1.1.18.12-.08-.22-.1zm-4.15 2.33.04-.15-.13.02.09.13zM6.89 14.1l.16.19.07-.01c-.16-.22.02-.1-.23-.18zm-.18.23.12-.15-.2.03.08.12zm6.8 2.86v.08l.08.27.27-.04-.01-.06-.33-.25zm1.37-.17-.14.43.08.12c.3-.17.3-.33.06-.55zm2.63-3.43-.15-.11c.1.11 0 .04.15.11zm4.04-1.22-.15-.11c.12.11.01.04.16.11zm4.22 1.99.18-.17-.14.02-.04.14zM13.16 17.4l.04.27.2-.03c-.13-.24-.02-.14-.24-.24zm8.65-.74c-.1-.16.04-.07-.15-.12l.24.25a6.77 6.77 0 0 0-.09-.13zm.67.98.19-.1-.16-.12-.04.22zm-1.6-.03c.07 0 .14-.02.2-.03l-.16-.18-.04.21zm-6.9-.2-.12.1-.13.08.03.2.35.02c0-.27.06-.24-.13-.4zm4.63-3.9-.13-.05.03.21v.06l.16-.02c-.09-.15-.06.01-.06-.2zm-4.15 3.9.02.14.2-.1-.02-.06-.2.03zm9.9-3.45-.15-.12c.11.12.02.04.15.12zm-10.4 1.98c0 .1.02.18.03.27l.08.06.12-.09-.04-.27-.2.03zm5.03-2.3c-.1-.12-.01-.13-.2-.16l.12.44c.1-.06.13-.17.2-.3l-.01-.12c-.07.06-.07.04-.1.13zm-.18 2.04.02.13.19-.1-.01-.06c-.07 0-.14.02-.2.03zm2.5 1.78-.03.21.07.06.2-.1-.15-.04-.08-.13zm-6.28.08c.16.23-.02.12.3.16l-.03-.13-.28-.03zm-.14-1.25-.37-.22c.15.22.1.16.37.22zm1.92 1.26.2-.03-.22-.1c.02.04.02.08.02.13zm-1.69-1.1c.27-.14.17 0 .23-.3l-.35-.02c.12.19.1.13.12.33zm5.07-2.6h.06c0-.1-.02-.18-.03-.28l-.03.28zm-5.2 2.63-.09-.13-.05.15.14-.02zm1.65 1.38.19-.16-.14.01-.05.15zm2.5-4.28.04.24.12-.02a4.87 4.87 0 0 1-.03-.2l-.12-.02zm2.7-.15.13-.1c-.19-.16.05-.1-.23-.16l-.1.22.14.05.06-.01zm-5.3-.03c.1.19.42.4.64.66l.06-.56c-.36-.06-.3-.16-.59-.26-.07.14 0 .04-.11.16zm-.36 4.6.14-.03-.09-.12-.05.14zm1.36-.74c-.11.18.02.03-.19.1l.03.2c.17-.01.08-.02.28.03-.06-.32.03-.2-.12-.33zm-3.93-3.7-.13.02c0 .04 0 .09.02.13.1-.1.03 0 .1-.15zm1 3.18c-.11-.2 0-.08-.16-.19l-.05.15.14.05.07-.01zm7.5-3.42-.02.41.2-.1c-.1-.17 0-.18-.19-.31zm-11.23 4.25.13.08.14-.09-.09-.14-.18.15zm2.63-.7.03.2.2-.03c-.15-.22.03-.09-.23-.17zm-2.21.6-.08.13.1.2.21-.06-.01-.05-.22-.22zm2.22-.28.02-.12-.13.02-.06.07v.07l.08.06.07-.01v-.01l-.04-.12.06.04zm8.93-3.37c-.09.2-.01.1-.18.23.23.1.08.03.4-.06-.1-.11-.07-.1-.23-.17zm-11.58 4 .02.1.16-.03-.1-.14-.08.07zm12.94-4.06.02.2c.24-.19.12-.05.1-.29l-.13.09zm-12.26 3.86.24.33.15-.1c-.13-.19-.16-.2-.4-.23zm9.54-3.27c-.15-.11 0-.05-.22-.1l.15.11h.07zm1.11.19.14-.02-.09-.13-.05.14zm1.13-.3-.04.2.2.05.05-.21-.01-.07c-.07 0-.14.02-.2.03zM8.44 17.42l.13-.09a.9.9 0 0 0-.31-.23l.18.32zm3.93-.09.04.27h.06l.07-.02c-.09-.28.1-.1-.17-.25zm11.66-2.85c.12.19.07.14.24.24l-.04-.27-.2.03zM8.84 17.5l.07-.01.06-.01.04-.21-.2.03c0 .07.02.13.03.2zm.68-.24.02.13.2-.1-.02-.06-.2.03zm-2.08.05c.16-.14.1-.03.17-.23l-.13.02-.04.21zm16.94-2.41c.11-.11.04-.01.11-.15l-.13.02.02.13zM7.63 17.23c.11.1.01.03.16.1l-.16-.1zm.12.32c.11-.11.04-.01.11-.15l-.13.02.02.13zm15.92-.69.1.05c-.01-.11.01-.05-.06-.15l-.04.1zm.33.08-.03.14h.16l.02-.03c-.07-.1-.05-.08-.15-.11zm-.03.75-.03.07.08.08c0-.15.04-.04-.05-.15zm.68-.6.13.05.05-.1c-.18-.03-.33-.14-.43-.11.14.1.16.06.25.15zm-.24.08.1.05.01-.04c-.09-.05-.01-.07-.11-.01zm-.2.68.14-.02c-.12 0-.04-.02-.13.02zm.55-.56.01-.03-.11-.02a3 3 0 0 0 .1.05zm.22-.13c-.1-.06-.02-.08-.11-.02l.05.06.06-.04zm-.07.32.13.07.05-.1a7.9 7.9 0 0 1-.14-.07l-.04.1zm.12-.26.06.03-.03-.1c0 .03-.02.05-.03.07zm.31.1.02-.03-.13-.06.11.1zm.07-.4-.04.1c.03.1.03.02 0 .16l.22.14v-.08l.09-.12-.27-.2zm.55-.15.12.01c-.1-.07-.02-.08-.12-.01zm-.02.56c-.07-.08.02-.06-.1-.05l.09.08.01-.03zm.12.17c-.09.01-.1 0-.18.04l.1.05.08-.09zm.6-.08c-.06-.19-.1-.05-.23-.19-.08.03-.4.09-.47.15.31.1.48-.02.7.04zm-.6.16-.1.04c.1-.02.03 0 .1-.04zm-.17.29.1.05.02-.04c-.1-.06-.02-.07-.12-.01zm.15-.14.06.03.1-.03.02-.03c-.05-.03-.1-.04-.13-.07l-.05.1zm.18-.04c.06-.04.03.01.03-.06l-.03.07zm.11.02.02.13c.13-.01.02-.02.18.04-.04-.15-.08-.24-.2-.17zm.16-.09-.02-.13-.03.07.05.06zm.53-.88.07.12c-.03-.12-.03-.08-.07-.12zm-.36 1.12.08-.08c-.1 0-.1 0-.18.04l.1.04zm.4-.78.02-.03-.12-.01.06.06.04-.02zm.03.46-.03-.01c.08-.14-.01-.07.1-.12l.01-.03-.18-.05-.11.15c.23.1.2.12.5.15l-.12.07.12.01.1-.12-.1-.07-.29.02zm.44-.52.05-.1h-.28l.23.1zm-.22.22-.06-.11-.05.1.1.05.01-.04zm.24-.41.01-.04h-.11l.05.05.05-.01zm-.28.51-.08.09.1.04a1.1 1.1 0 0 1-.02-.13zm.12-.02-.1.04c.1-.02.03 0 .1-.04zm.07.11h-.11c.03 0 .07.02.1.04l.01-.04zm.47-.22.05.06c.03-.24-.08-.09-.04-.26-.15-.02-.07-.07-.2.02.1.11.1.13.19.18zm-.17.2a4.67 4.67 0 0 0-.1-.05l-.05.1.07.03.08-.08zm.01.13-.1.15c.05.1.04.06.03.18h.33l.06-.06c-.11-.18-.22-.19-.32-.27zm0 .28.05-.1c.01.1.03.03-.05.1zm.34-.73c-.04 0-.08 0-.12-.02l.1.05.02-.03zm-.15.5-.02-.14-.03.07.05.06zm.14-.14c-.1-.06-.01-.07-.12-.01l.1.04.02-.03zm.19-.23c-.15 0-.03-.04-.15.05l.13-.02.02-.03zm-.22.38-.01.11c.25.06.03-.22.35-.07.02-.14.02-.11-.02-.22-.16.05-.24.07-.32.18zm.27-.4-.03.07v.08l.18.04c-.05-.14.03-.06-.15-.2zm.2-.19-.03-.01-.03.06.09.08.01-.03-.04-.1z"/><path fill="#CBC8B8" d="m13.1 17 .1.05c-.02-.12 0-.06-.06-.15l-.05.1zm.32.07-.03.15h.16l.02-.03c-.07-.1-.05-.08-.15-.12zm-.03.76-.03.06.08.08c0-.14.04-.03-.05-.14zm.68-.61.13.06.05-.1c-.17-.03-.33-.14-.42-.12.13.1.15.07.24.16zm-.24.09.1.05.02-.04c-.1-.05-.02-.07-.12-.01zm-.2.68.14-.02c-.12 0-.04-.02-.13.02zm.55-.56.01-.03-.11-.02.1.05zm.22-.14c-.09-.05-.02-.07-.11-.01l.05.06.06-.05zm-.07.33.13.07.05-.1-.13-.07-.05.1zm.12-.26.07.03-.04-.1c0 .03-.02.05-.03.07zm.32.1.01-.03-.13-.06.12.1zm.07-.4-.05.1c.04.1.03.02 0 .16l.22.14v-.08l.1-.12-.27-.2zm.55-.15.11.01c-.1-.07-.02-.08-.11-.01zm-.02.55c-.08-.07 0-.06-.1-.04l.08.08.02-.04zm.12.18c-.1 0-.1 0-.18.04l.1.05.08-.09zm.6-.08c-.06-.19-.1-.05-.24-.19-.08.03-.4.08-.46.14.3.1.47-.02.7.05zm-.6.17-.1.03c.09-.02.02 0 .1-.04zm-.17.28.1.04.01-.03c-.09-.06-.02-.07-.11-.01zm.14-.14.07.03.1-.03v-.04l-.12-.06a1.8 1.8 0 0 1-.05.1zm.18-.04c.06-.04.03.01.03-.06l-.03.06zm.11.02.02.13c.13-.01.03-.02.18.04-.04-.16-.07-.24-.2-.17zm.16-.09c0-.04 0-.09-.02-.13l-.03.07.05.06zm.53-.88.07.11c-.03-.11-.03-.07-.07-.11zM16.08 18l.08-.08c-.09 0-.1 0-.18.04l.1.04zm.4-.77.02-.04-.11-.01.05.06.04-.01zm.03.45a.2.2 0 0 0-.03-.02c.08-.12-.01-.06.1-.11l.01-.03-.18-.05-.1.15c.22.1.2.12.48.15l-.1.07.1.01.1-.11-.08-.08-.3.02zm.45-.52.04-.1h-.27l.23.1zm-.23.22a2.23 2.23 0 0 1-.06-.11l-.05.1.1.05.01-.04zm.24-.41c0-.02 0-.03.02-.04l-.12-.01.05.06.05-.02zm-.28.51-.08.09.1.04-.02-.13zm.13-.02-.1.04c.09-.02.02 0 .1-.04zm.07.11-.12-.01.1.04.02-.03zm.46-.22.05.06c.03-.24-.08-.1-.03-.26-.16-.02-.08-.07-.22.02.11.1.1.12.2.18zm-.17.2-.1-.05-.05.1.07.03.08-.08zm.02.13-.11.15c.05.1.04.06.03.18l.33-.01.06-.05c-.11-.18-.22-.19-.31-.27zm-.01.28.04-.1c.02.1.04.02-.04.1zm.34-.73-.12-.02.1.05.02-.03zm-.15.5-.02-.14-.03.07.05.07zm.14-.14c-.1-.06-.01-.07-.11-.02l.1.05.01-.03zm.19-.23c-.14 0-.03-.04-.14.05l.13-.02.01-.03zm-.22.38-.01.11c.25.05.03-.22.35-.07.02-.14.02-.11-.02-.22-.15.05-.24.07-.32.18zm.27-.4-.03.06v.08l.18.05c-.04-.14.03-.06-.15-.2zm.2-.19-.03-.01-.03.06.09.08.01-.03-.03-.1zm-15.07 0 .1.04c-.02-.1 0-.05-.06-.14l-.04.1zm.33.07-.03.15h.16l.02-.04c-.07-.09-.05-.08-.15-.1zm-.03.76-.03.06.08.08c0-.14.04-.03-.05-.14zm.68-.61.13.06.05-.1c-.18-.04-.33-.15-.43-.12.13.1.15.06.25.16zm-.24.09.1.04.01-.03c-.09-.06-.01-.07-.11-.01zm-.2.67.13-.02c-.11 0-.03-.02-.13.02zm.54-.55.02-.03-.12-.02.1.05zm.23-.14c-.1-.06-.02-.07-.12-.01l.05.06.07-.05zm-.07.33.13.06.04-.1-.13-.06-.04.1zm.12-.27a.1.1 0 0 0 .07.03l-.04-.1c0 .03-.02.05-.03.07zm.31.11.02-.03-.13-.06.11.1zm.07-.4-.04.09c.03.1.03.03 0 .16l.22.15v-.09l.09-.11-.27-.2zm.55-.16.12.02c-.1-.07-.02-.08-.12-.02zm-.02.56c-.07-.07.01-.06-.1-.04l.09.07.01-.03zm.12.18c-.09 0-.1 0-.17.04l.1.04.07-.08zm.6-.08c-.06-.19-.1-.05-.23-.2-.09.04-.4.09-.47.15.31.1.48-.02.7.05zm-.6.16-.1.04c.1-.02.03 0 .1-.04zm-.17.28.1.05.02-.03c-.1-.06-.02-.08-.12-.02zm.15-.13.06.03.1-.03.02-.04-.14-.06-.04.1zm.17-.04c.06-.04.04 0 .03-.06l-.03.06zm.12.02.02.13c.13-.02.02-.02.18.04-.04-.16-.08-.25-.2-.18zm.16-.1-.02-.12-.03.06.05.07zm.53-.87.07.11c-.03-.11-.03-.07-.07-.11zm-.36 1.12.08-.08c-.1 0-.1 0-.18.03l.1.05zm.4-.78.02-.03-.12-.02.06.07.04-.02zm.03.46-.03-.02c.08-.13-.01-.07.1-.11l.01-.04-.18-.04-.11.15c.23.1.2.11.5.15l-.12.07.11.01.1-.12-.09-.08-.29.03zm.44-.52.05-.1-.28-.01.23.1zm-.22.22-.07-.12-.04.1.1.05.01-.03zm.23-.42.02-.03-.11-.01.05.06.04-.02zm-.28.52-.08.08.1.05c0-.05 0-.1-.02-.13zm.13-.02-.1.03.1-.03zm.07.11-.11-.01.1.04.01-.03zm.47-.22.05.06c.03-.24-.08-.1-.04-.26-.16-.02-.08-.07-.21.02.1.1.1.12.2.18zm-.17.2-.1-.05-.05.1.07.03.08-.09zm.01.13-.1.15c.05.1.04.05.03.18l.33-.01.06-.06c-.11-.17-.22-.18-.31-.26zm0 .27.04-.1c.02.11.04.03-.04.1zm.34-.73H7.2c.03 0 .07.02.1.04l.02-.04zm-.16.5c0-.04 0-.09-.02-.13l-.03.07.05.06zm.15-.13c-.1-.06-.02-.08-.12-.02l.1.05.02-.03zm.19-.24c-.15 0-.03-.04-.15.06l.13-.03.02-.03zm-.22.38-.01.12c.25.05.03-.23.35-.08.02-.13.02-.1-.02-.2-.16.03-.24.06-.32.16zm.27-.4-.03.07v.08l.18.04c-.05-.13.03-.05-.15-.19zm.2-.18-.03-.02a.8.8 0 0 0-.03.07l.08.08.02-.04a2.77 2.77 0 0 1-.04-.1zm2.7-3.2c0 .12-.01.05.04.16l.06-.11-.1-.06zm-.37-.17c.06.1.03.09.14.13l.05-.17h-.17l-.02.04zm.28-.72.04-.07-.07-.1c-.02.17-.05.04.03.17zm-.93.6-.06.11c.18.04.32.17.42.14-.12-.1-.14-.07-.23-.18l-.13-.07zm.28-.04c.08.07 0 .08.11.02l-.1-.06-.01.04zm.28-.72c.12 0 .03.02.14-.02l-.14.02zm-.5.6-.03.03.12.02-.1-.05zm-.26.15c.09.06 0 .08.12.01l-.05-.07-.07.06zm-.07-.33.13.07.06-.11a8.25 8.25 0 0 0-.12-.08l-.07.12zm-.02.33.05-.08c-.03 0-.05-.02-.07-.03l.02.1zm-.28-.17.12.08-.1-.11-.02.03zm-.24-.03v.1l-.12.12.24.24.06-.11c-.02-.11-.02-.03.02-.19l-.2-.16zm-.47.61-.12-.01c.08.08.01.09.12.01zm.1-.62c.07.08-.02.07.1.05l-.08-.09-.02.04zm.1-.24-.1-.06-.1.1c.1-.01.1 0 .2-.04zm-.84.12c.04.21.1.06.22.22.1-.03.43-.09.5-.16-.3-.11-.49.02-.72-.06zm.76-.21c-.1.01-.02-.01-.1.03l.1-.03zm0-.3c.08.07 0 .08.11.02l-.1-.06a.2.2 0 0 1-.02.04zm-.06.17-.06-.04-.1.04-.03.04.13.07.06-.11zm-.19.04c-.06.05-.04-.01-.04.07l.04-.07zm-.12-.02v-.14c-.13 0-.02.01-.18-.06.02.18.04.28.18.2zm-.13.17-.05-.07v.14l.05-.07zm-.73.9A2.84 2.84 0 0 0 7 14.1c.01.13.02.08.05.13zm.54-1.25-.1.1c.1-.01.11 0 .2-.04a4.7 4.7 0 0 1-.1-.06zm-.53.87-.02.04.12.02-.05-.08-.05.02zm-.11-.7-.12-.01-.12.13.08.09.3-.02.04.02c-.1.14 0 .07-.12.13L7 13.5l.19.06.13-.17c-.22-.1-.19-.13-.49-.18l.13-.07zm-.45.88h.29a8.18 8.18 0 0 1-.23-.12l-.06.12zm.32-.36.06.13.06-.11-.1-.06c0 .02 0 .03-.02.04zm-.3.46-.02.04.12.02a2.83 2.83 0 0 1-.05-.07l-.05.02zm.37-.57.1-.1a8.45 8.45 0 0 0-.1-.05v.15zm-.14.02.1-.04c-.08.02-.02 0-.1.04zm-.05-.13.11.02-.1-.05-.01.03zm-.53.25c0-.03-.02-.05-.04-.07-.06.27.07.1 0 .29.17.02.08.08.23-.02-.1-.12-.1-.14-.19-.2zm.31-.32-.1.1.1.05.06-.11-.06-.04zm.03-.42h-.34l-.08.06c.1.2.21.21.3.3l.13-.16c-.04-.1-.03-.07-.01-.2zm-.14.17c0-.12-.03-.03.06-.11l-.06.1zm-.4.7.12.02-.1-.06c0 .01 0 .03-.02.04zm.23-.55v.14l.04-.07c0-.03-.02-.05-.04-.07zm-.17.15c.1.06.01.08.12.01l-.1-.05-.02.04zm-.23.26c.15 0 .03.04.16-.06l-.14.02-.02.04zm.29-.43.03-.13c-.26-.06-.07.25-.39.08-.04.15-.03.12 0 .24.17-.05.26-.07.36-.2zm-.47.23c.03.15-.04.06.13.22l.04-.08.01-.1c-.06 0-.12-.03-.18-.04zm-.14.3.03.12a.4.4 0 0 1 .03.02l.04-.08-.07-.09-.03.04z"/><path fill="#E5C00A" stroke="#000" stroke-miterlimit="10" d="M-.5-6.94h32.22v5.97H-.5z"/><text transform="translate(4.66 -4.75)"><tspan x="0" y="0" font-family="'MyriadPro-Regular'" font-size="2">convert type to outlines</tspan><tspan x="0" y="2.4" font-family="'MyriadPro-Regular'" font-size="2">before making svg</tspan></text></svg>