<svg xmlns="http://www.w3.org/2000/svg" xmlns:xlink="http://www.w3.org/1999/xlink" xml:space="preserve" viewBox="0 0 32 32"><defs><path id="a" d="M2.091 11.219A14.687 14.687 0 0 0 1.295 16c0 8.121 6.583 14.704 14.704 14.704S30.703 24.121 30.703 16c0-1.674-.28-3.282-.796-4.781H2.091z"/></defs><clipPath id="b"><use xlink:href="#a" overflow="visible"/></clipPath><linearGradient id="c" x1="-579.186" x2="-579.123" y1="1.093" y2="1.093" gradientTransform="rotate(-90 -91294.238 -90966.324) scale(314.7325)" gradientUnits="userSpaceOnUse"><stop offset="0" stop-color="#31427b"/><stop offset=".17" stop-color="#2f417c"/><stop offset="1" stop-color="#273c80"/></linearGradient><path fill="url(#c)" d="M1.295 11.219h29.408v19.485H1.295z" clip-path="url(#b)"/><defs><path id="d" d="M2.091 11.219h27.816c-1.984-5.774-7.46-9.923-13.908-9.923-6.446 0-11.924 4.149-13.908 9.923"/></defs><clipPath id="e"><use xlink:href="#d" overflow="visible"/></clipPath><linearGradient id="f" x1="-579.187" x2="-579.122" y1="1.093" y2="1.093" gradientTransform="rotate(-90 -91294.238 -90966.324) scale(314.7325)" gradientUnits="userSpaceOnUse"><stop offset="0" stop-color="#31427b"/><stop offset=".17" stop-color="#2f417c"/><stop offset="1" stop-color="#273c80"/></linearGradient><path fill="url(#f)" d="M2.091 1.296h27.816v9.923H2.091z" clip-path="url(#e)"/><defs><path id="g" d="M2.091 11.219h27.816c-1.984-5.774-7.46-9.923-13.908-9.923-6.446 0-11.924 4.149-13.908 9.923"/></defs><clipPath id="h"><use xlink:href="#g" overflow="visible"/></clipPath><linearGradient id="i" x1="-576.705" x2="-576.643" y1="-1.501" y2="-1.501" gradientTransform="rotate(90 -66181.574 65853.895) scale(228.9541)" gradientUnits="userSpaceOnUse"><stop offset="0" stop-color="#a8a8a8"/><stop offset="1" stop-color="#e2e0ff"/></linearGradient><path fill="url(#i)" d="M2.091 1.296h27.816v9.923H2.091z" clip-path="url(#h)"/><g><defs><path id="j" d="M6.535 4.977h18.929v.167H6.535z"/></defs><clipPath id="k"><use xlink:href="#j" overflow="visible"/></clipPath><linearGradient id="l" x1="-577.391" x2="-577.329" y1="1.34" y2="1.34" gradientTransform="translate(174078.406 -398.914) scale(301.4798)" gradientUnits="userSpaceOnUse"><stop offset="0" stop-color="#31427b"/><stop offset="1" stop-color="#34407d"/></linearGradient><path fill="url(#l)" d="M6.535 4.977h18.929v.167H6.535z" clip-path="url(#k)"/></g><g><defs><path id="m" d="M2.421 10.349h27.157v.167H2.421z"/></defs><clipPath id="n"><use xlink:href="#m" overflow="visible"/></clipPath><linearGradient id="o" x1="-577.405" x2="-577.316" y1="1.357" y2="1.357" gradientTransform="translate(174078.406 -398.914) scale(301.4798)" gradientUnits="userSpaceOnUse"><stop offset="0" stop-color="#31427b"/><stop offset="1" stop-color="#34407d"/></linearGradient><path fill="url(#o)" d="M2.421 10.349h27.157v.167H2.421z" clip-path="url(#n)"/></g><g><defs><path id="p" d="M.224.224h31.551v31.551H.224z"/></defs><clipPath id="q"><use xlink:href="#p" overflow="visible"/></clipPath><path fill="#282C63" d="M11.642 18.251c-.459 0-1.493.278-2.225.548l-.155.059.03-.162c.196-1.068.48-2.79.593-3.48l.013-.079h4.416l.493-1.253-.094.026H9.524c-.219 1.585-.624 4.155-.896 5.586a5.727 5.727 0 0 1 1.867-.323c2.023 0 3.231 1.115 3.231 2.983 0 1.446-.763 2.905-2.467 2.905-1.273 0-1.995-.646-2.473-1.076-.132-.104-.25-.104-.418.008-.224.173-.362.432-.362.572l-.001.015c-.033.213.027.334.277.566.171.17.808.722 1.926.722 1.02 0 2.326-.519 3.327-1.318 1.067-.876 1.609-1.933 1.609-3.141 0-1.57-1.203-3.158-3.502-3.158" clip-path="url(#q)"/><defs><path id="r" d="M.224.224h31.551v31.551H.224z"/></defs><clipPath id="s"><use xlink:href="#r" overflow="visible"/></clipPath><path fill="#282C63" d="M22.049 24.936c-.347-.254-.363-.699-.363-1.403v-9.805c-.854.35-1.992.651-3.313.875v.314l.854.086c.899.083 1.061.177 1.061 1.185v7.345c0 1.47-.169 1.618-2.238 1.753v.354h5.895v-.354c-1.082-.071-1.591-.129-1.896-.35" clip-path="url(#s)"/><defs><path id="t" d="M.224.224h31.551v31.551H.224z"/></defs><clipPath id="u"><use xlink:href="#t" overflow="visible"/></clipPath><path fill="#64699B" d="M10.237 26.051c-.803 0-1.572-.289-2.056-.773-.25-.231-.378-.418-.333-.723.004-.222.191-.527.438-.719l.005-.004c.235-.157.447-.155.647.004.607.545 1.242 1.031 2.351 1.031 1.574 0 2.278-1.365 2.278-2.719 0-1.774-1.109-2.793-3.043-2.793-.8 0-1.426.182-1.882.34l-.064.021-.124-.165.007-.042c.277-1.439.698-4.118.917-5.714l.011-.081h5.447l.214.133-.579 1.47h-4.384a239.16 239.16 0 0 1-.55 3.245c.733-.256 1.687-.504 2.135-.504 1.41 0 2.272.574 2.748 1.058.599.608.943 1.442.943 2.286 0 1.27-.565 2.375-1.68 3.287-1.033.829-2.386 1.362-3.446 1.362m-1.839-2.065c-.224.174-.362.433-.362.574l-.001.014c-.033.213.027.335.277.566.171.172.809.721 1.926.721 1.02 0 2.326-.518 3.327-1.316 1.068-.877 1.61-1.934 1.61-3.143 0-1.567-1.203-3.156-3.502-3.156-.459 0-1.492.279-2.225.549l-.155.059.03-.164c.196-1.065.48-2.789.593-3.479l.013-.079h4.416l.494-1.253-.094.026H9.554c-.22 1.586-.624 4.155-.897 5.587a5.703 5.703 0 0 1 1.867-.324c2.023 0 3.231 1.115 3.231 2.981 0 1.447-.763 2.906-2.467 2.906-1.272 0-1.995-.646-2.473-1.074-.13-.107-.249-.106-.417.005" clip-path="url(#u)"/><defs><path id="v" d="M.224.224h31.551v31.551H.224z"/></defs><clipPath id="w"><use xlink:href="#v" overflow="visible"/></clipPath><path fill="#64699B" d="M24.161 25.82H17.89v-.719l.086-.004c.974-.063 1.584-.113 1.866-.326.257-.191.285-.543.285-1.246v-7.344c0-.916-.084-.924-.89-.996l-1.024-.105v-.643l.079-.013c1.407-.235 2.611-.557 3.479-.932l.131-.057v10.09c0 1.395.062 1.438 2.17 1.57l.089.006v.719zm-6.084-.187h5.896v-.353c-1.078-.069-1.59-.128-1.895-.351-.346-.255-.363-.699-.363-1.404v-9.804c-.854.35-1.992.651-3.313.875v.314l.854.086c.9.083 1.061.178 1.061 1.185v7.344c0 1.473-.168 1.619-2.238 1.754l-.002.354z" clip-path="url(#w)"/><defs><path id="x" d="M.224.224h31.551v31.551H.224z"/></defs><clipPath id="y"><use xlink:href="#x" overflow="visible"/></clipPath><path fill="#64699B" d="m9.484 13.018-.119.832c-.23 1.564-.035 1.538.191-.007.043-.294.083-.571.118-.825 0 0-.184-.046-.19 0" clip-path="url(#y)"/><defs><path id="z" d="M.224.224h31.551v31.551H.224z"/></defs><clipPath id="A"><use xlink:href="#z" overflow="visible"/></clipPath><path fill="#64699B" d="M10.232 13.033c-.223 1.606-.631 4.199-.902 5.609l.196-.021c.272-1.433.677-4.001.896-5.587 0 .002-.185-.036-.19-.001" clip-path="url(#A)"/><defs><path id="B" d="M.224.224h31.551v31.551H.224z"/></defs><clipPath id="C"><use xlink:href="#B" overflow="visible"/></clipPath><path fill="#64699B" d="M11.152 15.137h4.416l.007.188h-4.262z" clip-path="url(#C)"/><defs><path id="D" d="M.224.224h31.551v31.551H.224z"/></defs><clipPath id="E"><use xlink:href="#D" overflow="visible"/></clipPath><path fill="#64699B" d="M10.615 13.722h5.355l-.002.188h-5.189z" clip-path="url(#E)"/><defs><path id="F" d="M.224.224h31.551v31.551H.224z"/></defs><clipPath id="G"><use xlink:href="#F" overflow="visible"/></clipPath><path fill="#64699B" d="M20.128 20.286V12.94h.188v7.346" clip-path="url(#G)"/><defs><path id="H" d="M.224.224h31.551v31.551H.224z"/></defs><clipPath id="I"><use xlink:href="#H" overflow="visible"/></clipPath><path fill="#64699B" d="M21.695 20.386v-7.345h.189v7.345" clip-path="url(#I)"/><defs><path id="J" d="M.224.224h31.551v31.551H.224z"/></defs><clipPath id="K"><use xlink:href="#J" overflow="visible"/></clipPath><path fill="#64699B" d="M30.521 19.854h.063c.009-.037.02-.076.027-.113h-.09v.113z" clip-path="url(#K)"/><defs><path id="L" d="M.224.224h31.551v31.551H.224z"/></defs><clipPath id="M"><use xlink:href="#L" overflow="visible"/></clipPath><path fill="#64699B" d="M16.447 29.37h.981v.114h-.981z" clip-path="url(#M)"/><defs><path id="N" d="M.224.224h31.551v31.551H.224z"/></defs><clipPath id="O"><use xlink:href="#N" overflow="visible"/></clipPath><path fill="#64699B" d="M12.52 29.37h.982v.114h-.982z" clip-path="url(#O)"/><defs><path id="P" d="M.224.224h31.551v31.551H.224z"/></defs><clipPath id="Q"><use xlink:href="#P" overflow="visible"/></clipPath><path fill="#64699B" d="M8.871 29.484h.703v-.114h-.909l.206.114" clip-path="url(#Q)"/><defs><path id="R" d="M.224.224h31.551v31.551H.224z"/></defs><clipPath id="S"><use xlink:href="#R" overflow="visible"/></clipPath><path fill="#64699B" d="M18.411 29.37h.981v.114h-.981z" clip-path="url(#S)"/><defs><path id="T" d="M.224.224h31.551v31.551H.224z"/></defs><clipPath id="U"><use xlink:href="#T" overflow="visible"/></clipPath><path fill="#64699B" d="M30.521 18.759h.287c.006-.039.012-.077.02-.114h-.307v.114z" clip-path="url(#U)"/><defs><path id="V" d="M.224.224h31.551v31.551H.224z"/></defs><clipPath id="W"><use xlink:href="#V" overflow="visible"/></clipPath><path fill="#64699B" d="M29.622 13.485h1.136l-.021-.114h-3.972v.114h2.857z" clip-path="url(#W)"/><g><defs><path id="X" d="M.224.224h31.551v31.551H.224z"/></defs><clipPath id="Y"><use xlink:href="#X" overflow="visible"/></clipPath><path fill="#64699B" d="M26.643 12.94h.119v.432h-.119z" clip-path="url(#Y)"/></g><g><defs><path id="Z" d="M.224.224h31.551v31.551H.224z"/></defs><clipPath id="aa"><use xlink:href="#Z" overflow="visible"/></clipPath><path fill="#64699B" d="M22.303 29.896c.041-.019.081-.037.121-.057v-.349h-.121v.406z" clip-path="url(#aa)"/></g><g><defs><path id="ab" d="M.224.224h31.551v31.551H.224z"/></defs><clipPath id="ac"><use xlink:href="#ab" overflow="visible"/></clipPath><path fill="#64699B" d="M28.17 22.96h.957v.114h-.957z" clip-path="url(#ac)"/></g><g><defs><path id="ad" d="M.224.224h31.551v31.551H.224z"/></defs><clipPath id="ae"><use xlink:href="#ad" overflow="visible"/></clipPath><path fill="#64699B" d="M22.305 28.148h.119v.672h-.119z" clip-path="url(#ae)"/></g><g><defs><path id="af" d="M.224.224h31.551v31.551H.224z"/></defs><clipPath id="ag"><use xlink:href="#af" overflow="visible"/></clipPath><path fill="#64699B" d="M7.13 22.96h.957v.114H7.13z" clip-path="url(#ag)"/></g><g><defs><path id="ah" d="M.224.224h31.551v31.551H.224z"/></defs><clipPath id="ai"><use xlink:href="#ah" overflow="visible"/></clipPath><path fill="#64699B" d="M16.693 22.96h.955v.114h-.955z" clip-path="url(#ai)"/></g><g><defs><path id="aj" d="M.224.224h31.551v31.551H.224z"/></defs><clipPath id="ak"><use xlink:href="#aj" overflow="visible"/></clipPath><path fill="#64699B" d="M16.896 19.739h.974v.114h-.974z" clip-path="url(#ak)"/></g><g><defs><path id="al" d="M.224.224h31.551v31.551H.224z"/></defs><clipPath id="am"><use xlink:href="#al" overflow="visible"/></clipPath><path fill="#64699B" d="M9.043 22.96H10v.114h-.957z" clip-path="url(#am)"/></g><g><defs><path id="an" d="M.224.224h31.551v31.551H.224z"/></defs><clipPath id="ao"><use xlink:href="#an" overflow="visible"/></clipPath><path fill="#64699B" d="M12.869 23.074h.681a1.9 1.9 0 0 0 .027-.114h-.708v.114z" clip-path="url(#ao)"/></g><g><defs><path id="ap" d="M.224.224h31.551v31.551H.224z"/></defs><clipPath id="aq"><use xlink:href="#ap" overflow="visible"/></clipPath><path fill="#64699B" d="M16.896 18.645h.974v.114h-.974z" clip-path="url(#aq)"/></g><g><defs><path id="ar" d="M.224.224h31.551v31.551H.224z"/></defs><clipPath id="as"><use xlink:href="#ar" overflow="visible"/></clipPath><path fill="#64699B" d="M10.956 22.96h.957v.114h-.957z" clip-path="url(#as)"/></g><g><defs><path id="at" d="M.224.224h31.551v31.551H.224z"/></defs><clipPath id="au"><use xlink:href="#at" overflow="visible"/></clipPath><path fill="#64699B" d="m18.91 25.119.121-.016v-.139h.643a.901.901 0 0 0 .219-.113h-.983v.268z" clip-path="url(#au)"/></g><g><defs><path id="av" d="M.224.224h31.551v31.551H.224z"/></defs><clipPath id="aw"><use xlink:href="#av" overflow="visible"/></clipPath><path fill="#64699B" d="M22.432 22.96h.957v.114h-.957z" clip-path="url(#aw)"/></g><g><defs><path id="ax" d="M.224.224h31.551v31.551H.224z"/></defs><clipPath id="ay"><use xlink:href="#ax" overflow="visible"/></clipPath><path fill="#64699B" d="M15.737 22.96h-.797a3.01 3.01 0 0 1-.053.114h.85v-.114z" clip-path="url(#ay)"/></g><g><defs><path id="az" d="M.224.224h31.551v31.551H.224z"/></defs><clipPath id="aA"><use xlink:href="#az" overflow="visible"/></clipPath><path fill="#64699B" d="M24.346 22.96h.956v.114h-.956z" clip-path="url(#aA)"/></g><g><defs><path id="aB" d="M.224.224h31.551v31.551H.224z"/></defs><clipPath id="aC"><use xlink:href="#aB" overflow="visible"/></clipPath><path fill="#64699B" d="M18.843 19.739h.974v.114h-.974z" clip-path="url(#aC)"/></g><g><defs><path id="aD" d="M.224.224h31.551v31.551H.224z"/></defs><clipPath id="aE"><use xlink:href="#aD" overflow="visible"/></clipPath><path fill="#64699B" d="M22.305 25.729h.119v.406h-.119z" clip-path="url(#aE)"/></g><g><defs><path id="aF" d="M.224.224h31.551v31.551H.224z"/></defs><clipPath id="aG"><use xlink:href="#aF" overflow="visible"/></clipPath><path fill="#64699B" d="M18.843 18.645h.974v.114h-.974z" clip-path="url(#aG)"/></g><g><defs><path id="aH" d="M.224.224h31.551v31.551H.224z"/></defs><clipPath id="aI"><use xlink:href="#aH" overflow="visible"/></clipPath><path fill="#64699B" d="M19.148 22.632v.328h-.543v.114h.543v.684h1.07l.002-.113h-.95v-.569h.295v-.116h-.295v-.214h.953v-.114h-1.075z" clip-path="url(#aI)"/></g><g><defs><path id="aJ" d="M.224.224h31.551v31.551H.224z"/></defs><clipPath id="aK"><use xlink:href="#aJ" overflow="visible"/></clipPath><path fill="#64699B" d="M24.682 18.645h.973v.114h-.973z" clip-path="url(#aK)"/></g><g><defs><path id="aL" d="M.224.224h31.551v31.551H.224z"/></defs><clipPath id="aM"><use xlink:href="#aL" overflow="visible"/></clipPath><path fill="#64699B" d="M28.574 18.645h.973v.114h-.973z" clip-path="url(#aM)"/></g><g><defs><path id="aN" d="M.224.224h31.551v31.551H.224z"/></defs><clipPath id="aO"><use xlink:href="#aN" overflow="visible"/></clipPath><path fill="#64699B" d="M31.016 16.264c0-.428-.019-.85-.054-1.268v1.049h-4.2v-1.857h1.15v-.115h-1.15v-.588h-.119v.588h-4.211v.115h4.211v1.857h-4.235v-1.464h.024v-.393h-.024v-.115h.024v-.588h4.211v-.114h-4.211v-.623h-.146v.623h-1.011v.114h1.011v.588h-.478v.115h.478v1.857h-.478v.114h.478v.554h-.478v.114h.478v.51h-.478v.114h.478v.482h-.478v.114h.478v2.701h4.356v.81h-4.834v.113h4.834v.318h-4.834v.115h4.834v.524h-4.834v.114h4.834v.214h-.385v.114h.385v.568h-4.834c.002.039.002.077.002.114h4.832v.381h-4.813c.002.04.006.078.012.114h4.802v.025H21.844c.014.084.029.158.051.227h.41v.287h.12v-.287H25.639v.348h-3.011v.193c.038.008.078.016.12.021v-.103h2.891v1.326h-2.891v-.563h-.12v.563h-.394v-.563h-.121v.563h-.693v-.563h-.12v.563h-.093v-.563h-.121v.563h-.395v-.563h-2.709v-.537l.215-.014v-.785h1.969c.008-.035.016-.072.021-.113h-2.002v-.022h2.006l.013-.114h-2.019v-1.512h-.1v-.521h2.137v-.115h-2.137v-.318h2.137v-.113h-2.137v-3.511h2.137v-.114h-2.137v-.482h2.137v-.114h-2.137v-.51h2.137v-.114h-2.137v-.554h2.137l-.002-.114h-2.135v-1.858H19.929c.148-.037.295-.075.438-.115h-2.283v-1.385h-.121v1.385h-.912v.115h.912v1.857h-8.09a4.514 4.514 0 0 1-.019.114h8.111v.554H9.761l-.019.114h8.223v.51H9.656l-.02.114h8.329v.482H9.553l-.02.114h8.432v3.511h-2.7a2.257 2.257 0 0 1-.006.113h2.706v.318h-2.741c-.005.037-.012.076-.019.115h2.759v.521H15.07a2.134 2.134 0 0 1-.041.112h2.935v1.398h-.912v-.801h-2.308a4.31 4.31 0 0 1-.069.114h2.257v.687h-2.793a3.961 3.961 0 0 1-.111.114h2.905v1.433h-.841v-1.293h-1.406v1.293h-.802v-1.291l-.121.107v1.188H11.69a5.606 5.606 0 0 1-.404.123v.158h-3.57V25.8h1.532a2.762 2.762 0 0 1-.294-.114H7.716v-1.433h.327a1.39 1.39 0 0 1 .075-.114h-.522v1.547h-.493v-1.838h-.558v-.404h4.741v.695H9.143c.046.038.093.077.141.114h2.002v.709h.003c.04 0 .078-.001.117-.004v-.705h1.54a2.76 2.76 0 0 0 .097-.114h-1.637v-.81H6.545v-.589h7.071l.016-.113H6.545v-.521h7.115l-.002-.114H6.545v-.318h7.087c-.005-.038-.01-.077-.017-.114h-7.07v-3.51h2.273l.02-.113H6.425v3.623h-.624v-4.73h.624v.624h2.493l.019-.114H6.545v-.51h2.474l.018-.114H6.545v-.556h2.579l.019-.114H5.801v-1.123h-.12v1.123H4.262v-3.357h.878v-.115h-.878v-1.562h-.12v1.562H1.439l-.028.115h2.73v3.357H.985l-.001.114h3.158v.554H.989l.004.114h3.148v4.73H1.943l.044.114h2.155v.318H2.114l.046.114h1.981v.521H2.394l.053.113h1.695v.22h-.838v.114h.837v.255H2.745c.021.037.041.076.061.114h1.335v.404H3.037l.067.113h1.038v1.518c.04.051.08.103.12.151v-1.669h1.419v1.725H4.306l.092.113h1.283v.167H4.538c.032.037.063.076.096.113H5.68v.203h-.866l.103.114h.764v.405h-.377l.113.114h.264v.256l.121.112v-.368h.624v.915l.12.099v-1.014h.436v1.354c.041.03.081.062.121.09v-1.443h.493v1.793l.121.079v-1.872h3.57v.561h-.383v1.893h-.348v.113h.348v.908c.04.017.08.029.12.043v-.951h.263v1.041l.12.039v-1.08h.132v-.11h-.132v-1.777h2.362v3.523c.04.006.08.01.121.017v-3.54h.797v1.777h-.203v.114h.203v1.738c.04.004.08.008.121.01v-1.748h.659v-.114h-.659v-1.777h1.165v3.688H16l.093-.001v-3.688h1.897v3.556c.07-.008.14-.018.208-.027v-3.527H21.3v1.777h-.925v.113h.925v.834c.04-.017.079-.03.12-.045v-2.681h.693v2.39l.121-.053v-2.337h.393v1.777h-.289v.114h.289v.258c.039-.021.08-.04.12-.061v-.197h.38l.193-.107v-.006h-.573v-1.777h2.892v.188c.038-.034.079-.067.118-.103v-.085h.099c.045-.036.086-.075.129-.114h-.228v-.561h.823c.039-.037.076-.075.113-.113h-.938v-.397h1.006v-1.44h1.149v.439c.04-.053.082-.104.12-.157v-.282h.205l.08-.113h-.285v-.348h.521c.049-.074.098-.148.146-.227H26.76v-.025h1.954c.022-.037.048-.076.071-.113H26.76v-.382h2.254l.063-.114H26.76v-.568h.453v-.118h-.453v-.214h2.787l.053-.114h-2.84v-.524h3.075l.047-.115H26.76v-.318h3.25c.016-.038.028-.076.043-.113H26.76v-.812h3.572c.012-.037.021-.075.034-.114H26.76v-.782h.84v-.114h-.84v-.98h.84v-.115h-.84v-.595h4.147c.006-.039.01-.077.013-.114h-4.16v-.482h4.2v.081a14.5 14.5 0 0 0 .056-1.271m-25.215.07v-.175h.624v.554h-.624v-.379zm-.12 7.514H4.262v-.404h1.419v.404zm0-.888h-.464v.114h.463v.255H4.262v-.589h1.419v.22zm0-.333H4.262v-.521h1.419v.521zm0-.636H4.262v-.318h1.419v.318zm0-.432H4.262v-4.73h1.419v4.73zm0-5.225v.378H4.262v-.554h1.419v.176zm.744 10.471h-.624v-.406h.624v.406zm0-.522h-.624v-.203h.624v.203zm0-.316h-.624V25.8h.624v.167zm0-.281h-.624v-1.724h.624v1.724zm0-1.838h-.624v-.404h.624v.404zm0-.519h-.624v-.255h.373v-.114h-.373v-.22h.624v.589zm0-.702h-.624v-.521h.624v.521zm0-.636h-.624v-.318h.624v.318zm.556 4.814h-.436v-.406h.436v.406zm0-.522h-.436v-.203h.436v.203zm0-.316h-.436V25.8h.436v.167zm0-.281h-.436v-1.724h.436v1.724zm.615 1.119h-.493v-.406h.493v.406zm0-.522h-.493v-.203h.493v.203zm0-.316h-.493V25.8h.493v.167zm3.69 3.403h-.263v-1.777h.263v1.777zm0-2.565h-3.57v-.406h3.57v.406zm0-.522h-3.57v-.203h3.57v.203zm.12-.483h2.357v.167h-2.357V25.8zm0 .28h2.357v.203h-2.357v-.203zm2.363 1.399h-2.362v-.561h2.362v.561zm0-.674h-2.362v-.406h2.357v.059h.005v.347zm.917.674h-.797v-.561h.797v.561zm0-.674h-.797v-.349h.797v.349zm0-.522h-.797v-.316h-.005V25.8h.802v.483zm1.286 1.196h-1.165v-.561h1.165v.561zm0-.674h-1.165v-.349h1.165v.349zm0-.522h-1.165V25.8h1.165v.483zm0-.597h-1.165v-1.181h1.165v1.181zm1.081-1.433h.912v1.433h-.912v-1.433zm0 1.547h.912v.483h-.912V25.8zm-.961 0h.84v.483h-.84V25.8zm1.896 1.679h-1.896v-.561h1.896v.561zm0-.674h-1.896v-.349h.961v-.06h.912v.01h.023v.399zm1.043-1.005h1.539v.483h-1.539V25.8zm0 .606h2.055v.396h-2.055v-.396zm-.834-.606h.713v.483h-.713V25.8zm0 .606h.713v.396h-.713v-.396zm3.103 1.073h-3.103v-.561h.713v.111h2.297v-.111h.093v.561zm0-.674h-.093v-.397h.093v.397zm.813.674h-.693v-.561h.693v.561zm0-.674h-.693v-.397h.693v.397zm.514.674h-.393v-.561h.067v.561h.121v-.561h.203l.002.561zm0-.674h-.393v-.397h.393v.397zm3.012.674h-2.892v-.561h2.892v.561zm0-.674h-2.892v-.397h2.892v.397zm1.004-.513h-.886v-1.326h.886v1.326zm0-1.44h-.886v-.347h.885v.347zm0-6.207h-.016v.114h.016v.98h-.016v.114h.016v.781h-4.235v-2.587h4.235v.598zm0-.709h-4.235v-.483h4.235v.483zm0-.599h-4.235v-.51h4.235v.51zm0-.624h-4.235v-.554h4.235v.554zm.557 7.792h.712v.347h-1.15v-.347h.438zm-.438-8.346h4.2v.554h-4.2v-.554zm0 .668h4.2v.51h-4.2v-.51z" clip-path="url(#aO)"/></g><g><defs><path id="aP" d="M.224.224h31.551v31.551H.224z"/></defs><clipPath id="aQ"><use xlink:href="#aP" overflow="visible"/></clipPath><path fill="#64699B" d="M14.95 19.739h.973v.114h-.973z" clip-path="url(#aQ)"/></g><g><defs><path id="aR" d="M.224.224h31.551v31.551H.224z"/></defs><clipPath id="aS"><use xlink:href="#aR" overflow="visible"/></clipPath><path fill="#64699B" d="M28.574 19.739h.973v.114h-.973z" clip-path="url(#aS)"/></g><g><defs><path id="aT" d="M.224.224h31.551v31.551H.224z"/></defs><clipPath id="aU"><use xlink:href="#aT" overflow="visible"/></clipPath><path fill="#64699B" d="M24.682 19.739h.973v.114h-.973z" clip-path="url(#aU)"/></g><g><defs><path id="aV" d="M.224.224h31.551v31.551H.224z"/></defs><clipPath id="aW"><use xlink:href="#aV" overflow="visible"/></clipPath><path fill="#64699B" d="M22.734 19.739h.975v.114h-.975z" clip-path="url(#aW)"/></g><g><defs><path id="aX" d="M.224.224h31.551v31.551H.224z"/></defs><clipPath id="aY"><use xlink:href="#aX" overflow="visible"/></clipPath><path fill="#64699B" d="M22.734 18.645h.975v.114h-.975z" clip-path="url(#aY)"/></g><g><defs><path id="aZ" d="M.224.224h31.551v31.551H.224z"/></defs><clipPath id="ba"><use xlink:href="#aZ" overflow="visible"/></clipPath><path fill="#64699B" d="M9.111 19.739h.974v.114h-.974z" clip-path="url(#ba)"/></g><g><defs><path id="bb" d="M.224.224h31.551v31.551H.224z"/></defs><clipPath id="bc"><use xlink:href="#bb" overflow="visible"/></clipPath><path fill="#64699B" d="m9.415 18.706.176-.063h-.165a2.902 2.902 0 0 0-.011.063" clip-path="url(#bc)"/></g><g><defs><path id="bd" d="M.224.224h31.551v31.551H.224z"/></defs><clipPath id="be"><use xlink:href="#bd" overflow="visible"/></clipPath><path fill="#64699B" d="M14.95 18.645h.973v.114h-.973z" clip-path="url(#be)"/></g><g><defs><path id="bf" d="M.224.224h31.551v31.551H.224z"/></defs><clipPath id="bg"><use xlink:href="#bf" overflow="visible"/></clipPath><path fill="#64699B" d="M13.838 18.759h.139v-.114h-.326c.064.037.126.073.187.114" clip-path="url(#bg)"/></g><g><defs><path id="bh" d="M.224.224h31.551v31.551H.224z"/></defs><clipPath id="bi"><use xlink:href="#bh" overflow="visible"/></clipPath><path fill="#64699B" d="M7.596 19.339v.515h.542v-.115h-.422v-.4z" clip-path="url(#bi)"/></g><g><defs><path id="bj" d="M.224.224h31.551v31.551H.224z"/></defs><clipPath id="bk"><use xlink:href="#bj" overflow="visible"/></clipPath><path fill="#64699B" d="M8.138 18.645h-.543v.513h.121v-.399h.422z" clip-path="url(#bk)"/></g><g><defs><path id="bl" d="M.224.224h31.551v31.551H.224z"/></defs><clipPath id="bm"><use xlink:href="#bl" overflow="visible"/></clipPath><path fill="#64699B" d="M11.057 19.739h.974v.114h-.974z" clip-path="url(#bm)"/></g></g><g><defs><path id="bn" d="M.224.224h31.551v31.551H.224z"/></defs><clipPath id="bo"><use xlink:href="#bn" overflow="visible"/></clipPath><path fill="#282C63" d="M15.999.287C7.322.287.287 7.322.287 16c0 8.68 7.035 15.712 15.712 15.712 8.679 0 15.713-7.032 15.713-15.712 0-8.678-7.034-15.713-15.713-15.713m0 30.072c-7.931 0-14.36-6.43-14.36-14.359 0-7.931 6.429-14.361 14.36-14.361 7.933 0 14.36 6.43 14.36 14.361 0 7.932-6.427 14.359-14.36 14.359" clip-path="url(#bo)"/></g><g><defs><path id="bp" d="M1.702 16c0-7.884 6.414-14.298 14.297-14.298 7.884 0 14.298 6.414 14.298 14.298s-6.414 14.298-14.298 14.298C8.116 30.298 1.702 23.884 1.702 16M5.801 5.801A14.33 14.33 0 0 0 1.576 16c0 3.854 1.5 7.475 4.225 10.198a14.325 14.325 0 0 0 10.198 4.225c3.854 0 7.476-1.5 10.199-4.225A14.327 14.327 0 0 0 30.423 16c0-3.852-1.5-7.475-4.225-10.199a14.335 14.335 0 0 0-10.199-4.225A14.333 14.333 0 0 0 5.801 5.801M.349 16C.349 7.37 7.37.35 15.999.35c8.63 0 15.649 7.021 15.649 15.65s-7.021 15.65-15.649 15.65S.349 24.629.349 16M15.999.224A15.671 15.671 0 0 0 4.844 4.845C1.865 7.825.224 11.786.224 16s1.641 8.176 4.62 11.154a15.676 15.676 0 0 0 11.155 4.621c4.215 0 8.176-1.643 11.155-4.621 2.979-2.979 4.621-6.94 4.621-11.154s-1.643-8.175-4.621-11.155A15.668 15.668 0 0 0 15.999.224z"/></defs><clipPath id="bq"><use xlink:href="#bp" overflow="visible"/></clipPath><linearGradient id="br" x1="-578.73" x2="-578.667" y1=".804" y2=".804" gradientTransform="scale(502.7822) rotate(-69.658 -289.888 -415.477)" gradientUnits="userSpaceOnUse"><stop offset="0" stop-color="#a8a8a8"/><stop offset="1" stop-color="#e2e0ff"/></linearGradient><path fill="url(#br)" d="M-10.06 27.963 4.037-10.06 42.059 4.037 27.963 42.061z" clip-path="url(#bq)"/></g><g><defs><path id="bs" d="M.223.146h31.551v31.551H.223z"/></defs><clipPath id="bt"><use xlink:href="#bs" overflow="visible"/></clipPath><path fill="#282C63" d="M25.952 6.275c-.414-.41-.934-.618-1.542-.618-.38 0-.737.096-1.063.285s-.59.454-.777.788a2.16 2.16 0 0 0-.262.769H20.34V8.562h.892a.85.85 0 0 1-.109.107.99.99 0 0 1-.647.21c-.226 0-.426-.05-.611-.151a1.081 1.081 0 0 1-.426-.403 1.016 1.016 0 0 1-.004-1.053c.097-.166.231-.294.412-.393a1.197 1.197 0 0 1 1.092-.036c.18.077.35.193.504.344l.254.25.258-.245.262-.248.282-.268-.282-.267a2.743 2.743 0 0 0-.852-.57 2.495 2.495 0 0 0-.947-.183c-.415 0-.795.094-1.129.279a2.103 2.103 0 0 0-.985 1.19V5.742H14.941v.39a1.241 1.241 0 0 0-.612-.335c-.104-.023-.303-.055-.844-.055H9.102l-.097.222-.796 1.824-.781-1.823-.096-.223h-1.17l.221.514L7.83 9.629l.096.224H8.485l.096-.222 1.33-3.056v3.277H13.52V8.751l.744.959.111.143h2.401V6.81h.453v3.043h1.074V8.47c.084.252.219.487.402.702.434.509 1.027.767 1.761.767.612 0 1.115-.191 1.491-.568.219-.219.375-.481.469-.784.104.268.266.513.484.73a2.09 2.09 0 0 0 1.527.622c.593 0 1.104-.21 1.518-.625.413-.414.623-.924.623-1.517 0-.599-.21-1.11-.626-1.522m-13.508 2.51h-1.459v-.588h1.459v.588zm0-1.655h-1.459v-.32h1.459v.32zm1.075-.32h.227c.268 0 .351.03.359.033.029.012.05.03.07.06a.18.18 0 0 1 .031.105c0 .045-.01.081-.032.116a.15.15 0 0 1-.079.062c-.022.009-.115.039-.362.039l-.214-.003V6.81zm2.175 2.674v.331l-.432-.557-.823-1.062a1.177 1.177 0 0 0 .668-.508c.123-.198.185-.426.185-.679 0-.068-.005-.135-.015-.199H15.693l.001 2.674zm7.819-2.227c.094-.164.221-.291.389-.389.166-.098.338-.146.523-.146.19 0 .366.048.538.146.17.098.298.224.392.384.093.162.138.338.138.543 0 .206-.045.387-.14.553a.997.997 0 0 1-.383.382 1.071 1.071 0 0 1-.545.142c-.294 0-.537-.101-.744-.308a1.013 1.013 0 0 1-.309-.753c0-.207.045-.389.141-.554" clip-path="url(#bt)"/></g><g><defs><path id="bu" d="M11.047 8.26h1.333v.462h-1.333V8.26zm-.125.588h1.585v-.714h-1.585v.714zm.125-1.975h1.333v.194h-1.333v-.194zm-.125.32h1.585v-.446h-1.585v.446zm2.66-.034v-.286h.164c.258 0 .335.028.336.029a.085.085 0 0 1 .042.036c.014.021.02.042.02.07a.138.138 0 0 1-.022.082.091.091 0 0 1-.049.038c-.009.004-.092.034-.339.034l-.152-.003zm-.126-.412v.537l.276.002c.251 0 .354-.029.385-.042a.218.218 0 0 0 .108-.086.26.26 0 0 0 .042-.15.245.245 0 0 0-.041-.14.202.202 0 0 0-.1-.083c-.022-.009-.115-.038-.382-.038h-.288zm10.268 1.774a.957.957 0 0 1-.289-.709c0-.197.043-.368.133-.523a.946.946 0 0 1 .365-.367.983.983 0 0 1 .998.002.96.96 0 0 1 .498.872c0 .195-.043.366-.131.521a.952.952 0 0 1-.359.359c-.157.09-.326.134-.514.134a.951.951 0 0 1-.701-.289m.145-1.707a1.082 1.082 0 0 0-.412.413 1.136 1.136 0 0 0-.147.585c0 .318.106.58.326.798.221.219.479.325.789.325.211 0 .398-.049.575-.15.176-.1.31-.233.406-.406.1-.175.147-.366.147-.583 0-.215-.049-.403-.146-.574a1.077 1.077 0 0 0-.413-.407 1.123 1.123 0 0 0-.569-.155c-.197 0-.378.05-.556.154m-9.326 1.412.055-.023c.241-.106.43-.269.563-.483.129-.208.194-.447.194-.712 0-.045-.002-.09-.006-.136h.283v2.759l-1.089-1.405zM22.46 6.8c-.102.201-.17.414-.206.636h-.466l.672-.636zm-2.566 1.873a1.01 1.01 0 0 1-.399-.381.954.954 0 0 1-.144-.502c0-.171.045-.33.137-.485a.99.99 0 0 1 .391-.37 1.131 1.131 0 0 1 1.036-.034c.172.074.336.186.483.332l.207.203h-1.33v1.189h.804c-.161.129-.356.191-.603.191a1.173 1.173 0 0 1-.582-.143m.505-1.112h1.963l.008-.054c.036-.264.122-.516.252-.747a2.036 2.036 0 0 1 1.788-1.04c.591 0 1.096.202 1.498.6.403.399.606.896.606 1.477 0 .575-.203 1.071-.604 1.473a2.012 2.012 0 0 1-1.474.606c-.582 0-1.08-.203-1.481-.603a2.05 2.05 0 0 1-.472-.709l-.064-.168-.053.172a1.825 1.825 0 0 1-.454.758c-.363.365-.851.55-1.446.55-.714 0-1.29-.251-1.714-.745a2.028 2.028 0 0 1-.39-.681l-.121-.366V9.79h-.95V6.747h-.578V9.79h-.957V6.747h-.551l.01.071c.009.066.013.128.013.19 0 .241-.059.458-.175.646a1.117 1.117 0 0 1-.632.482l-.085.027 1.26 1.626h-1.191l-.948-1.224v1.224H9.973V6.274L8.443 9.79h-.476l-1.71-3.985H7.29l.918 2.141.934-2.141h4.342c.535 0 .73.03.83.053.229.052.425.16.583.318l.107.108v-.479h3.237v1.712l.121-.37c.046-.138.104-.272.179-.396a2.02 2.02 0 0 1 .776-.759c.324-.18.693-.271 1.099-.271.325 0 .635.06.924.178.285.117.566.305.832.558l.234.222-.71.673-.211-.207a1.702 1.702 0 0 0-.524-.357 1.355 1.355 0 0 0-.534-.119c-.214 0-.412.052-.609.157-.189.104-.334.24-.438.416a1.055 1.055 0 0 0-.154.55c0 .199.053.385.16.567.109.182.256.321.447.427.195.107.407.159.645.159.276 0 .5-.074.687-.225a.853.853 0 0 0 .118-.114l.089-.104h-.97v-.941h-.003zm2.914-1.674a2.18 2.18 0 0 0-.766.752l-.29-.275a2.817 2.817 0 0 0-.872-.583 2.559 2.559 0 0 0-.971-.187c-.426 0-.816.097-1.159.287a2.139 2.139 0 0 0-.823.806c-.023.041-.047.082-.067.124V5.679h-3.487v.313a1.335 1.335 0 0 0-.536-.256c-.106-.024-.311-.057-.858-.057H9.06L8.21 7.63l-.837-1.951H6.066l1.818 4.237h.641l1.322-3.039v3.039h3.734v-.982l.761.982h1.35l.064.083v-.083h1.082V6.873h.327v3.043h1.2V8.78c.079.152.175.297.292.432.447.523 1.056.789 1.809.789.631 0 1.146-.197 1.535-.586.188-.187.332-.407.432-.657.105.219.252.421.435.604.427.424.955.64 1.571.64a2.14 2.14 0 0 0 1.562-.643c.426-.426.642-.952.642-1.562 0-.615-.218-1.143-.644-1.566-.427-.422-.961-.637-1.587-.637-.393 0-.761.099-1.099.293"/></defs><clipPath id="bv"><use xlink:href="#bu" overflow="visible"/></clipPath><linearGradient id="bw" x1="-577.499" x2="-577.435" y1="1.085" y2="1.085" gradientTransform="translate(189239.984 -347.719) scale(327.6787)" gradientUnits="userSpaceOnUse"><stop offset="0" stop-color="#a8a8a8"/><stop offset="1" stop-color="#e2e0ff"/></linearGradient><path fill="url(#bw)" d="M6.066 5.594H26.64v4.407H6.066z" clip-path="url(#bv)"/></g></svg>