<svg width="256" height="256" viewBox="0 0 256 256" fill="none" xmlns="http://www.w3.org/2000/svg">
<path fill-rule="evenodd" clip-rule="evenodd" d="M46.1627 65.1288C48.9692 58.4065 46.1719 52.2435 38.8898 41.0561C48.0822 41.9206 52.7163 43.2836 59.8955 45.3953L60.2176 45.49C70.2827 38.8855 77.2782 38.3906 91.7012 42.1234C94.4311 48.6789 95.4337 46.4297 97.3134 42.213C99.2852 37.7899 102.222 31.2019 109.13 30.3401C110.638 32.0609 113.056 31.7203 115.97 31.3096C120.659 30.649 126.633 29.8072 132.18 37.0734C133.916 45.4449 136.544 43.7175 140.371 41.2021C143.95 38.85 148.577 35.8089 154.503 39.6908L154.584 39.7441L154.636 39.779L154.668 39.8009C158.225 41.912 164.759 30.0749 164.226 25.2901C164.788 13.5069 176.595 10.1402 179.406 32.0234C185.59 37.6345 187.276 44.9289 177.343 53.9066C179.285 59.9448 178.112 62.2709 173.784 65.1288C180.601 63.8916 184.417 63.4403 191.212 65.6899C191.486 76.1412 193.621 81.7768 200.207 91.5009C209.307 97.1378 209.125 101.901 208.946 106.57C208.806 110.236 208.669 113.844 213.026 117.772C210.912 126.642 213.711 127.911 224.382 124.606C225.288 131.623 230.228 131.754 241.811 129.606C257.973 144.485 251.702 154.963 231.691 159.956C221.293 163.031 221.711 168.476 222.283 175.929C222.546 179.356 222.842 183.209 222.133 187.45C223.258 196.428 214.262 207.089 208.078 203.723C205.187 202.149 202.061 202.236 199.058 202.321C194.388 202.452 190.014 202.575 187.276 196.428C185.659 198.503 183.59 199.549 181.509 200.601C178.525 202.109 175.517 203.629 173.784 208.212C169.63 206.617 167.111 208.103 164.781 209.478C163.011 210.522 161.35 211.502 159.166 211.017C160.15 215.598 158.074 218.271 155.838 221.15C154.24 223.208 152.56 225.371 151.857 228.411C155.847 233.77 149.822 234.872 146.025 235.566C144.76 235.797 143.742 235.984 143.424 236.267C140.135 244.714 131.244 236.535 136.116 234.022C132.775 228.999 132.672 227.234 134.991 225.606C133.867 217.75 120.936 217.189 125.996 224.484C125.996 227.64 124.379 228.155 122.573 228.73C120.847 229.28 118.949 229.884 118.125 232.9C112.978 231.759 111.031 227.569 109.176 223.58C107.384 219.725 105.679 216.057 101.259 215.506C95.0861 219.33 90.928 223.314 87.7777 226.333C82.6073 231.288 80.1517 233.641 75.9594 228.411C73.471 230.938 69.3281 237.027 69.213 237.389C68.8002 236.977 68.4024 236.576 68.0184 236.19C63.6956 231.835 61.1272 229.247 58.7083 232.339C55.3236 227.293 54.3953 222.819 53.5641 218.814C52.5931 214.135 51.7547 210.095 47.2869 206.528C51.5777 204.857 52.5924 202.685 52.3467 196.989C51.4802 189.375 48.9734 187.221 39.9782 188.012C36.749 185.756 37.9712 183.5 39.5966 180.499C40.8011 178.276 42.227 175.644 42.227 172.301C36.2589 165.43 33.8396 161.283 31.5451 153.223C25.923 161.078 16.9615 159.776 9.0571 150.978C7.60031 150.95 7.81533 149.661 8.0508 148.249C8.2257 147.201 8.41188 146.085 7.93263 145.367C4.55977 143.123 3.51958 133.5 7.93263 125.167C18.367 131.686 24.9917 130.964 38.854 117.873C43.5491 114.51 44.6489 110.681 46.1627 103.284C38.4302 95.4884 35.9422 90.4268 34.3564 80.2787C50.6604 72.9843 54.0954 66.1067 46.1627 65.1288ZM119.321 147.887C119.321 143.728 119.974 140.14 121.281 137.122C122.671 134.024 124.468 131.659 126.674 130.028C129.207 128.071 131.25 126.603 132.802 125.624C137.705 122.362 140.156 118.122 140.156 112.903V109.233C140.156 105.563 138.971 103.076 136.602 101.771C134.314 100.467 130.351 99.8143 124.713 99.8143C118.994 99.8143 111.191 100.671 101.304 102.383V93.4536C109.638 91.9042 118.217 91.1295 127.042 91.1295C135.866 91.1295 142.199 92.4342 146.039 95.0438C149.961 97.6533 151.922 102.098 151.922 108.377V114.493C151.922 117.51 151.391 120.242 150.328 122.688C149.266 125.053 147.877 126.97 146.161 128.438C142.893 131.373 139.298 133.983 135.376 136.266C133.66 137.326 132.271 138.672 131.209 140.303C130.147 141.934 129.616 143.687 129.616 145.563V150.822H119.321V147.887ZM131.454 158.529H117.237V171.739H131.454V158.529Z" fill="#058255"/>
</svg>
