<?xml version="1.0" encoding="UTF-8"?>
<svg viewBox="0 0 24 16" fill="none" xmlns="http://www.w3.org/2000/svg" height="24" width="24" class="Icon__StyledISvg-sc-8e6e6ae7-1 cnnTQp">
  <path d="M21.82 0H2.18C.977 0 0 .97 0 2.165v11.67C0 15.03.976 16 2.18 16h19.64c1.204 0 2.18-.97 2.18-2.165V2.165A2.173 2.173 0 0 0 21.82 0z" fill="#4E4E4E"></path>
  <path d="M15.75 4.723c0-.06-.07-.075-.1-.03-.906 1.48-1.43 2.317-1.884 3.095H8.323c-.071 0-.1.09-.043.12 2.254.897 5.514 2.258 7.342 3.006.043.014.128-.03.128-.06V4.723z" fill="#121212"></path>
</svg>
